<?xml version="1.0" encoding="utf-8"?>
<!-- Generator: Adobe Illustrator 22.1.0, SVG Export Plug-In . SVG Version: 6.00 Build 0)  -->
<svg version="1.1" id="Layer_1" xmlns="http://www.w3.org/2000/svg" xmlns:xlink="http://www.w3.org/1999/xlink" x="0px" y="0px"
	 viewBox="0 0 77 70" style="enable-background:new 0 0 77 70;" xml:space="preserve">
<style type="text/css">
	.st0{fill:#340458;}
</style>
<path class="st0" d="M76.2,29.5L47.5,0.9c-0.7-0.7-1.9-0.7-2.7,0l-4.5,4.5c-0.4,0.3-0.6,0.7-0.6,1.2s0.2,1,0.6,1.4l21.8,21.7H2
	c-1,0-1.9,0.9-1.9,1.9V38c0,1,0.9,1.9,1.9,1.9h60.1L40.3,61.8c-0.7,0.7-0.7,1.9,0,2.7l4.5,4.5c0.4,0.4,0.9,0.6,1.3,0.6
	c0.5,0,1-0.2,1.3-0.6l28.8-28.9c0.3-0.3,0.6-0.8,0.6-1.3v-7.9C76.8,30.3,76.6,29.8,76.2,29.5z"/>
</svg>
