<?xml version="1.0" encoding="utf-8"?>
<!-- Generator: Adobe Illustrator 22.1.0, SVG Export Plug-In . SVG Version: 6.00 Build 0)  -->
<svg version="1.1" id="Layer_1" xmlns="http://www.w3.org/2000/svg" xmlns:xlink="http://www.w3.org/1999/xlink" x="0px" y="0px"
	 viewBox="0 0 18 18" style="enable-background:new 0 0 18 18;" xml:space="preserve">
<style type="text/css">
	.st0{fill:#FFFFFF;}
</style>
<path class="st0" d="M17.9,16.4c0-0.2-0.1-0.3-0.2-0.5l-7-6.9l7-7c0.1-0.1,0.2-0.3,0.2-0.5c0-0.1-0.1-0.3-0.3-0.5l-0.7-0.7
	C16.6,0,16.2,0,16,0.3L9,7.4L2,0.3C1.7,0,1.3,0,1,0.3L0.4,1C0.3,1.2,0.2,1.3,0.2,1.5S0.3,1.8,0.4,2l6.9,7l-7,7
	c-0.2,0.2-0.2,0.3-0.2,0.5s0.1,0.3,0.2,0.5L1,17.6c0.3,0.3,0.7,0.3,0.9,0l7-7.1L9,10.6l7,7c0.2,0.2,0.3,0.2,0.5,0.2s0.3-0.1,0.5-0.2
	l0.7-0.7C17.9,16.7,17.9,16.6,17.9,16.4z"/>
</svg>
