<?xml version="1.0" encoding="utf-8"?>
<!-- Generator: Adobe Illustrator 22.1.0, SVG Export Plug-In . SVG Version: 6.00 Build 0)  -->
<svg version="1.1" id="Layer_1" xmlns="http://www.w3.org/2000/svg" xmlns:xlink="http://www.w3.org/1999/xlink" x="0px" y="0px"
	 viewBox="0 0 100 100" style="enable-background:new 0 0 100 100;" xml:space="preserve">
<style type="text/css">
	.st0{fill:none;stroke:#F6F3FA;stroke-width:10;stroke-linecap:round;stroke-linejoin:round;stroke-miterlimit:10;}
	.st1{fill:#F4F0FA;}
	.st2{fill:#340458;}
</style>
<g>
	<g>
		<path class="st0" d="M-151.4,34"/>
	</g>
</g>
<path class="st1" d="M50,0.5c-8.8,0-17.4,1.2-25.5,3.5C16.3,6.3,8.3,9.6,0.9,13.7c-0.2,0.1-0.4,0.2-0.4,0.6v71.3
	c0,0.4,0.2,0.5,0.3,0.6c7.5,4.2,15.4,7.4,23.6,9.7c8.2,2.3,16.8,3.5,25.5,3.5c8.8,0,17.4-1.2,25.6-3.5s16.1-5.6,23.5-9.7
	c0.2-0.1,0.4-0.2,0.4-0.6l-0.1-71.5c-0.1-0.4-0.2-0.4-0.3-0.5c-7.3-4-15.3-7.3-23.4-9.6C67.4,1.7,58.8,0.5,50,0.5z"/>
<path class="st2" d="M37.6,41h5.3v-5.3c0-2.2,0-5.9,1.5-7.9c1.5-2.2,4.2-3.7,8.6-3.7c6.9,0,9.6,1.1,9.6,1.1l-1.5,7.9
	c0,0-2.2-0.5-4.2-0.5c-2.1,0-3.7,0.5-3.7,2.6V41h8.6l-0.5,7.9h-8v27.2H42.9V48.9h-5.3C37.6,48.9,37.6,41,37.6,41z"/>
</svg>
