<?xml version="1.0" encoding="utf-8"?>
<!-- Generator: Adobe Illustrator 22.1.0, SVG Export Plug-In . SVG Version: 6.00 Build 0)  -->
<svg version="1.1" id="Layer_1" xmlns="http://www.w3.org/2000/svg" xmlns:xlink="http://www.w3.org/1999/xlink" x="0px" y="0px"
	 viewBox="0 0 14 18" style="enable-background:new 0 0 14 18;" xml:space="preserve">
<style type="text/css">
	.st0{fill:#340458;}
</style>
<path class="st0" d="M13.6,8.6h-0.8v6.6c0,0.2-0.2,0.4-0.4,0.4H9.3c-0.1,0-0.2-0.1-0.2-0.2v-3.7c0-0.1-0.1-0.2-0.2-0.2H5
	c-0.1,0-0.2,0.1-0.2,0.2v3.7c0,0.1-0.1,0.2-0.2,0.2H1.4c-0.2,0-0.4-0.2-0.4-0.4V8.6H0.2C0.1,8.6,0,8.3,0.1,8l6.6-5.8
	c0.1-0.1,0.2-0.1,0.4,0L13.8,8C14,8.3,13.8,8.6,13.6,8.6z"/>
</svg>
