<?xml version="1.0" encoding="utf-8"?>
<!-- Generator: Adobe Illustrator 23.0.1, SVG Export Plug-In . SVG Version: 6.00 Build 0)  -->
<svg version="1.1" id="Layer_1" xmlns="http://www.w3.org/2000/svg" xmlns:xlink="http://www.w3.org/1999/xlink" x="0px" y="0px"
	 viewBox="0 0 660 75" style="enable-background:new 0 0 660 75;" xml:space="preserve">
<style type="text/css">
	.st0{fill:#FFFFFF;}
</style>
<path class="st0" d="M374.03,24.57l11.04,0c0.34,0,0.52,0.16,0.52,0.48v2.79c0,0.34-0.17,0.52-0.52,0.52l-14.72,0
	c-0.32,0-0.48-0.17-0.48-0.52l0-23.57c0-0.34,0.16-0.52,0.48-0.52l14.24,0c0.35,0,0.52,0.17,0.52,0.52v2.79
	c0,0.32-0.17,0.48-0.52,0.48l-10.56,0v6.43l9.67,0c0.34,0,0.52,0.17,0.52,0.52v2.75c0,0.34-0.17,0.52-0.52,0.52l-9.67,0
	L374.03,24.57z"/>
<path class="st0" d="M393.6,21.48c0,1.31,0.34,2.27,1.02,2.87c0.68,0.61,1.63,0.91,2.87,0.91c0.66,0,1.28-0.09,1.84-0.26
	c0.56-0.17,1.05-0.41,1.46-0.7V14.12c-0.41-0.18-0.91-0.31-1.48-0.38c-0.57-0.07-1.16-0.1-1.76-0.1c-1.24,0-2.21,0.29-2.91,0.88
	c-0.7,0.58-1.05,1.62-1.05,3.11V21.48z M389.58,17.66c0-1.31,0.19-2.43,0.58-3.37s0.94-1.72,1.65-2.34c0.71-0.62,1.54-1.08,2.5-1.38
	c0.95-0.3,2-0.45,3.15-0.45c1.12,0,2.3,0.1,3.54,0.31c1.24,0.21,2.37,0.51,3.41,0.89c0.25,0.14,0.38,0.33,0.38,0.59l0,22.46
	c0,0.34-0.17,0.52-0.52,0.52h-2.96c-0.34,0-0.52-0.17-0.52-0.52v-6.36c-0.53,0.23-1.1,0.41-1.7,0.55c-0.61,0.14-1.26,0.21-1.94,0.21
	c-1.1,0-2.11-0.17-3.03-0.52c-0.92-0.34-1.71-0.83-2.39-1.46c-0.68-0.63-1.2-1.4-1.58-2.3c-0.38-0.91-0.57-1.92-0.57-3.04V17.66z"/>
<path class="st0" d="M424.22,10.54c0.34,0,0.52,0.16,0.52,0.48l0,15.76c0,0.3-0.12,0.5-0.38,0.62c-0.99,0.44-2.05,0.77-3.2,1.02
	c-1.15,0.24-2.33,0.36-3.54,0.36c-1.17,0-2.24-0.14-3.2-0.43c-0.96-0.29-1.8-0.74-2.49-1.38c-0.7-0.63-1.24-1.43-1.62-2.41
	c-0.38-0.98-0.57-2.15-0.57-3.53V11.02c0-0.32,0.17-0.48,0.52-0.48h2.99c0.32,0,0.48,0.16,0.48,0.48l0,9.94
	c0,0.8,0.09,1.48,0.26,2.03c0.17,0.55,0.42,0.99,0.76,1.31c0.33,0.32,0.74,0.55,1.22,0.69c0.48,0.14,1.03,0.21,1.65,0.21
	c0.57,0,1.14-0.04,1.7-0.1c0.56-0.07,1.04-0.17,1.43-0.31V11.02c0-0.32,0.16-0.48,0.48-0.48H424.22z"/>
<path class="st0" d="M433.26,21.44c0,1.38,0.25,2.35,0.76,2.92c0.5,0.57,1.34,0.86,2.51,0.86c0.6,0,1.26-0.16,1.98-0.47
	c0.72-0.31,1.35-0.76,1.87-1.36v-9.39c-0.46-0.12-0.98-0.2-1.58-0.26c-0.6-0.06-1.17-0.09-1.72-0.09c-0.5,0-0.99,0.07-1.44,0.22
	c-0.46,0.15-0.87,0.38-1.22,0.69c-0.36,0.31-0.64,0.7-0.84,1.17c-0.21,0.47-0.31,1.03-0.31,1.67L433.26,21.44z M440.8,26.57
	c-0.6,0.71-1.34,1.26-2.22,1.63c-0.88,0.38-1.81,0.57-2.77,0.57c-0.87,0-1.7-0.14-2.49-0.41c-0.79-0.27-1.49-0.71-2.1-1.29
	c-0.61-0.59-1.09-1.34-1.44-2.27c-0.36-0.93-0.53-2.06-0.53-3.39v-3.96c0-1.26,0.22-2.35,0.65-3.27c0.44-0.92,1.01-1.67,1.74-2.27
	c0.72-0.6,1.57-1.04,2.53-1.34c0.96-0.3,1.97-0.45,3.03-0.45c1.12,0,2.26,0.1,3.42,0.31c1.16,0.21,2.29,0.5,3.39,0.89
	c0.25,0.11,0.38,0.3,0.38,0.55l0,15.96c0,0.34-0.16,0.52-0.48,0.52h-2.34c-0.32,0-0.5-0.15-0.55-0.45L440.8,26.57z"/>
<path class="st0" d="M457.1,28.67c-0.6,0.07-1.25,0.1-1.96,0.1c-1.86,0-3.28-0.59-4.27-1.75c-0.99-1.17-1.48-2.81-1.48-4.92l0-17.82
	c0-0.34,0.17-0.52,0.52-0.52l2.96,0c0.34,0,0.52,0.17,0.52,0.52l0,17.68c0,1.15,0.18,1.96,0.55,2.44c0.37,0.48,0.94,0.72,1.72,0.72
	c0.21,0,0.42,0,0.64-0.02c0.22-0.01,0.44-0.03,0.67-0.05c0.34,0,0.52,0.17,0.52,0.52v2.55c0,0.14-0.03,0.26-0.09,0.36
	C457.34,28.58,457.24,28.64,457.1,28.67"/>
<path class="st0" d="M461.27,28.36c-0.34,0-0.52-0.17-0.52-0.52l0-16.82c0-0.32,0.17-0.48,0.52-0.48l2.99,0
	c0.32,0,0.48,0.16,0.48,0.48v16.82c0,0.34-0.16,0.52-0.48,0.52H461.27z M465.02,5.86c0,0.64-0.21,1.18-0.62,1.62
	c-0.41,0.44-0.95,0.65-1.62,0.65c-0.64,0-1.18-0.22-1.62-0.65c-0.44-0.44-0.65-0.97-0.65-1.62c0-0.67,0.22-1.2,0.65-1.62
	c0.43-0.41,0.97-0.62,1.62-0.62c0.67,0,1.2,0.21,1.62,0.62C464.81,4.66,465.02,5.2,465.02,5.86"/>
<path class="st0" d="M474.49,24.35c0.47,0.52,1.14,0.77,2.01,0.77c0.16,0,0.36,0,0.62-0.02s0.52-0.03,0.79-0.05
	c0.37,0,0.55,0.16,0.55,0.48v2.61c0,0.14-0.04,0.26-0.1,0.36c-0.07,0.1-0.2,0.16-0.38,0.19c-0.3,0.02-0.61,0.04-0.95,0.05
	c-0.33,0.01-0.63,0.02-0.88,0.02c-0.89,0-1.73-0.12-2.51-0.36c-0.78-0.24-1.45-0.61-2.01-1.12c-0.56-0.5-1.01-1.16-1.34-1.96
	c-0.33-0.8-0.5-1.78-0.5-2.92V6.69c0-0.32,0.17-0.48,0.52-0.48l2.62,0c0.3,0,0.47,0.15,0.52,0.45l0.31,4.13l3.68,0
	c0.34,0,0.52,0.16,0.52,0.48v2.51c0,0.32-0.17,0.48-0.52,0.48l-3.65,0v7.88C473.79,23.09,474.02,23.83,474.49,24.35"/>
<path class="st0" d="M493.02,11.02c0-0.32,0.17-0.48,0.52-0.48l2.96,0c0.34,0,0.52,0.16,0.52,0.48l0,16.2c0,2.66-0.62,4.66-1.86,6
	c-1.24,1.34-3.18,2.01-5.81,2.01c-1.47,0-2.74-0.18-3.8-0.53c-1.07-0.36-2.05-0.9-2.94-1.63c-0.25-0.18-0.29-0.41-0.1-0.69l1.48-2.1
	c0.18-0.3,0.4-0.36,0.65-0.17c0.66,0.46,1.38,0.84,2.13,1.14c0.75,0.3,1.6,0.45,2.54,0.45c0.6,0,1.13-0.07,1.62-0.21
	c0.48-0.14,0.88-0.38,1.2-0.72c0.32-0.34,0.56-0.8,0.72-1.38c0.16-0.57,0.23-1.3,0.21-2.17c-0.55,0.18-1.14,0.33-1.77,0.45
	c-0.63,0.11-1.27,0.17-1.91,0.17c-0.89,0-1.78-0.14-2.66-0.43c-0.88-0.29-1.67-0.72-2.36-1.31c-0.69-0.58-1.25-1.31-1.68-2.18
	c-0.44-0.87-0.65-1.9-0.65-3.1v-9.8c0-0.32,0.17-0.48,0.52-0.48l2.99,0c0.32,0,0.48,0.16,0.48,0.48l0,9.63
	c0,0.67,0.11,1.23,0.33,1.69c0.22,0.46,0.5,0.83,0.86,1.1c0.35,0.28,0.77,0.48,1.24,0.6c0.47,0.13,0.97,0.19,1.5,0.19
	c0.6,0.02,1.17-0.04,1.7-0.17c0.54-0.14,1-0.31,1.39-0.52V11.02z"/>
<path class="st0" d="M518.82,6.93c-0.41-0.07-0.93-0.1-1.55-0.1c-0.92,0-1.61,0.28-2.08,0.84c-0.47,0.56-0.71,1.34-0.71,2.32v0.79
	l3.96,0c0.34,0,0.52,0.17,0.52,0.52v2.48c0,0.34-0.17,0.52-0.52,0.52h-3.96v13.55c0,0.34-0.17,0.51-0.52,0.51h-2.96
	c-0.34,0-0.52-0.17-0.52-0.51l0-17.85c0-1.1,0.16-2.07,0.48-2.91c0.32-0.84,0.76-1.53,1.32-2.08c0.56-0.55,1.22-0.96,1.96-1.24
	c0.74-0.27,1.54-0.41,2.39-0.41c0.87,0,1.57,0.05,2.1,0.14c0.32,0.02,0.48,0.21,0.48,0.55v2.37C519.23,6.76,519.09,6.93,518.82,6.93
	"/>
<path class="st0" d="M526.01,21.82c0,1.1,0.33,1.94,0.98,2.51c0.65,0.57,1.6,0.86,2.84,0.86c1.24,0,2.18-0.29,2.84-0.86
	c0.65-0.57,0.98-1.41,0.98-2.51v-4.61c0-1.15-0.33-2.02-0.98-2.62c-0.65-0.6-1.6-0.89-2.84-0.89c-1.24,0-2.18,0.3-2.84,0.89
	c-0.65,0.6-0.98,1.47-0.98,2.62V21.82z M537.67,21.82c0,1.08-0.19,2.04-0.55,2.89c-0.37,0.85-0.9,1.58-1.58,2.18
	c-0.69,0.61-1.51,1.07-2.48,1.39c-0.96,0.32-2.04,0.48-3.23,0.48c-1.19,0-2.27-0.16-3.23-0.48c-0.96-0.32-1.79-0.78-2.48-1.39
	c-0.69-0.61-1.21-1.34-1.58-2.18c-0.37-0.85-0.55-1.81-0.55-2.89l0-4.61c0-1.08,0.18-2.05,0.55-2.92c0.37-0.87,0.89-1.62,1.58-2.24
	c0.69-0.62,1.51-1.09,2.48-1.43c0.96-0.33,2.04-0.5,3.23-0.5c1.19,0,2.27,0.17,3.23,0.5c0.96,0.33,1.79,0.81,2.48,1.43
	c0.69,0.62,1.21,1.37,1.58,2.24c0.36,0.87,0.55,1.85,0.55,2.92V21.82z"/>
<path class="st0" d="M542.72,28.36c-0.34,0-0.52-0.17-0.52-0.52l0-15.82c0-0.3,0.13-0.49,0.38-0.59c0.87-0.43,1.83-0.76,2.87-0.98
	c1.04-0.22,2.09-0.33,3.15-0.33c0.53,0,1.08,0.02,1.65,0.05c0.57,0.03,1.19,0.11,1.86,0.22c0.3,0.02,0.45,0.2,0.45,0.52v2.48
	c0,0.34-0.18,0.48-0.55,0.41c-0.44-0.07-0.9-0.11-1.38-0.12c-0.48-0.01-0.95-0.02-1.41-0.02c-0.62,0-1.2,0.05-1.74,0.14
	c-0.54,0.09-0.97,0.21-1.29,0.34l0,13.69c0,0.34-0.17,0.52-0.52,0.52L542.72,28.36z"/>
<path class="st0" d="M372.62,59.83c0,1.49,0.35,2.53,1.05,3.13c0.7,0.6,1.67,0.89,2.91,0.89c0.6,0,1.18-0.04,1.75-0.12
	c0.57-0.08,1.07-0.2,1.48-0.36V53.16c-0.41-0.27-0.9-0.49-1.46-0.65c-0.56-0.16-1.18-0.24-1.84-0.24c-1.24,0-2.2,0.3-2.87,0.89
	c-0.68,0.6-1.01,1.55-1.01,2.86L372.62,59.83z M379.81,42.87c0-0.34,0.17-0.52,0.52-0.52l2.96,0c0.34,0,0.52,0.17,0.52,0.52l0,22.67
	c0,0.3-0.13,0.49-0.38,0.59c-1.03,0.39-2.17,0.69-3.4,0.91c-1.24,0.22-2.42,0.33-3.54,0.33c-1.15,0-2.2-0.15-3.15-0.45
	c-0.95-0.3-1.78-0.76-2.49-1.38c-0.71-0.62-1.26-1.4-1.65-2.36c-0.39-0.95-0.59-2.08-0.59-3.39v-3.78c0-1.12,0.19-2.13,0.57-3.03
	c0.38-0.89,0.9-1.66,1.56-2.29c0.67-0.63,1.46-1.12,2.37-1.46c0.92-0.34,1.92-0.52,2.99-0.52c0.69,0,1.35,0.07,1.98,0.21
	c0.63,0.14,1.21,0.32,1.74,0.55V42.87z"/>
<path class="st0" d="M389.44,66.95c-0.34,0-0.52-0.17-0.52-0.52V49.61c0-0.32,0.17-0.48,0.52-0.48l2.99,0
	c0.32,0,0.48,0.16,0.48,0.48l0,16.82c0,0.34-0.16,0.52-0.48,0.52H389.44z M393.19,44.45c0,0.64-0.21,1.18-0.62,1.62
	c-0.41,0.44-0.95,0.65-1.62,0.65c-0.64,0-1.18-0.22-1.62-0.65c-0.44-0.44-0.65-0.97-0.65-1.62c0-0.67,0.22-1.2,0.65-1.62
	c0.43-0.41,0.97-0.62,1.62-0.62c0.66,0,1.2,0.21,1.62,0.62C392.98,43.25,393.19,43.79,393.19,44.45"/>
<path class="st0" d="M411.49,61.65c0,0.96-0.19,1.8-0.57,2.51c-0.38,0.71-0.9,1.31-1.55,1.79c-0.65,0.48-1.42,0.84-2.3,1.07
	c-0.88,0.23-1.84,0.34-2.87,0.34c-1.17,0-2.35-0.17-3.54-0.52c-1.19-0.34-2.34-0.92-3.44-1.72c-0.28-0.16-0.32-0.39-0.14-0.69
	l1.31-2.24c0.16-0.3,0.39-0.34,0.69-0.14c0.78,0.57,1.62,1.01,2.51,1.31c0.89,0.3,1.79,0.45,2.68,0.45c0.89,0,1.65-0.17,2.27-0.5
	c0.62-0.33,0.93-0.83,0.93-1.5c0-0.34-0.09-0.63-0.27-0.86c-0.18-0.23-0.43-0.42-0.74-0.57c-0.31-0.15-0.65-0.27-1.03-0.36
	c-0.38-0.09-0.76-0.17-1.15-0.24c-0.64-0.11-1.36-0.28-2.17-0.5c-0.8-0.22-1.56-0.54-2.27-0.96c-0.71-0.42-1.31-0.98-1.79-1.67
	c-0.48-0.69-0.72-1.55-0.72-2.58c0-0.96,0.21-1.78,0.62-2.46c0.41-0.68,0.96-1.23,1.65-1.67c0.69-0.44,1.47-0.76,2.34-0.96
	c0.87-0.21,1.77-0.31,2.68-0.31c0.99,0,1.97,0.13,2.96,0.38c0.98,0.25,2,0.65,3.03,1.2c0.3,0.16,0.36,0.39,0.17,0.69l-1.31,2.2
	c-0.18,0.25-0.41,0.31-0.69,0.17c-0.64-0.34-1.34-0.62-2.08-0.83c-0.74-0.21-1.51-0.31-2.29-0.31c-1.03,0-1.81,0.17-2.34,0.52
	c-0.53,0.34-0.79,0.8-0.79,1.38c0,0.34,0.09,0.64,0.27,0.88c0.18,0.24,0.44,0.44,0.77,0.59c0.33,0.15,0.73,0.28,1.2,0.4
	c0.47,0.12,0.99,0.23,1.57,0.34c0.71,0.14,1.44,0.3,2.2,0.5c0.76,0.19,1.44,0.49,2.06,0.89c0.62,0.4,1.13,0.92,1.53,1.55
	C411.29,59.86,411.49,60.67,411.49,61.65"/>
<path class="st0" d="M418.95,60.04c0,1.38,0.25,2.35,0.76,2.92c0.5,0.57,1.34,0.86,2.51,0.86c0.6,0,1.26-0.16,1.98-0.47
	c0.72-0.31,1.35-0.76,1.88-1.36v-9.39c-0.46-0.12-0.99-0.2-1.58-0.26c-0.6-0.06-1.17-0.09-1.72-0.09c-0.5,0-0.99,0.07-1.44,0.22
	c-0.46,0.15-0.86,0.38-1.22,0.69c-0.35,0.31-0.64,0.7-0.84,1.17c-0.21,0.47-0.31,1.03-0.31,1.67V60.04z M426.49,65.16
	c-0.6,0.71-1.34,1.26-2.22,1.63c-0.88,0.38-1.81,0.57-2.77,0.57c-0.87,0-1.7-0.14-2.49-0.41c-0.79-0.27-1.49-0.71-2.1-1.29
	c-0.61-0.59-1.09-1.34-1.44-2.27c-0.36-0.93-0.53-2.06-0.53-3.39v-3.96c0-1.26,0.22-2.35,0.65-3.27c0.44-0.92,1.02-1.67,1.74-2.27
	c0.72-0.6,1.56-1.04,2.53-1.34c0.96-0.3,1.97-0.45,3.03-0.45c1.12,0,2.26,0.1,3.42,0.31c1.16,0.21,2.29,0.5,3.39,0.89
	c0.25,0.11,0.38,0.3,0.38,0.55l0,15.96c0,0.34-0.16,0.52-0.48,0.52h-2.34c-0.32,0-0.5-0.15-0.55-0.45L426.49,65.16z"/>
<path class="st0" d="M442.38,63.79c1.24,0,2.21-0.29,2.91-0.88c0.7-0.58,1.05-1.61,1.05-3.08l0-3.82c0-1.31-0.34-2.26-1.01-2.86
	c-0.68-0.6-1.63-0.89-2.87-0.89c-0.67,0-1.27,0.08-1.82,0.24c-0.55,0.16-1.04,0.38-1.48,0.65l0,10.15c0.41,0.18,0.91,0.31,1.48,0.38
	C441.2,63.75,441.78,63.79,442.38,63.79 M439.15,49.48c0.53-0.23,1.11-0.41,1.74-0.55c0.63-0.14,1.29-0.21,1.98-0.21
	c1.08,0,2.08,0.17,2.99,0.52c0.92,0.34,1.71,0.83,2.39,1.46c0.68,0.63,1.2,1.39,1.58,2.29c0.38,0.89,0.57,1.9,0.57,3.03v3.78
	c0,1.31-0.2,2.44-0.6,3.39c-0.4,0.95-0.95,1.74-1.65,2.36c-0.7,0.62-1.54,1.08-2.51,1.38c-0.97,0.3-2.02,0.45-3.15,0.45
	c-1.12,0-2.3-0.11-3.53-0.33c-1.23-0.22-2.36-0.52-3.39-0.91c-0.28-0.09-0.41-0.29-0.41-0.58l0-22.67c0-0.34,0.17-0.52,0.52-0.52
	h2.96c0.35,0,0.52,0.17,0.52,0.52V49.48z"/>
<path class="st0" d="M462.54,67.26c-0.6,0.07-1.25,0.1-1.96,0.1c-1.86,0-3.28-0.59-4.27-1.75c-0.98-1.17-1.48-2.81-1.48-4.92
	l0-17.82c0-0.34,0.17-0.52,0.52-0.52h2.96c0.34,0,0.52,0.17,0.52,0.52v17.68c0,1.15,0.18,1.96,0.55,2.44
	c0.37,0.48,0.94,0.72,1.72,0.72c0.21,0,0.42,0,0.64-0.02c0.22-0.01,0.44-0.03,0.67-0.05c0.34,0,0.52,0.17,0.52,0.52v2.55
	c0,0.14-0.03,0.26-0.09,0.36C462.77,67.18,462.67,67.24,462.54,67.26"/>
<path class="st0" d="M476.74,55.74c0-1.26-0.35-2.16-1.05-2.7c-0.7-0.54-1.53-0.81-2.5-0.81c-1.01,0-1.85,0.27-2.53,0.81
	c-0.68,0.54-1.01,1.44-1.01,2.7l0,0.89h7.09V55.74z M480.63,59.25c0,0.32-0.17,0.48-0.52,0.48l-10.46,0v0.96
	c0,1.06,0.33,1.85,1,2.37s1.55,0.79,2.65,0.79c1.08,0,2-0.15,2.75-0.46c0.76-0.31,1.46-0.68,2.1-1.12c0.28-0.18,0.5-0.15,0.69,0.1
	l1.41,1.89c0.23,0.25,0.19,0.49-0.1,0.72c-0.92,0.73-1.94,1.31-3.08,1.74c-1.14,0.42-2.44,0.64-3.9,0.64c-0.96,0-1.9-0.14-2.8-0.41
	c-0.91-0.27-1.71-0.69-2.41-1.24c-0.7-0.55-1.26-1.24-1.69-2.08c-0.42-0.84-0.64-1.83-0.64-2.98v-4.89c0-1.26,0.22-2.34,0.65-3.23
	c0.43-0.89,1.01-1.62,1.72-2.19c0.71-0.56,1.52-0.97,2.43-1.24c0.9-0.26,1.83-0.4,2.77-0.4s1.86,0.13,2.75,0.4
	c0.89,0.26,1.68,0.68,2.37,1.24c0.69,0.56,1.24,1.29,1.67,2.19c0.42,0.89,0.64,1.97,0.64,3.23V59.25z"/>
<path class="st0" d="M488.44,59.83c0,1.49,0.35,2.53,1.05,3.13c0.7,0.6,1.67,0.89,2.91,0.89c0.6,0,1.18-0.04,1.75-0.12
	c0.57-0.08,1.07-0.2,1.48-0.36V53.16c-0.41-0.27-0.9-0.49-1.46-0.65c-0.56-0.16-1.18-0.24-1.84-0.24c-1.24,0-2.19,0.3-2.87,0.89
	c-0.68,0.6-1.02,1.55-1.02,2.86V59.83z M495.63,42.87c0-0.34,0.17-0.52,0.52-0.52h2.96c0.34,0,0.52,0.17,0.52,0.52l0,22.67
	c0,0.3-0.12,0.49-0.38,0.59c-1.03,0.39-2.17,0.69-3.41,0.91c-1.24,0.22-2.42,0.33-3.54,0.33c-1.15,0-2.2-0.15-3.15-0.45
	c-0.95-0.3-1.78-0.76-2.49-1.38c-0.71-0.62-1.26-1.4-1.65-2.36c-0.39-0.95-0.59-2.08-0.59-3.39v-3.78c0-1.12,0.19-2.13,0.57-3.03
	c0.38-0.89,0.9-1.66,1.56-2.29c0.66-0.63,1.46-1.12,2.37-1.46c0.92-0.34,1.92-0.52,2.99-0.52c0.69,0,1.35,0.07,1.98,0.21
	c0.63,0.14,1.21,0.32,1.74,0.55L495.63,42.87z"/>
<path class="st0" d="M520.26,63.85c1.24,0,2.2-0.3,2.87-0.91c0.68-0.61,1.01-1.56,1.01-2.87v-3.85c0-1.49-0.35-2.53-1.05-3.11
	c-0.7-0.59-1.67-0.88-2.91-0.88c-0.6,0-1.18,0.03-1.75,0.1c-0.57,0.07-1.07,0.2-1.48,0.38v10.18c0.44,0.3,0.93,0.53,1.48,0.7
	C518.99,63.77,519.59,63.85,520.26,63.85 M513.35,49.96c1.03-0.39,2.17-0.69,3.4-0.91c1.24-0.22,2.42-0.33,3.54-0.33
	c1.12,0,2.17,0.15,3.15,0.45c0.97,0.3,1.81,0.76,2.51,1.38c0.7,0.62,1.25,1.4,1.65,2.34c0.4,0.94,0.6,2.06,0.6,3.37v3.78
	c0,1.12-0.19,2.14-0.57,3.04c-0.38,0.91-0.91,1.67-1.58,2.3c-0.68,0.63-1.48,1.12-2.41,1.46c-0.93,0.34-1.94,0.52-3.04,0.52
	c-0.69,0-1.34-0.07-1.94-0.21c-0.61-0.14-1.18-0.32-1.7-0.55v6.36c0,0.34-0.17,0.52-0.52,0.52h-2.96c-0.34,0-0.52-0.17-0.52-0.52
	V50.51C512.97,50.23,513.09,50.05,513.35,49.96"/>
<path class="st0" d="M543.31,55.74c0-1.26-0.35-2.16-1.05-2.7c-0.7-0.54-1.53-0.81-2.5-0.81c-1.01,0-1.85,0.27-2.53,0.81
	c-0.68,0.54-1.01,1.44-1.01,2.7v0.89h7.09V55.74z M547.19,59.25c0,0.32-0.17,0.48-0.52,0.48h-10.46v0.96c0,1.06,0.33,1.85,1,2.37
	s1.55,0.79,2.65,0.79c1.08,0,2-0.15,2.75-0.46c0.76-0.31,1.46-0.68,2.1-1.12c0.28-0.18,0.5-0.15,0.69,0.1l1.41,1.89
	c0.23,0.25,0.19,0.49-0.1,0.72c-0.92,0.73-1.94,1.31-3.08,1.74c-1.14,0.42-2.44,0.64-3.9,0.64c-0.96,0-1.9-0.14-2.8-0.41
	c-0.91-0.27-1.71-0.69-2.41-1.24c-0.7-0.55-1.26-1.24-1.69-2.08c-0.42-0.84-0.64-1.83-0.64-2.98v-4.89c0-1.26,0.22-2.34,0.65-3.23
	c0.43-0.89,1.01-1.62,1.72-2.19c0.71-0.56,1.52-0.97,2.43-1.24c0.9-0.26,1.83-0.4,2.77-0.4c0.94,0,1.86,0.13,2.75,0.4
	c0.89,0.26,1.68,0.68,2.37,1.24c0.69,0.56,1.24,1.29,1.67,2.19c0.42,0.89,0.64,1.97,0.64,3.23V59.25z"/>
<path class="st0" d="M555.04,60.42c0,1.1,0.33,1.94,0.98,2.51c0.65,0.57,1.6,0.86,2.84,0.86c1.24,0,2.18-0.29,2.84-0.86
	c0.65-0.57,0.98-1.41,0.98-2.51v-4.61c0-1.15-0.33-2.02-0.98-2.62c-0.65-0.6-1.6-0.89-2.84-0.89c-1.24,0-2.18,0.3-2.84,0.89
	c-0.65,0.6-0.98,1.47-0.98,2.62V60.42z M566.7,60.42c0,1.08-0.18,2.04-0.55,2.89c-0.37,0.85-0.89,1.58-1.58,2.18
	c-0.69,0.61-1.51,1.07-2.48,1.39c-0.96,0.32-2.04,0.48-3.23,0.48c-1.19,0-2.27-0.16-3.24-0.48c-0.96-0.32-1.79-0.78-2.48-1.39
	c-0.69-0.61-1.22-1.34-1.58-2.18c-0.37-0.85-0.55-1.81-0.55-2.89v-4.61c0-1.08,0.18-2.05,0.55-2.92c0.37-0.87,0.89-1.62,1.58-2.24
	c0.69-0.62,1.51-1.09,2.48-1.43c0.96-0.33,2.04-0.5,3.23-0.5c1.19,0,2.27,0.17,3.23,0.5c0.96,0.33,1.79,0.81,2.48,1.43
	c0.69,0.62,1.21,1.37,1.58,2.24c0.37,0.87,0.55,1.85,0.55,2.92V60.42z"/>
<path class="st0" d="M578.53,63.85c1.24,0,2.2-0.3,2.87-0.91c0.68-0.61,1.01-1.56,1.01-2.87v-3.85c0-1.49-0.35-2.53-1.05-3.11
	c-0.7-0.59-1.67-0.88-2.91-0.88c-0.6,0-1.18,0.03-1.75,0.1c-0.57,0.07-1.07,0.2-1.48,0.38v10.18c0.44,0.3,0.93,0.53,1.48,0.7
	C577.26,63.77,577.87,63.85,578.53,63.85 M571.62,49.96c1.03-0.39,2.17-0.69,3.41-0.91c1.24-0.22,2.42-0.33,3.54-0.33
	c1.12,0,2.17,0.15,3.15,0.45c0.97,0.3,1.81,0.76,2.51,1.38c0.7,0.62,1.25,1.4,1.65,2.34c0.4,0.94,0.6,2.06,0.6,3.37v3.78
	c0,1.12-0.19,2.14-0.57,3.04c-0.38,0.91-0.91,1.67-1.58,2.3c-0.68,0.63-1.48,1.12-2.41,1.46c-0.93,0.34-1.94,0.52-3.04,0.52
	c-0.69,0-1.34-0.07-1.94-0.21c-0.61-0.14-1.18-0.32-1.7-0.55v6.36c0,0.34-0.17,0.52-0.51,0.52h-2.96c-0.34,0-0.52-0.17-0.52-0.52
	V50.51C571.24,50.23,571.36,50.05,571.62,49.96"/>
<path class="st0" d="M598.62,67.26c-0.6,0.07-1.25,0.1-1.96,0.1c-1.86,0-3.28-0.59-4.27-1.75c-0.99-1.17-1.48-2.81-1.48-4.92V42.87
	c0-0.34,0.17-0.52,0.52-0.52h2.96c0.34,0,0.51,0.17,0.51,0.52v17.68c0,1.15,0.19,1.96,0.55,2.44c0.37,0.48,0.94,0.72,1.72,0.72
	c0.21,0,0.42,0,0.64-0.02c0.22-0.01,0.44-0.03,0.67-0.05c0.34,0,0.52,0.17,0.52,0.52v2.55c0,0.14-0.03,0.26-0.09,0.36
	C598.86,67.18,598.76,67.24,598.62,67.26"/>
<path class="st0" d="M612.83,55.74c0-1.26-0.35-2.16-1.05-2.7c-0.7-0.54-1.53-0.81-2.49-0.81c-1.01,0-1.85,0.27-2.53,0.81
	c-0.68,0.54-1.02,1.44-1.02,2.7v0.89l7.09,0V55.74z M616.72,59.25c0,0.32-0.17,0.48-0.52,0.48l-10.46,0v0.96
	c0,1.06,0.33,1.85,1,2.37c0.67,0.53,1.55,0.79,2.65,0.79c1.08,0,2-0.15,2.75-0.46c0.76-0.31,1.46-0.68,2.1-1.12
	c0.27-0.18,0.5-0.15,0.69,0.1l1.41,1.89c0.23,0.25,0.19,0.49-0.1,0.72c-0.92,0.73-1.94,1.31-3.08,1.74
	c-1.13,0.42-2.44,0.64-3.91,0.64c-0.96,0-1.9-0.14-2.8-0.41c-0.91-0.27-1.71-0.69-2.41-1.24c-0.7-0.55-1.26-1.24-1.68-2.08
	c-0.42-0.84-0.64-1.83-0.64-2.98l0-4.89c0-1.26,0.22-2.34,0.65-3.23c0.44-0.89,1.01-1.62,1.72-2.19c0.71-0.56,1.52-0.97,2.42-1.24
	c0.91-0.26,1.83-0.4,2.77-0.4c0.94,0,1.86,0.13,2.75,0.4c0.9,0.26,1.69,0.68,2.38,1.24c0.69,0.56,1.24,1.29,1.67,2.19
	c0.43,0.89,0.64,1.97,0.64,3.23L616.72,59.25z"/>
<path class="st0" d="M177.92,12.38l0,52.85c0,1.06,0.53,1.59,1.5,1.59l11.14,0c0.97,0,1.5-0.53,1.5-1.59l0-16.79h10.78
	c13.96,0,22.63-8.57,22.63-22.45c0-13.52-8.48-22.36-22.63-22.36l-16.17,0C181.01,3.63,177.92,6.64,177.92,12.38 M192.06,35.27
	l0-18.56h8.84c6.63,0,9.98,3.09,9.98,9.28c0,6.19-3.36,9.28-9.98,9.28L192.06,35.27z M139.83,15.92c7.51,0,11.23,3.98,11.23,11.84
	l0,14.85c0,7.86-3.71,11.84-11.23,11.84c-7.51,0-11.22-3.98-11.22-11.84l0-14.85C128.6,19.9,132.32,15.92,139.83,15.92
	 M139.83,67.88c16.26,0,25.72-9.19,25.72-25.01l0-15.37c0-15.82-9.46-25.01-25.72-25.01c-16.26,0-25.72,9.19-25.72,25.01l0,15.37
	C114.11,58.69,123.56,67.88,139.83,67.88 M345.26,28.91c0.97,0,1.5-0.53,1.5-1.5v-9.55c0-0.97-0.53-1.5-1.5-1.5l-42.6,0
	c-0.98,0-1.5,0.53-1.5,1.5l0,9.55c0,0.97,0.53,1.5,1.5,1.5L345.26,28.91z M345.26,54.01c0.97,0,1.5-0.53,1.5-1.5v-9.55
	c0-0.97-0.53-1.5-1.5-1.5l-42.6,0c-0.98,0-1.5,0.53-1.5,1.5l0,9.55c0,0.97,0.53,1.5,1.5,1.5L345.26,54.01z M25.91,67.88
	c15.91,0,24.13-8.04,24.13-20.06c0-9.28-4.42-16.35-19-18.82c-12.02-2.03-13.7-4.24-13.7-7.95c0-2.83,2.56-5.75,9.63-5.75
	c3.98,0,8.84,1.15,13.79,3.71c0.88,0.44,1.59,0.44,2.21-0.44l4.5-8.57c0.53-0.98,0.36-1.77-0.36-2.21c-3.71-2.21-10.6-5.3-20.85-5.3
	c-13.35,0-23.42,7.34-23.42,19.27c0,11.84,8.13,16.79,22,19.35c8.22,1.51,10.87,3.1,10.87,7.43c0,3.71-3.54,6.19-10.16,6.19
	c-5.92,0-11.4-1.86-16.79-4.42c-0.89-0.44-1.68-0.44-2.13,0.45l-4.42,8.48c-0.45,0.88-0.62,1.59,0.35,2.21
	C6.37,64,15.13,67.88,25.91,67.88 M85.56,2.49c-16.26,0-25.72,9.19-25.72,25.01l0,15.37c0,15.82,9.46,25.01,25.72,25.01
	c7.24,0,14.05-2.03,20.06-6.27c0.62-0.44,0.71-1.15,0.09-1.95l-5.65-8.48c-0.53-0.89-1.24-0.97-2.13-0.36
	c-3.62,2.48-7.86,3.62-12.37,3.62c-7.25,0-10.87-3.98-10.87-11.84l0-14.85c0-7.87,3.71-11.84,10.87-11.84
	c4.07,0,8.22,1.15,11.31,3.18c0.89,0.53,1.59,0.35,2.21-0.44l5.57-8.48c0.62-0.8,0.44-1.5-0.45-2.03
	C99.08,4.52,92.28,2.49,85.56,2.49 M236.08,58.08c0,5.74,3.09,8.75,8.74,8.75l31.73,0c1.06,0,1.59-0.53,1.59-1.59v-9.72
	c0-0.97-0.53-1.5-1.59-1.5l-26.25,0l0-12.55l21.92,0c1.06,0,1.59-0.53,1.59-1.5v-9.55c0-0.97-0.53-1.5-1.59-1.5l-21.92,0l0-12.46
	l24.84,0c1.06,0,1.59-0.53,1.59-1.5l0-9.72c0-1.06-0.53-1.59-1.59-1.59l-30.32,0c-5.65,0-8.74,3.01-8.74,8.75L236.08,58.08z"/>
</svg>
