<?xml version="1.0" encoding="utf-8"?>
<!-- Generator: Adobe Illustrator 22.1.0, SVG Export Plug-In . SVG Version: 6.00 Build 0)  -->
<svg version="1.1" id="Layer_1" xmlns="http://www.w3.org/2000/svg" xmlns:xlink="http://www.w3.org/1999/xlink" x="0px" y="0px"
	 viewBox="0 0 18 20" style="enable-background:new 0 0 18 20;" xml:space="preserve">
<style type="text/css">
	.st0{fill:#fff;}
</style>
<g>
	<path class="st0" d="M17.3,0.5H5.7c-0.3,0-0.6,0.3-0.6,0.6v6.4h1.2V1.7h10.4v16.6H6.3v-5.9H5.1V19c0,0.3,0.3,0.6,0.6,0.6h11.6
		c0.3,0,0.6-0.3,0.6-0.6V1.1C17.9,0.8,17.6,0.5,17.3,0.5z"/>
	<path class="st0" d="M1.8,10.6h6.8c0.2,0,0.3-0.1,0.3-0.3V9.8c0-0.2-0.1-0.3-0.3-0.3H1.7L4.1,7C4.2,7,4.2,6.9,4.2,6.8
		c0-0.1,0-0.2-0.1-0.2L3.8,6.2C3.7,6.2,3.7,6.2,3.6,6.2c0,0,0,0,0,0c-0.1,0-0.2,0-0.2,0.1L0.2,9.5c0,0-0.1,0.1-0.1,0.1v0.9
		c0,0.1,0,0.1,0.1,0.1l3.2,3.2C3.5,13.9,3.6,14,3.6,14c0.1,0,0.2,0,0.2-0.1l0.3-0.4c0.1-0.1,0.1-0.3,0-0.5L1.8,10.6z"/>
</g>
</svg>
