<?xml version="1.0" encoding="utf-8"?>
<!-- Generator: Adobe Illustrator 22.0.1, SVG Export Plug-In . SVG Version: 6.00 Build 0)  -->
<svg version="1.1" id="Layer_1" xmlns="http://www.w3.org/2000/svg" xmlns:xlink="http://www.w3.org/1999/xlink" x="0px" y="0px"
	 viewBox="0 0 300 90" style="enable-background:new 0 0 300 90;" xml:space="preserve">
<style type="text/css">
	.st0{fill:#59029F;}
</style>
<path class="st0" d="M189.8,21.4v56.2c0,1.1,0.6,1.7,1.6,1.7h11.8c1,0,1.6-0.6,1.6-1.7V59.7h11.5c14.9,0,24.1-9.1,24.1-23.9
	c0-14.4-9-23.8-24.1-23.8h-17.2C193.1,12,189.8,15.2,189.8,21.4 M204.8,45.7V26h9.4c7,0,10.6,3.3,10.6,9.9s-3.6,9.9-10.6,9.9h-9.4
	V45.7z M149.3,25.1c8,0,11.9,4.2,11.9,12.6v15.8c0,8.4-3.9,12.6-11.9,12.6s-11.9-4.2-11.9-12.6V37.7
	C137.3,29.4,141.3,25.1,149.3,25.1 M149.3,80.4c17.3,0,27.4-9.8,27.4-26.6V37.4c0-16.8-10.1-26.6-27.4-26.6s-27.4,9.8-27.4,26.6
	v16.4C121.9,70.6,132,80.4,149.3,80.4 M28.1,80.4c16.9,0,25.7-8.6,25.7-21.3c0-9.9-4.7-17.4-20.2-20C20.8,36.9,19,34.6,19,30.6
	c0-3,2.7-6.1,10.2-6.1c4.2,0,9.4,1.2,14.7,4c0.9,0.5,1.7,0.5,2.4-0.5l4.8-9.1c0.6-1,0.4-1.9-0.4-2.4c-3.9-2.3-11.3-5.6-22.2-5.6
	c-14.2-0.1-25,7.7-25,20.4c0,12.6,8.6,17.9,23.4,20.6c8.8,1.6,11.6,3.3,11.6,7.9c0,3.9-3.8,6.6-10.8,6.6c-6.3,0-12.1-2-17.9-4.7
	c-0.9-0.5-1.8-0.5-2.3,0.5l-4.7,9c-0.5,0.9-0.7,1.7,0.4,2.3C7.3,76.3,16.6,80.4,28.1,80.4 M91.5,10.8c-17.3,0-27.4,9.8-27.4,26.6
	v16.4c0,16.8,10.1,26.6,27.4,26.6c7.7,0,14.9-2.2,21.3-6.7c0.7-0.5,0.8-1.2,0.1-2.1l-6-9c-0.6-0.9-1.3-1-2.3-0.4
	c-3.9,2.6-8.4,3.9-13.2,3.9c-7.7,0-11.6-4.2-11.6-12.6V37.7c0-8.4,3.9-12.6,11.6-12.6c4.3,0,8.7,1.2,12,3.4c0.9,0.6,1.7,0.4,2.4-0.5
	l5.9-9c0.7-0.8,0.5-1.6-0.5-2.2C105.9,13,98.7,10.8,91.5,10.8 M251.7,70c0,6.1,3.3,9.3,9.3,9.3h33.8c1.1,0,1.7-0.6,1.7-1.7V67.2
	c0-1-0.6-1.6-1.7-1.6h-27.9V52.3h23.3c1.1,0,1.7-0.6,1.7-1.6V40.5c0-1-0.6-1.6-1.7-1.6h-23.3V25.7h26.4c1.1,0,1.7-0.6,1.7-1.6V13.7
	c0-1.1-0.6-1.7-1.7-1.7H261c-6,0-9.3,3.2-9.3,9.3V70z"/>
</svg>
