<?xml version="1.0" encoding="utf-8"?>
<!-- Generator: Adobe Illustrator 22.1.0, SVG Export Plug-In . SVG Version: 6.00 Build 0)  -->
<svg version="1.1" id="Layer_1" xmlns="http://www.w3.org/2000/svg" xmlns:xlink="http://www.w3.org/1999/xlink" x="0px" y="0px"
	 viewBox="0 0 18 13" style="enable-background:new 0 0 18 13;" xml:space="preserve">
<style type="text/css">
	.st0{fill:#fff;}
</style>
<path class="st0" d="M17.8,11.9l-2.8-2.8c0.8-1,1.3-2.2,1.3-3.5c0-3-2.5-5.5-5.5-5.5S5.4,2.6,5.4,5.6s2.5,5.5,5.5,5.5
	c1.2,0,2.4-0.4,3.4-1.2l2.8,2.8c0,0,0.1,0.1,0.1,0.1c0.1,0,0.1,0,0.1-0.1l0.5-0.5c0,0,0.1-0.1,0.1-0.1C17.9,12,17.9,12,17.8,11.9z
	 M15.3,5.6c0,2.4-2,4.4-4.4,4.4S6.5,8,6.5,5.6c0-2.4,2-4.4,4.4-4.4S15.3,3.2,15.3,5.6z"/>
<g>
	<path class="st0" d="M1.1,3.4h3.3c0,0,0.1,0,0.1-0.1C4.6,3,4.8,2.6,5,2.3c0,0,0-0.1,0-0.1S4.9,2.1,4.9,2.1H1.1
		c-0.2,0-0.4,0.2-0.4,0.4v0.6C0.7,3.3,0.9,3.4,1.1,3.4z"/>
	<path class="st0" d="M4.1,6.5C4.2,6.5,4.2,6.5,4.1,6.5c0-0.4,0-0.6,0-0.9c0-0.1,0-0.2,0-0.2v0c0,0,0-0.1,0-0.1c0,0,0,0-0.1,0H0.5
		c-0.2,0-0.4,0.2-0.4,0.4v0.6c0,0.2,0.2,0.4,0.4,0.4L4.1,6.5C4.1,6.6,4.1,6.6,4.1,6.5z"/>
	<path class="st0" d="M5.4,9.6C5.1,9.2,4.9,8.9,4.7,8.5c0,0-0.1-0.1-0.1-0.1H1.1c-0.2,0-0.4,0.2-0.4,0.4v0.6c0,0.2,0.2,0.4,0.4,0.4
		h4.2h0c0,0,0.1,0,0.1-0.1C5.4,9.6,5.4,9.6,5.4,9.6z"/>
</g>
</svg>
