<?xml version="1.0" encoding="UTF-8" standalone="no"?><!DOCTYPE svg PUBLIC "-//W3C//DTD SVG 1.1//EN" "http://www.w3.org/Graphics/SVG/1.1/DTD/svg11.dtd"><svg width="100%" height="100%" viewBox="0 0 132 39" version="1.1" xmlns="http://www.w3.org/2000/svg" xmlns:xlink="http://www.w3.org/1999/xlink" xml:space="preserve" xmlns:serif="http://www.serif.com/" style="fill-rule:evenodd;clip-rule:evenodd;stroke-linejoin:round;stroke-miterlimit:2;"><rect id="Artboard1" x="0" y="0" width="131.73" height="38.61" style="fill:none;"/><clipPath id="_clip1"><rect x="0" y="0" width="131.73" height="38.61"/></clipPath><g clip-path="url(#_clip1)"><g><path d="M23.339,5.547c0,-3.132 1.965,-4.944 5.342,-4.944c3.376,0 5.343,1.822 5.343,4.944l0,3.04c0,3.132 -1.967,4.944 -5.343,4.944c-3.377,0 -5.342,-1.822 -5.342,-4.944l0,-3.04Zm7.671,0.051c0,-1.561 -0.767,-2.346 -2.329,-2.346c-1.563,0 -2.328,0.785 -2.328,2.346l0,2.94c0,1.561 0.775,2.346 2.328,2.346c1.562,0 2.329,-0.785 2.329,-2.346l0,-2.94Z" style="fill:#512c86;"/><path d="M36.593,2.556c0,-1.138 0.646,-1.731 1.815,-1.731l3.367,0c2.943,0 4.697,1.751 4.697,4.419c0,2.749 -1.804,4.441 -4.697,4.441l-2.237,0l0,3.323c0,0.212 -0.111,0.313 -0.313,0.313l-2.319,0c-0.201,0 -0.313,-0.101 -0.313,-0.313l0,-10.452Zm4.778,0.857l-1.833,0l0,3.674l1.833,-0.01c1.381,0 2.077,-0.615 2.077,-1.833c0,-1.229 -0.696,-1.831 -2.077,-1.831Z" style="fill:#512c86;"/><path d="M0.165,12.253c-0.202,-0.121 -0.162,-0.262 -0.071,-0.433l0.917,-1.682c0.091,-0.171 0.252,-0.171 0.444,-0.09c1.119,0.503 2.258,0.876 3.488,0.876c1.381,0 2.106,-0.494 2.106,-1.229c0,-0.856 -0.554,-1.168 -2.258,-1.47c-2.883,-0.503 -4.576,-1.49 -4.576,-3.826c0,-2.356 2.097,-3.816 4.869,-3.816c2.127,0 3.558,0.614 4.334,1.047c0.151,0.09 0.182,0.242 0.071,0.443l-0.938,1.692c-0.131,0.171 -0.272,0.171 -0.463,0.09c-1.029,-0.503 -2.037,-0.735 -2.863,-0.735c-1.472,0 -2.006,0.574 -2.006,1.138c0,0.735 0.353,1.168 2.842,1.571c3.035,0.493 3.952,1.893 3.952,3.725c0,2.377 -1.704,3.968 -5.01,3.968c-2.238,0 -4.062,-0.766 -4.848,-1.279l0.01,0.01Z" style="fill:#512c86;fill-rule:nonzero;"/><path d="M21.282,1.71c0.182,0.101 0.222,0.242 0.091,0.403l-1.159,1.682c-0.131,0.161 -0.272,0.191 -0.464,0.09c-0.645,-0.402 -1.502,-0.624 -2.349,-0.624c-1.491,0 -2.258,0.785 -2.258,2.346l0,2.94c0,1.561 0.757,2.347 2.258,2.347c0.938,0 1.815,-0.232 2.571,-0.715c0.181,-0.121 0.332,-0.101 0.443,0.07l1.18,1.682c0.131,0.161 0.111,0.302 -0.02,0.382c-1.25,0.836 -2.662,1.239 -4.174,1.239c-3.376,0 -5.342,-1.823 -5.342,-4.944l0,-3.041c0,-3.132 1.966,-4.944 5.342,-4.944c1.391,0 2.813,0.403 3.871,1.118l0.01,-0.031Z" style="fill:#512c86;fill-rule:nonzero;"/><path d="M48.68,2.556c0,-1.138 0.645,-1.732 1.815,-1.732l6.3,0c0.221,0 0.332,0.101 0.332,0.312l0,1.924c0,0.191 -0.111,0.302 -0.332,0.302l-5.161,0l0,2.467l4.556,0c0.222,0 0.332,0.1 0.332,0.292l0,1.893c0,0.191 -0.11,0.292 -0.332,0.292l-4.556,0l0,2.487l5.453,0c0.222,0 0.333,0.101 0.333,0.302l0,1.923c0,0.212 -0.111,0.312 -0.333,0.312l-6.592,0c-1.18,0 -1.815,-0.594 -1.815,-1.732l0,-9.042Z" style="fill:#512c86;fill-rule:nonzero;"/><path d="M9.338,27.196c0.201,0 0.312,-0.121 0.312,-0.333l0,-2.144c0,-0.222 -0.111,-0.333 -0.312,-0.333l-8.78,0c-0.202,0 -0.313,0.121 -0.313,0.333l0,2.144c0,0.222 0.111,0.333 0.313,0.333l8.78,0Z" style="fill:#512c86;fill-rule:nonzero;"/><path d="M9.338,21.567c0.201,0 0.312,-0.121 0.312,-0.332l0,-2.145c0,-0.222 -0.111,-0.332 -0.312,-0.332l-8.78,0c-0.202,0 -0.313,0.12 -0.313,0.332l0,2.145c0,0.221 0.111,0.332 0.313,0.332l8.78,0Z" style="fill:#512c86;fill-rule:nonzero;"/><path d="M15.204,22.876l2.238,0c0.081,0 0.121,-0.04 0.121,-0.131l0,-0.695c0,-0.09 -0.04,-0.131 -0.121,-0.131l-2.238,0l0,-1.621l2.45,0c0.08,0 0.121,-0.04 0.121,-0.121l0,-0.704c0,-0.091 -0.041,-0.131 -0.121,-0.131l-3.297,0c-0.07,0 -0.111,0.04 -0.111,0.131l0,5.94c0,0.091 0.041,0.131 0.111,0.131l3.407,0c0.081,0 0.121,-0.04 0.121,-0.131l0,-0.704c0,-0.081 -0.04,-0.121 -0.121,-0.121l-2.56,0l0,-1.712Z" style="fill:#512c86;fill-rule:nonzero;"/><path d="M18.792,22.856c0,-1.309 0.777,-1.903 1.825,-1.903c0.524,0 1.139,0.111 1.613,0.302c0.07,0.04 0.09,0.08 0.09,0.151l0,5.659c0,0.09 -0.04,0.131 -0.121,0.131l-0.685,0c-0.081,0 -0.121,-0.041 -0.121,-0.131l0,-1.601c-0.242,0.111 -0.524,0.191 -0.847,0.191c-1.008,0 -1.754,-0.705 -1.754,-1.843l0,-0.956Zm0.938,0.956c0,0.655 0.322,0.957 0.897,0.957c0.312,0 0.575,-0.091 0.766,-0.242l0,-2.567c-0.191,-0.091 -0.474,-0.121 -0.746,-0.121c-0.574,0 -0.917,0.262 -0.917,1.007l0,0.966Z" style="fill:#512c86;"/><path d="M26.111,21.053c-0.071,0 -0.111,0.041 -0.111,0.121l0,3.474c-0.182,0.071 -0.464,0.101 -0.726,0.101c-0.564,0 -0.897,-0.252 -0.897,-1.067l0,-2.508c0,-0.08 -0.04,-0.121 -0.111,-0.121l-0.695,0c-0.081,0 -0.121,0.041 -0.121,0.121l0,2.528c0,1.389 0.746,1.953 1.824,1.953c0.555,0 1.109,-0.131 1.563,-0.342c0.06,-0.03 0.09,-0.081 0.09,-0.151l0,-3.978c0,-0.08 -0.05,-0.12 -0.121,-0.12l-0.695,-0.011Z" style="fill:#512c86;fill-rule:nonzero;"/><path d="M30.647,25.101c-0.273,0.353 -0.726,0.554 -1.16,0.554c-0.806,0 -1.522,-0.513 -1.522,-1.853l0,-0.996c0,-1.269 0.867,-1.853 1.845,-1.853c0.524,0 1.068,0.111 1.582,0.302c0.061,0.03 0.091,0.07 0.091,0.141l0,4.028c0,0.09 -0.04,0.13 -0.111,0.13l-0.544,0c-0.071,0 -0.121,-0.04 -0.131,-0.11l-0.05,-0.343Zm-1.754,-1.299c0,0.695 0.211,0.957 0.756,0.957c0.272,0 0.655,-0.161 0.897,-0.463l0,-2.367c-0.212,-0.06 -0.514,-0.09 -0.766,-0.09c-0.474,0 -0.887,0.292 -0.887,0.946l0,1.017Z" style="fill:#512c86;"/><path d="M33.953,25.655c0.161,0 0.323,-0.01 0.454,-0.03c0.06,-0.01 0.09,-0.071 0.09,-0.141l0,-0.645c0,-0.09 -0.04,-0.13 -0.121,-0.13c-0.1,0.01 -0.211,0.02 -0.302,0.02c-0.363,0 -0.524,-0.222 -0.524,-0.796l0,-4.46c0,-0.091 -0.04,-0.131 -0.121,-0.131l-0.686,0c-0.08,0 -0.121,0.04 -0.121,0.131l0,4.49c0,1.058 0.474,1.682 1.331,1.682" style="fill:#512c86;fill-rule:nonzero;"/><path d="M35.737,19.15c-0.322,0 -0.574,0.272 -0.574,0.625c0,0.342 0.252,0.624 0.574,0.624c0.323,0 0.575,-0.282 0.575,-0.624c0,-0.353 -0.252,-0.625 -0.575,-0.625Zm-0.474,6.263c0,0.091 0.051,0.131 0.121,0.131l0.696,0c0.07,0 0.111,-0.04 0.111,-0.131l0,-4.239c0,-0.08 -0.041,-0.121 -0.111,-0.121l-0.696,0c-0.07,0 -0.121,0.041 -0.121,0.121l0,4.239Z" style="fill:#512c86;"/><path d="M39.648,24.819c0,-0.08 -0.04,-0.12 -0.131,-0.12c-0.101,0.01 -0.201,0.02 -0.252,0.02c-0.403,0 -0.625,-0.262 -0.625,-0.735l0,-1.984l0.847,0c0.071,0 0.121,-0.04 0.121,-0.121l0,-0.634c0,-0.081 -0.05,-0.121 -0.121,-0.121l-0.847,0l0,-1.017c0,-0.091 -0.05,-0.141 -0.131,-0.141l-0.554,0c-0.081,0 -0.121,0.04 -0.131,0.131l-0.101,1.027l-0.554,0c-0.081,0 -0.131,0.04 -0.131,0.141l0.01,0.594c0,0.101 0.05,0.141 0.131,0.141l0.534,0l0,2.054c0,1.148 0.645,1.591 1.472,1.591c0.1,0 0.241,-0.01 0.362,-0.02c0.071,-0.01 0.101,-0.071 0.101,-0.141l0,-0.655" style="fill:#512c86;fill-rule:nonzero;"/><path d="M42.995,24.336c-0.171,0.101 -0.444,0.181 -0.716,0.171c-0.473,0 -0.907,-0.231 -0.907,-0.906l0,-2.427c0,-0.08 -0.04,-0.121 -0.111,-0.121l-0.695,0c-0.071,0 -0.121,0.041 -0.121,0.121l0,2.467c0,1.198 0.877,1.772 1.703,1.772c0.293,0 0.595,-0.07 0.857,-0.161c0.03,0.866 -0.322,1.128 -0.867,1.128c-0.433,0 -0.776,-0.171 -1.088,-0.403c-0.061,-0.04 -0.111,-0.03 -0.152,0.041l-0.342,0.533c-0.041,0.071 -0.041,0.121 0.02,0.171c0.413,0.373 0.887,0.544 1.562,0.544c1.22,0 1.774,-0.685 1.774,-2.024l0,-4.088c0,-0.08 -0.04,-0.121 -0.121,-0.121l-0.685,0c-0.081,0 -0.121,0.041 -0.121,0.121l0.01,3.182Z" style="fill:#512c86;fill-rule:nonzero;"/><path d="M49.356,19.412c0,-0.08 -0.031,-0.131 -0.111,-0.141c-0.131,-0.03 -0.293,-0.03 -0.484,-0.03c-0.786,0 -1.421,0.554 -1.421,1.671l0,0.202l-0.535,0c-0.08,0 -0.131,0.05 -0.131,0.141l0,0.604c0,0.091 0.051,0.141 0.131,0.141l0.535,0l0,3.413c0,0.091 0.04,0.131 0.12,0.131l0.686,0c0.081,0 0.121,-0.04 0.121,-0.131l0,-3.413l0.917,0c0.071,0 0.121,-0.04 0.121,-0.131l0,-0.624c0,-0.091 -0.05,-0.131 -0.121,-0.131l-0.917,0l0,-0.202c0,-0.493 0.222,-0.795 0.645,-0.795c0.101,0 0.202,0.01 0.282,0.02c0.061,0 0.101,0.03 0.141,-0.02c0.01,-0.03 0.021,-0.06 0.021,-0.101l0,-0.594" style="fill:#512c86;fill-rule:nonzero;"/><path d="M53.619,23.903c0,1.077 -0.715,1.752 -1.814,1.752c-1.099,0 -1.814,-0.675 -1.814,-1.752l0,-1.158c0,-1.087 0.715,-1.782 1.814,-1.782c1.099,0 1.814,0.695 1.814,1.782l0,1.158Zm-2.701,0c0,0.554 0.312,0.846 0.887,0.846c0.565,0 0.887,-0.292 0.887,-0.846l0,-1.158c0,-0.574 -0.322,-0.886 -0.887,-0.886c-0.575,0 -0.887,0.312 -0.887,0.886l0,1.158Z" style="fill:#512c86;"/><path d="M56.986,21.013c-0.091,-0.02 -0.212,-0.03 -0.343,-0.03c-0.473,0 -0.826,0.201 -1.108,0.493l-0.071,-0.302c-0.02,-0.08 -0.07,-0.121 -0.141,-0.121l-0.504,0c-0.081,0 -0.131,0.051 -0.131,0.141l0,4.219c0,0.091 0.04,0.131 0.111,0.131l0.695,0c0.071,0 0.121,-0.04 0.121,-0.131l0,-3.091c0.242,-0.272 0.585,-0.443 0.968,-0.443c0.131,0 0.262,0.01 0.373,0.03c0.091,0.02 0.131,-0.03 0.131,-0.12l0,-0.625c0,-0.08 -0.03,-0.141 -0.101,-0.151Z" style="fill:#512c86;fill-rule:nonzero;"/><path d="M3.551,30.468c0.081,0 0.121,0.04 0.121,0.131l0.011,5.931c0,0.091 -0.051,0.141 -0.132,0.141l-0.504,0c-0.07,0 -0.12,-0.04 -0.141,-0.121l-0.06,-0.242c-0.313,0.282 -0.706,0.464 -1.149,0.464c-0.998,0 -1.553,-0.776 -1.553,-1.843l0,-1.027c0,-1.118 0.736,-1.843 1.734,-1.843c0.323,0 0.615,0.091 0.867,0.202l0,-1.662c0,-0.091 0.04,-0.131 0.111,-0.131l0.695,0Zm-2.479,4.4c0,0.605 0.201,0.997 0.806,0.997c0.252,0 0.615,-0.131 0.867,-0.342l0,-2.346c-0.202,-0.141 -0.464,-0.232 -0.766,-0.232c-0.575,0 -0.907,0.302 -0.907,0.957l0,0.966Z" style="fill:#512c86;"/><path d="M5.305,30.277c-0.322,0 -0.574,0.272 -0.574,0.624c0,0.343 0.252,0.624 0.574,0.624c0.333,0 0.575,-0.281 0.575,-0.624c0,-0.352 -0.252,-0.624 -0.575,-0.624Zm-0.463,6.263c0,0.091 0.05,0.131 0.121,0.131l0.695,0c0.071,0 0.111,-0.04 0.111,-0.131l0,-4.239c0,-0.081 -0.04,-0.121 -0.111,-0.121l-0.695,0c-0.071,0 -0.121,0.04 -0.121,0.121l0,4.239Z" style="fill:#512c86;"/><path d="M8.38,36.772c0.958,0 1.693,-0.474 1.693,-1.44c0,-0.997 -0.826,-1.219 -1.481,-1.35c-0.525,-0.11 -0.887,-0.201 -0.887,-0.553c0,-0.282 0.252,-0.474 0.725,-0.474c0.363,0 0.716,0.111 1.008,0.282c0.061,0.03 0.121,0.02 0.162,-0.04l0.302,-0.554c0.04,-0.07 0.02,-0.141 -0.04,-0.171c-0.474,-0.282 -0.938,-0.403 -1.391,-0.403c-0.857,0 -1.694,0.403 -1.694,1.36c0,1.047 1.008,1.319 1.613,1.439c0.363,0.071 0.746,0.162 0.746,0.514c0,0.332 -0.323,0.503 -0.746,0.503c-0.413,0 -0.847,-0.151 -1.199,-0.443c-0.071,-0.05 -0.121,-0.04 -0.162,0.041l-0.302,0.564c-0.04,0.07 -0.04,0.13 0.03,0.171c0.504,0.403 1.079,0.564 1.623,0.564" style="fill:#512c86;fill-rule:nonzero;"/><path d="M13.501,36.218c-0.273,0.352 -0.726,0.554 -1.16,0.554c-0.806,0 -1.522,-0.514 -1.522,-1.853l0,-0.997c0,-1.269 0.867,-1.853 1.845,-1.853c0.524,0 1.068,0.111 1.582,0.302c0.061,0.031 0.091,0.071 0.091,0.141l0,4.028c0,0.091 -0.04,0.131 -0.111,0.131l-0.544,0c-0.071,0 -0.121,-0.04 -0.131,-0.111l-0.05,-0.342Zm-1.744,-1.299c0,0.695 0.211,0.956 0.756,0.956c0.272,0 0.655,-0.161 0.897,-0.463l0,-2.366c-0.212,-0.06 -0.514,-0.091 -0.766,-0.091c-0.474,0 -0.887,0.292 -0.887,0.947l0,1.017Z" style="fill:#512c86;"/><path d="M16.394,32.261c0.242,-0.111 0.534,-0.192 0.856,-0.192l0.01,0.01c0.998,0 1.744,0.715 1.744,1.843l0,0.957c0,1.309 -0.786,1.903 -1.834,1.903c-0.524,0 -1.129,-0.121 -1.603,-0.313c-0.081,-0.03 -0.101,-0.07 -0.101,-0.151l0,-5.719c0,-0.091 0.041,-0.131 0.121,-0.131l0.686,0c0.08,0 0.121,0.04 0.121,0.131l0,1.662Zm0.746,3.604c0.574,0 0.917,-0.261 0.917,-0.997l0,-0.956c0,-0.665 -0.323,-0.947 -0.897,-0.947c-0.303,0 -0.565,0.081 -0.766,0.222l0,2.558c0.191,0.09 0.473,0.12 0.746,0.12Z" style="fill:#512c86;"/><path d="M21.312,36.772c0.162,0 0.323,-0.011 0.454,-0.031c0.06,-0.01 0.091,-0.07 0.091,-0.141l0,-0.644c0,-0.091 -0.041,-0.131 -0.121,-0.131c-0.101,0.01 -0.212,0.02 -0.303,0.02c-0.363,0 -0.524,-0.221 -0.524,-0.795l0,-4.461c0,-0.091 -0.04,-0.131 -0.121,-0.131l-0.685,0c-0.081,0 -0.121,0.04 -0.121,0.131l0,4.491c0,1.057 0.474,1.682 1.33,1.682" style="fill:#512c86;fill-rule:nonzero;"/><path d="M24.196,32.069c0.867,0 1.723,0.504 1.723,1.782l0,0.887c0,0.08 -0.04,0.12 -0.121,0.12l-2.419,0l0,0.242c0,0.524 0.333,0.796 0.847,0.796c0.494,0 0.827,-0.182 1.119,-0.403c0.06,-0.041 0.121,-0.03 0.161,0.03l0.323,0.473c0.05,0.061 0.04,0.131 -0.02,0.181c-0.424,0.363 -0.948,0.595 -1.623,0.595c-0.897,0 -1.744,-0.534 -1.744,-1.692l0,-1.229c0,-1.278 0.877,-1.782 1.754,-1.782Zm0.826,1.994l0,-0.222l-0.01,0c0,-0.634 -0.373,-0.886 -0.816,-0.886c-0.464,0 -0.817,0.242 -0.817,0.886l0,0.222l1.643,0Z" style="fill:#512c86;"/><path d="M30.163,30.468c0.08,0 0.121,0.04 0.121,0.131l0.01,5.931c0,0.091 -0.051,0.141 -0.131,0.141l-0.504,0c-0.071,0 -0.121,-0.04 -0.141,-0.121l-0.061,-0.242c-0.312,0.282 -0.705,0.464 -1.149,0.464c-0.998,0 -1.552,-0.776 -1.552,-1.843l0,-1.027c0,-1.118 0.736,-1.843 1.734,-1.843c0.322,0 0.625,0.091 0.866,0.202l0,-1.662c0,-0.091 0.041,-0.131 0.111,-0.131l0.696,0Zm-2.48,4.4c0,0.605 0.202,0.997 0.807,0.997c0.252,0 0.614,-0.131 0.866,-0.342l0,-2.346c-0.201,-0.141 -0.463,-0.232 -0.766,-0.232c-0.574,0 -0.907,0.302 -0.907,0.957l0,0.966Z" style="fill:#512c86;"/><path d="M34.114,32.472c0.303,-0.252 0.696,-0.413 1.159,-0.413c0.988,0 1.543,0.775 1.543,1.843l0,1.027c0,1.138 -0.736,1.853 -1.734,1.853c-0.313,0 -0.605,-0.081 -0.857,-0.192l0,1.662c0,0.08 -0.05,0.131 -0.121,0.131l-0.695,0c-0.071,0 -0.111,-0.051 -0.111,-0.131l0,-5.931c0,-0.091 0.05,-0.141 0.131,-0.141l0.504,0c0.07,0 0.121,0.04 0.141,0.121l0.04,0.171Zm0.867,3.413c0.585,0 0.907,-0.302 0.907,-0.956l0,-0.967c0,-0.604 -0.191,-0.997 -0.806,-0.997c-0.302,0 -0.605,0.121 -0.857,0.272l0,2.417c0.202,0.141 0.454,0.231 0.756,0.231Z" style="fill:#512c86;"/><path d="M39.457,32.069c0.867,0 1.724,0.504 1.724,1.782l-0.01,0.887c0,0.08 -0.041,0.12 -0.121,0.12l-2.42,0l0,0.242c0,0.524 0.333,0.796 0.847,0.796c0.494,0 0.827,-0.182 1.119,-0.403c0.06,-0.041 0.121,-0.03 0.161,0.03l0.323,0.473c0.05,0.061 0.04,0.131 -0.02,0.181c-0.414,0.363 -0.938,0.595 -1.613,0.595c-0.897,0 -1.744,-0.534 -1.744,-1.692l0,-1.229c0,-1.278 0.877,-1.782 1.754,-1.782Zm0.816,1.994l0,-0.222l-0.01,0c0,-0.634 -0.373,-0.886 -0.816,-0.886c-0.464,0 -0.817,0.242 -0.817,0.886l0,0.222l1.643,0Z" style="fill:#512c86;"/><path d="M45.656,35.02c0,1.077 -0.716,1.752 -1.814,1.752c-1.099,0 -1.815,-0.675 -1.815,-1.752l0,-1.158c0,-1.088 0.716,-1.783 1.815,-1.783c1.098,0 1.814,0.695 1.814,1.783l0,1.158Zm-2.701,0c0,0.553 0.312,0.845 0.887,0.845c0.564,0 0.887,-0.292 0.887,-0.845l0,-1.158c0,-0.574 -0.323,-0.887 -0.887,-0.887c-0.575,0 -0.887,0.313 -0.887,0.887l0,1.158Z" style="fill:#512c86;"/><path d="M47.48,32.472c0.303,-0.252 0.696,-0.413 1.16,-0.413c0.998,0 1.542,0.775 1.542,1.843l0,1.027c0,1.138 -0.736,1.853 -1.734,1.853c-0.312,0 -0.605,-0.081 -0.857,-0.192l0,1.662c0,0.08 -0.05,0.131 -0.121,0.131l-0.695,0c-0.071,0 -0.111,-0.051 -0.111,-0.131l0,-5.931c0,-0.091 0.05,-0.141 0.131,-0.141l0.504,0c0.071,0 0.121,0.04 0.141,0.121l0.04,0.171Zm0.867,3.413c0.585,0 0.908,-0.302 0.908,-0.956l0,-0.967c0,-0.604 -0.192,-0.997 -0.807,-0.997c-0.302,0 -0.605,0.121 -0.857,0.272l0,2.417c0.202,0.141 0.454,0.231 0.756,0.231Z" style="fill:#512c86;"/><path d="M52.511,36.772c0.161,0 0.322,-0.011 0.453,-0.031c0.061,-0.01 0.091,-0.07 0.091,-0.141l0,-0.644c0,-0.091 -0.04,-0.131 -0.121,-0.131c-0.101,0.01 -0.212,0.02 -0.302,0.02c-0.363,0 -0.525,-0.221 -0.525,-0.795l0,-4.461c0,-0.091 -0.04,-0.131 -0.121,-0.131l-0.685,0c-0.081,0 -0.121,0.04 -0.121,0.131l0,4.491c0,1.057 0.474,1.682 1.331,1.682" style="fill:#512c86;fill-rule:nonzero;"/><path d="M55.393,32.069c0.867,0 1.724,0.504 1.724,1.782l-0.01,0.887c0,0.08 -0.04,0.12 -0.121,0.12l-2.419,0l0,0.242c0,0.524 0.333,0.796 0.847,0.796c0.483,0 0.826,-0.182 1.119,-0.403c0.06,-0.041 0.121,-0.03 0.161,0.03l0.322,0.473c0.051,0.061 0.041,0.131 -0.02,0.181c-0.413,0.363 -0.937,0.595 -1.613,0.595c-0.897,0 -1.743,-0.534 -1.743,-1.692l0,-1.229c0,-1.278 0.877,-1.782 1.753,-1.782Zm0.817,1.994l0,-0.222l-0.01,0c0,-0.634 -0.373,-0.886 -0.817,-0.886c-0.463,0 -0.816,0.242 -0.816,0.886l0,0.222l1.643,0Z" style="fill:#512c86;"/></g><g><g><clipPath id="_clip2"><rect x="69.42" y="0.816" width="62.33" height="37.567"/></clipPath><g clip-path="url(#_clip2)"><path d="M82.68,19.864c-0.018,0.02 -0.053,0.061 -0.072,0.081c0.158,0.399 -0.042,0.817 -0.07,1.223c-0.027,0.729 -0.242,1.441 -0.22,2.174c-0.004,0.236 -0.057,0.47 -0.118,0.699c0.035,0.011 0.104,0.034 0.137,0.045c-0.283,0.168 -0.517,0.417 -0.825,0.542c-0.214,0.076 -0.474,-0.064 -0.465,-0.307c-0.039,-1.029 0.124,-2.052 0.152,-3.08c0.037,-0.525 0.043,-1.121 0.428,-1.529c0.209,-0.192 0.48,-0.389 0.778,-0.351c0.222,0.059 0.21,0.327 0.275,0.503Z" style="fill:#ed2124;fill-rule:nonzero;"/><path d="M82.318,17.852c-0.194,-0.028 -0.41,-0.134 -0.409,-0.359c0.007,-0.469 0.391,-0.823 0.788,-1.008c0.13,-0.064 0.276,-0.041 0.415,-0.027c0.057,0.187 0.183,0.383 0.101,0.584c-0.158,0.393 -0.547,0.61 -0.895,0.81Z" style="fill:#ed2124;fill-rule:nonzero;"/><path d="M80.151,20.16c-0.121,0.251 -0.025,0.54 -0.152,0.788c-0.055,0.243 -0.11,0.487 -0.126,0.736c-0.075,0.301 -0.129,0.606 -0.178,0.912c0.172,0.246 0.013,0.518 -0.087,0.756c-0.046,0.23 -0.114,0.481 -0.011,0.706c-0.122,0.184 -0.169,0.404 -0.197,0.619c-0.156,1.201 -0.283,2.408 -0.484,3.602c-0.049,0.244 -0.105,0.542 -0.352,0.665c-0.264,0.164 -0.669,0.085 -0.775,-0.233c-0.269,-0.988 -0.345,-2.015 -0.589,-3.007c-0.024,-0.449 -0.128,-0.887 -0.182,-1.333c-0.142,-0.896 -0.251,-1.799 -0.414,-2.692c-0.054,-0.465 -0.103,-0.934 -0.217,-1.39c-0.078,-0.195 -0.093,-0.405 -0.113,-0.612c-0.061,-0.057 -0.122,-0.114 -0.181,-0.172c-0.215,0.359 -0.393,0.741 -0.498,1.145c-0.116,0.461 -0.35,0.878 -0.505,1.325c-0.185,0.2 -0.484,0.311 -0.746,0.194c-0.191,-0.103 -0.341,-0.333 -0.263,-0.554c0.349,-1.132 0.801,-2.233 1.13,-3.373c0.185,-0.542 0.354,-1.09 0.548,-1.629c0.099,-0.301 0.416,-0.519 0.734,-0.46c0.307,0.015 0.51,0.304 0.565,0.584c0.123,0.586 0.185,1.184 0.304,1.772c0.158,0.621 0.136,1.275 0.337,1.887c0.065,0.181 0.112,0.367 0.149,0.556c0.019,0.328 0.1,0.649 0.187,0.965c-0.05,0.238 -0.043,0.477 0.063,0.7c0.03,0.405 0.028,0.829 0.197,1.206c0.126,-0.344 0.121,-0.715 0.185,-1.074c0.216,-1.385 0.439,-2.771 0.75,-4.14c0.354,-1.479 0.765,-2.941 1.157,-4.411c0.538,-1.526 1.091,-3.051 1.662,-4.566c0.265,-0.641 0.44,-1.384 1.022,-1.824c0.517,-0.443 1.438,-0.097 1.543,0.574c0.125,0.439 -0.146,0.843 -0.389,1.18c-0.607,0.493 -1.03,1.174 -1.332,1.887c-0.179,0.428 -0.392,0.844 -0.513,1.295c-0.266,0.576 -0.473,1.18 -0.674,1.783c-0.131,0.532 -0.268,1.061 -0.464,1.573c-0.104,0.268 -0.078,0.563 -0.147,0.836c-0.542,0.994 -0.728,2.126 -0.944,3.224Z" style="fill:#ed2124;fill-rule:nonzero;"/><path d="M84.054,18.536c0.203,-0.193 0.485,-0.262 0.754,-0.301c0.331,-0.046 0.609,-0.245 0.919,-0.351c0.456,-0.191 0.728,0.528 0.449,0.828c-0.311,0.339 -0.771,0.538 -0.983,0.97c-0.352,0.854 -0.225,1.795 -0.321,2.692c-0.04,0.519 -0.556,0.899 -1.049,0.91c-0.316,-0.102 -0.309,-0.5 -0.295,-0.771c0.05,-0.491 0.015,-0.985 0.064,-1.474c0.106,-0.553 0.099,-1.118 0.133,-1.678c0.03,-0.296 0.088,-0.623 0.329,-0.825Z" style="fill:#ed2124;fill-rule:nonzero;"/><path d="M91.477,19.43c-0.141,-0.2 -0.065,-0.456 -0.056,-0.681c0.119,-1.081 0.186,-2.168 0.347,-3.243c0.083,-0.462 0.554,-0.963 1.055,-0.743c0.198,0.528 -0.078,1.067 -0.029,1.608c0.02,0.435 0.002,0.872 -0.048,1.305c-0.088,0.357 -0.045,0.727 -0.057,1.09c-0.065,0.319 -0.356,0.528 -0.633,0.663c-0.175,0.1 -0.418,0.159 -0.579,0.001Z" style="fill:#ed2124;fill-rule:nonzero;"/><path d="M92.166,13.224c-0.041,-0.593 0.645,-1.06 1.197,-0.883c0.045,0.107 0.09,0.214 0.133,0.323c-0.154,0.354 -0.397,0.705 -0.761,0.864c-0.227,0.056 -0.554,-0.027 -0.569,-0.304Z" style="fill:#ed2124;fill-rule:nonzero;"/><path d="M100.746,16.711c-0.143,0.226 -0.264,0.481 -0.488,0.639c-0.372,0.295 -0.85,0.381 -1.289,0.526c-0.771,0.254 -1.509,0.599 -2.222,0.982c-2.014,1.04 -3.987,2.164 -5.87,3.427c-0.215,0.144 -0.406,0.321 -0.614,0.474c-0.04,0.75 -0.061,1.501 -0.068,2.252c-0.027,0.545 0.033,1.1 -0.054,1.639c0.036,0.221 0.066,0.449 -0.012,0.665c0.028,0.069 0.057,0.139 0.086,0.21c-0.022,0.031 -0.064,0.093 -0.086,0.125c0.015,0.086 0.023,0.176 0.018,0.265c0.018,0.399 0.215,0.783 0.124,1.185c0.023,0.027 0.07,0.081 0.093,0.108c0.033,0.109 0.068,0.218 0.104,0.327c-0.055,0.111 -0.104,0.225 -0.154,0.338c0.045,0.028 0.134,0.082 0.179,0.109c0.021,0.053 0.042,0.106 0.064,0.16c-0.028,0.047 -0.081,0.141 -0.109,0.189c0.049,0.071 0.098,0.142 0.147,0.215c-0.029,0.112 -0.055,0.227 -0.061,0.344c-0.119,0.222 -0.299,0.432 -0.556,0.495c-0.317,0.054 -0.711,-0.042 -0.867,-0.351c-0.261,-0.58 -0.135,-1.228 -0.139,-1.841c0.083,-1.865 0.065,-3.731 0.092,-5.596c-0.406,0.213 -0.75,0.517 -1.109,0.797c-1.101,0.839 -2.152,1.741 -3.227,2.613c-0.272,0.203 -0.476,0.478 -0.731,0.701c-0.473,0.373 -0.842,0.856 -1.266,1.28c-0.497,0.478 -0.932,1.015 -1.443,1.477c-0.331,0.411 -1.133,0.23 -1.221,-0.305c-0.055,-0.178 -0.022,-0.376 0.095,-0.522c0.428,-0.588 0.999,-1.048 1.519,-1.551c0.598,-0.582 1.251,-1.104 1.889,-1.639c0.739,-0.634 1.5,-1.242 2.258,-1.854c0.568,-0.409 1.132,-0.824 1.701,-1.231c0.503,-0.379 0.995,-0.772 1.522,-1.12c0.011,-0.246 0.006,-0.491 -0.003,-0.736c-0.458,0.355 -1.033,0.557 -1.615,0.518c-0.319,-0.045 -0.635,-0.261 -0.716,-0.586c-0.139,-0.477 -0.038,-0.978 -0.084,-1.465c0.059,-0.721 0.087,-1.468 0.392,-2.136c0.26,-0.524 0.625,-1.039 1.18,-1.275c0.196,-0.071 0.431,-0.154 0.621,-0.021c0.131,0.287 -0.03,0.63 -0.235,0.842c-0.276,0.277 -0.415,0.651 -0.547,1.011c-0.08,0.241 -0.155,0.495 -0.093,0.75c-0.052,0.396 -0.122,0.798 -0.072,1.199c0.031,0.167 0.107,0.369 0.297,0.403c0.414,0.013 0.793,-0.329 0.852,-0.734c0.211,-1.21 0.246,-2.439 0.371,-3.657c0.057,-0.526 0.914,-0.775 1.178,-0.28c0.068,0.725 -0.09,1.446 -0.117,2.17c-0.042,0.696 -0.152,1.391 -0.134,2.089c-0.009,0.366 -0.042,0.73 -0.039,1.096c1.038,-0.654 2.059,-1.337 3.148,-1.907c1.13,-0.682 2.306,-1.291 3.44,-1.968c-0.144,-0.119 -0.321,-0.24 -0.343,-0.442c-0.048,-0.352 0.008,-0.707 0.012,-1.061c-0.012,-0.619 0.115,-1.237 0.049,-1.855c-0.041,-0.185 -0.242,-0.195 -0.395,-0.183c-0.367,0.111 -0.552,0.477 -0.803,0.738c-0.069,0.235 -0.11,0.477 -0.177,0.713c-0.06,0.115 -0.033,0.238 -0.001,0.357c-0.045,0.055 -0.087,0.111 -0.129,0.167c0.038,0.088 0.074,0.177 0.112,0.265c-0.03,0.026 -0.09,0.078 -0.121,0.103c-0.014,0.197 -0.022,0.396 0.004,0.594c0.006,0.097 0.013,0.196 0.023,0.294c-0.012,0.128 -0.018,0.26 -0.018,0.39c-0.109,0.191 -0.153,0.442 -0.366,0.55c-0.223,0.134 -0.49,0.289 -0.756,0.187c-0.226,-0.089 -0.204,-0.376 -0.199,-0.574c0.06,-1.029 0.088,-2.059 0.153,-3.088c0.016,-0.37 0.206,-0.75 0.545,-0.923c0.328,-0.164 0.714,-0.151 1.069,-0.099c0.388,-0.099 0.56,-0.512 0.878,-0.721c0.308,-0.209 0.72,-0.389 1.084,-0.213c0.193,0.083 0.246,0.296 0.308,0.474c0.011,0.1 0.029,0.197 0.045,0.296c-0.064,0.147 -0.056,0.301 -0.011,0.452c0.001,0.115 0.003,0.231 0.008,0.347l-0.046,0.024c-0.072,0.618 0.036,1.235 -0.007,1.854c0.038,0.238 0.091,0.546 0.351,0.642c0.522,-0.122 0.96,-0.454 1.444,-0.672c0.278,-0.134 0.6,-0.097 0.89,-0.031c0.189,0.123 0.262,0.355 0.268,0.57Z" style="fill:#ed2124;fill-rule:nonzero;"/><path d="M117.699,19.516c0.004,-0.352 0.016,-0.748 -0.224,-1.034c-0.417,-0.498 -1.3,-0.447 -1.663,0.093c-0.346,-0.571 -1.243,-0.57 -1.633,-0.047c-0.005,-0.134 -0.021,-0.329 -0.205,-0.306c-0.173,0.017 -0.507,-0.092 -0.522,0.165c-0.005,0.827 -0.013,1.655 0.003,2.48c0.013,0.172 0.237,0.129 0.356,0.14c0.124,-0.015 0.355,0.042 0.383,-0.135c0.043,-0.561 -0.031,-1.129 0.034,-1.687c0.098,-0.439 0.823,-0.493 0.952,-0.048c0.087,0.595 -0.02,1.205 0.052,1.804c0.11,0.087 0.259,0.058 0.39,0.066c0.11,-0.015 0.273,0.027 0.326,-0.106c0.041,-0.534 -0.01,-1.072 0.021,-1.607c0.009,-0.307 0.333,-0.532 0.625,-0.455c0.187,0.027 0.34,0.191 0.355,0.379c0.036,0.547 -0.017,1.099 0.024,1.647c0.017,0.178 0.244,0.131 0.367,0.142c0.118,-0.01 0.336,0.028 0.35,-0.142c0.023,-0.45 0,-0.9 0.009,-1.349Zm1.131,-0.221c0.069,-0.349 0.404,-0.618 0.766,-0.539c0.285,0.023 0.468,0.274 0.514,0.539c-0.426,0.003 -0.853,0.003 -1.28,0Zm1.504,-0.897c-0.517,-0.374 -1.301,-0.356 -1.774,0.084c-0.699,0.617 -0.621,1.91 0.193,2.395c0.669,0.426 1.766,0.205 2.014,-0.609c-0.129,-0.176 -0.38,-0.168 -0.572,-0.231c-0.147,0.197 -0.334,0.407 -0.603,0.401c-0.385,0.045 -0.722,-0.256 -0.779,-0.627c0.584,-0.006 1.168,0.002 1.753,-0.002c0.105,-0.005 0.27,0.016 0.264,-0.14c0.032,-0.465 -0.111,-0.98 -0.496,-1.271Zm2.25,1.994c-0.746,-0.045 -0.855,-1.259 -0.195,-1.517c0.219,-0.085 0.481,-0.057 0.669,0.087c0.521,0.409 0.267,1.511 -0.474,1.43Zm1.462,-3.393c-0.177,-0.161 -0.499,-0.104 -0.714,-0.037c-0.033,0.498 -0.016,0.999 -0.005,1.497c-0.477,-0.478 -1.336,-0.376 -1.763,0.119c-0.47,0.532 -0.492,1.395 -0.078,1.966c0.395,0.568 1.356,0.749 1.833,0.185c0.027,0.085 0,0.212 0.094,0.262c0.22,0.03 0.443,0.013 0.662,-0.018c-0.045,-1.324 0.02,-2.651 -0.029,-3.974Zm1.398,1.32c-0.159,-0.186 -0.459,-0.08 -0.674,-0.081c-0.016,0.024 -0.045,0.071 -0.06,0.095c-0.027,0.77 -0.001,1.541 -0.012,2.311c0.014,0.113 -0.036,0.274 0.089,0.34c0.186,0.031 0.378,0.03 0.565,0.003c0.149,-0.044 0.086,-0.229 0.106,-0.343c-0.012,-0.775 0.017,-1.552 -0.014,-2.325Zm-0.593,-1.42c-0.289,0.146 -0.329,0.595 -0.056,0.78c0.27,0.225 0.736,0.021 0.747,-0.334c0.044,-0.354 -0.385,-0.633 -0.691,-0.446Zm2.459,3.494c-0.786,-0.033 -0.871,-1.354 -0.134,-1.541c0.205,-0.057 0.438,-0.016 0.606,0.12c0.504,0.413 0.259,1.489 -0.472,1.421Zm1.451,-2.095c-0.2,-0.155 -0.482,-0.052 -0.715,-0.059c-0.003,0.056 -0.008,0.167 -0.011,0.223c-0.411,-0.433 -1.145,-0.392 -1.592,-0.038c-0.624,0.495 -0.7,1.493 -0.24,2.123c0.407,0.581 1.367,0.734 1.856,0.172c-0.003,0.063 -0.009,0.188 -0.011,0.251c0.237,0.034 0.483,0.059 0.721,0.007c0.007,-0.891 0.024,-1.788 -0.008,-2.679Zm-1.451,2.095c-0.786,-0.033 -0.871,-1.354 -0.134,-1.541c0.205,-0.057 0.438,-0.016 0.606,0.12c0.504,0.413 0.259,1.489 -0.472,1.421Zm1.451,-2.095c-0.2,-0.155 -0.482,-0.052 -0.715,-0.059c-0.003,0.056 -0.008,0.167 -0.011,0.223c-0.411,-0.433 -1.145,-0.392 -1.592,-0.038c-0.624,0.495 -0.7,1.493 -0.24,2.123c0.407,0.581 1.367,0.734 1.856,0.172c-0.003,0.063 -0.009,0.188 -0.011,0.251c0.237,0.034 0.483,0.059 0.721,0.007c0.007,-0.891 0.024,-1.788 -0.008,-2.679Zm-3.91,-1.399c-0.289,0.146 -0.329,0.595 -0.056,0.78c0.27,0.225 0.736,0.021 0.747,-0.334c0.044,-0.354 -0.385,-0.633 -0.691,-0.446Zm0.593,1.42c-0.159,-0.186 -0.459,-0.08 -0.674,-0.081c-0.016,0.024 -0.045,0.071 -0.06,0.095c-0.027,0.77 -0.001,1.541 -0.012,2.311c0.014,0.113 -0.036,0.274 0.089,0.34c0.186,0.031 0.378,0.03 0.565,0.003c0.149,-0.044 0.086,-0.229 0.106,-0.343c-0.012,-0.775 0.017,-1.552 -0.014,-2.325Zm-2.86,2.073c-0.746,-0.045 -0.855,-1.259 -0.195,-1.517c0.219,-0.085 0.481,-0.057 0.669,0.087c0.521,0.409 0.267,1.511 -0.474,1.43Zm1.462,-3.393c-0.177,-0.161 -0.499,-0.104 -0.714,-0.037c-0.033,0.498 -0.016,0.999 -0.005,1.497c-0.477,-0.478 -1.336,-0.376 -1.763,0.119c-0.47,0.532 -0.492,1.395 -0.078,1.966c0.395,0.568 1.356,0.749 1.833,0.185c0.027,0.085 0,0.212 0.094,0.262c0.22,0.03 0.443,0.013 0.662,-0.018c-0.045,-1.324 0.02,-2.651 -0.029,-3.974Zm-5.216,2.296c0.069,-0.349 0.404,-0.618 0.766,-0.539c0.285,0.023 0.468,0.274 0.514,0.539c-0.426,0.003 -0.853,0.003 -1.28,0Zm1.504,-0.897c-0.517,-0.374 -1.301,-0.356 -1.774,0.084c-0.699,0.617 -0.621,1.91 0.193,2.395c0.669,0.426 1.766,0.205 2.014,-0.609c-0.129,-0.176 -0.38,-0.168 -0.572,-0.231c-0.147,0.197 -0.334,0.407 -0.603,0.401c-0.385,0.045 -0.722,-0.256 -0.779,-0.627c0.584,-0.006 1.168,0.002 1.753,-0.002c0.105,-0.005 0.27,0.016 0.264,-0.14c0.032,-0.465 -0.111,-0.98 -0.496,-1.271Zm-2.635,1.118c0.004,-0.352 0.016,-0.748 -0.224,-1.034c-0.417,-0.498 -1.3,-0.447 -1.663,0.093c-0.346,-0.571 -1.243,-0.57 -1.633,-0.047c-0.005,-0.134 -0.021,-0.329 -0.205,-0.306c-0.173,0.017 -0.507,-0.092 -0.522,0.165c-0.005,0.827 -0.013,1.655 0.003,2.48c0.013,0.172 0.237,0.129 0.356,0.14c0.124,-0.015 0.355,0.042 0.383,-0.135c0.043,-0.561 -0.031,-1.129 0.034,-1.687c0.098,-0.439 0.823,-0.493 0.952,-0.048c0.087,0.595 -0.02,1.205 0.052,1.804c0.11,0.087 0.259,0.058 0.39,0.066c0.11,-0.015 0.273,0.027 0.326,-0.106c0.041,-0.534 -0.01,-1.072 0.021,-1.607c0.009,-0.307 0.333,-0.532 0.625,-0.455c0.187,0.027 0.34,0.191 0.355,0.379c0.036,0.547 -0.017,1.099 0.024,1.647c0.017,0.178 0.244,0.131 0.367,0.142c0.118,-0.01 0.336,0.028 0.35,-0.142c0.023,-0.45 0,-0.9 0.009,-1.349Zm-0.224,-1.034c-0.417,-0.498 -1.3,-0.447 -1.663,0.093c-0.346,-0.571 -1.243,-0.57 -1.633,-0.047c-0.005,-0.134 -0.021,-0.329 -0.205,-0.306c-0.173,0.017 -0.507,-0.092 -0.522,0.165c-0.005,0.827 -0.013,1.655 0.003,2.48c0.013,0.172 0.237,0.129 0.356,0.14c0.124,-0.015 0.355,0.042 0.383,-0.135c0.043,-0.561 -0.031,-1.129 0.034,-1.687c0.098,-0.439 0.823,-0.493 0.952,-0.048c0.087,0.595 -0.02,1.205 0.052,1.804c0.11,0.087 0.259,0.058 0.39,0.066c0.11,-0.015 0.273,0.027 0.326,-0.106c0.041,-0.534 -0.01,-1.072 0.021,-1.607c0.009,-0.307 0.333,-0.532 0.625,-0.455c0.187,0.027 0.34,0.191 0.355,0.379c0.036,0.547 -0.017,1.099 0.024,1.647c0.017,0.178 0.244,0.131 0.367,0.142c0.118,-0.01 0.336,0.028 0.35,-0.142c0.023,-0.45 0,-0.9 0.009,-1.349c0.004,-0.352 0.016,-0.748 -0.224,-1.034Zm1.355,0.813c0.069,-0.349 0.404,-0.618 0.766,-0.539c0.285,0.023 0.468,0.274 0.514,0.539c-0.426,0.003 -0.853,0.003 -1.28,0Zm1.504,-0.897c-0.517,-0.374 -1.301,-0.356 -1.774,0.084c-0.699,0.617 -0.621,1.91 0.193,2.395c0.669,0.426 1.766,0.205 2.014,-0.609c-0.129,-0.176 -0.38,-0.168 -0.572,-0.231c-0.147,0.197 -0.334,0.407 -0.603,0.401c-0.385,0.045 -0.722,-0.256 -0.779,-0.627c0.584,-0.006 1.168,0.002 1.753,-0.002c0.105,-0.005 0.27,0.016 0.264,-0.14c0.032,-0.465 -0.111,-0.98 -0.496,-1.271Zm2.25,1.994c-0.746,-0.045 -0.855,-1.259 -0.195,-1.517c0.219,-0.085 0.481,-0.057 0.669,0.087c0.521,0.409 0.267,1.511 -0.474,1.43Zm1.462,-3.393c-0.177,-0.161 -0.499,-0.104 -0.714,-0.037c-0.033,0.498 -0.016,0.999 -0.005,1.497c-0.477,-0.478 -1.336,-0.376 -1.763,0.119c-0.47,0.532 -0.492,1.395 -0.078,1.966c0.395,0.568 1.356,0.749 1.833,0.185c0.027,0.085 0,0.212 0.094,0.262c0.22,0.03 0.443,0.013 0.662,-0.018c-0.045,-1.324 0.02,-2.651 -0.029,-3.974Zm1.398,1.32c-0.159,-0.186 -0.459,-0.08 -0.674,-0.081c-0.016,0.024 -0.045,0.071 -0.06,0.095c-0.027,0.77 -0.001,1.541 -0.012,2.311c0.014,0.113 -0.036,0.274 0.089,0.34c0.186,0.031 0.378,0.03 0.565,0.003c0.149,-0.044 0.086,-0.229 0.106,-0.343c-0.012,-0.775 0.017,-1.552 -0.014,-2.325Zm-0.593,-1.42c-0.289,0.146 -0.329,0.595 -0.056,0.78c0.27,0.225 0.736,0.021 0.747,-0.334c0.044,-0.354 -0.385,-0.633 -0.691,-0.446Zm2.459,3.494c-0.786,-0.033 -0.871,-1.354 -0.134,-1.541c0.205,-0.057 0.438,-0.016 0.606,0.12c0.504,0.413 0.259,1.489 -0.472,1.421Zm0.736,-2.154c-0.003,0.056 -0.008,0.167 -0.011,0.223c-0.411,-0.433 -1.145,-0.392 -1.592,-0.038c-0.624,0.495 -0.7,1.493 -0.24,2.123c0.407,0.581 1.367,0.734 1.856,0.172c-0.003,0.063 -0.009,0.188 -0.011,0.251c0.237,0.034 0.483,0.059 0.721,0.007c0.007,-0.891 0.024,-1.788 -0.008,-2.679c-0.2,-0.155 -0.482,-0.052 -0.715,-0.059Zm2.575,2.325c-0.091,1.521 -0.374,3.042 -0.951,4.457c-0.466,1.138 -1.137,2.213 -2.069,3.027c-0.934,0.826 -2.131,1.338 -3.369,1.473c-1.461,0.171 -2.937,-0.155 -4.293,-0.692c-2.072,-0.835 -3.932,-2.136 -5.581,-3.631c-0.929,-0.845 -1.785,-1.771 -2.552,-2.764c-0.74,-0.938 -1.467,-1.884 -2.199,-2.828c0.88,-1.131 1.75,-2.271 2.649,-3.389c1.511,-1.814 3.308,-3.395 5.32,-4.636c1.383,-0.841 2.886,-1.526 4.489,-1.81c1.335,-0.241 2.753,-0.141 4,0.413c1.011,0.441 1.874,1.179 2.525,2.062c0.809,1.092 1.319,2.376 1.637,3.689c0.362,1.512 0.479,3.078 0.394,4.629Zm-33.274,11.036c-2.219,1.769 -4.643,3.309 -7.284,4.365c-2.666,1.066 -5.603,1.62 -8.462,1.15c-1.553,-0.251 -3.062,-0.814 -4.367,-1.698c-1.812,-1.237 -3.201,-3.01 -4.227,-4.934c-1.199,-2.265 -1.911,-4.767 -2.252,-7.301c-0.448,-3.443 -0.269,-6.981 0.641,-10.337c0.8,-2.907 2.184,-5.725 4.367,-7.844c1.595,-1.586 3.72,-2.593 5.937,-2.928c2.868,-0.455 5.807,0.125 8.471,1.209c3.449,1.407 6.513,3.616 9.255,6.115c3.328,3.038 6.188,6.55 8.809,10.208c-3.14,4.403 -6.653,8.601 -10.888,11.995Zm34.257,-14.254c-0.189,-1.437 -0.556,-2.858 -1.18,-4.171c-0.488,-1.023 -1.142,-1.976 -1.984,-2.742c-0.92,-0.849 -2.073,-1.435 -3.295,-1.701c-1.24,-0.277 -2.537,-0.226 -3.771,0.052c-1.55,0.349 -3.012,1.018 -4.367,1.841c-2.125,1.303 -4.017,2.981 -5.607,4.9c-0.838,1.044 -1.657,2.103 -2.473,3.165c-2.376,-3.315 -4.967,-6.49 -7.911,-9.319c-2.679,-2.567 -5.656,-4.871 -9.005,-6.497c-2.679,-1.298 -5.635,-2.128 -8.629,-2.053c-2.47,0.049 -4.955,0.766 -6.976,2.209c-2.371,1.711 -4.088,4.201 -5.197,6.882c-1.318,3.197 -1.831,6.683 -1.787,10.128c0.046,3.075 0.552,6.168 1.694,9.032c1.006,2.522 2.539,4.874 4.642,6.615c1.986,1.644 4.536,2.515 7.092,2.669c2.694,0.165 5.383,-0.454 7.864,-1.474c2.732,-1.128 5.237,-2.747 7.531,-4.599c4.13,-3.352 7.593,-7.447 10.682,-11.758c0.717,0.929 1.435,1.857 2.163,2.778c0.852,1.083 1.803,2.087 2.837,2.999c1.693,1.49 3.597,2.774 5.705,3.595c1.554,0.601 3.25,0.929 4.915,0.693c1.503,-0.202 2.94,-0.88 4.032,-1.937c1.513,-1.46 2.369,-3.47 2.804,-5.498c0.403,-1.905 0.469,-3.879 0.221,-5.809Zm-14.129,1.136c-0.417,-0.498 -1.3,-0.447 -1.663,0.093c-0.346,-0.571 -1.243,-0.57 -1.633,-0.047c-0.005,-0.134 -0.021,-0.329 -0.205,-0.306c-0.173,0.017 -0.507,-0.092 -0.522,0.165c-0.005,0.827 -0.013,1.655 0.003,2.48c0.013,0.172 0.237,0.129 0.356,0.14c0.124,-0.015 0.355,0.042 0.383,-0.135c0.043,-0.561 -0.031,-1.129 0.034,-1.687c0.098,-0.439 0.823,-0.493 0.952,-0.048c0.087,0.595 -0.02,1.205 0.052,1.804c0.11,0.087 0.259,0.058 0.39,0.066c0.11,-0.015 0.273,0.027 0.326,-0.106c0.041,-0.534 -0.01,-1.072 0.021,-1.607c0.009,-0.307 0.333,-0.532 0.625,-0.455c0.187,0.027 0.34,0.191 0.355,0.379c0.036,0.547 -0.017,1.099 0.024,1.647c0.017,0.178 0.244,0.131 0.367,0.142c0.118,-0.01 0.336,0.028 0.35,-0.142c0.023,-0.45 0,-0.9 0.009,-1.349c0.004,-0.352 0.016,-0.748 -0.224,-1.034Zm1.355,0.813c0.069,-0.349 0.404,-0.618 0.766,-0.539c0.285,0.023 0.468,0.274 0.514,0.539c-0.426,0.003 -0.853,0.003 -1.28,0Zm1.504,-0.897c-0.517,-0.374 -1.301,-0.356 -1.774,0.084c-0.699,0.617 -0.621,1.91 0.193,2.395c0.669,0.426 1.766,0.205 2.014,-0.609c-0.129,-0.176 -0.38,-0.168 -0.572,-0.231c-0.147,0.197 -0.334,0.407 -0.603,0.401c-0.385,0.045 -0.722,-0.256 -0.779,-0.627c0.584,-0.006 1.168,0.002 1.753,-0.002c0.105,-0.005 0.27,0.016 0.264,-0.14c0.032,-0.465 -0.111,-0.98 -0.496,-1.271Zm2.25,1.994c-0.746,-0.045 -0.855,-1.259 -0.195,-1.517c0.219,-0.085 0.481,-0.057 0.669,0.087c0.521,0.409 0.267,1.511 -0.474,1.43Zm1.462,-3.393c-0.177,-0.161 -0.499,-0.104 -0.714,-0.037c-0.033,0.498 -0.016,0.999 -0.005,1.497c-0.477,-0.478 -1.336,-0.376 -1.763,0.119c-0.47,0.532 -0.492,1.395 -0.078,1.966c0.395,0.568 1.356,0.749 1.833,0.185c0.027,0.085 0,0.212 0.094,0.262c0.22,0.03 0.443,0.013 0.662,-0.018c-0.045,-1.324 0.02,-2.651 -0.029,-3.974Zm1.398,1.32c-0.159,-0.186 -0.459,-0.08 -0.674,-0.081c-0.016,0.024 -0.045,0.071 -0.06,0.095c-0.027,0.77 -0.001,1.541 -0.012,2.311c0.014,0.113 -0.036,0.274 0.089,0.34c0.186,0.031 0.378,0.03 0.565,0.003c0.149,-0.044 0.086,-0.229 0.106,-0.343c-0.012,-0.775 0.017,-1.552 -0.014,-2.325Zm-0.593,-1.42c-0.289,0.146 -0.329,0.595 -0.056,0.78c0.27,0.225 0.736,0.021 0.747,-0.334c0.044,-0.354 -0.385,-0.633 -0.691,-0.446Zm2.459,3.494c-0.786,-0.033 -0.871,-1.354 -0.134,-1.541c0.205,-0.057 0.438,-0.016 0.606,0.12c0.504,0.413 0.259,1.489 -0.472,1.421Zm1.451,-2.095c-0.2,-0.155 -0.482,-0.052 -0.715,-0.059c-0.003,0.056 -0.008,0.167 -0.011,0.223c-0.411,-0.433 -1.145,-0.392 -1.592,-0.038c-0.624,0.495 -0.7,1.493 -0.24,2.123c0.407,0.581 1.367,0.734 1.856,0.172c-0.003,0.063 -0.009,0.188 -0.011,0.251c0.237,0.034 0.483,0.059 0.721,0.007c0.007,-0.891 0.024,-1.788 -0.008,-2.679Zm-1.451,2.095c-0.786,-0.033 -0.871,-1.354 -0.134,-1.541c0.205,-0.057 0.438,-0.016 0.606,0.12c0.504,0.413 0.259,1.489 -0.472,1.421Zm1.451,-2.095c-0.2,-0.155 -0.482,-0.052 -0.715,-0.059c-0.003,0.056 -0.008,0.167 -0.011,0.223c-0.411,-0.433 -1.145,-0.392 -1.592,-0.038c-0.624,0.495 -0.7,1.493 -0.24,2.123c0.407,0.581 1.367,0.734 1.856,0.172c-0.003,0.063 -0.009,0.188 -0.011,0.251c0.237,0.034 0.483,0.059 0.721,0.007c0.007,-0.891 0.024,-1.788 -0.008,-2.679Zm-3.91,-1.399c-0.289,0.146 -0.329,0.595 -0.056,0.78c0.27,0.225 0.736,0.021 0.747,-0.334c0.044,-0.354 -0.385,-0.633 -0.691,-0.446Zm0.593,1.42c-0.159,-0.186 -0.459,-0.08 -0.674,-0.081c-0.016,0.024 -0.045,0.071 -0.06,0.095c-0.027,0.77 -0.001,1.541 -0.012,2.311c0.014,0.113 -0.036,0.274 0.089,0.34c0.186,0.031 0.378,0.03 0.565,0.003c0.149,-0.044 0.086,-0.229 0.106,-0.343c-0.012,-0.775 0.017,-1.552 -0.014,-2.325Zm-2.86,2.073c-0.746,-0.045 -0.855,-1.259 -0.195,-1.517c0.219,-0.085 0.481,-0.057 0.669,0.087c0.521,0.409 0.267,1.511 -0.474,1.43Zm1.462,-3.393c-0.177,-0.161 -0.499,-0.104 -0.714,-0.037c-0.033,0.498 -0.016,0.999 -0.005,1.497c-0.477,-0.478 -1.336,-0.376 -1.763,0.119c-0.47,0.532 -0.492,1.395 -0.078,1.966c0.395,0.568 1.356,0.749 1.833,0.185c0.027,0.085 0,0.212 0.094,0.262c0.22,0.03 0.443,0.013 0.662,-0.018c-0.045,-1.324 0.02,-2.651 -0.029,-3.974Zm-5.216,2.296c0.069,-0.349 0.404,-0.618 0.766,-0.539c0.285,0.023 0.468,0.274 0.514,0.539c-0.426,0.003 -0.853,0.003 -1.28,0Zm1.504,-0.897c-0.517,-0.374 -1.301,-0.356 -1.774,0.084c-0.699,0.617 -0.621,1.91 0.193,2.395c0.669,0.426 1.766,0.205 2.014,-0.609c-0.129,-0.176 -0.38,-0.168 -0.572,-0.231c-0.147,0.197 -0.334,0.407 -0.603,0.401c-0.385,0.045 -0.722,-0.256 -0.779,-0.627c0.584,-0.006 1.168,0.002 1.753,-0.002c0.105,-0.005 0.27,0.016 0.264,-0.14c0.032,-0.465 -0.111,-0.98 -0.496,-1.271Zm-2.635,1.118c0.004,-0.352 0.016,-0.748 -0.224,-1.034c-0.417,-0.498 -1.3,-0.447 -1.663,0.093c-0.346,-0.571 -1.243,-0.57 -1.633,-0.047c-0.005,-0.134 -0.021,-0.329 -0.205,-0.306c-0.173,0.017 -0.507,-0.092 -0.522,0.165c-0.005,0.827 -0.013,1.655 0.003,2.48c0.013,0.172 0.237,0.129 0.356,0.14c0.124,-0.015 0.355,0.042 0.383,-0.135c0.043,-0.561 -0.031,-1.129 0.034,-1.687c0.098,-0.439 0.823,-0.493 0.952,-0.048c0.087,0.595 -0.02,1.205 0.052,1.804c0.11,0.087 0.259,0.058 0.39,0.066c0.11,-0.015 0.273,0.027 0.326,-0.106c0.041,-0.534 -0.01,-1.072 0.021,-1.607c0.009,-0.307 0.333,-0.532 0.625,-0.455c0.187,0.027 0.34,0.191 0.355,0.379c0.036,0.547 -0.017,1.099 0.024,1.647c0.017,0.178 0.244,0.131 0.367,0.142c0.118,-0.01 0.336,0.028 0.35,-0.142c0.023,-0.45 0,-0.9 0.009,-1.349Zm0,0c0.004,-0.352 0.016,-0.748 -0.224,-1.034c-0.417,-0.498 -1.3,-0.447 -1.663,0.093c-0.346,-0.571 -1.243,-0.57 -1.633,-0.047c-0.005,-0.134 -0.021,-0.329 -0.205,-0.306c-0.173,0.017 -0.507,-0.092 -0.522,0.165c-0.005,0.827 -0.013,1.655 0.003,2.48c0.013,0.172 0.237,0.129 0.356,0.14c0.124,-0.015 0.355,0.042 0.383,-0.135c0.043,-0.561 -0.031,-1.129 0.034,-1.687c0.098,-0.439 0.823,-0.493 0.952,-0.048c0.087,0.595 -0.02,1.205 0.052,1.804c0.11,0.087 0.259,0.058 0.39,0.066c0.11,-0.015 0.273,0.027 0.326,-0.106c0.041,-0.534 -0.01,-1.072 0.021,-1.607c0.009,-0.307 0.333,-0.532 0.625,-0.455c0.187,0.027 0.34,0.191 0.355,0.379c0.036,0.547 -0.017,1.099 0.024,1.647c0.017,0.178 0.244,0.131 0.367,0.142c0.118,-0.01 0.336,0.028 0.35,-0.142c0.023,-0.45 0,-0.9 0.009,-1.349Zm1.131,-0.221c0.069,-0.349 0.404,-0.618 0.766,-0.539c0.285,0.023 0.468,0.274 0.514,0.539c-0.426,0.003 -0.853,0.003 -1.28,0Zm1.504,-0.897c-0.517,-0.374 -1.301,-0.356 -1.774,0.084c-0.699,0.617 -0.621,1.91 0.193,2.395c0.669,0.426 1.766,0.205 2.014,-0.609c-0.129,-0.176 -0.38,-0.168 -0.572,-0.231c-0.147,0.197 -0.334,0.407 -0.603,0.401c-0.385,0.045 -0.722,-0.256 -0.779,-0.627c0.584,-0.006 1.168,0.002 1.753,-0.002c0.105,-0.005 0.27,0.016 0.264,-0.14c0.032,-0.465 -0.111,-0.98 -0.496,-1.271Zm2.25,1.994c-0.746,-0.045 -0.855,-1.259 -0.195,-1.517c0.219,-0.085 0.481,-0.057 0.669,0.087c0.521,0.409 0.267,1.511 -0.474,1.43Zm1.462,-3.393c-0.177,-0.161 -0.499,-0.104 -0.714,-0.037c-0.033,0.498 -0.016,0.999 -0.005,1.497c-0.477,-0.478 -1.336,-0.376 -1.763,0.119c-0.47,0.532 -0.492,1.395 -0.078,1.966c0.395,0.568 1.356,0.749 1.833,0.185c0.027,0.085 0,0.212 0.094,0.262c0.22,0.03 0.443,0.013 0.662,-0.018c-0.045,-1.324 0.02,-2.651 -0.029,-3.974Zm1.398,1.32c-0.159,-0.186 -0.459,-0.08 -0.674,-0.081c-0.016,0.024 -0.045,0.071 -0.06,0.095c-0.027,0.77 -0.001,1.541 -0.012,2.311c0.014,0.113 -0.036,0.274 0.089,0.34c0.186,0.031 0.378,0.03 0.565,0.003c0.149,-0.044 0.086,-0.229 0.106,-0.343c-0.012,-0.775 0.017,-1.552 -0.014,-2.325Zm-0.593,-1.42c-0.289,0.146 -0.329,0.595 -0.056,0.78c0.27,0.225 0.736,0.021 0.747,-0.334c0.044,-0.354 -0.385,-0.633 -0.691,-0.446Zm2.459,3.494c-0.786,-0.033 -0.871,-1.354 -0.134,-1.541c0.205,-0.057 0.438,-0.016 0.606,0.12c0.504,0.413 0.259,1.489 -0.472,1.421Zm1.451,-2.095c-0.2,-0.155 -0.482,-0.052 -0.715,-0.059c-0.003,0.056 -0.008,0.167 -0.011,0.223c-0.411,-0.433 -1.145,-0.392 -1.592,-0.038c-0.624,0.495 -0.7,1.493 -0.24,2.123c0.407,0.581 1.367,0.734 1.856,0.172c-0.003,0.063 -0.009,0.188 -0.011,0.251c0.237,0.034 0.483,0.059 0.721,0.007c0.007,-0.891 0.024,-1.788 -0.008,-2.679Zm-1.451,2.095c-0.786,-0.033 -0.871,-1.354 -0.134,-1.541c0.205,-0.057 0.438,-0.016 0.606,0.12c0.504,0.413 0.259,1.489 -0.472,1.421Zm1.451,-2.095c-0.2,-0.155 -0.482,-0.052 -0.715,-0.059c-0.003,0.056 -0.008,0.167 -0.011,0.223c-0.411,-0.433 -1.145,-0.392 -1.592,-0.038c-0.624,0.495 -0.7,1.493 -0.24,2.123c0.407,0.581 1.367,0.734 1.856,0.172c-0.003,0.063 -0.009,0.188 -0.011,0.251c0.237,0.034 0.483,0.059 0.721,0.007c0.007,-0.891 0.024,-1.788 -0.008,-2.679Zm-3.91,-1.399c-0.289,0.146 -0.329,0.595 -0.056,0.78c0.27,0.225 0.736,0.021 0.747,-0.334c0.044,-0.354 -0.385,-0.633 -0.691,-0.446Zm0.593,1.42c-0.159,-0.186 -0.459,-0.08 -0.674,-0.081c-0.016,0.024 -0.045,0.071 -0.06,0.095c-0.027,0.77 -0.001,1.541 -0.012,2.311c0.014,0.113 -0.036,0.274 0.089,0.34c0.186,0.031 0.378,0.03 0.565,0.003c0.149,-0.044 0.086,-0.229 0.106,-0.343c-0.012,-0.775 0.017,-1.552 -0.014,-2.325Zm-2.86,2.073c-0.746,-0.045 -0.855,-1.259 -0.195,-1.517c0.219,-0.085 0.481,-0.057 0.669,0.087c0.521,0.409 0.267,1.511 -0.474,1.43Zm1.462,-3.393c-0.177,-0.161 -0.499,-0.104 -0.714,-0.037c-0.033,0.498 -0.016,0.999 -0.005,1.497c-0.477,-0.478 -1.336,-0.376 -1.763,0.119c-0.47,0.532 -0.492,1.395 -0.078,1.966c0.395,0.568 1.356,0.749 1.833,0.185c0.027,0.085 0,0.212 0.094,0.262c0.22,0.03 0.443,0.013 0.662,-0.018c-0.045,-1.324 0.02,-2.651 -0.029,-3.974Zm-5.216,2.296c0.069,-0.349 0.404,-0.618 0.766,-0.539c0.285,0.023 0.468,0.274 0.514,0.539c-0.426,0.003 -0.853,0.003 -1.28,0Zm1.504,-0.897c-0.517,-0.374 -1.301,-0.356 -1.774,0.084c-0.699,0.617 -0.621,1.91 0.193,2.395c0.669,0.426 1.766,0.205 2.014,-0.609c-0.129,-0.176 -0.38,-0.168 -0.572,-0.231c-0.147,0.197 -0.334,0.407 -0.603,0.401c-0.385,0.045 -0.722,-0.256 -0.779,-0.627c0.584,-0.006 1.168,0.002 1.753,-0.002c0.105,-0.005 0.27,0.016 0.264,-0.14c0.032,-0.465 -0.111,-0.98 -0.496,-1.271Zm-2.635,1.118c0.004,-0.352 0.016,-0.748 -0.224,-1.034c-0.417,-0.498 -1.3,-0.447 -1.663,0.093c-0.346,-0.571 -1.243,-0.57 -1.633,-0.047c-0.005,-0.134 -0.021,-0.329 -0.205,-0.306c-0.173,0.017 -0.507,-0.092 -0.522,0.165c-0.005,0.827 -0.013,1.655 0.003,2.48c0.013,0.172 0.237,0.129 0.356,0.14c0.124,-0.015 0.355,0.042 0.383,-0.135c0.043,-0.561 -0.031,-1.129 0.034,-1.687c0.098,-0.439 0.823,-0.493 0.952,-0.048c0.087,0.595 -0.02,1.205 0.052,1.804c0.11,0.087 0.259,0.058 0.39,0.066c0.11,-0.015 0.273,0.027 0.326,-0.106c0.041,-0.534 -0.01,-1.072 0.021,-1.607c0.009,-0.307 0.333,-0.532 0.625,-0.455c0.187,0.027 0.34,0.191 0.355,0.379c0.036,0.547 -0.017,1.099 0.024,1.647c0.017,0.178 0.244,0.131 0.367,0.142c0.118,-0.01 0.336,0.028 0.35,-0.142c0.023,-0.45 0,-0.9 0.009,-1.349Z" style="fill:#ed2124;fill-rule:nonzero;"/><path d="M82.68,19.864c-0.018,0.02 -0.053,0.061 -0.072,0.081c0.158,0.399 -0.042,0.817 -0.07,1.223c-0.027,0.729 -0.242,1.441 -0.22,2.174c-0.004,0.236 -0.057,0.47 -0.118,0.699c0.035,0.011 0.104,0.034 0.137,0.045c-0.283,0.168 -0.517,0.417 -0.825,0.542c-0.214,0.076 -0.474,-0.064 -0.465,-0.307c-0.039,-1.029 0.124,-2.052 0.152,-3.08c0.037,-0.525 0.043,-1.121 0.428,-1.529c0.209,-0.192 0.48,-0.389 0.778,-0.351c0.222,0.059 0.21,0.327 0.275,0.503Z" style="fill:#fff;fill-rule:nonzero;"/><path d="M82.318,17.852c-0.194,-0.028 -0.41,-0.134 -0.409,-0.359c0.007,-0.469 0.391,-0.823 0.788,-1.008c0.13,-0.064 0.276,-0.041 0.415,-0.027c0.057,0.187 0.183,0.383 0.101,0.584c-0.158,0.393 -0.547,0.61 -0.895,0.81Z" style="fill:#fff;fill-rule:nonzero;"/><path d="M80.151,20.16c-0.121,0.251 -0.025,0.54 -0.152,0.788c-0.055,0.243 -0.11,0.487 -0.126,0.736c-0.075,0.301 -0.129,0.606 -0.178,0.912c0.172,0.246 0.013,0.518 -0.087,0.756c-0.046,0.23 -0.114,0.481 -0.011,0.706c-0.122,0.184 -0.169,0.404 -0.197,0.619c-0.156,1.201 -0.283,2.408 -0.484,3.602c-0.049,0.244 -0.105,0.542 -0.352,0.665c-0.264,0.164 -0.669,0.085 -0.775,-0.233c-0.269,-0.988 -0.345,-2.015 -0.589,-3.007c-0.024,-0.449 -0.128,-0.887 -0.182,-1.333c-0.142,-0.896 -0.251,-1.799 -0.414,-2.692c-0.054,-0.465 -0.103,-0.934 -0.217,-1.39c-0.078,-0.195 -0.093,-0.405 -0.113,-0.612c-0.061,-0.057 -0.122,-0.114 -0.181,-0.172c-0.215,0.359 -0.393,0.741 -0.498,1.145c-0.116,0.461 -0.35,0.878 -0.505,1.325c-0.185,0.2 -0.484,0.311 -0.746,0.194c-0.191,-0.103 -0.341,-0.333 -0.263,-0.554c0.349,-1.132 0.801,-2.233 1.13,-3.373c0.185,-0.542 0.354,-1.09 0.548,-1.629c0.099,-0.301 0.416,-0.519 0.734,-0.46c0.307,0.015 0.51,0.304 0.565,0.584c0.123,0.586 0.185,1.184 0.304,1.772c0.158,0.621 0.136,1.275 0.337,1.887c0.065,0.181 0.112,0.367 0.149,0.556c0.019,0.328 0.1,0.649 0.187,0.965c-0.05,0.238 -0.043,0.477 0.063,0.7c0.03,0.405 0.028,0.829 0.197,1.206c0.126,-0.344 0.121,-0.715 0.185,-1.074c0.216,-1.385 0.439,-2.771 0.75,-4.14c0.354,-1.479 0.765,-2.941 1.157,-4.411c0.538,-1.526 1.091,-3.051 1.662,-4.566c0.265,-0.641 0.44,-1.384 1.022,-1.824c0.517,-0.443 1.438,-0.097 1.543,0.574c0.125,0.439 -0.146,0.843 -0.389,1.18c-0.607,0.493 -1.03,1.174 -1.332,1.887c-0.179,0.428 -0.392,0.844 -0.513,1.295c-0.266,0.576 -0.473,1.18 -0.674,1.783c-0.131,0.532 -0.268,1.061 -0.464,1.573c-0.104,0.268 -0.078,0.563 -0.147,0.836c-0.542,0.994 -0.728,2.126 -0.944,3.224Z" style="fill:#fff;fill-rule:nonzero;"/><path d="M84.054,18.536c0.203,-0.193 0.485,-0.262 0.754,-0.301c0.331,-0.046 0.609,-0.245 0.919,-0.351c0.456,-0.191 0.728,0.528 0.449,0.828c-0.311,0.339 -0.771,0.538 -0.983,0.97c-0.352,0.854 -0.225,1.795 -0.321,2.692c-0.04,0.519 -0.556,0.899 -1.049,0.91c-0.316,-0.102 -0.309,-0.5 -0.295,-0.771c0.05,-0.491 0.015,-0.985 0.064,-1.474c0.106,-0.553 0.099,-1.118 0.133,-1.678c0.03,-0.296 0.088,-0.623 0.329,-0.825Z" style="fill:#fff;fill-rule:nonzero;"/><path d="M91.477,19.43c-0.141,-0.2 -0.065,-0.456 -0.056,-0.681c0.119,-1.081 0.186,-2.168 0.347,-3.243c0.083,-0.462 0.554,-0.963 1.055,-0.743c0.198,0.528 -0.078,1.067 -0.029,1.608c0.02,0.435 0.002,0.872 -0.048,1.305c-0.088,0.357 -0.045,0.727 -0.057,1.09c-0.065,0.319 -0.356,0.528 -0.633,0.663c-0.175,0.1 -0.418,0.159 -0.579,0.001Z" style="fill:#fff;fill-rule:nonzero;"/><path d="M92.166,13.224c-0.041,-0.593 0.645,-1.06 1.197,-0.883c0.045,0.107 0.09,0.214 0.133,0.323c-0.154,0.354 -0.397,0.705 -0.761,0.864c-0.227,0.056 -0.554,-0.027 -0.569,-0.304Z" style="fill:#fff;fill-rule:nonzero;"/><path d="M100.746,16.711c-0.143,0.226 -0.264,0.481 -0.488,0.639c-0.372,0.295 -0.85,0.381 -1.289,0.526c-0.771,0.254 -1.509,0.599 -2.222,0.982c-2.014,1.04 -3.987,2.164 -5.87,3.427c-0.215,0.144 -0.406,0.321 -0.614,0.474c-0.04,0.75 -0.061,1.501 -0.068,2.252c-0.027,0.545 0.033,1.1 -0.054,1.639c0.036,0.221 0.066,0.449 -0.012,0.665c0.028,0.069 0.057,0.139 0.086,0.21c-0.022,0.031 -0.064,0.093 -0.086,0.125c0.015,0.086 0.023,0.176 0.018,0.265c0.018,0.399 0.215,0.783 0.124,1.185c0.023,0.027 0.07,0.081 0.093,0.108c0.033,0.109 0.068,0.218 0.104,0.327c-0.055,0.111 -0.104,0.225 -0.154,0.338c0.045,0.028 0.134,0.082 0.179,0.109c0.021,0.053 0.042,0.106 0.064,0.16c-0.028,0.047 -0.081,0.141 -0.109,0.189c0.049,0.071 0.098,0.142 0.147,0.215c-0.029,0.112 -0.055,0.227 -0.061,0.344c-0.119,0.222 -0.299,0.432 -0.556,0.495c-0.317,0.054 -0.711,-0.042 -0.867,-0.351c-0.261,-0.58 -0.135,-1.228 -0.139,-1.841c0.083,-1.865 0.065,-3.731 0.092,-5.596c-0.406,0.213 -0.75,0.517 -1.109,0.797c-1.101,0.839 -2.152,1.741 -3.227,2.613c-0.272,0.203 -0.476,0.478 -0.731,0.701c-0.473,0.373 -0.842,0.856 -1.266,1.28c-0.497,0.478 -0.932,1.015 -1.443,1.477c-0.331,0.411 -1.133,0.23 -1.221,-0.305c-0.055,-0.178 -0.022,-0.376 0.095,-0.522c0.428,-0.588 0.999,-1.048 1.519,-1.551c0.598,-0.582 1.251,-1.104 1.889,-1.639c0.739,-0.634 1.5,-1.242 2.258,-1.854c0.568,-0.409 1.132,-0.824 1.701,-1.231c0.503,-0.379 0.995,-0.772 1.522,-1.12c0.011,-0.246 0.006,-0.491 -0.003,-0.736c-0.458,0.355 -1.033,0.557 -1.615,0.518c-0.319,-0.045 -0.635,-0.261 -0.716,-0.586c-0.139,-0.477 -0.038,-0.978 -0.084,-1.465c0.059,-0.721 0.087,-1.468 0.392,-2.136c0.26,-0.524 0.625,-1.039 1.18,-1.275c0.196,-0.071 0.431,-0.154 0.621,-0.021c0.131,0.287 -0.03,0.63 -0.235,0.842c-0.276,0.277 -0.415,0.651 -0.547,1.011c-0.08,0.241 -0.155,0.495 -0.093,0.75c-0.052,0.396 -0.122,0.798 -0.072,1.199c0.031,0.167 0.107,0.369 0.297,0.403c0.414,0.013 0.793,-0.329 0.852,-0.734c0.211,-1.21 0.246,-2.439 0.371,-3.657c0.057,-0.526 0.914,-0.775 1.178,-0.28c0.068,0.725 -0.09,1.446 -0.117,2.17c-0.042,0.696 -0.152,1.391 -0.134,2.089c-0.009,0.366 -0.042,0.73 -0.039,1.096c1.038,-0.654 2.059,-1.337 3.148,-1.907c1.13,-0.682 2.306,-1.291 3.44,-1.968c-0.144,-0.119 -0.321,-0.24 -0.343,-0.442c-0.048,-0.352 0.008,-0.707 0.012,-1.061c-0.012,-0.619 0.115,-1.237 0.049,-1.855c-0.041,-0.185 -0.242,-0.195 -0.395,-0.183c-0.367,0.111 -0.552,0.477 -0.803,0.738c-0.069,0.235 -0.11,0.477 -0.177,0.713c-0.06,0.115 -0.033,0.238 -0.001,0.357c-0.045,0.055 -0.087,0.111 -0.129,0.167c0.038,0.088 0.074,0.177 0.112,0.265c-0.03,0.026 -0.09,0.078 -0.121,0.103c-0.014,0.197 -0.022,0.396 0.004,0.594c0.006,0.097 0.013,0.196 0.023,0.294c-0.012,0.128 -0.018,0.26 -0.018,0.39c-0.109,0.191 -0.153,0.442 -0.366,0.55c-0.223,0.134 -0.49,0.289 -0.756,0.187c-0.226,-0.089 -0.204,-0.376 -0.199,-0.574c0.06,-1.029 0.088,-2.059 0.153,-3.088c0.016,-0.37 0.206,-0.75 0.545,-0.923c0.328,-0.164 0.714,-0.151 1.069,-0.099c0.388,-0.099 0.56,-0.512 0.878,-0.721c0.308,-0.209 0.72,-0.389 1.084,-0.213c0.193,0.083 0.246,0.296 0.308,0.474c0.011,0.1 0.029,0.197 0.045,0.296c-0.064,0.147 -0.056,0.301 -0.011,0.452c0.001,0.115 0.003,0.231 0.008,0.347l-0.046,0.024c-0.072,0.618 0.036,1.235 -0.007,1.854c0.038,0.238 0.091,0.546 0.351,0.642c0.522,-0.122 0.96,-0.454 1.444,-0.672c0.278,-0.134 0.6,-0.097 0.89,-0.031c0.189,0.123 0.262,0.355 0.268,0.57Z" style="fill:#fff;fill-rule:nonzero;"/><path d="M84.225,9.562c-0.607,0.493 -1.03,1.174 -1.332,1.887c-0.179,0.428 -0.392,0.844 -0.513,1.295c-0.266,0.576 -0.473,1.18 -0.674,1.783c-0.131,0.532 -0.268,1.061 -0.464,1.573c-0.104,0.268 -0.078,0.563 -0.147,0.836c-0.542,0.994 -0.728,2.126 -0.944,3.224c-0.121,0.251 -0.025,0.54 -0.152,0.788c-0.055,0.243 -0.11,0.487 -0.126,0.736c-0.075,0.301 -0.129,0.606 -0.178,0.912c0.172,0.246 0.013,0.518 -0.087,0.756c-0.046,0.23 -0.114,0.481 -0.011,0.706c-0.122,0.184 -0.169,0.404 -0.197,0.619c-0.156,1.201 -0.283,2.408 -0.484,3.602c-0.049,0.244 -0.105,0.542 -0.352,0.665c-0.264,0.164 -0.669,0.085 -0.775,-0.233c-0.269,-0.988 -0.345,-2.015 -0.589,-3.007c-0.024,-0.449 -0.128,-0.887 -0.182,-1.333c-0.142,-0.896 -0.251,-1.799 -0.414,-2.692c-0.054,-0.465 -0.103,-0.934 -0.217,-1.39c-0.078,-0.195 -0.093,-0.405 -0.113,-0.612c-0.061,-0.057 -0.122,-0.114 -0.181,-0.172c-0.215,0.359 -0.393,0.741 -0.498,1.145c-0.116,0.461 -0.35,0.878 -0.505,1.325c-0.185,0.2 -0.484,0.311 -0.746,0.194c-0.191,-0.103 -0.341,-0.333 -0.263,-0.554c0.349,-1.132 0.801,-2.233 1.13,-3.373c0.185,-0.542 0.354,-1.09 0.548,-1.629c0.099,-0.301 0.416,-0.519 0.734,-0.46c0.307,0.015 0.51,0.304 0.565,0.584c0.123,0.586 0.185,1.184 0.304,1.772c0.158,0.621 0.136,1.275 0.337,1.887c0.065,0.181 0.112,0.367 0.149,0.556c0.019,0.328 0.1,0.649 0.187,0.965c-0.05,0.238 -0.043,0.477 0.063,0.7c0.03,0.405 0.028,0.829 0.197,1.206c0.126,-0.344 0.121,-0.715 0.185,-1.074c0.216,-1.385 0.439,-2.771 0.75,-4.14c0.354,-1.479 0.765,-2.941 1.157,-4.411c0.538,-1.526 1.091,-3.051 1.662,-4.566c0.265,-0.641 0.44,-1.384 1.022,-1.824c0.517,-0.443 1.438,-0.097 1.543,0.574c0.125,0.439 -0.146,0.843 -0.389,1.18Z" style="fill:#ed2124;fill-rule:nonzero;"/><path d="M117.699,19.516c-0.009,0.449 0.014,0.899 -0.009,1.349c-0.014,0.17 -0.232,0.132 -0.35,0.142c-0.123,-0.011 -0.35,0.036 -0.367,-0.142c-0.041,-0.548 0.012,-1.1 -0.024,-1.647c-0.015,-0.188 -0.168,-0.352 -0.355,-0.379c-0.292,-0.077 -0.616,0.148 -0.625,0.455c-0.031,0.535 0.02,1.073 -0.021,1.607c-0.053,0.133 -0.216,0.091 -0.326,0.106c-0.131,-0.008 -0.28,0.021 -0.39,-0.066c-0.072,-0.599 0.035,-1.209 -0.052,-1.804c-0.129,-0.445 -0.854,-0.391 -0.952,0.048c-0.065,0.558 0.009,1.126 -0.034,1.687c-0.028,0.177 -0.259,0.12 -0.383,0.135c-0.119,-0.011 -0.343,0.032 -0.356,-0.14c-0.016,-0.825 -0.008,-1.653 -0.003,-2.48c0.015,-0.257 0.349,-0.148 0.522,-0.165c0.184,-0.023 0.2,0.172 0.205,0.306c0.39,-0.523 1.287,-0.524 1.633,0.047c0.363,-0.54 1.246,-0.591 1.663,-0.093c0.24,0.286 0.228,0.682 0.224,1.034Z" style="fill:#fff;fill-rule:nonzero;"/><path d="M118.83,19.295c0.069,-0.349 0.404,-0.618 0.766,-0.539c0.285,0.023 0.468,0.274 0.514,0.539c-0.426,0.003 -0.853,0.003 -1.28,0Zm1.504,-0.897c-0.517,-0.374 -1.301,-0.356 -1.774,0.084c-0.699,0.617 -0.621,1.91 0.193,2.395c0.669,0.426 1.766,0.205 2.014,-0.609c-0.129,-0.176 -0.38,-0.168 -0.572,-0.231c-0.147,0.197 -0.334,0.407 -0.603,0.401c-0.385,0.045 -0.722,-0.256 -0.779,-0.627c0.584,-0.006 1.168,0.002 1.753,-0.002c0.105,-0.005 0.27,0.016 0.264,-0.14c0.032,-0.465 -0.111,-0.98 -0.496,-1.271Z" style="fill:#fff;fill-rule:nonzero;"/><path d="M122.584,20.392c-0.746,-0.045 -0.855,-1.259 -0.195,-1.517c0.219,-0.085 0.481,-0.057 0.669,0.087c0.521,0.409 0.267,1.511 -0.474,1.43Zm1.462,-3.393c-0.177,-0.161 -0.499,-0.104 -0.714,-0.037c-0.033,0.498 -0.016,0.999 -0.005,1.497c-0.477,-0.478 -1.336,-0.376 -1.763,0.119c-0.47,0.532 -0.492,1.395 -0.078,1.966c0.395,0.568 1.356,0.749 1.833,0.185c0.027,0.085 0,0.212 0.094,0.262c0.22,0.03 0.443,0.013 0.662,-0.018c-0.045,-1.324 0.02,-2.651 -0.029,-3.974Z" style="fill:#fff;fill-rule:nonzero;"/><path d="M125.458,20.644c-0.02,0.114 0.043,0.299 -0.106,0.343c-0.187,0.027 -0.379,0.028 -0.565,-0.003c-0.125,-0.066 -0.075,-0.227 -0.089,-0.34c0.011,-0.77 -0.015,-1.541 0.012,-2.311c0.015,-0.024 0.044,-0.071 0.06,-0.095c0.215,0.001 0.515,-0.105 0.674,0.081c0.031,0.773 0.002,1.55 0.014,2.325Z" style="fill:#fff;fill-rule:nonzero;"/><path d="M125.542,17.345c-0.011,0.355 -0.477,0.559 -0.747,0.334c-0.273,-0.185 -0.233,-0.634 0.056,-0.78c0.306,-0.187 0.735,0.092 0.691,0.446Z" style="fill:#fff;fill-rule:nonzero;"/><path d="M127.31,20.393c-0.786,-0.033 -0.871,-1.354 -0.134,-1.541c0.205,-0.057 0.438,-0.016 0.606,0.12c0.504,0.413 0.259,1.489 -0.472,1.421Zm1.451,-2.095c-0.2,-0.155 -0.482,-0.052 -0.715,-0.059c-0.003,0.056 -0.008,0.167 -0.011,0.223c-0.411,-0.433 -1.145,-0.392 -1.592,-0.038c-0.624,0.495 -0.7,1.493 -0.24,2.123c0.407,0.581 1.367,0.734 1.856,0.172c-0.003,0.063 -0.009,0.188 -0.011,0.251c0.237,0.034 0.483,0.059 0.721,0.007c0.007,-0.891 0.024,-1.788 -0.008,-2.679Z" style="fill:#fff;fill-rule:nonzero;"/><path d="M93.496,12.664c-0.154,0.354 -0.397,0.705 -0.761,0.864c-0.227,0.056 -0.554,-0.027 -0.569,-0.304c-0.041,-0.593 0.645,-1.06 1.197,-0.883c0.045,0.107 0.09,0.214 0.133,0.323Z" style="fill:#ed2124;fill-rule:nonzero;"/><path d="M100.746,16.711c-0.143,0.226 -0.264,0.481 -0.488,0.639c-0.372,0.295 -0.85,0.381 -1.289,0.526c-0.771,0.254 -1.509,0.599 -2.222,0.982c-2.014,1.04 -3.987,2.164 -5.87,3.427c-0.215,0.144 -0.406,0.321 -0.614,0.474c-0.04,0.75 -0.061,1.501 -0.068,2.252c-0.027,0.545 0.033,1.1 -0.054,1.639c0.036,0.221 0.066,0.449 -0.012,0.665c0.028,0.069 0.057,0.139 0.086,0.21c-0.022,0.031 -0.064,0.093 -0.086,0.125c0.015,0.086 0.023,0.176 0.018,0.265c0.018,0.399 0.215,0.783 0.124,1.185c0.023,0.027 0.07,0.081 0.093,0.108c0.033,0.109 0.068,0.218 0.104,0.327c-0.055,0.111 -0.104,0.225 -0.154,0.338c0.045,0.028 0.134,0.082 0.179,0.109c0.021,0.053 0.042,0.106 0.064,0.16c-0.028,0.047 -0.081,0.141 -0.109,0.189c0.049,0.071 0.098,0.142 0.147,0.215c-0.029,0.112 -0.055,0.227 -0.061,0.344c-0.119,0.222 -0.299,0.432 -0.556,0.495c-0.317,0.054 -0.711,-0.042 -0.867,-0.351c-0.261,-0.58 -0.135,-1.228 -0.139,-1.841c0.083,-1.865 0.065,-3.731 0.092,-5.596c-0.406,0.213 -0.75,0.517 -1.109,0.797c-1.101,0.839 -2.152,1.741 -3.227,2.613c-0.272,0.203 -0.476,0.478 -0.731,0.701c-0.473,0.373 -0.842,0.856 -1.266,1.28c-0.497,0.478 -0.932,1.015 -1.443,1.477c-0.331,0.411 -1.133,0.23 -1.221,-0.305c-0.055,-0.178 -0.022,-0.376 0.095,-0.522c0.428,-0.588 0.999,-1.048 1.519,-1.551c0.598,-0.582 1.251,-1.104 1.889,-1.639c0.739,-0.634 1.5,-1.242 2.258,-1.854c0.568,-0.409 1.132,-0.824 1.701,-1.231c0.503,-0.379 0.995,-0.772 1.522,-1.12c0.011,-0.246 0.006,-0.491 -0.003,-0.736c-0.458,0.355 -1.033,0.557 -1.615,0.518c-0.319,-0.045 -0.635,-0.261 -0.716,-0.586c-0.139,-0.477 -0.038,-0.978 -0.084,-1.465c0.059,-0.721 0.087,-1.468 0.392,-2.136c0.26,-0.524 0.625,-1.039 1.18,-1.275c0.196,-0.071 0.431,-0.154 0.621,-0.021c0.131,0.287 -0.03,0.63 -0.235,0.842c-0.276,0.277 -0.415,0.651 -0.547,1.011c-0.08,0.241 -0.155,0.495 -0.093,0.75c-0.052,0.396 -0.122,0.798 -0.072,1.199c0.031,0.167 0.107,0.369 0.297,0.403c0.414,0.013 0.793,-0.329 0.852,-0.734c0.211,-1.21 0.246,-2.439 0.371,-3.657c0.057,-0.526 0.914,-0.775 1.178,-0.28c0.068,0.725 -0.09,1.446 -0.117,2.17c-0.042,0.696 -0.152,1.391 -0.134,2.089c-0.009,0.366 -0.042,0.73 -0.039,1.096c1.038,-0.654 2.059,-1.337 3.148,-1.907c1.13,-0.682 2.306,-1.291 3.44,-1.968c-0.144,-0.119 -0.321,-0.24 -0.343,-0.442c-0.048,-0.352 0.008,-0.707 0.012,-1.061c-0.012,-0.619 0.115,-1.237 0.049,-1.855c-0.041,-0.185 -0.242,-0.195 -0.395,-0.183c-0.367,0.111 -0.552,0.477 -0.803,0.738c-0.069,0.235 -0.11,0.477 -0.177,0.713c-0.06,0.115 -0.033,0.238 -0.001,0.357c-0.045,0.055 -0.087,0.111 -0.129,0.167c0.038,0.088 0.074,0.177 0.112,0.265c-0.03,0.026 -0.09,0.078 -0.121,0.103c-0.014,0.197 -0.022,0.396 0.004,0.594c0.006,0.097 0.013,0.196 0.023,0.294c-0.012,0.128 -0.018,0.26 -0.018,0.39c-0.109,0.191 -0.153,0.442 -0.366,0.55c-0.223,0.134 -0.49,0.289 -0.756,0.187c-0.226,-0.089 -0.204,-0.376 -0.199,-0.574c0.06,-1.029 0.088,-2.059 0.153,-3.088c0.016,-0.37 0.206,-0.75 0.545,-0.923c0.328,-0.164 0.714,-0.151 1.069,-0.099c0.388,-0.099 0.56,-0.512 0.878,-0.721c0.308,-0.209 0.72,-0.389 1.084,-0.213c0.193,0.083 0.246,0.296 0.308,0.474c0.011,0.1 0.029,0.197 0.045,0.296c-0.064,0.147 -0.056,0.301 -0.011,0.452c0.001,0.115 0.003,0.231 0.008,0.347l-0.046,0.024c-0.072,0.618 0.036,1.235 -0.007,1.854c0.038,0.238 0.091,0.546 0.351,0.642c0.522,-0.122 0.96,-0.454 1.444,-0.672c0.278,-0.134 0.6,-0.097 0.89,-0.031c0.189,0.123 0.262,0.355 0.268,0.57Z" style="fill:#ed2124;fill-rule:nonzero;"/><path d="M92.794,16.371c0.02,0.435 0.002,0.872 -0.048,1.305c-0.088,0.357 -0.045,0.727 -0.057,1.09c-0.065,0.319 -0.356,0.528 -0.633,0.663c-0.175,0.1 -0.418,0.159 -0.579,0.001c-0.141,-0.2 -0.065,-0.456 -0.056,-0.681c0.119,-1.081 0.186,-2.168 0.347,-3.243c0.083,-0.462 0.554,-0.963 1.055,-0.743c0.198,0.528 -0.078,1.067 -0.029,1.608Z" style="fill:#ed2124;fill-rule:nonzero;"/><path d="M83.213,17.042c-0.158,0.393 -0.547,0.61 -0.895,0.81c-0.194,-0.028 -0.41,-0.134 -0.409,-0.359c0.007,-0.469 0.391,-0.823 0.788,-1.008c0.13,-0.064 0.276,-0.041 0.415,-0.027c0.057,0.187 0.183,0.383 0.101,0.584Z" style="fill:#ed2124;fill-rule:nonzero;"/><path d="M122.584,20.392c-0.746,-0.045 -0.855,-1.259 -0.195,-1.517c0.219,-0.085 0.481,-0.057 0.669,0.087c0.521,0.409 0.267,1.511 -0.474,1.43Zm1.462,-3.393c-0.177,-0.161 -0.499,-0.104 -0.714,-0.037c-0.033,0.498 -0.016,0.999 -0.005,1.497c-0.477,-0.478 -1.336,-0.376 -1.763,0.119c-0.47,0.532 -0.492,1.395 -0.078,1.966c0.395,0.568 1.356,0.749 1.833,0.185c0.027,0.085 0,0.212 0.094,0.262c0.22,0.03 0.443,0.013 0.662,-0.018c-0.045,-1.324 0.02,-2.651 -0.029,-3.974Z" style="fill:#ed2124;fill-rule:nonzero;"/><path d="M125.542,17.345c-0.011,0.355 -0.477,0.559 -0.747,0.334c-0.273,-0.185 -0.233,-0.634 0.056,-0.78c0.306,-0.187 0.735,0.092 0.691,0.446Z" style="fill:#ed2124;fill-rule:nonzero;"/><path d="M86.176,18.712c-0.311,0.339 -0.771,0.538 -0.983,0.97c-0.352,0.854 -0.225,1.795 -0.321,2.692c-0.04,0.519 -0.556,0.899 -1.049,0.91c-0.316,-0.102 -0.309,-0.5 -0.295,-0.771c0.05,-0.491 0.015,-0.985 0.064,-1.474c0.106,-0.553 0.099,-1.118 0.133,-1.678c0.03,-0.296 0.088,-0.623 0.329,-0.825c0.203,-0.193 0.485,-0.262 0.754,-0.301c0.331,-0.046 0.609,-0.245 0.919,-0.351c0.456,-0.191 0.728,0.528 0.449,0.828Z" style="fill:#ed2124;fill-rule:nonzero;"/><path d="M117.69,20.865c-0.014,0.17 -0.232,0.132 -0.35,0.142c-0.123,-0.011 -0.35,0.036 -0.367,-0.142c-0.041,-0.548 0.012,-1.1 -0.024,-1.647c-0.015,-0.188 -0.168,-0.352 -0.355,-0.379c-0.292,-0.077 -0.616,0.148 -0.625,0.455c-0.031,0.535 0.02,1.073 -0.021,1.607c-0.053,0.133 -0.216,0.091 -0.326,0.106c-0.131,-0.008 -0.28,0.021 -0.39,-0.066c-0.072,-0.599 0.035,-1.209 -0.052,-1.804c-0.129,-0.445 -0.854,-0.391 -0.952,0.048c-0.065,0.558 0.009,1.126 -0.034,1.687c-0.028,0.177 -0.259,0.12 -0.383,0.135c-0.119,-0.011 -0.343,0.032 -0.356,-0.14c-0.016,-0.825 -0.008,-1.653 -0.003,-2.48c0.015,-0.257 0.349,-0.148 0.522,-0.165c0.184,-0.023 0.2,0.172 0.205,0.306c0.39,-0.523 1.287,-0.524 1.633,0.047c0.363,-0.54 1.246,-0.591 1.663,-0.093c0.24,0.286 0.228,0.682 0.224,1.034c-0.009,0.449 0.014,0.899 -0.009,1.349Z" style="fill:#ed2124;fill-rule:nonzero;"/><path d="M118.83,19.295c0.069,-0.349 0.404,-0.618 0.766,-0.539c0.285,0.023 0.468,0.274 0.514,0.539c-0.426,0.003 -0.853,0.003 -1.28,0Zm1.504,-0.897c-0.517,-0.374 -1.301,-0.356 -1.774,0.084c-0.699,0.617 -0.621,1.91 0.193,2.395c0.669,0.426 1.766,0.205 2.014,-0.609c-0.129,-0.176 -0.38,-0.168 -0.572,-0.231c-0.147,0.197 -0.334,0.407 -0.603,0.401c-0.385,0.045 -0.722,-0.256 -0.779,-0.627c0.584,-0.006 1.168,0.002 1.753,-0.002c0.105,-0.005 0.27,0.016 0.264,-0.14c0.032,-0.465 -0.111,-0.98 -0.496,-1.271Z" style="fill:#ed2124;fill-rule:nonzero;"/><path d="M127.31,20.393c-0.786,-0.033 -0.871,-1.354 -0.134,-1.541c0.205,-0.057 0.438,-0.016 0.606,0.12c0.504,0.413 0.259,1.489 -0.472,1.421Zm1.451,-2.095c-0.2,-0.155 -0.482,-0.052 -0.715,-0.059c-0.003,0.056 -0.008,0.167 -0.011,0.223c-0.411,-0.433 -1.145,-0.392 -1.592,-0.038c-0.624,0.495 -0.7,1.493 -0.24,2.123c0.407,0.581 1.367,0.734 1.856,0.172c-0.003,0.063 -0.009,0.188 -0.011,0.251c0.237,0.034 0.483,0.059 0.721,0.007c0.007,-0.891 0.024,-1.788 -0.008,-2.679Z" style="fill:#ed2124;fill-rule:nonzero;"/><path d="M125.458,20.644c-0.02,0.114 0.043,0.299 -0.106,0.343c-0.187,0.027 -0.379,0.028 -0.565,-0.003c-0.125,-0.066 -0.075,-0.227 -0.089,-0.34c0.011,-0.77 -0.015,-1.541 0.012,-2.311c0.015,-0.024 0.044,-0.071 0.06,-0.095c0.215,0.001 0.515,-0.105 0.674,0.081c0.031,0.773 0.002,1.55 0.014,2.325Z" style="fill:#ed2124;fill-rule:nonzero;"/><path d="M82.608,19.945c0.158,0.399 -0.042,0.817 -0.07,1.223c-0.027,0.729 -0.242,1.441 -0.22,2.174c-0.004,0.236 -0.057,0.47 -0.118,0.699c0.035,0.011 0.104,0.034 0.137,0.045c-0.283,0.168 -0.517,0.417 -0.825,0.542c-0.214,0.076 -0.474,-0.064 -0.465,-0.307c-0.039,-1.029 0.124,-2.052 0.152,-3.08c0.037,-0.525 0.043,-1.121 0.428,-1.529c0.209,-0.192 0.48,-0.389 0.778,-0.351c0.222,0.059 0.21,0.327 0.275,0.503c-0.018,0.02 -0.053,0.061 -0.072,0.081Z" style="fill:#ed2124;fill-rule:nonzero;"/></g></g></g></g></svg>