<?xml version="1.0" encoding="utf-8"?>
<!-- Generator: Adobe Illustrator 22.1.0, SVG Export Plug-In . SVG Version: 6.00 Build 0)  -->
<svg version="1.1" id="Layer_1" xmlns="http://www.w3.org/2000/svg" xmlns:xlink="http://www.w3.org/1999/xlink" x="0px" y="0px"
	 viewBox="0 0 18 19" style="enable-background:new 0 0 18 19;" xml:space="preserve">
<style type="text/css">
	.st0{fill:#fff;}
</style>
<path class="st0" d="M17.8,17.3l-4-4c1.2-1.4,1.9-3.2,1.9-5.1c0-4.3-3.5-7.8-7.8-7.8S0.1,3.9,0.1,8.2c0,4.3,3.5,7.8,7.8,7.8
	c1.7,0,3.4-0.6,4.8-1.7l4,4c0.1,0.1,0.1,0.1,0.2,0.1c0.1,0,0.2,0,0.2-0.1l0.7-0.7c0.1-0.1,0.1-0.1,0.1-0.2
	C17.9,17.4,17.9,17.3,17.8,17.3z M14.2,8.2c0,3.4-2.8,6.3-6.3,6.3c-3.4,0-6.3-2.8-6.3-6.3C1.7,4.8,4.5,2,7.9,2
	C11.4,2,14.2,4.8,14.2,8.2z"/>
</svg>
