<?xml version="1.0" encoding="utf-8"?>
<!-- Generator: Adobe Illustrator 22.1.0, SVG Export Plug-In . SVG Version: 6.00 Build 0)  -->
<svg version="1.1" id="Layer_1" xmlns="http://www.w3.org/2000/svg" xmlns:xlink="http://www.w3.org/1999/xlink" x="0px" y="0px"
	 viewBox="0 0 100 100" style="enable-background:new 0 0 100 100;" xml:space="preserve">
<style type="text/css">
	.st0{fill:#F4F0FA;}
	.st1{fill:#340458;}
</style>
<path class="st0" d="M50,0.5c-8.8,0-17.4,1.2-25.5,3.5C16.3,6.3,8.3,9.6,0.9,13.7c-0.2,0.1-0.4,0.2-0.4,0.6v71.3
	c0,0.4,0.2,0.5,0.3,0.6c7.5,4.2,15.4,7.4,23.6,9.7c8.2,2.3,16.8,3.5,25.5,3.5c8.8,0,17.4-1.2,25.6-3.5s16.1-5.6,23.5-9.7
	c0.2-0.1,0.4-0.2,0.4-0.6l-0.1-71.5c-0.1-0.4-0.2-0.4-0.3-0.5c-7.3-4-15.3-7.3-23.4-9.6C67.4,1.7,58.8,0.5,50,0.5z"/>
<path class="st1" d="M77,33c-1.9,1-4.1,1.4-6.4,1.7c2.3-1.3,4-3.6,5-6.1c-2.1,1.2-4.5,2.2-7.1,2.8c-2.1-2.2-5.1-3.6-8.3-3.6
	c-6.1,0-11.1,5.1-11.1,11.1c0,1,0.1,1.7,0.3,2.6c-9.3-0.6-17.7-5-23.1-11.7c-1.1,1.6-1.4,3.6-1.4,5.7c0,3.8,1.9,7.3,5,9.3
	c-1.9,0-3.6-0.6-5.2-1.3v0.2c0,5.6,3.8,10,9,11c-1,0.3-1.9,0.5-3.1,0.5c-0.8,0-1.3-0.1-2-0.2c1.3,4.4,5.6,7.8,10.5,7.9
	c-3.7,3.1-8.6,4.8-13.9,4.8c-1,0-1.8-0.1-2.7-0.2c5,3.2,10.9,5.1,17.3,5.1c20.6-0.1,31.9-17.2,31.9-32c0-0.6,0-1.1,0-1.4
	C73.6,37.1,75.5,35.2,77,33"/>
</svg>
