<?xml version="1.0" encoding="utf-8"?>
<!-- Generator: Adobe Illustrator 23.0.1, SVG Export Plug-In . SVG Version: 6.00 Build 0)  -->
<svg version="1.1" id="Layer_1" xmlns="http://www.w3.org/2000/svg" xmlns:xlink="http://www.w3.org/1999/xlink" x="0px" y="0px"
	 viewBox="0 0 77.8 100" style="enable-background:new 0 0 77.8 100;" xml:space="preserve">
<style type="text/css">
	.st0{fill:#F6F3FA;}
</style>
<g>
	<path class="st0" d="M76.2,65.3c-0.4-0.4-1-0.7-1.6-0.7h-5.4c-1.1,0-2.1,1-2.1,2.1v15.5H10.5V66.7c0-1.1-1-2.1-2.1-2.1H2.9
		c-1.1,0-2.1,1-2.1,2.1v22.9c0,1.1,1,2.1,2.1,2.1h71.6c1.1,0,2.1-1,2.1-2.1V66.7C76.7,66.2,76.5,65.7,76.2,65.3z"/>
	<path class="st0" d="M43.7,8.8c-0.4-0.4-0.9-0.6-1.5-0.6l-6.8,0c-0.4,0-0.9,0.2-1.4,0.5L9.4,33.3c-0.4,0.4-0.6,0.9-0.6,1.5
		s0.2,1.1,0.6,1.5l3.8,3.8c0.8,0.8,2.2,0.8,3,0L34,22.4l0,49.8c0,1.1,1,2.1,2.1,2.1h5.4c1.1,0,2.1-1,2.1-2.1l0-49.9l17.8,17.8
		c0.8,0.8,2.2,0.8,3,0l3.8-3.9c0.4-0.4,0.6-0.9,0.6-1.5c0-0.6-0.2-1.1-0.6-1.5L43.7,8.8z"/>
</g>
</svg>
