<?xml version="1.0" encoding="utf-8"?>
<!-- Generator: Adobe Illustrator 22.1.0, SVG Export Plug-In . SVG Version: 6.00 Build 0)  -->
<svg version="1.1" id="Layer_1" xmlns="http://www.w3.org/2000/svg" xmlns:xlink="http://www.w3.org/1999/xlink" x="0px" y="0px"
	 viewBox="0 0 18 21" style="enable-background:new 0 0 18 21;" xml:space="preserve">
<style type="text/css">
	.st0{fill:#fff;}
</style>
<g>
	<path class="st0" d="M9.9,11H8.1c-4.4,0-8,3.5-8,7.7v0c0,0.9,0.7,1.6,1.6,1.6h14.5c0.9,0,1.6-0.7,1.6-1.6v0
		C17.9,14.5,14.3,11,9.9,11z M16.3,18.7L16.3,18.7c0,0.1,0,0.1-0.1,0.1H1.8c0,0-0.1,0-0.1-0.1v0c0-3.4,2.9-6.2,6.4-6.2h1.8
		C13.4,12.5,16.3,15.3,16.3,18.7z"/>
	<path class="st0" d="M9,10c2.7,0,5-2.2,5-4.8s-2.2-4.8-5-4.8S4,2.6,4,5.2S6.3,10,9,10z M5.6,5.2c0-1.8,1.5-3.3,3.4-3.3
		s3.4,1.5,3.4,3.3S10.9,8.5,9,8.5S5.6,7,5.6,5.2z"/>
</g>
</svg>
