<?xml version="1.0" encoding="UTF-8" standalone="no"?><!DOCTYPE svg PUBLIC "-//W3C//DTD SVG 1.1//EN" "http://www.w3.org/Graphics/SVG/1.1/DTD/svg11.dtd"><svg width="100%" height="100%" viewBox="0 0 898 187" version="1.1" xmlns="http://www.w3.org/2000/svg" xmlns:xlink="http://www.w3.org/1999/xlink" xml:space="preserve" xmlns:serif="http://www.serif.com/" style="fill-rule:evenodd;clip-rule:evenodd;stroke-linejoin:round;stroke-miterlimit:2;"><rect id="Artboard1" x="0" y="0" width="897.83" height="186.696" style="fill:none;"/><clipPath id="_clip1"><rect id="Artboard11" serif:id="Artboard1" x="0" y="0" width="897.83" height="186.696"/></clipPath><g clip-path="url(#_clip1)"><g><path d="M707.543,145.815l0,-0.421c3.118,-1.981 5.436,-3.54 6.869,-5.058c-1.896,0.885 -4.172,1.981 -6.026,2.192c-3.751,0.674 -14.582,6.616 -16.057,6.616c-1.475,0 -1.054,-0.885 -3.54,0c-1.054,-1.98 -1.264,-4.846 -1.264,-5.942l3.54,-31.017c0,-6.153 -1.054,-11.674 -8.555,-17.152c-1.897,-1.096 -5.015,-0.675 -6.659,-0.885c-1.053,-0.211 -2.065,-2.403 -3.118,-2.403c-1.897,0 -15.636,16.268 -16.689,17.827c-1.686,1.981 -5.226,4.846 -6.869,6.827c-1.475,1.559 -3.33,5.268 -5.226,5.268l29.416,-84.286c1.053,-2.402 1.685,-6.364 1.685,-7.923c0,-1.981 -0.421,-8.344 -2.065,-11.674c-0.21,0 -0.632,-0.421 -1.053,-1.306c-1.644,0 -3.751,-1.77 -5.437,-1.77c-5.647,0 -6.448,3.961 -9.608,10.789c-3.33,9.229 -9.609,24.443 -12.306,33.25c0.632,1.096 0.632,2.192 0.211,3.498c-2.276,5.521 -5.015,14.076 -6.027,20.018c-0.211,0.422 -0.632,0.885 -1.264,1.56c-0.211,1.77 -1.644,4.13 -1.644,6.11c-7.796,0.717 -14.665,1.517 -21.029,2.697c-1.896,0.211 -3.793,1.349 -5.268,1.349c-1.686,0 -0.421,-1.096 -1.896,-1.096c-1.897,0 -3.372,0.211 -4.425,0.675c-1.897,0 -2.74,0.463 -4.215,-0.464l0,-1.096c1.686,-6.448 3.372,-13.57 4.215,-19.596c4.214,-14.034 8.639,-28.7 12.853,-43.871c0,-1.096 -0.21,-2.234 -0.632,-3.793c1.475,-2.908 2.529,-8.218 2.529,-9.356c0,-2.023 -4.004,-8.681 -4.004,-10.704l0,-1.096c0,0 0.211,0 0.632,-0.211c-0.843,0 -0.843,0.211 -2.318,0.211c-1.475,0 -2.95,-3.582 -4.635,-3.582c-0.633,0 -2.74,0.674 -3.583,1.559c-4.214,2.908 -4.425,10.241 -5.9,14.708c-1.896,5.563 -3.582,11.8 -4.635,16.478c-2.529,10.03 -5.69,20.018 -8.007,29.837c-2.023,8.26 -4.173,25.033 -6.238,33.715c-5.689,1.391 -11.378,2.781 -17.11,4.172c-0.885,0.211 -1.812,0.464 -2.486,0.927c-0.717,0.506 -1.096,1.222 -1.475,1.939c-1.18,2.191 -2.36,4.383 -3.54,6.574c-0.379,0.717 -0.759,1.559 -0.253,2.234c0.506,0.674 2.234,0.463 2.023,-0.295c0.463,1.138 2.191,1.601 3.708,1.728c1.518,0.126 3.203,0.168 4.299,1.011c0.885,0.674 1.433,1.812 2.655,1.812c0.759,0 1.391,-0.548 2.107,-0.758c0.169,-0.043 0.337,0 0.506,-0.043c1.643,2.698 5.057,7.249 5.057,8.429c0.211,10.915 -1.475,19.597 -0.632,22.926c0.843,5.563 -0.211,11.126 6.321,17.363c0.843,0.885 1.054,3.582 2.529,3.582c0.801,0 1.981,-0.253 2.781,-0.379c0.169,0 0.338,-0.042 0.506,-0.042c0.042,0 0.084,0 0.127,-0.043c0.59,-0.126 1.137,-0.337 1.643,-0.632c1.18,-0.674 2.234,-1.601 3.414,-2.276c1.475,-0.842 3.034,-0.632 4.551,-1.18c1.475,-0.547 2.908,-1.727 4.214,-2.612c3.288,-2.234 6.533,-4.468 9.82,-6.701c1.138,-0.759 2.402,-2.149 1.686,-3.329c-0.422,-0.717 -1.307,-0.885 -2.108,-0.928c-0.716,-0.042 -1.475,-0.042 -2.023,-0.463c0.085,-0.211 0.169,-0.422 0.253,-0.674c0.211,-0.759 -0.253,-1.644 0,-2.403c-0.295,0.043 -0.674,-0.042 -0.927,-0.252c-0.379,-0.295 -0.168,-0.422 0.127,-0.717c0.547,-0.548 1.137,-1.096 1.685,-1.643c0.337,-0.338 0.717,-0.675 1.054,-1.012c0.337,-0.337 0.337,-0.506 0.379,-0.969c-0.084,0.084 -0.21,0 -0.253,-0.084c-0.042,-0.085 -0.042,-0.211 0,-0.295c0,-0.085 0.043,-0.211 0,-0.295c-0.084,-0.211 -0.379,-0.211 -0.59,-0.085c-0.168,0.127 -0.295,0.337 -0.505,0.464c-0.295,0.211 -0.633,0.168 -0.97,0.253c-0.379,0.126 -0.674,0.379 -1.011,0.548c-0.379,0.168 -0.801,0.21 -1.18,0.379c-0.885,0.379 -1.686,0.843 -2.487,1.306c-1.601,0.97 -3.16,2.065 -4.846,2.95c-3.119,1.644 -7.333,2.234 -9.777,-0.379c-0.422,-0.464 -0.59,-0.927 -0.674,-1.433c1.475,-7.459 4.087,-19.512 5.267,-24.611c1.686,-1.096 4.215,-3.33 6.111,-3.583l1.686,-2.655c0.463,-0.758 2.739,-0.084 3.371,0.253c1.18,0.632 1.812,1.812 3.203,2.107c0.969,0.211 1.939,-0.042 2.866,-0.295c4.72,-1.264 9.398,-2.57 14.16,-3.54c0,-1.348 0.211,-2.022 0.843,-2.022c0.843,0.674 -0.422,1.095 0.632,1.095c1.096,0 2.739,-1.896 3.877,-3.54c-1.391,4.552 -2.613,10.367 -3.624,17.616c-1.054,7.501 -1.644,12.306 -1.644,14.75c0,1.77 1.054,6.827 1.054,10.114c1.896,1.981 2.065,4.636 3.118,6.364c1.475,2.402 2.698,3.751 3.751,6.153c1.897,-1.096 3.751,-2.444 4.804,-2.444c0.59,0 0.801,0.042 0.885,0.084c0,-0.042 -0.042,-0.042 -0.042,-0.084l0,-0.211c5.437,-5.057 10.41,-12.306 15.003,-21.367c4.594,-9.018 9.82,-15.635 15.846,-19.807l0.421,3.077c-0.842,5.057 -0.842,9.482 -0.632,14.075c0.211,4.636 1.054,9.483 2.487,14.329c0.843,1.77 2.697,4.172 3.329,5.942c1.054,1.517 1.897,3.962 2.487,5.057c1.053,0.675 6.869,5.268 7.922,5.268c1.686,0 5.858,0.675 7.291,0.675c1.686,0 5.647,-3.077 7.291,-3.962c-0.211,0 -0.632,-0.211 -1.264,-0.885c3.118,-2.444 4.382,-4.846 6.026,-5.731c0.632,-1.096 0.422,-3.288 1.264,-3.962c0.843,-1.77 2.908,-1.981 3.962,-3.076c1.475,-1.56 1.896,-4.847 3.54,-5.732c-1.686,0.885 -3.54,0.675 -5.226,1.77c-0.211,-0.21 -0.421,-0.21 -0.421,-0.421" style="fill:#512c86;fill-rule:nonzero;"/><path d="M167.437,161.998l20.734,0l21.156,-71.98l-20.439,0l-11.379,42.733l-13.317,-42.733l-22.209,0l-13.444,42.564l-11.379,-42.564l-21.661,0l21.408,71.98l21.156,0l14.54,-46.484l14.834,46.484Z" style="fill:#e52723;fill-rule:nonzero;"/><path d="M248.015,87.826c20.439,0 36.243,15.804 36.243,38.097c0,22.294 -15.804,38.224 -36.243,38.224c-20.313,0 -36.243,-15.93 -36.243,-38.224c0,-22.293 15.93,-38.097 36.243,-38.097Zm0,56.05c7.965,0 15.382,-5.773 15.382,-17.953c0,-12.179 -7.417,-17.826 -15.382,-17.826c-7.839,0 -15.382,5.647 -15.382,17.826c0,12.011 7.543,17.953 15.382,17.953Z" style="fill:#e52723;"/><path d="M339.971,90.018c-1.349,-0.422 -3.414,-0.717 -5.479,-0.717c-5.479,0 -14.118,2.318 -17.7,10.409l0,-9.692l-20.187,0l0,71.98l20.861,0l0,-31.439c0,-14.328 7.544,-19.554 15.93,-19.554c2.065,0 4.257,0.126 6.575,0.716l0,-21.703Z" style="fill:#e52723;fill-rule:nonzero;"/><path d="M379.079,136.67l16.057,25.328l25.539,0l-27.183,-41.722l26.593,-30.258l-27.014,0l-20.735,24.19l0,-57.062l-20.86,0l0,104.852l20.86,0l0,-17.658l6.743,-7.67Z" style="fill:#e52723;fill-rule:nonzero;"/><path d="M733.882,161.998l0,-41.427c0,-6.532 3.962,-12.474 11.252,-12.474c7.544,0 10.957,5.352 10.957,12.179l0,41.722l20.566,0l0,-41.553c0,-6.364 3.962,-12.306 11.379,-12.306c7.417,0 10.831,5.352 10.831,12.179l0,41.722l20.186,0l0,-46.61c0,-19.555 -12.348,-27.52 -25.244,-27.52c-9.187,0 -15.761,3.203 -21.155,11.295c-3.414,-7.08 -10.41,-11.295 -20.187,-11.295c-7.417,0 -16.183,4.046 -19.639,10.41l0,-8.26l-19.891,0l0,71.98l20.945,-0.042Z" style="fill:#e52723;fill-rule:nonzero;"/><path d="M866.422,145.478c7.586,0 11.8,-3.751 13.739,-9.398l17.447,5.226c-3.287,12.474 -14.16,22.883 -31.439,22.883c-18.796,0 -35.526,-14.202 -35.526,-38.392c0,-23.179 16.309,-37.929 34.009,-37.929c21.156,0 34.178,13.739 34.178,36.918c0,3.034 -0.295,6.363 -0.421,6.785l-47.496,0c0.422,8.133 7.417,13.907 15.509,13.907Zm-1.517,-40.289c-8.766,0 -13.149,6.827 -13.57,12.179l27.308,0c-0.295,-5.52 -3.835,-12.179 -13.738,-12.179Z" style="fill:#e52723;"/><path d="M511.493,85.508l0,-1.77c-0.632,0 -1.264,0.422 -1.854,1.307c-1.054,-1.096 -0.843,-2.402 -1.475,-2.613c0,-0.674 -2.276,-0.674 -2.487,-1.517c-0.632,-0.675 -0.842,-1.307 -0.842,-1.77c0,3.75 -0.843,7.459 -0.843,9.44c0,5.478 0.632,12.305 0.421,16.014c-0.632,8.134 -3.118,24.359 -9.777,33.546c-1.054,-5.057 -3.329,-10.747 -4.973,-18.88c-1.643,-8.134 -6.448,-11.632 -12.053,-12.727c-1.475,-0.885 -2.276,-3.077 -3.961,-3.077c-4.172,0 -6.027,0.674 -7.67,2.655c-1.475,1.77 -2.065,3.287 -8.935,13.612c-4.593,5.479 -13.528,17.532 -16.435,19.976l0,-0.885c-2.698,-5.9 1.854,-14.244 6.658,-22.167l13.107,-21.957l0,-1.98c1.854,-1.77 2.486,-4.172 3.961,-5.268c-1.053,-2.866 -1.854,-6.785 -4.172,-8.555c-4.383,-4.172 -6.869,-3.077 -10.789,-3.751c-5.815,8.766 -12.685,19.091 -15.382,24.991c-3.118,5.479 -8.513,14.244 -12.896,23.684c-4.172,9.019 -3.751,19.091 -3.751,25.455c0,3.076 3.962,13.401 6.449,14.918c1.643,1.77 5.394,3.709 7.08,3.709l7.29,0l0,-2.402c3.119,-1.77 9.145,-5.69 11.842,-9.23c4.383,-7.037 11.632,-13.148 18.08,-21.282c0.843,0 1.433,-1.306 2.065,-0.421c0,-2.402 2.486,-3.962 3.118,-5.057c1.054,-1.981 2.698,-4.594 3.751,-5.69c1.644,6.364 2.908,12.728 4.762,18.67c1.054,5.057 2.698,10.325 4.552,15.593c0.843,1.98 1.854,3.287 2.908,4.172c1.475,1.306 3.54,2.613 6.237,3.961c2.697,1.096 4.172,1.77 4.762,1.77c1.433,0 2.697,-0.421 3.329,-1.517c1.644,-2.402 4.172,-5.268 6.027,-7.881c3.118,-5.268 6.448,-12.053 7.881,-19.723c1.854,-10.325 3.961,-19.301 3.961,-29.837c0,-6.364 -2.276,-15.804 -5.605,-22.167c-1.475,0 -2.908,-0.422 -4.383,-1.307" style="fill:#512c86;fill-rule:nonzero;"/><path d="M547.821,60.939c0.632,0.674 0.421,0.885 0.632,1.517c2.275,1.096 5.183,3.076 8.302,2.866c9.988,-0.675 1.854,-8.555 5.394,-14.034c-2.486,-2.402 -1.053,-5.478 -2.065,-6.574c-0.632,-1.517 -2.486,-2.613 -3.961,-4.594c-5.184,0.674 -6.237,3.077 -15.593,2.402c1.053,1.981 0.421,5.69 1.264,7.46c1.054,3.708 2.908,9.229 6.027,10.957" style="fill:#512c86;fill-rule:nonzero;"/><path d="M543.269,149.776c-1.475,-5.267 0.421,-8.133 2.908,-17.11c0.632,-1.98 1.054,-5.942 1.854,-7.88c1.433,-2.403 2.487,-6.364 3.119,-11.421c0.632,-5.268 1.475,-9.23 2.065,-11.842c0.211,-1.77 1.053,-3.077 1.053,-4.173c-0.21,-2.865 -1.854,-5.478 -4.972,-7.88c-2.908,-2.402 -5.606,-3.751 -8.303,-3.498c-1.643,0.211 -3.118,1.096 -4.762,1.096c-1.433,1.517 -1.643,3.287 -2.486,3.961c-0.211,1.517 -0.211,2.402 -0.211,3.076c-2.697,5.943 -4.973,13.613 -6.869,23.053l-2.276,9.229c-1.054,4.172 -1.644,11.842 -1.475,14.497c0.632,9.651 7.923,28.068 21.83,26.972c1.475,0 5.816,-1.307 8.302,-2.866c1.644,-0.885 1.265,-2.402 1.265,-3.076c2.486,-3.288 7.501,-8.134 10.788,-10.073c-0.211,-1.517 0,-2.865 0.632,-3.75c0.843,-0.675 2.276,-1.981 2.487,-3.077c-0.632,-0.885 -1.433,-0.674 -2.065,-0.885c4.593,-4.172 0.843,-7.164 3.54,-9.566c-6.87,7.248 -17.321,13.696 -26.382,15.256" style="fill:#512c86;fill-rule:nonzero;"/><path d="M20.4,95.918c-0.421,-0.043 -0.716,-0.295 -0.885,-0.759l0.127,-0.295c-0.295,-0.59 -0.675,-1.138 -1.223,-1.686c0.085,-0.295 0.127,-0.758 0.127,-1.39c-0.422,0.337 -0.927,0.59 -1.475,0.674c-0.084,-0.253 -0.169,-0.506 -0.211,-0.674c-0.042,-0.169 -0.084,-0.38 -0.084,-0.548c0.084,-1.012 0.042,-2.065 -0.084,-3.077c-0.127,-1.011 0.126,-2.107 0.758,-3.203c0.253,-0.295 0.421,-0.59 0.464,-0.969c0.042,-0.337 0.126,-0.716 0.21,-1.096c0.169,-0.927 0.633,-1.727 1.349,-2.36c0.716,-0.632 1.433,-1.264 2.149,-1.812l0.801,-0.295c2.781,0 5.647,-0.295 8.639,-0.843c1.18,-0.463 2.36,-0.758 3.54,-0.842c1.102,-0.079 2.239,-0.231 3.414,-0.388c0.084,-0.012 0.168,-0.023 0.253,-0.034c0.927,-0.084 1.517,-0.295 1.77,-0.632c0.253,-0.337 0.506,-0.843 0.674,-1.601c0.211,-0.38 0.337,-0.675 0.422,-0.97c0.126,-0.253 0.21,-0.632 0.295,-1.096c0.421,-1.095 0.8,-2.233 1.137,-3.329c0.295,-1.138 0.675,-2.276 1.138,-3.498c0.464,-1.685 0.928,-3.329 1.433,-5.015c0.506,-1.643 0.97,-3.371 1.433,-5.141c0.295,-1.054 0.548,-2.065 0.759,-3.077c0.21,-1.053 0.548,-2.065 1.011,-3.076c0.169,-0.464 0.506,-0.885 1.012,-1.264c0.505,-0.38 0.969,-0.675 1.432,-0.843c0.338,-0.169 0.717,-0.253 1.138,-0.211c0.38,0.042 0.801,0.084 1.265,0.084c-0.085,0.169 -0.169,0.295 -0.211,0.338c-0.042,0.042 -0.127,0.168 -0.211,0.337l-0.674,1.095c0.253,0 0.463,0.043 0.59,0.085c0.126,0.042 0.295,0.084 0.463,0.084c0.464,-0.169 0.885,-0.421 1.307,-0.759c0.421,-0.295 0.885,-0.59 1.433,-0.758c0.084,0.463 0.253,0.758 0.548,0.843c0.252,0.126 0.547,0.126 0.927,0.084c0.034,-0.004 0.069,-0.008 0.103,-0.011c0.338,-0.039 0.648,-0.073 0.992,-0.073c0.338,0 0.633,0.168 0.801,0.548c-0.379,0.21 -0.716,0.295 -0.969,0.295c-0.253,0 -0.59,0.042 -0.927,0.126l0,0.295c0.231,0.084 0.453,0.179 0.674,0.274c0.221,0.095 0.442,0.19 0.674,0.274c0.232,0.084 0.453,0.179 0.675,0.274c0.221,0.095 0.442,0.189 0.674,0.274c0.084,-0.085 0.337,0.084 0.801,0.548c0.168,0 0.252,0.126 0.252,0.295c0,0.21 0.085,0.337 0.253,0.421c0.129,0.08 0.246,0.149 0.345,0.207c0.161,0.094 0.277,0.162 0.33,0.214c0.084,0.085 0.042,0.38 -0.127,0.843c-0.379,0.38 -0.379,0.927 0,1.686c0,0.428 0.036,0.891 0.074,1.391c0.004,0.042 0.007,0.084 0.01,0.126c0.043,0.548 -0.042,1.054 -0.21,1.517c-0.464,1.265 -0.927,2.529 -1.433,3.667c-0.506,1.18 -0.885,2.402 -1.138,3.708c-0.211,0.843 -0.421,1.686 -0.759,2.571c-0.337,0.885 -0.674,1.686 -1.011,2.444c-0.084,0.169 -0.126,0.38 -0.126,0.548c0,0.169 -0.043,0.379 -0.127,0.548c-0.084,0.169 -0.126,0.379 -0.126,0.548c1.011,0.379 1.812,0.379 2.444,0c0.716,-0.379 1.349,-0.548 1.896,-0.506c0.548,0.042 1.012,0.169 1.475,0.337c0.464,-0.168 0.843,-0.379 1.138,-0.548c0.337,-0.21 0.632,-0.295 1.012,-0.295c0.348,-0.073 0.705,-0.154 1.066,-0.237c0.469,-0.107 0.944,-0.215 1.42,-0.31c0.885,-0.211 1.644,-0.295 2.36,-0.295c1.012,0.21 1.686,0 2.149,-0.548c0.422,-0.548 0.759,-1.18 0.928,-1.939l0,0c0.716,-1.854 1.432,-3.708 2.191,-5.563c0.759,-1.854 1.433,-3.708 2.065,-5.563c0.253,-0.927 0.632,-1.727 1.012,-2.486c0.421,-0.716 0.758,-1.559 1.011,-2.486c0.716,-1.77 1.517,-3.962 2.402,-6.533c0.295,-0.842 0.59,-1.642 0.885,-2.443l0,-0.001c0.337,-0.801 0.632,-1.644 0.885,-2.571c0.379,-1.011 0.717,-2.023 1.012,-3.034c0.295,-1.011 0.674,-2.023 1.137,-3.034c0.295,-0.717 0.548,-1.433 0.759,-2.15c0.211,-0.674 0.421,-1.39 0.59,-2.149c0.885,-1.938 1.517,-3.835 1.854,-5.689c0.211,-0.632 0.464,-1.307 0.759,-1.939c0.295,-0.632 0.506,-1.306 0.59,-2.065c0.379,-1.011 0.674,-2.023 0.885,-2.992c0.253,-0.969 0.506,-1.938 0.885,-2.866c0.211,-0.758 0.548,-1.348 1.096,-1.812c0.547,-0.463 1.18,-0.59 1.896,-0.421l0.927,0c0.379,0 0.717,0.042 1.096,0.126c-0.295,0 -0.464,0.127 -0.548,0.295c-0.064,0.081 -0.123,0.149 -0.172,0.207c-0.081,0.094 -0.139,0.163 -0.165,0.215l-0.211,0.421c0.506,0.169 0.843,0.211 0.927,0.127c0.295,0 0.548,-0.085 0.759,-0.211c0.253,-0.127 0.506,-0.253 0.758,-0.337c0.169,-0.211 0.38,-0.337 0.548,-0.422c0.169,-0.084 0.422,-0.21 0.675,-0.421c-0.085,0.379 -0.169,0.674 -0.253,0.843c-0.085,0.168 -0.042,0.379 0.126,0.548c0.211,0.084 0.548,0.126 1.096,0.126c0.927,-0.295 1.517,-0.042 1.896,0.716c-0.168,0 -0.379,0.043 -0.548,0.127c-0.168,0.084 -0.463,0.126 -0.927,0.126l0.675,0.295c0.716,0.464 1.475,0.97 2.233,1.517c0.759,0.59 1.349,1.265 1.812,2.108c0.169,0.168 0.253,0.379 0.253,0.547l0,0.548c-0.168,0.759 -0.295,1.517 -0.337,2.318l-0.006,0.12c-0.04,0.757 -0.078,1.477 -0.078,2.198c-0.085,0.464 -0.211,0.801 -0.337,1.096c-0.127,0.295 -0.253,0.59 -0.338,0.969c-0.369,0.806 -0.685,1.586 -0.99,2.339c-0.078,0.191 -0.155,0.381 -0.232,0.569c-0.259,0.633 -0.499,1.287 -0.745,1.959c-0.114,0.312 -0.23,0.628 -0.35,0.949c0,0.21 -0.169,0.421 -0.422,0.716c-0.337,0.464 -0.716,0.885 -1.138,1.264c-0.421,0.38 -0.505,0.843 -0.337,1.391c0,0.127 -0.084,0.211 -0.253,0.295c-0.927,1.012 -1.39,2.107 -1.433,3.203c-0.042,1.096 -0.379,2.191 -1.011,3.203c-0.084,0.211 -0.084,0.464 0,0.843c0.084,0.379 0.169,0.674 0.253,0.969c-1.012,0.717 -1.644,1.559 -1.897,2.487c-0.21,0.771 -0.479,1.572 -0.757,2.402c-0.057,0.167 -0.113,0.336 -0.17,0.505c-0.548,1.307 -1.053,2.613 -1.559,3.92c-0.464,1.306 -1.138,2.613 -1.939,3.919l-0.252,0.674c0,0.464 -0.085,0.843 -0.253,1.054c-0.096,0.12 -0.234,0.267 -0.396,0.442c-0.123,0.132 -0.26,0.28 -0.405,0.443c-0.421,0.168 -0.716,0.421 -0.801,0.758c-0.084,0.338 0.085,0.59 0.548,0.759c-0.084,0.211 -0.211,0.337 -0.337,0.421c-0.126,0.085 -0.253,0.253 -0.337,0.422c-0.169,0.211 -0.295,0.463 -0.337,0.843c-0.042,0.379 -0.169,0.674 -0.337,0.843c-0.338,0.379 -0.422,0.674 -0.253,0.842c0.253,0.295 0.295,0.59 0.126,0.928c-0.125,0.251 -0.298,0.502 -0.482,0.77c-0.063,0.092 -0.128,0.186 -0.192,0.283c-0.169,0.379 -0.169,0.632 0,0.759c0.168,0.126 0.421,0.253 0.674,0.337c0.717,0 1.138,0.295 1.222,0.843c0,0.168 0.127,0.295 0.38,0.337c0.252,0.042 0.505,0.084 0.674,0.084c0.084,0 0.126,-0.042 0.126,-0.126l-0.548,-0.97c0.622,-0.109 1.212,-0.187 1.77,-0.261c0.085,-0.011 0.169,-0.023 0.253,-0.034c0.632,-0.084 1.222,-0.126 1.77,-0.126c2.234,0 4.467,-0.042 6.659,-0.084c1.111,-0.043 2.233,-0.075 3.36,-0.107c1.096,-0.031 2.197,-0.062 3.299,-0.104c0.8,0 1.559,-0.042 2.275,-0.084c0.717,-0.042 1.433,-0.127 2.15,-0.211l1.095,0.295c0.118,0.207 0.257,0.393 0.402,0.587c0.062,0.083 0.125,0.167 0.188,0.256c0.211,0.295 0.422,0.59 0.59,0.969c-0.8,0.548 -1.095,0.969 -0.927,1.307c0.033,0.065 0.067,0.132 0.103,0.201c0.146,0.286 0.309,0.605 0.445,0.979c0.632,0.463 0.885,1.137 0.801,2.065c-0.085,0.21 -0.042,0.421 0.084,0.632c0.069,0.139 0.139,0.265 0.201,0.379c0.052,0.093 0.098,0.177 0.136,0.253c0.084,0.464 0.295,0.801 0.674,1.096c-0.885,0.253 -1.39,0.505 -1.475,0.674c-0.084,0.169 -0.042,0.674 0.127,1.517l0.548,1.517c-0.337,0.759 -0.843,1.222 -1.475,1.391c-0.632,0.169 -1.222,0.379 -1.77,0.674c-0.295,0 -0.422,-0.042 -0.422,-0.126c-0.758,-0.632 -1.559,-0.969 -2.444,-0.969c-0.885,0 -1.854,0.126 -2.824,0.295c-0.716,-0.295 -1.475,-0.422 -2.233,-0.422c-0.759,0 -1.517,0.084 -2.276,0.211c-0.379,0.063 -0.759,0.137 -1.138,0.211c-0.379,0.073 -0.758,0.147 -1.138,0.21c-0.758,0.169 -1.517,0.169 -2.233,0.085l-0.127,0c-1.011,-0.464 -2.065,-0.548 -3.245,-0.211c-1.18,0.337 -2.275,0.59 -3.371,0.758l-6.785,0.843c-1.349,0.085 -2.065,0.927 -2.149,2.487c0,0.463 -0.127,0.969 -0.338,1.475l0,0.001c-0.211,0.505 -0.421,1.01 -0.59,1.474l-1.095,2.908c-0.085,0 -0.169,0.042 -0.253,0.126l-1.222,-0.126l0.674,0.547c0.169,0.633 0.253,1.012 0.253,1.096c-0.169,0.379 -0.379,0.717 -0.59,1.054l-0.001,0c-0.21,0.337 -0.421,0.674 -0.589,1.053c-0.127,0.085 -0.253,0.127 -0.422,0.127l-0.547,0c-0.169,0.337 -0.422,0.59 -0.801,0.674c0,0.253 0.042,0.464 0.126,0.548c1.222,1.011 1.096,2.107 -0.421,3.203c-0.085,0 -0.169,0.168 -0.253,0.548c0.337,0.168 0.674,0.21 0.927,0.126l8.344,-0.969c0.843,0 1.644,-0.042 2.445,-0.085c0.8,-0.042 1.685,-0.126 2.57,-0.21c0.312,-0.057 0.624,-0.133 0.962,-0.215c0.164,-0.04 0.334,-0.081 0.513,-0.122c0.18,-0.042 0.349,-0.083 0.514,-0.123c0.337,-0.082 0.649,-0.158 0.961,-0.215l2.529,-0.295c0.632,0 1.264,-0.084 1.939,-0.21c0.674,-0.127 1.348,-0.253 2.065,-0.337l5.352,-0.675c0.429,-0.045 0.858,-0.102 1.28,-0.159c0.366,-0.048 0.727,-0.096 1.08,-0.136c0.758,-0.084 1.475,-0.253 2.191,-0.421l2.402,0.295l-0.674,1.096c0.211,0.126 0.548,0.505 1.096,1.264c-0.253,0 -0.548,0.042 -0.801,0.126c-0.203,0.102 -0.434,0.176 -0.648,0.245c-0.052,0.017 -0.103,0.034 -0.153,0.05l-0.547,1.391l4.172,3.624l-2.445,0.422c0.295,0.21 0.548,0.421 0.759,0.716c0.211,0.253 0.548,0.506 1.011,0.675c-0.337,0 -0.632,0.126 -0.8,0.295c-1.054,0.084 -1.56,0.716 -1.475,1.812c0.168,0.463 0.337,0.969 0.463,1.517c0.052,0.222 0.11,0.459 0.172,0.712c0.092,0.37 0.192,0.776 0.292,1.226c-0.548,0.127 -1.054,0.211 -1.602,0.295c-0.547,0.085 -1.011,0.043 -1.475,-0.126c-0.632,-0.295 -1.264,-0.379 -1.938,-0.295c-0.675,0.084 -1.475,0.126 -2.36,0.126c-1.609,0.121 -3.257,0.204 -4.869,0.284l-0.231,0.011c-1.58,0.078 -3.16,0.225 -4.806,0.379c-0.153,0.014 -0.307,0.028 -0.461,0.043c-1.265,0 -2.613,0.126 -4.046,0.421c-0.127,0.023 -0.253,0.045 -0.379,0.067c-1.3,0.23 -2.564,0.454 -3.793,0.608c-0.801,0.084 -1.602,0.168 -2.36,0.21c-0.759,0.042 -1.517,0.127 -2.234,0.211l-0.548,0c-1.138,0.548 -2.36,0.843 -3.624,0.843c-1.222,0 -2.487,0.168 -3.751,0.548c-0.506,0.21 -1.096,0.295 -1.728,0.295c-0.632,0 -1.264,0.126 -1.896,0.295c-1.854,0.295 -2.402,1.306 -1.602,3.076c-0.252,0.295 -0.252,0.422 0,0.422c-0.969,0.716 -1.643,1.475 -1.938,2.275c-0.337,0.801 -0.169,1.475 0.463,2.023c-0.088,0.025 -0.172,0.05 -0.252,0.074c-0.19,0.057 -0.359,0.107 -0.506,0.137c-0.253,0.042 -0.506,0.126 -0.759,0.211c0.717,0.463 0.927,1.053 0.675,1.685c-0.253,0.632 -0.506,1.307 -0.675,2.065l-0.421,0.127l0,-1.517c-0.548,0.758 -0.843,1.306 -0.885,1.685c-0.042,0.38 0.084,0.927 0.463,1.686c-1.011,0.084 -1.601,0.506 -1.77,1.264c-0.159,0.678 -0.356,1.317 -0.52,1.847l-0.027,0.092c-0.464,1.053 -0.843,2.065 -1.138,3.076c-0.295,1.054 -0.675,2.065 -1.138,3.077l0,0.548c0,1.559 -0.59,2.95 -1.728,4.172c-0.084,0 -0.126,0.126 -0.126,0.295c0,0.211 -0.085,0.337 -0.295,0.421c0.084,1.054 -0.043,1.981 -0.338,2.866c-0.295,0.885 -0.674,1.854 -1.095,2.866c0,0.126 -0.042,0.21 -0.085,0.295c-0.011,0.033 -0.022,0.065 -0.033,0.093c-0.029,0.078 -0.051,0.14 -0.051,0.202c0.169,0.716 0.127,1.306 -0.126,1.728c-0.253,0.421 -0.506,0.927 -0.759,1.475c-0.168,0.632 -0.337,1.306 -0.463,1.938c-0.127,0.674 -0.38,1.349 -0.717,2.107c0,0.38 -0.042,0.801 -0.126,1.265l-0.253,1.39c0,0.464 0.042,0.843 0.126,1.18c0.085,0.337 0.127,0.717 0.127,1.18c-0.548,0.464 -0.843,0.759 -0.885,0.885c-0.042,0.127 0.084,0.548 0.337,1.307l-1.349,1.517c0.801,0.463 1.054,1.264 0.801,2.36c-0.295,0.632 -0.464,1.306 -0.548,1.939c-0.018,0.089 -0.036,0.179 -0.054,0.271c-0.109,0.551 -0.223,1.125 -0.367,1.667c-0.211,1.222 -0.38,2.444 -0.548,3.709c-0.169,1.222 -0.422,2.444 -0.674,3.666c-0.085,0.632 -0.043,1.222 0.084,1.728c0.126,0.506 0.253,1.054 0.337,1.601c0.126,0.464 -0.211,1.18 -0.927,2.15c-0.717,0.969 -1.349,1.517 -1.897,1.601c-0.885,0.211 -1.685,0.211 -2.36,0.084c-0.674,-0.126 -1.095,-0.716 -1.264,-1.727c0.169,-0.464 -0.042,-0.801 -0.674,-0.97l-0.927,1.096l-0.029,0.035c-0.163,0.204 -0.36,0.449 -0.519,0.808c-0.085,-0.211 -0.211,-0.337 -0.337,-0.422c-0.127,-0.084 -0.211,-0.252 -0.211,-0.421c0,-0.927 -0.084,-1.433 -0.211,-1.517c-0.126,-0.084 -0.548,0.084 -1.264,0.548l0,-2.318c0,-0.674 0.042,-1.391 0.126,-2.149c0,-0.338 0.085,-0.717 0.211,-1.096c0.126,-0.379 0,-0.674 -0.464,-0.843c-0.463,-0.169 -0.8,-0.126 -1.011,0.211c-0.253,0.337 -0.506,0.674 -0.885,1.053c-0.028,0.071 -0.056,0.136 -0.084,0.202c-0.057,0.131 -0.113,0.262 -0.169,0.43c-0.07,0.174 -0.226,0.406 -0.421,0.696c-0.04,0.06 -0.083,0.124 -0.127,0.189c0,-0.463 0.042,-0.927 0.127,-1.39c0.126,-0.464 0,-0.801 -0.253,-0.97c-0.548,-0.547 -0.717,-1.18 -0.548,-1.938c0.084,-0.379 0.179,-0.748 0.274,-1.117c0.095,-0.369 0.189,-0.737 0.274,-1.117c0.284,-1.202 0.522,-2.38 0.765,-3.589c0.081,-0.401 0.162,-0.805 0.246,-1.215c0.295,-1.644 0.675,-3.245 1.138,-4.804c0.211,-1.096 0.464,-2.234 0.759,-3.33c0.337,-1.095 0.632,-2.191 0.885,-3.203c0.073,-0.234 0.144,-0.466 0.214,-0.695c0.296,-0.961 0.575,-1.867 0.881,-2.718c0.338,-1.054 0.675,-2.107 0.928,-3.119l2.023,-7.923c0.295,-1.306 0.632,-2.612 1.095,-3.961c0.288,-0.812 0.56,-1.657 0.836,-2.514c0.168,-0.522 0.337,-1.048 0.513,-1.574c0.421,-1.306 0.801,-2.529 1.138,-3.709c0.295,-1.137 0.674,-2.317 1.138,-3.54c0.255,-0.689 0.502,-1.369 0.744,-2.036c0.276,-0.76 0.546,-1.502 0.815,-2.22c0.506,-1.349 1.053,-2.781 1.686,-4.256c0.252,-0.717 0.379,-1.223 0.337,-1.518c-0.042,-0.295 -0.422,-0.379 -1.138,-0.295c-0.632,-0.084 -1.264,-0.126 -1.897,-0.126c-0.632,0 -1.306,0.337 -2.022,0.969c-0.211,0.085 -0.338,0.127 -0.422,0.127c-0.126,0 -0.253,0.042 -0.421,0.126c-0.664,0.092 -1.327,0.195 -1.983,0.298c-0.553,0.087 -1.102,0.173 -1.642,0.25c-1.138,0.211 -2.36,0.464 -3.624,0.843c-0.464,0.126 -0.885,0.295 -1.349,0.506c-0.463,0.252 -0.674,0.716 -0.674,1.475c0,0.547 -0.253,1.011 -0.801,1.39c-0.632,0.59 -1.011,1.138 -1.138,1.686c-0.168,0.59 -0.168,1.138 -0.084,1.686c0,0.379 -0.042,0.716 -0.084,0.927c-0.042,0.253 -0.211,0.59 -0.59,1.053c-0.295,0.464 -0.548,0.928 -0.759,1.391c-0.21,0.464 -0.168,0.885 0.085,1.264c0.168,0.169 0.252,0.38 0.21,0.548c-0.042,0.169 -0.084,0.38 -0.084,0.548l-2.95,9.609c-0.379,1.222 -0.632,2.36 -0.759,3.413c-0.126,1.096 -0.252,2.192 -0.337,3.288c-0.084,0.758 -0.379,1.264 -0.885,1.601c-0.505,0.337 -1.095,0.379 -1.812,0.211l-0.674,0c-0.717,-0.169 -1.222,-0.38 -1.475,-0.548c-0.169,-0.253 -0.337,-0.506 -0.464,-0.674c-0.168,-0.211 -0.421,-0.169 -0.758,0.126c-0.464,0.295 -0.759,0.337 -0.885,0.211c-0.127,-0.127 -0.253,-0.422 -0.337,-0.885c0,-0.843 -0.38,-1.265 -1.096,-1.265c-0.379,-0.379 -0.548,-0.842 -0.548,-1.39c0,-1.265 -0.59,-1.812 -1.77,-1.517c-0.379,0.126 -0.716,-0.127 -1.096,-0.675c-0.379,-0.548 -0.505,-1.011 -0.421,-1.39c0.168,-1.391 0.379,-2.782 0.59,-4.173c0.253,-1.39 0.548,-2.739 0.885,-4.045c0.211,-1.223 0.463,-2.403 0.885,-3.625c0.379,-1.222 0.801,-2.402 1.264,-3.624l0.548,-2.486c0.211,-0.548 0.169,-0.843 -0.126,-0.885c-0.295,-0.043 -0.633,0 -1.096,0.084l-3.793,0.758c-1.264,0.253 -2.529,0.464 -3.793,0.633c-1.053,0.126 -2.107,0.126 -3.161,0.084c-1.011,-0.042 -2.023,0 -3.034,0.084c-1.349,-0.084 -2.739,-0.084 -4.172,0c-0.379,0 -0.548,-0.126 -0.548,-0.295c-0.123,-0.462 -0.269,-0.923 -0.404,-1.352c-0.05,-0.158 -0.098,-0.312 -0.144,-0.46c-0.027,-0.089 -0.056,-0.18 -0.085,-0.273c-0.151,-0.483 -0.321,-1.03 -0.463,-1.666c-0.168,-0.084 -0.168,-0.252 0,-0.421c-0.969,-0.843 -1.348,-1.854 -1.138,-2.992c0.211,-1.138 0.422,-2.318 0.59,-3.414c0.295,-0.716 0.422,-1.475 0.422,-2.149c0,-0.674 0.295,-1.391 0.927,-2.149c0.421,-0.464 0.759,-0.759 0.927,-0.843c0.632,-0.084 1.264,-0.127 1.897,-0.127c0.632,0 1.222,-0.042 1.77,-0.126c1.812,-0.211 3.582,-0.379 5.268,-0.506c0.559,-0.055 1.118,-0.105 1.676,-0.154c1.165,-0.105 2.325,-0.209 3.465,-0.351c3.498,-0.464 6.996,-0.97 10.409,-1.518c0.138,-0.046 0.264,-0.086 0.38,-0.123c0.202,-0.064 0.371,-0.118 0.505,-0.172c0.253,-0.084 0.464,-0.379 0.632,-0.842c0.422,-1.096 0.843,-2.234 1.265,-3.414c0.379,-1.18 0.758,-2.276 1.138,-3.287c0.038,-0.086 0.075,-0.17 0.112,-0.253c0.291,-0.657 0.553,-1.247 0.815,-1.77c0.166,-0.387 0.35,-0.774 0.528,-1.149c0.093,-0.197 0.185,-0.391 0.272,-0.579c0.295,-0.927 -0.042,-1.391 -0.927,-1.391c-2.233,0.548 -4.635,0.97 -7.164,1.265l-1.349,0.126c-0.291,0.058 -0.622,0.137 -0.979,0.221c-0.161,0.038 -0.326,0.077 -0.496,0.116c-0.547,0.169 -1.011,0.337 -1.475,0.506c-0.421,0 -0.842,-0.042 -1.264,-0.084Zm31.903,7.248c1.601,-0.168 3.202,-0.337 4.72,-0.506l-0.043,-0.463l1.096,0c0.464,0.168 0.801,0.168 1.012,-0.084c0.252,-0.211 0.505,-0.548 0.758,-0.928c0.127,-0.463 0.464,-1.306 1.096,-2.444c0.268,-0.784 0.526,-1.548 0.779,-2.296c0.264,-0.781 0.522,-1.545 0.78,-2.297c0.464,-1.475 1.096,-2.993 1.812,-4.594l1.222,-3.329c0.295,-0.927 0,-1.265 -0.8,-0.97c-0.464,0.169 -0.885,0.295 -1.222,0.338c-0.275,0.03 -0.549,0.083 -0.855,0.141c-0.118,0.022 -0.239,0.046 -0.368,0.069c-1.011,0.211 -1.938,0.38 -2.781,0.506c-0.843,0.126 -1.728,0.337 -2.613,0.632c-0.801,0.211 -1.559,0.422 -2.276,0.717c-0.716,0.252 -1.475,0.505 -2.275,0.674c-1.012,0.211 -1.602,0.421 -1.77,0.632c-0.169,0.253 -0.422,0.885 -0.675,1.896c-0.716,2.698 -1.601,5.479 -2.697,8.345c0,0.21 -0.084,0.379 -0.253,0.505c-0.083,0.05 -0.159,0.1 -0.232,0.148c-0.112,0.072 -0.214,0.139 -0.315,0.19c-0.211,0.21 -0.506,0.674 -0.97,1.475c-0.463,0.8 -0.59,1.306 -0.421,1.475c0,0.168 0.084,0.379 0.253,0.547c0.379,0 0.716,0.043 1.095,0.127c0.38,0.084 0.717,0.084 1.096,0c0.801,-0.084 1.612,-0.169 2.423,-0.253c0.812,-0.084 1.623,-0.169 2.424,-0.253Z" style="fill:#512c86;"/></g></g></svg>