<?xml version="1.0" encoding="utf-8"?>
<!-- Generator: Adobe Illustrator 23.0.1, SVG Export Plug-In . SVG Version: 6.00 Build 0)  -->
<svg version="1.1" id="Layer_1" xmlns="http://www.w3.org/2000/svg" xmlns:xlink="http://www.w3.org/1999/xlink" x="0px" y="0px"
	 viewBox="0 0 300 173" style="enable-background:new 0 0 300 173;" xml:space="preserve">
<style type="text/css">
	.st0{fill:#00627D;}
</style>
<path class="st0" d="M275.71,85.8c-0.44-1.31-1.05-2.4-1.85-3.29c-0.78-0.88-1.73-1.56-2.81-2.02c-1.1-0.47-2.27-0.7-3.53-0.7
	c-1.24,0-2.39,0.26-3.44,0.78c-1.04,0.53-1.95,1.26-2.73,2.23v-2.53h-5.25v26.53l5.25-0.89v-8.24c0.8,1.04,1.73,1.81,2.78,2.32
	c1.06,0.49,2.18,0.74,3.37,0.74c1.26,0,2.45-0.23,3.53-0.7c1.1-0.47,2.02-1.15,2.81-2.05c0.78-0.89,1.39-2,1.85-3.31
	c0.44-1.31,0.67-2.78,0.67-4.45C276.38,88.58,276.15,87.11,275.71,85.8z M269.53,94.45c-0.92,1.08-2.14,1.61-3.66,1.61
	c-0.85,0-1.71-0.22-2.56-0.67c-0.85-0.44-1.5-0.97-1.94-1.61v-7.07c0.44-0.63,1.1-1.17,1.94-1.61c0.85-0.44,1.71-0.67,2.56-0.67
	c1.52,0,2.74,0.53,3.66,1.59c0.92,1.06,1.38,2.46,1.38,4.19C270.92,91.98,270.46,93.38,269.53,94.45z M135.89,100.73
	c-1.52,0-2.93-0.25-4.24-0.74s-2.43-1.21-3.39-2.12c-0.95-0.91-1.7-2.01-2.23-3.31s-0.81-2.75-0.81-4.34c0-1.43,0.26-2.78,0.76-4.07
	c0.5-1.28,1.22-2.39,2.13-3.32c0.91-0.94,2-1.67,3.26-2.23c1.26-0.55,2.66-0.83,4.18-0.83c1.49,0,2.84,0.27,4.07,0.81
	c1.23,0.54,2.27,1.29,3.17,2.26c0.88,0.97,1.57,2.12,2.05,3.46c0.48,1.36,0.71,2.83,0.71,4.46v1.16h-14.84
	c0.16,1.26,0.74,2.35,1.72,3.26s2.32,1.37,4.04,1.37c0.41,0,0.87-0.05,1.37-0.14c0.49-0.09,0.98-0.22,1.47-0.4
	c0.48-0.16,0.94-0.37,1.37-0.62c0.43-0.25,0.81-0.53,1.14-0.83l2.32,3.39c-0.98,0.91-2.22,1.6-3.67,2.06
	C138.98,100.5,137.46,100.73,135.89,100.73z M140.48,88.38c-0.04-0.47-0.14-0.97-0.33-1.49c-0.2-0.53-0.48-0.99-0.87-1.43
	c-0.39-0.43-0.89-0.78-1.51-1.08c-0.62-0.29-1.37-0.43-2.21-0.43c-0.83,0-1.53,0.14-2.13,0.41c-0.59,0.28-1.09,0.62-1.47,1.05
	c-0.39,0.43-0.69,0.9-0.91,1.43c-0.22,0.53-0.35,1.04-0.41,1.52L140.48,88.38L140.48,88.38z M147.35,100.24V80.29h5.25v2.96
	c0.71-0.88,1.64-1.64,2.78-2.27s2.33-0.95,3.57-0.95v5.13c-0.39-0.07-0.87-0.13-1.45-0.13c-0.44,0-0.9,0.06-1.38,0.16
	c-0.48,0.11-0.95,0.27-1.4,0.47c-0.46,0.2-0.87,0.46-1.24,0.73s-0.68,0.59-0.89,0.91v12.93L147.35,100.24z M174.2,100.24V88.17
	c0-1.4-0.33-2.39-0.98-2.91c-0.66-0.53-1.56-0.81-2.69-0.81c-1.04,0-1.95,0.25-2.73,0.71c-0.77,0.48-1.37,1.03-1.81,1.63v13.43
	h-5.25V80.28h5.25v2.6c0.63-0.76,1.54-1.49,2.73-2.13c1.18-0.64,2.6-0.97,4.25-0.97c2.21,0,3.83,0.57,4.89,1.72
	c1.06,1.15,1.59,2.69,1.59,4.65v14.09C179.44,100.24,174.2,100.24,174.2,100.24z M35.29,100.73c-1.74,0-3.39-0.28-4.98-0.83
	c-1.58-0.55-2.9-1.31-3.94-2.27l2.27-3.67c0.35,0.33,0.81,0.67,1.35,0.98c0.54,0.33,1.11,0.62,1.74,0.89
	c0.62,0.26,1.24,0.47,1.9,0.62s1.29,0.22,1.92,0.22c1.16,0,2-0.2,2.54-0.6c0.54-0.4,0.81-0.91,0.81-1.54c0-0.55-0.29-0.97-0.89-1.24
	c-0.59-0.28-1.32-0.49-2.19-0.68c-0.87-0.19-1.81-0.37-2.86-0.6s-1.99-0.55-2.86-0.98c-0.87-0.44-1.6-1.04-2.19-1.81
	c-0.59-0.77-0.89-1.81-0.89-3.14c0-0.83,0.19-1.63,0.54-2.39c0.35-0.76,0.89-1.43,1.59-2c0.7-0.57,1.56-1.04,2.56-1.38
	c1.01-0.35,2.16-0.51,3.5-0.51c1.71,0,3.23,0.26,4.58,0.76c1.33,0.51,2.5,1.16,3.5,1.97l-2.12,3.59c-0.61-0.63-1.43-1.18-2.48-1.63
	c-1.04-0.46-2.19-0.68-3.44-0.68c-0.97,0-1.73,0.2-2.29,0.59c-0.55,0.39-0.84,0.85-0.84,1.4c0,0.49,0.29,0.87,0.87,1.11
	s1.31,0.46,2.19,0.64c0.88,0.19,1.84,0.39,2.86,0.62s1.97,0.59,2.86,1.05c0.88,0.47,1.61,1.1,2.19,1.9c0.59,0.8,0.87,1.87,0.87,3.23
	c0,0.91-0.2,1.76-0.59,2.54s-0.95,1.46-1.67,2.02c-0.73,0.56-1.63,1.01-2.7,1.35C37.9,100.54,36.67,100.73,35.29,100.73z
	 M82.02,100.24v-2.53c-0.69,0.77-1.63,1.47-2.78,2.08c-1.17,0.62-2.59,0.94-4.24,0.94c-2.21,0-3.83-0.56-4.88-1.67
	c-1.04-1.11-1.58-2.66-1.58-4.61V80.26h5.25v12.11c0,1.37,0.33,2.33,0.98,2.87c0.67,0.54,1.56,0.81,2.69,0.81
	c1.02,0,1.91-0.23,2.69-0.7c0.76-0.47,1.39-0.98,1.86-1.58V80.28h5.25v19.95L82.02,100.24z M200.36,100.73
	c-1.54,0-2.96-0.26-4.25-0.76c-1.3-0.5-2.41-1.23-3.35-2.16c-0.94-0.94-1.66-2.05-2.19-3.32c-0.53-1.28-0.78-2.69-0.78-4.24
	c0-1.52,0.26-2.91,0.78-4.19c0.53-1.28,1.25-2.39,2.19-3.32c0.94-0.94,2.06-1.66,3.35-2.16c1.3-0.5,2.71-0.76,4.25-0.76
	c2.04,0,3.7,0.37,4.98,1.11c1.28,0.74,2.26,1.58,2.91,2.48l-3.44,3.23c-0.97-1.43-2.38-2.14-4.22-2.14c-1.6,0-2.9,0.53-3.91,1.59
	s-1.51,2.46-1.51,4.19s0.49,3.14,1.51,4.22c1.01,1.08,2.31,1.61,3.91,1.61c0.91,0,1.73-0.2,2.43-0.59c0.71-0.39,1.31-0.91,1.78-1.58
	l3.44,3.17c-0.67,0.94-1.63,1.78-2.91,2.53C204.07,100.37,202.4,100.73,200.36,100.73z M92.26,75.47l5.29-0.89v5.71h4.62v4.59h-4.62
	v9.01c0,0.63,0.16,1.16,0.47,1.58c0.32,0.41,0.76,0.62,1.35,0.62c0.39,0,0.75-0.07,1.1-0.2s0.59-0.26,0.71-0.4l1.11,3.97
	c-0.39,0.35-0.95,0.67-1.65,0.91c-0.71,0.25-1.63,0.37-2.73,0.37c-1.85,0-3.25-0.46-4.22-1.38c-0.97-0.91-1.45-2.27-1.45-4.07V84.87
	h-3.31v-4.59h3.31L92.26,75.47z M123.16,86.07v14.18h-5.25V88.1c0-1.37-0.34-2.33-1.01-2.86c-0.68-0.53-1.58-0.78-2.7-0.78
	c-1.02,0-1.91,0.25-2.69,0.71c-0.77,0.48-1.39,1.03-1.86,1.63v13.43h-5.25V73.41l5.25-0.89v10.36c0.63-0.76,1.54-1.49,2.75-2.13
	s2.63-0.97,4.28-0.97c2.21,0,3.83,0.56,4.89,1.67C122.64,82.57,123.16,84.11,123.16,86.07z M243.61,79.74
	c-5.03,0-9.24,3.55-10.27,8.27h-3.63c-1.03-4.73-5.24-8.27-10.27-8.27c-5.82,0-10.52,4.7-10.52,10.52s4.7,10.52,10.52,10.52
	c4.88,0,8.97-3.33,10.17-7.85h3.85c1.18,4.52,5.27,7.85,10.17,7.85c5.82,0,10.52-4.7,10.52-10.52
	C254.12,84.45,249.42,79.74,243.61,79.74z M224.18,92.49c-0.23,0.7-0.56,1.31-0.98,1.85c-0.43,0.53-0.96,0.95-1.59,1.25
	c-0.63,0.32-1.37,0.47-2.19,0.47c-0.83,0-1.54-0.16-2.16-0.47c-0.62-0.32-1.16-0.74-1.59-1.25c-0.44-0.53-0.77-1.14-0.98-1.85
	c-0.22-0.7-0.33-1.45-0.33-2.26c0-0.77,0.11-1.51,0.33-2.21c0.22-0.7,0.55-1.31,0.98-1.85c0.44-0.53,0.97-0.95,1.59-1.25
	c0.62-0.32,1.35-0.47,2.16-0.47c0.83,0,1.56,0.16,2.19,0.47c0.63,0.32,1.16,0.74,1.59,1.25c0.43,0.53,0.76,1.14,0.98,1.85
	c0.23,0.7,0.35,1.44,0.35,2.21C224.53,91.03,224.42,91.78,224.18,92.49z M248.35,92.49c-0.23,0.7-0.56,1.31-0.98,1.85
	c-0.43,0.53-0.96,0.95-1.59,1.25c-0.63,0.32-1.37,0.47-2.19,0.47c-0.83,0-1.54-0.16-2.16-0.47c-0.62-0.32-1.16-0.74-1.59-1.25
	c-0.44-0.53-0.77-1.14-0.98-1.85c-0.22-0.7-0.33-1.45-0.33-2.26c0-0.77,0.11-1.51,0.33-2.21c0.22-0.7,0.55-1.31,0.98-1.85
	c0.44-0.53,0.97-0.95,1.59-1.25c0.62-0.32,1.35-0.47,2.16-0.47c0.83,0,1.56,0.16,2.19,0.47c0.63,0.32,1.16,0.74,1.59,1.25
	c0.43,0.53,0.76,1.14,0.98,1.85c0.23,0.7,0.35,1.44,0.35,2.21C248.69,91.03,248.57,91.78,248.35,92.49z M55.91,84.3
	c1.54,0,3.09,0.59,4.27,1.77c2.35,2.35,2.35,6.18,0,8.54l-4.27,4.27l-4.27-4.27c-2.35-2.35-2.35-6.18,0-8.54
	C52.82,84.9,54.37,84.3,55.91,84.3 M55.91,79.39c-2.93,0-5.68,1.14-7.75,3.21c-4.28,4.28-4.28,11.22,0,15.5l4.27,4.27l3.48,3.48
	l3.48-3.48l4.27-4.27c4.28-4.28,4.28-11.22,0-15.5C61.6,80.52,58.84,79.39,55.91,79.39L55.91,79.39z"/>
</svg>
