<?xml version="1.0" encoding="utf-8"?>
<!-- Generator: Adobe Illustrator 23.0.1, SVG Export Plug-In . SVG Version: 6.00 Build 0)  -->
<svg version="1.1" id="Layer_1" xmlns="http://www.w3.org/2000/svg" xmlns:xlink="http://www.w3.org/1999/xlink" x="0px" y="0px"
	 viewBox="0 0 300 173" style="enable-background:new 0 0 300 173;" xml:space="preserve">
<style type="text/css">
	.st0{fill:#B20E10;}
	.st1{fill:#45C2B1;}
</style>
<g>
	<g>
		<path class="st0" d="M76.06,58.8c0.13,0.19,1.05,1.61,1.05,6.41v17.16c0,8.71,8.91,8.29,9.63,8.29c5.82,0,9.42-3,10.15-3.52
			c2.16-1.5,4.5-1.14,4.5-1.14l0.03-20.79c0-4.79,0.91-6.23,1.05-6.41c-0.71,0.1-1.63,0.19-2.67,0.19c-1.11,0-2.09-0.08-2.81-0.2
			l0.07,14.41c0,0-0.15,6.04-0.64,9.2c-0.86,3.47-2.98,5.44-7.13,5.44c-8.32,0-7.79-8.38-7.79-8.38l0.03-20.67
			c-0.72,0.12-1.71,0.2-2.81,0.2C77.7,58.98,76.77,58.9,76.06,58.8"/>
	</g>
	<g>
		<path class="st0" d="M107.37,89.88c0,0,1.32-1.68,1.32-5.36V66.05c0,0,0.29-5.61-1.07-7.27c0,0,0.2,0.13,2.86,0.13
			c2.91,0,6-0.61,8.09-0.61c1.69,0,8.41-0.22,8.41,6.52c0,6.25-7.22,8.83-7.22,8.83s7.65,10.63,7.92,11.01
			c0.36,0.47,1.5,2.22,3.26,3.04c1.14,0.54,2.55,0.97,4.31,1.07l-0.69,1.12l-0.23,0.08c-0.03,0-4.27,0.14-5.84-0.28
			c-1.12-0.3-1.94-0.65-2.47-1.04c-1.11-0.79-1.68-1.25-3.38-3.77c-1.7-2.52-6.1-8.67-6.1-8.67s-1.25-1.83-2.27-2.42v-0.85
			c0,0,8.29,0.99,8.29-7.6c0-5.39-5.27-5.01-5.57-5.01h-3.85v24.21c0,3.67,1.32,5.34,1.32,5.34h-7.08V89.88z"/>
	</g>
	<g>
		<path class="st0" d="M145.8,89.89c0,0-1.06-1.41-1.06-4.94c0-3.53-0.01-5.54-0.01-5.54s-0.14-3.73,1.66-7.74
			c2.31-5.18,7.57-11.01,9.77-12.88c0,0-1.64,0.61-4.13-0.01c0,0-5.9,6.6-9.15,12.95c-2.95-6.49-7.97-13.06-7.97-13.06
			c-2.48,0.62-5.96,0.17-5.96,0.17c2.38,1.89,7.41,7.65,9.72,12.84c1.8,4.01,1.67,7.74,1.67,7.74s-0.01,1.99-0.01,5.54
			c0,3.53-1.06,4.94-1.06,4.94L145.8,89.89L145.8,89.89z"/>
	</g>
	<g>
		<path class="st0" d="M173.08,63.02c0,0-1.03-1.38-2.81-2.22c-1.06-0.49-2.46-0.65-3.91-0.65c-6,0-5.97,4.34-5.97,4.92
			c0,0.58-0.44,3.98,6.11,6.98c6.66,3.07,7.79,6.19,7.79,9.49c0,3.31-3.07,9-11.32,9c-3.98,0-8.37-1.7-8.37-1.7v-5.41
			c0,0,2.2,4.91,8.87,4.91c6.18,0,6.25-5.27,6.25-5.95c0-0.69,0.34-4.02-6.89-7.62c-7.41-3.68-7.02-7.37-7.02-8.76
			c0-1.4,0.89-8.07,9.77-8.07c2.22,0,4.5,0.41,5.72,0.41c0.7,0,1.76-0.12,1.76-0.12L173.08,63.02z"/>
	</g>
	<g>
		<path class="st0" d="M130.67,113.68h4.56c0,0-0.79-0.84-0.79-3.07V97.71c0-2.23,0.79-3.07,0.79-3.07s-0.69,0.17-2.28,0.17
			s-2.28-0.17-2.28-0.17s0.79,0.85,0.79,3.07v12.91C131.46,112.84,130.67,113.68,130.67,113.68"/>
	</g>
	<g>
		<path class="st0" d="M142.38,95.22c0.14,0.2,9.07,13.41,9.07,13.41V97.71c0-2.23-0.68-3.07-0.68-3.07h3.88
			c0,0-0.68,0.85-0.68,3.07l-0.01,16.11h-2.79l-10.27-14.77v11.56c0,2.23,0.68,3.07,0.68,3.07h-3.87c0,0,0.66-0.84,0.66-3.07V97.71
			c0-2.23-1.47-3.07-1.47-3.07s1.55,0.34,2.91,0.34c1.36,0,2.12-0.1,2.16-0.1C142.06,94.88,142.24,95.01,142.38,95.22"/>
	</g>
	<g>
		<path class="st0" d="M161.97,95.22c0.14,0.2,9.07,13.41,9.07,13.41V97.71c0-2.23-0.69-3.07-0.69-3.07h3.88
			c0,0-0.68,0.85-0.68,3.07v16.11h-2.79L160.5,99.05v11.56c0,2.23,0.69,3.07,0.69,3.07h-3.87c0,0,0.68-0.84,0.68-3.07V97.71
			c0-2.23-1.48-3.07-1.48-3.07s1.55,0.34,2.93,0.34c1.36,0,2.12-0.1,2.17-0.1C161.63,94.88,161.83,95.01,161.97,95.22"/>
	</g>
	<g>
		<path class="st0" d="M52.12,91.09c-0.16-0.17-0.16-0.44,0-0.61c0.16-0.17,0.42-0.17,0.58,0c0.91,0.86,3.14,1.83,4.73,1.92
			c6.34,0.19,8.2-3.67,8.2-8.46V62.35c0,0,0.17-5.14-1.4-7.55c0,0,1.4,0.42,3.77,0.42c2.37,0,3.74-0.42,3.74-0.42
			c-1.57,2.41-1.4,7.55-1.4,7.55v21.96c0,6.55-4.87,10.11-10.82,10.11C56.49,94.42,53.73,93.06,52.12,91.09"/>
	</g>
	<g>
		<path class="st1" d="M182.71,113.66c-1.8,0-3-1.05-3-3v-1.59h1.82v1.48c0,0.98,0.54,1.43,1.18,1.43c0.85,0,1.28-0.56,1.28-1.61
			c0-0.87-0.17-1.46-0.85-2.18l-2.08-2.25c-0.98-1.05-1.26-1.95-1.26-3.32c0-1.89,0.9-3.28,2.97-3.28c1.89,0,2.95,1.1,2.95,3v1.59
			h-1.82v-1.48c0-0.98-0.45-1.43-1.13-1.43c-0.77,0-1.15,0.64-1.15,1.61c0,0.87,0.17,1.46,0.85,2.18l2.08,2.25
			c0.98,1.05,1.26,1.95,1.26,3.32C185.81,112.27,184.78,113.66,182.71,113.66z"/>
	</g>
	<g>
		<path class="st1" d="M188.37,110.58v-6.38h-0.85v-1.74h0.85v-2.61h1.82v2.61h1.5v1.74h-1.5v6.17c0,1,0.38,1.5,1.5,1.41v1.71
			C189.32,113.68,188.37,112.45,188.37,110.58z"/>
	</g>
	<g>
		<path class="st1" d="M197.54,113.5v-0.72c-0.21,0.56-0.94,0.9-1.61,0.9c-1.74,0-2.55-1.07-2.55-3v-5.37c0-1.92,0.82-3,2.55-3
			c0.66,0,1.39,0.34,1.61,0.9v-0.72h1.76v11.03L197.54,113.5z M197.48,105.41c0-0.98-0.45-1.46-1.13-1.46
			c-0.69,0-1.13,0.47-1.13,1.46v5.16c0,0.98,0.45,1.46,1.13,1.46c0.69,0,1.13-0.47,1.13-1.46V105.41z"/>
		<path class="st1" d="M204.24,117.67c-1.84,0-2.89-1.1-2.89-3v-0.3h1.82v0.2c0,0.94,0.38,1.46,1.07,1.46s1.07-0.51,1.07-1.46v-1.76
			c-0.2,0.49-0.85,0.85-1.48,0.85c-1.74,0-2.44-1.07-2.44-3v-8.2h1.82v8.09c0,0.98,0.38,1.46,1.05,1.46c0.64,0,1.05-0.47,1.05-1.46
			v-8.09h1.82v12.21C207.12,116.58,206.07,117.67,204.24,117.67z"/>
		<path class="st1" d="M218.23,113.5v-6.42h-2.4v6.42h-1.84V99.54h1.84v5.84h2.4v-5.84h1.84v13.95H218.23z"/>
		<path class="st1" d="M226.45,113.5v-0.72c-0.21,0.56-0.94,0.9-1.61,0.9c-1.74,0-2.55-1.07-2.55-3v-5.37c0-1.92,0.82-3,2.55-3
			c0.66,0,1.39,0.34,1.61,0.9v-0.72h1.76v11.03L226.45,113.5z M226.38,105.41c0-0.98-0.45-1.46-1.13-1.46
			c-0.68,0-1.13,0.47-1.13,1.46v5.16c0,0.98,0.45,1.46,1.13,1.46c0.68,0,1.13-0.47,1.13-1.46V105.41z"/>
		<path class="st1" d="M233.72,113.66c-0.62,0-1.35-0.36-1.54-0.85v4.76h-1.82v-15.1h1.76v0.72c0.21-0.56,0.94-0.9,1.61-0.9
			c1.74,0,2.55,1.07,2.55,3v5.37C236.28,112.59,235.46,113.66,233.72,113.66z M234.46,105.41c0-0.98-0.45-1.46-1.13-1.46
			c-0.68,0-1.13,0.47-1.13,1.46v5.16c0,0.98,0.45,1.46,1.13,1.46c0.69,0,1.13-0.47,1.13-1.46V105.41z"/>
		<path class="st1" d="M241.71,113.66c-0.62,0-1.34-0.36-1.54-0.85v4.76h-1.82v-15.1h1.76v0.72c0.21-0.56,0.94-0.9,1.61-0.9
			c1.74,0,2.55,1.07,2.55,3v5.37C244.25,112.59,243.45,113.66,241.71,113.66z M242.43,105.41c0-0.98-0.45-1.46-1.13-1.46
			c-0.68,0-1.13,0.47-1.13,1.46v5.16c0,0.98,0.45,1.46,1.13,1.46c0.68,0,1.13-0.47,1.13-1.46V105.41z"/>
		<path class="st1" d="M249.11,117.67c-1.84,0-2.89-1.1-2.89-3v-0.3h1.82v0.2c0,0.94,0.38,1.46,1.07,1.46s1.07-0.51,1.07-1.46v-1.76
			c-0.2,0.49-0.85,0.85-1.48,0.85c-1.74,0-2.44-1.07-2.44-3v-8.2h1.82v8.09c0,0.98,0.38,1.46,1.05,1.46c0.64,0,1.05-0.47,1.05-1.46
			v-8.09H252v12.21C252,116.58,250.95,117.67,249.11,117.67z"/>
	</g>
</g>
</svg>
