<?xml version="1.0" encoding="utf-8"?>
<!-- Generator: Adobe Illustrator 22.1.0, SVG Export Plug-In . SVG Version: 6.00 Build 0)  -->
<svg version="1.1" id="Layer_1" xmlns="http://www.w3.org/2000/svg" xmlns:xlink="http://www.w3.org/1999/xlink" x="0px" y="0px"
	 viewBox="0 0 390 220" style="enable-background:new 0 0 390 220;" xml:space="preserve">
<style type="text/css">
	.st0{fill:#FED636;}
	.st1{fill:#14CAC9;}
	.st2{fill:#FFFFFF;}
	.st3{fill:#512C86;}
	.st4{fill:none;}
	.st5{fill:#F6F3FA;}
</style>
<path class="st0" d="M101.9,218.3c4.4,0,6.6-2.2,6.6-6.6v-75c0-22.5-5.9-39.9-17.6-52.4C79.2,71.9,51.4,65.7,29.7,65.7
	c-4.9,0-9.4,0.2-13.3,0.7c-4,0.5-7.6,1-10.8,1.4c-2.7,0.5-4,2.7-4,6.6v137.3c0,4.4,2.2,6.6,6.6,6.6H101.9z"/>
<g>
	<path class="st1" d="M83.2,119.3H81c0-3.6,2.9-6.4,6.4-6.4v2.3C85,115.1,83.2,117,83.2,119.3"/>
	<path class="st1" d="M96.3,208.3H94v-81c0-1.3,0.8-2.6,2-3.2l7.9-4.1c0.3-0.2,0.7-0.7,0.7-1.1v-4.3c0-0.2-0.1-0.3-0.3-0.3v-2.4
		c1.5,0,2.7,1.2,2.7,2.7v4.3c0,1.3-0.8,2.6-2,3.2l-7.9,4.1c-0.3,0.2-0.7,0.7-0.7,1.1L96.3,208.3L96.3,208.3z"/>
	<path class="st1" d="M96.8,208.3h-3.3c-0.5,0-0.9-0.4-0.9-0.9v-4.8c0-0.5,0.4-0.9,0.9-0.9h3.3c0.5,0,0.9,0.4,0.9,0.9v4.8
		C97.7,207.9,97.3,208.3,96.8,208.3"/>
	<path class="st2" d="M152.3,146.9l-0.5,7.7c0.1,3.3,0.7,6,1.7,8.4l22.1,26.3l-6,13.2l2.5,6.5l15.5-16.7l-18-35.1l2.5-44.8"/>
	<path class="st3" d="M172,210.2c-0.1,0-0.1,0-0.2,0c-0.4-0.1-0.7-0.4-0.9-0.7l-2.5-6.5c-0.1-0.3-0.1-0.6,0-0.9l5.7-12.6l-21.6-25.8
		c-0.1-0.1-0.1-0.2-0.2-0.3c-1-2.4-1.6-5.3-1.8-8.8v-0.1l0.5-7.7l2.3,0.1l-0.5,7.6c0.1,3.1,0.6,5.6,1.5,7.8l22,26.2
		c0.3,0.3,0.4,0.8,0.2,1.2l-5.8,12.8l1.7,4.3L186,192l-17.6-34.3c-0.1-0.2-0.1-0.4-0.1-0.6l2.5-44.8l2.3,0.1l-2.5,44.5l17.8,34.8
		c0.2,0.4,0.2,1-0.2,1.3l-15.5,16.7C172.6,210.1,172.3,210.2,172,210.2"/>
	<line class="st4" x1="175.5" y1="189.3" x2="184.6" y2="186.9"/>
	<rect x="175.3" y="187" transform="matrix(0.965 -0.2624 0.2624 0.965 -43.0446 53.846)" class="st3" width="9.5" height="2.3"/>
	<path class="st3" d="M132.6,45.1c-1.5-0.7-3.5-0.9-5.4-1.1c-1.1-0.1-2.2-0.2-3.4-0.4c-6.8-1.2-15.1-8.7-14.6-15
		c0.1-1.6-1.1-3.8-2.8-4.5c-1.7-0.6-3.2,0.8-4.1,2.1l-0.1,0.1C90.2,39.4,78.8,31.1,78.7,31c-0.2-0.1-0.3-0.3-0.4-0.5
		c-2.2-5.1-1.6-10.7,1.5-15.5C83.8,8.9,91.3,4.6,98.6,4.2c5.9-0.3,10.6,1.8,14.4,6.4c1.5,1.8,2.8,3.6,4,5.3c2.2,3.2,4.4,6.2,7.6,8.9
		c3.4,2.7,6.5,3.9,8.5,3.2c1.4-0.5,2.4-1.8,2.9-4c0.1-0.3,0.3-0.6,0.6-0.7c0.3-0.2,0.6-0.2,0.9-0.1c2.9,0.9,5.7,5.6,6.2,8.3
		c0.5,2.8-0.3,5.8-2.4,8.3c-2,2.5-4.9,4-8.5,4.4L132.6,45.1z M105.5,21.6c0.7,0,1.2,0.1,1.7,0.3c2.6,0.9,4.6,4.1,4.4,6.8
		c-0.4,5,7,11.6,12.7,12.6c1.1,0.2,2.1,0.3,3.2,0.4c1.3,0.1,2.5,0.3,3.7,0.5c4.7,0,7.2-2,8.6-3.7c1.6-1.9,2.3-4.4,1.9-6.4
		c-0.4-1.9-2.1-4.7-3.7-5.9c-0.9,2.2-2.2,3.6-4,4.2c-3.9,1.3-8.4-1.7-10.7-3.7c-3.6-2.9-5.8-6.1-8-9.4c-1.2-1.7-2.4-3.5-3.9-5.2
		C108,8,103.9,6.2,98.8,6.4c-6.5,0.3-13.4,4.2-16.8,9.7c-1.9,3-3.7,7.6-1.5,13.1c1.6,1.1,10.4,6,20.1-4.6
		C102.3,22.3,104.1,21.6,105.5,21.6"/>
	<path class="st5" d="M140.9,107.6c1.4,2.3,1.3,4.7,0.3,7.1c-2.2,5.6-13.1,29.5-13.2,33.4l1.1,52.2l-10.4,3.8L115,209h24.3l7.1-53.2
		l20-30.6c4.2-5,6.1-10.5,5.3-17.4c-0.3-2.8-3.3-9.2-7.2-16.8"/>
	<path class="st3" d="M139.3,210.2H115c-0.4,0-0.9-0.3-1.1-0.7s-0.1-0.9,0.1-1.2l3.8-4.8c0.1-0.2,0.3-0.3,0.5-0.4l9.6-3.5l-1-51.3
		c0.1-3,4.6-13.6,9.9-26.1c1.5-3.4,2.7-6.3,3.3-7.8c0.9-2.5,0.8-4.4-0.2-6.1l2-1.2c1.5,2.4,1.6,4.9,0.4,8.1
		c-0.6,1.6-1.8,4.4-3.4,7.9c-3.7,8.4-9.7,22.6-9.8,25.2l1.1,52.1c0,0.5-0.3,1-0.8,1.1l-10.1,3.7l-2.1,2.7h21l7-52.2
		c0-0.2,0.1-0.3,0.2-0.5l20-30.6c0,0,0-0.1,0.1-0.1c4.2-5,5.7-10.3,5.1-16.5c-0.2-1.7-1.5-5.8-7.1-16.3l2.1-1.1
		c4.7,8.7,7.1,14.5,7.4,17.2c0.8,6.8-1,12.7-5.5,18.2l-19.8,30.3l-7.1,52.9C140.4,209.8,139.9,210.2,139.3,210.2"/>
	<path class="st3" d="M114.3,58.2L112,58c0.3-2.6,0.4-4.7,0.5-6.6c0.1-2-2.3-4.8-4.8-5.7l0.8-2.2c3.1,1.1,6.4,4.7,6.3,8
		C114.8,53.5,114.6,55.7,114.3,58.2"/>
	<path class="st3" d="M100,51.5c-0.9,0-1.7-0.3-2.5-0.8l-5.6-4c-1.4,0.6-2.7,0.6-3.8,0.1c-1.2-0.5-2-1.6-2.4-3.1l-1.5-5.7
		c-1.1-1.6-2-3.2-2.5-4.3c-0.3-0.7-0.6-1.4-0.8-2.1l2.2-0.7c0.2,0.6,0.4,1.2,0.7,1.8c0.5,1,1.4,2.5,2.5,4.1c0.1,0.1,0.1,0.2,0.2,0.4
		l1.5,5.9c0.1,0.5,0.4,1.3,1.1,1.6c0.7,0.3,1.7,0,2.4-0.4c0.4-0.2,0.8-0.2,1.2,0.1l6.2,4.4c0.5,0.3,1,0.4,1.7,0.3
		c1.9-0.4,8.2-6.2,9.5-8.2l1.9,1.3c-1.4,2-8.1,8.6-11,9.2C100.5,51.5,100.3,51.5,100,51.5"/>
	<path class="st1" d="M119.9,81.9c-1.1-0.1-3.5-0.4-4.7-0.9c-4.4-2.1-4.4-4.1-3.8-8.8c0.5-4.5,1.3-9.3,1.7-14
		c9-3.3,10.8-15.7,10.8-15.7l1.2,0.2l3.8,0.4l4.1,1c3,1.5,5.5,4.4,7.8,7.5c4.8,7,16.1,25.4,23.6,39.6l-23.6,16.4l-9-14.5"/>
	<path class="st3" d="M140.9,108.8c-0.1,0-0.2,0-0.2,0c-0.3-0.1-0.6-0.3-0.8-0.5l-9-14.5l2-1.2l8.3,13.6c4-2.8,18.2-12.7,21.8-15.1
		c-7.5-14-18.4-31.8-23.2-38.6c-2.5-3.6-4.8-5.9-7.2-7.1l-3.9-0.9l-3.9-0.4c-0.7,3.2-3.3,12.1-10.7,15.2c-0.3,2.5-0.6,5-0.9,7.5
		c-0.3,2-0.5,3.9-0.7,5.7c-0.5,4.7-0.5,5.9,3.2,7.7c1,0.4,3.3,0.7,4.3,0.8l-0.1,1.2l-0.1,1.2l0.1-1.2l-0.2,1.2
		c-1.3-0.1-3.6-0.4-4.9-1c-5.1-2.4-5-5-4.5-10.1c0.2-1.9,0.5-3.9,0.7-5.8c0.4-2.7,0.7-5.4,1-8.2c0-0.4,0.3-0.8,0.8-1
		c8.2-3,10.1-14.7,10.1-14.8c0-0.3,0.2-0.6,0.5-0.8c0.2-0.2,0.6-0.3,0.9-0.2l1.2,0.2l3.8,0.4h0.1l4.1,1c0.1,0,0.2,0,0.2,0.1
		c2.8,1.4,5.5,4,8.2,7.9c4.8,7,16.2,25.5,23.7,39.7c0.1,0.2,0.1,0.4,0.1,0.5c0,0.6,0,0.6-4.2,3.6l-20,13.9
		C141.3,108.7,141.1,108.8,140.9,108.8"/>
	<line class="st4" x1="129.1" y1="200.4" x2="140.4" y2="200.7"/>
	
		<rect x="133.6" y="195" transform="matrix(2.726665e-02 -0.9996 0.9996 2.726665e-02 -69.4432 329.8729)" class="st3" width="2.3" height="11.3"/>
	<path class="st2" d="M99.5,105.1l-1.7,1.2l-4.1,1l-6.3,5.1c-1.4,1.1,1,7.6,2.6,7.1l10.7-3.6l3.6-2.2"/>
	<path class="st3" d="M89.8,120.8c-0.7,0-1.6-0.5-2.5-2.1c-1-1.7-2.3-5.6-0.6-7.1l6.3-5.1c0.1-0.1,0.3-0.2,0.5-0.2l3.9-1l1.4-1.1
		l1.4,1.9l-1.7,1.2c-0.1,0.1-0.3,0.1-0.4,0.2l-3.8,1l-6,4.9c-0.4,0.9,0.8,4.4,1.7,5l10.3-3.5l3.5-2.2l1.2,2l-3.6,2.2
		c-0.1,0-0.2,0.1-0.3,0.1l-10.7,3.6C90.2,120.8,90,120.8,89.8,120.8"/>
	<path class="st1" d="M124,60.3l-5.8,31.3l-18.7,13.6l4.7,8.7l23.3-14.6c2.4-1.8,4.2-4.9,5.1-9.2l6.6-27.9l0.4-1.7"/>
	<path class="st3" d="M104.2,114.9c-0.1,0-0.2,0-0.3,0c-0.3-0.1-0.6-0.3-0.7-0.6l-4.7-8.7c-0.3-0.5-0.1-1.2,0.3-1.5L117.2,91
		l5.7-30.8l2.3,0.4l-5.8,31.3c-0.1,0.3-0.2,0.6-0.5,0.7L101,105.4l3.7,6.7l22.2-14c2.1-1.6,3.8-4.6,4.6-8.4l7-29.6l2.3,0.5l-7,29.6
		c-1,4.4-3,7.9-5.5,9.8l-23.3,14.6C104.6,114.9,104.4,114.9,104.2,114.9"/>
	<rect x="82" y="208.3" class="st3" width="116.3" height="2.3"/>
</g>
</svg>
