<?xml version="1.0" encoding="utf-8"?>
<!-- Generator: Adobe Illustrator 23.0.1, SVG Export Plug-In . SVG Version: 6.00 Build 0)  -->
<svg version="1.1" id="Layer_1" xmlns="http://www.w3.org/2000/svg" xmlns:xlink="http://www.w3.org/1999/xlink" x="0px" y="0px"
	 viewBox="0 0 300 173" style="enable-background:new 0 0 300 173;" xml:space="preserve">
<style type="text/css">
	.st0{fill:#EB6608;}
	.st1{fill:#FFFFFF;}
</style>
<g>
	<path id="SHAPE_1_" class="st0" d="M162.64,45.38c-19.86,0-62.64,4.18-62.64,36.09c0,21.68,21.7,49.94,45.72,49.94
		c7.76,0,14.41-2.75,20.63-7.33c14.83-11.03,33.65-35.77,33.65-55C200.01,54.69,189.86,45.38,162.64,45.38z"/>
	<path id="GSK_TEXT_2_" class="st1" d="M186.27,97.7c-1.5,0-3.57-0.39-6.84-3.94c-4.25-4.69-9.16-10.65-9.16-10.65l7.52-7.07
		c4.42-4.15,5.65-4.42,6.01-4.51h-6.99c-1.41,1.86-3,3.26-3,3.26l-8.04,7.52V58.63l-6.1,1.58c0.8,1.06,1.06,2.84,1.06,6.81V91.5
		c0,4.95-0.25,5.47-0.8,6.89h6.54c-0.44-1.15-0.71-1.95-0.71-6.89v-7.07c0,0,3.63,4.33,8.13,9.73c2.82,3.35,5.13,4.85,7.87,4.85
		c2.11,0,4.06-0.53,5.38-1.5C186.9,97.62,186.55,97.7,186.27,97.7z M150.1,83.39c-3.54-1.77-6.9-3.36-6.9-6.19
		c0-2.39,2.55-3.45,5.22-3.45c2.73,0,5.31,0.97,7.43,2.65v-3.99c-2.22-1.25-4.76-1.86-7.34-1.86c-4.76,0-10.07,2.39-10.07,7.87
		c0,4.52,3.97,6.46,7.68,8.22c3.35,1.59,6.46,3,6.46,5.92s-3.09,3.54-5.56,3.54c-2.29,0-5.92-0.97-8.83-2.55v4.06
		c2.82,1.15,5.56,1.77,8.66,1.77c4.95,0,10.86-2.04,10.86-7.96C157.7,87.36,153.82,85.25,150.1,83.39z M133.46,96.43
		c-2.54-1.16-6.32-1.25-12.49-1.74c-2.87-0.22-3.45-1.06-3.45-2.22c0-0.68,0.34-1.47,1.1-2.08c0.51-0.4,1.15-0.74,1.87-0.86
		c0.74,0.09,1.38,0.12,1.96,0.12c6.9,0,10.78-4.15,10.78-9.1c0-2.13-0.8-4.33-2.22-5.92c1.5,0,4.33,0.18,5.22,0.36v-3.55
		c-1.59,0.44-3.54,0.53-5.22,0.53c-1.41,0-2.73-0.25-3.99-0.62c-1.5-0.44-3.25-0.8-4.76-0.8c-6.93,0-11.2,4.25-11.2,9.75
		c0,3.79,2.45,7.15,5.98,8.46c-2.65,1.25-4.08,3-4.08,5.04c0,1.99,1.41,4.05,4.15,4.79c-3.99,1.74-7.69,4.86-4.94,8.52
		c4.06,5.37,18.41,4.79,22.87-0.79C138.62,101.97,136.24,97.7,133.46,96.43z M115.94,79.58c0-3.63,2.24-6.08,5.95-6.08
		c4.25,0,6.53,3.17,6.53,7.15c0,3.63-1.96,6.22-5.76,6.22C118.31,86.84,115.94,83.65,115.94,79.58z M126.41,107.56
		c-8.12,0.88-14.46-4.51-6.95-8.65c1.72,0.13,3.05,0.33,5.84,0.43c5.45,0.21,7.16,1.45,7.6,2.95
		C133.55,104.58,131.65,107.01,126.41,107.56z"/>
</g>
</svg>
