<?xml version="1.0" encoding="utf-8"?>
<!-- Generator: Adobe Illustrator 22.1.0, SVG Export Plug-In . SVG Version: 6.00 Build 0)  -->
<svg version="1.1" id="Layer_1" xmlns="http://www.w3.org/2000/svg" xmlns:xlink="http://www.w3.org/1999/xlink" x="0px" y="0px"
	 viewBox="0 0 300 300" style="enable-background:new 0 0 300 300;" xml:space="preserve">
<style type="text/css">
	.st0{fill:#14CAC9;}
	.st1{fill:#59029F;}
	.st2{fill:#340458;}
	.st3{fill:#FED636;}
	.st4{fill:#FFFFFF;}
</style>
<circle class="st0" cx="146.5" cy="158.7" r="128.6"/>
<path class="st1" d="M279.2,115.6C270,87.3,252,63,228.5,45.9c-23-16.8-51.4-26.7-82-26.7v13.6v125.9L26.7,197.6l-12.9,4.2
	c9.2,28.3,27.2,52.6,50.7,69.7c23,16.8,51.4,26.7,82,26.7c30.7,0,59-9.9,82-26.7c23.5-17.1,41.5-41.5,50.7-69.7
	c4.4-13.6,6.8-28.1,6.8-43.1C286,143.7,283.6,129.2,279.2,115.6z"/>
<path class="st2" d="M60.1,39.5l14.1,19.5l1.2,1.7l71.2,97.9l0,0V37.5V24.4V11.3C114.3,11.3,84.4,21.8,60.1,39.5z"/>
<path class="st2" d="M57.9,41L72,60.4l1.2,1.7l73.4,96.5l0,0V37.5V24.4V11.3C114.3,11.3,82.2,23.3,57.9,41z"/>
<path class="st3" d="M146.6,158.7L146.6,158.7L121.1,4.1c11.3-3.6,21.1-3,27.4-2.6L146.6,158.7z"/>
<g>
	<path class="st4" d="M180.2,189.1l8.3-17.5h-9.7c-0.3,0-0.5-0.2-0.5-0.5v-2.5c0-0.3,0.2-0.5,0.5-0.5h13.7c0.3,0,0.5,0.2,0.5,0.5
		v1.6c0,0.2,0,0.4-0.1,0.5l-8.8,18.5c-0.1,0.2-0.3,0.3-0.5,0.3h-3.1C180.2,189.7,180.1,189.4,180.2,189.1z"/>
	<path class="st4" d="M195.6,182.7v-7.6c0-5.2,3.8-7.2,7.4-7.2c3.6,0,7.4,2.1,7.4,7.2v7.6c0,5.2-3.8,7.3-7.4,7.3
		C199.4,190,195.6,187.9,195.6,182.7z M206.9,182.8v-7.7c0-3.1-2.1-3.9-3.9-3.9c-1.8,0-3.9,0.8-3.9,3.9v7.7c0,3,2.1,3.8,3.9,3.8
		C204.8,186.6,206.9,185.8,206.9,182.8z"/>
	<path class="st4" d="M227.4,180.1v3.5c0,3.9-2.8,6.4-6.5,6.4c-1.2,0-2.3-0.3-3.2-0.7v5.8c0,0.3-0.2,0.4-0.5,0.4h-2.6
		c-0.3,0-0.4-0.2-0.4-0.4v-20.5c0-0.3,0.2-0.5,0.5-0.5h1.9c0.3,0,0.5,0.2,0.5,0.4l0.2,0.6c1.2-0.8,2.6-1.4,4.4-1.4
		C225.4,173.7,227.4,176.4,227.4,180.1z M223.9,180.3c0-2.1-0.7-3.4-3-3.4c-1.1,0-2.3,0.4-3.2,0.9v8.4c0.8,0.5,1.7,0.8,2.8,0.8
		c2.2,0,3.4-1.1,3.4-3.3V180.3z"/>
</g>
<g>
	<path class="st2" d="M46.8,144.2v-1.7c0-0.2,0.1-0.4,0.2-0.5l5.7-5.9c2.2-2.2,3.9-4.1,3.9-6.1c0-1.3-0.8-2.7-2.9-2.7
		c-2,0-3.4,1.1-4.5,2.2c-0.2,0.2-0.4,0.2-0.6,0l-1.3-1.8c-0.2-0.2-0.2-0.4,0-0.6c1.3-1.4,3.2-2.9,6.3-2.9c3.5,0,6.3,1.9,6.3,5.7
		c0,2.6-1.5,4.7-3.9,7.4c-0.9,1-2.4,2.6-4.2,4.3h8c0.3,0,0.4,0.1,0.4,0.4v2.2c0,0.3-0.1,0.4-0.4,0.4H47.2
		C46.9,144.7,46.8,144.5,46.8,144.2z"/>
	<path class="st2" d="M63.3,138.1v-7.1c0-4.8,3.5-6.7,6.9-6.7s6.9,1.9,6.9,6.7v7.1c0,4.9-3.5,6.9-6.9,6.9S63.3,143,63.3,138.1z
		 M73.8,138.3v-7.1c0-2.9-1.9-3.6-3.6-3.6s-3.6,0.8-3.6,3.6v7.1c0,2.8,2,3.6,3.6,3.6S73.8,141.1,73.8,138.3z"/>
	<path class="st2" d="M93,135.7v3.3c0,3.7-2.6,6-6.1,6c-1.1,0-2.2-0.3-3-0.6v5.4c0,0.3-0.2,0.4-0.4,0.4H81c-0.3,0-0.4-0.2-0.4-0.4
		v-19.2c0-0.3,0.2-0.4,0.4-0.4h1.8c0.3,0,0.4,0.1,0.5,0.4l0.1,0.6c1.1-0.8,2.5-1.3,4.1-1.3C91,129.8,93,132.3,93,135.7z M89.7,135.9
		c0-2-0.7-3.2-2.8-3.2c-1.1,0-2.2,0.4-3,0.9v7.8c0.7,0.4,1.6,0.8,2.7,0.8c2,0,3.2-1,3.2-3.1V135.9z"/>
</g>
<g>
	<path class="st4" d="M100.3,50.4v7.3c0,4.5-3.1,6.7-6.9,6.7c-2.2,0-4.4-0.8-6.1-2.2c-0.2-0.2-0.2-0.4-0.1-0.6l1.3-1.9
		c0.2-0.2,0.4-0.2,0.6-0.1c1.2,1,2.7,1.5,4.3,1.5c2,0,3.6-1.1,3.6-3.5v-2.1c-1,0.8-2.2,1.3-4,1.3c-4,0-6.6-2.3-6.6-6.4
		c0-4.1,2.9-6.8,6.9-6.8S100.3,46.5,100.3,50.4z M97,50.7v-0.3c0-2.1-1.4-3.5-3.7-3.5c-2.2,0-3.6,1.4-3.6,3.7c0,2.2,1.1,3.4,3.6,3.4
		C95.3,54.1,97,53,97,50.7z"/>
	<path class="st4" d="M116.2,55.2v3.3c0,3.7-2.6,6-6.1,6c-1.1,0-2.2-0.3-3-0.6v5.4c0,0.3-0.2,0.4-0.4,0.4h-2.4
		c-0.3,0-0.4-0.2-0.4-0.4V50.1c0-0.3,0.2-0.4,0.4-0.4h1.8c0.3,0,0.4,0.1,0.5,0.4l0.1,0.6c1.1-0.8,2.5-1.3,4.1-1.3
		C114.3,49.3,116.2,51.8,116.2,55.2z M112.9,55.4c0-2-0.7-3.2-2.8-3.2c-1.1,0-2.2,0.4-3,0.9v7.8c0.7,0.4,1.6,0.8,2.7,0.8
		c2,0,3.2-1,3.2-3.1V55.4z"/>
</g>
</svg>
