<?xml version="1.0" encoding="utf-8"?>
<!-- Generator: Adobe Illustrator 22.1.0, SVG Export Plug-In . SVG Version: 6.00 Build 0)  -->
<svg version="1.1" id="Layer_1" xmlns="http://www.w3.org/2000/svg" xmlns:xlink="http://www.w3.org/1999/xlink" x="0px" y="0px"
	 viewBox="0 0 390 220" style="enable-background:new 0 0 390 220;" xml:space="preserve">
<style type="text/css">
	.st0{fill:#FED636;}
	.st1{fill:#512C86;}
	.st2{fill:#FED637;}
	.st3{fill:#14CAC9;}
</style>
<path class="st0" d="M1.4,211.6c0,4.4,2.2,6.6,6.6,6.6h137.3c3.9,0,6.1-1.3,6.6-4c0.4-3.2,0.9-6.8,1.4-10.8
	c0.5-3.9,0.7-8.4,0.7-13.3c0-21.7-6.2-49.5-18.6-61.2c-12.5-11.7-29.9-17.6-52.4-17.6H8c-4.4,0-6.6,2.2-6.6,6.6
	C1.4,117.9,1.4,211.6,1.4,211.6z"/>
<g>
	<path class="st1" d="M149,58.3C149,58.3,148.9,58.3,149,58.3c-0.4,0-0.7-0.2-0.9-0.5l-4.7-7l1.8-1.2l3.9,5.8l3.3-4.2l1.7,1.3
		l-4.2,5.3C149.6,58.2,149.3,58.3,149,58.3"/>
	<path class="st1" d="M160.3,53.1h-7.1c-0.3,0-0.5-0.1-0.7-0.3l-4.9-4.2L149,47l4.6,4h6.3l4.6-4l1.4,1.6l-4.9,4.2
		C160.8,53,160.5,53.1,160.3,53.1"/>
	<path class="st1" d="M164.5,58.3c-0.3,0-0.6-0.1-0.8-0.4l-4.2-5.3l1.7-1.3l3.3,4.2l3.5-5.1l-1.7-1.8l-0.8,0.2
		c-0.5,0.1-1-0.1-1.3-0.6l-2-4.3l1.9-0.9l1.6,3.5l0.5-0.2c0.4-0.1,0.8,0,1.1,0.3l2.7,2.9c0.3,0.4,0.4,0.9,0.1,1.3l-4.7,7
		C165.2,58.2,164.9,58.3,164.5,58.3L164.5,58.3"/>
	<path class="st1" d="M179.7,142.1l-1.5-1.5l5.9-6l1.3-8.2c0-0.2,0.1-0.4,0.3-0.6l1.9-1.8l1.5,1.5l-1.6,1.6l-1.3,8.2
		c0,0.2-0.1,0.4-0.3,0.6L179.7,142.1z"/>
	<path class="st2" d="M171.5,24.6c0.1-3.4,0.4-7.4-0.4-10.8c-1.7-7.9-11.7-10.2-17.4-8.5c-4.2,0-9,0.9-10.9,6.3
		c-1.6,4.8-1.2,8.6-1,12.9l4.2,0.1l0.1-1.3c0.3-3.7,3.6-6.6,5.9-4.8c4.3,3.2,9,1.8,11.9,1.8c1.6,0,2.8,0.9,3.1,2.9l0.2,1.6
		L171.5,24.6z"/>
	<path class="st1" d="M167.4,25.9c-0.5,0-1-0.4-1-0.9l-0.2-1.6c-0.3-1.8-1.4-2-2.1-2c-0.6,0-1.3,0.1-2.1,0.1
		c-2.9,0.2-6.8,0.6-10.5-2.2c-0.5-0.4-1-0.4-1.6-0.1c-1.1,0.5-2.4,2.1-2.6,4.2l-0.2,1.4c-0.1,0.5-0.5,0.9-1.1,0.9l-4.2-0.1
		c-0.6,0-1-0.4-1-1l-0.1-1.2c-0.2-3.9-0.5-7.6,1.1-12.1c2.3-6.8,9.2-7,11.7-7c4-1.1,9.1-0.5,12.9,1.7c3,1.8,5,4.4,5.7,7.6
		s0.6,6.8,0.4,10v1.1c0,0.5-0.5,1-1,1L167.4,25.9C167.5,25.9,167.5,25.9,167.4,25.9 M163.9,19.2h0.1c2.2,0,3.7,1.4,4.2,3.8l0.1,0.7
		l2.1-0.1v-0.1c0.1-3,0.3-6.5-0.4-9.4c-0.7-3.3-3-5.2-4.7-6.2c-3.3-1.9-8-2.5-11.3-1.5c-0.1,0-0.2,0-0.3,0c-5.4,0-8.6,1.8-9.9,5.6
		c-1.4,4.1-1.2,7.5-1,11.3v0.2h2.3v-0.4c0.2-2.6,1.8-5,3.8-5.9c1.3-0.6,2.6-0.5,3.7,0.4c3,2.2,6.4,2,9.1,1.7
		C162.6,19.3,163.3,19.2,163.9,19.2"/>
	<path class="st1" d="M156.6,47.3c-1.1,0-2.2-0.1-3.2-0.3c-0.1,0-0.2,0-0.2-0.1c-4.7-1.9-8.9-7.6-10.1-11.6l-0.2-0.6l-1-0.5
		c-0.2-0.1-0.4-0.3-0.5-0.6c-1.1-2.9-1.6-5.7-1.6-8.5c0-0.3,0.2-0.7,0.4-0.9l1.4-1l1.2,1.7l-0.9,0.7c0,2.2,0.5,4.5,1.3,6.8l1,0.5
		c0.3,0.1,0.4,0.4,0.5,0.6l0.3,1c1,3.6,4.8,8.5,8.7,10.2c1.8,0.3,3.7,0.3,5.5,0c4-1.7,7.7-6.6,8.7-10.2l0.3-1
		c0.1-0.3,0.3-0.5,0.5-0.6l1-0.5c0.8-2.3,1.3-4.6,1.3-6.8l-0.9-0.7l1.2-1.7l1.4,1c0.3,0.2,0.4,0.5,0.4,0.9c0,2.8-0.5,5.6-1.6,8.5
		c-0.1,0.2-0.3,0.4-0.5,0.6l-1,0.5l-0.2,0.6c-1.2,4.1-5.4,9.7-10.1,11.6c-0.1,0-0.2,0.1-0.2,0.1C158.8,47.2,157.7,47.3,156.6,47.3"
		/>
	<path class="st1" d="M133.7,94.2l-8-5.6c-0.2-0.1-0.3-0.3-0.4-0.5l-2.6-7.5c0-0.1-0.1-0.3-0.1-0.4l1.4-18.4
		c0.1-3.3,3.4-7.5,6.8-8.6l12.6-3.8l2.5-2.7c0.3-0.3,0.7-0.4,1.1-0.3l0.5,0.2l1.6-3.5L151,44l-2,4.3c-0.2,0.5-0.8,0.7-1.3,0.6
		l-0.8-0.2L145,51c-0.1,0.1-0.3,0.2-0.5,0.3l-12.9,3.9c-2.6,0.8-5.2,4.1-5.3,6.7l-1.4,18.3l2.4,6.9l7.7,5.4L133.7,94.2z"/>
	
		<rect x="177.1" y="66.4" transform="matrix(0.9999 -1.496527e-02 1.496527e-02 0.9999 -1.3486 2.6763)" class="st1" width="2.1" height="50.1"/>
	
		<rect x="110" y="90.4" transform="matrix(1.519998e-02 -0.9999 0.9999 1.519998e-02 41.6119 225.1026)" class="st1" width="50.1" height="2.1"/>
	<path class="st3" d="M167.1,205.9c1.8-1.2,4.2-2.1,6.5-2.1s4.4,0.8,6.2,2.1l-1.4-89.5h-43.8l-1.4,89.3c1.8-1.2,3.8-1.9,6.1-1.9
		s4.8,0.7,6.6,2l8.9-74.6h3.3L167.1,205.9z"/>
	<path class="st1" d="M167.1,207c-0.1,0-0.3,0-0.4-0.1c-0.3-0.2-0.6-0.5-0.6-0.8l-8.8-73.7h-1.4L147,206c0,0.4-0.3,0.7-0.6,0.8
		c-0.3,0.2-0.7,0.1-1-0.1c-1.6-1.1-3.9-1.8-6-1.8c-2,0-3.9,0.6-5.5,1.7c-0.3,0.2-0.7,0.2-1.1,0.1c-0.3-0.2-0.6-0.6-0.6-0.9l1.4-89.3
		c0-0.6,0.5-1,1.1-1h43.9c0.6,0,1,0.5,1.1,1l1.4,89.5c0,0.4-0.2,0.8-0.6,0.9c-0.4,0.2-0.8,0.2-1.1-0.1c-1.8-1.2-3.6-1.9-5.6-1.9
		s-4.3,0.7-5.9,1.9C167.5,206.9,167.3,207,167.1,207 M154.8,130.2h3.3c0.5,0,1,0.4,1,0.9l8.7,73.1c1.8-0.9,3.8-1.4,5.7-1.4
		c1.8,0,3.5,0.4,5.1,1.2l-1.3-86.5h-41.8l-1.3,86.4c1.6-0.7,3.2-1.1,5-1.1c2,0,4,0.5,5.7,1.3l8.7-73
		C153.9,130.6,154.3,130.2,154.8,130.2"/>
	<path class="st1" d="M188.3,125.8h-9.4v-2.1h8.4l2.2-28.6L186.9,62c-0.1-2.6-2.7-5.9-5.3-6.7l-12.9-3.9l0.6-2l12.9,3.9
		c3.4,1,6.7,5.2,6.8,8.6l2.6,33.1c0,0.1,0,0.1,0,0.2l-2.3,29.7C189.3,125.3,188.8,125.8,188.3,125.8"/>
	<path class="st1" d="M145.3,211h-12.1c-0.6,0-1.1-0.5-1.1-1.1v-4.2h2.1v3.2h10.2l0.5-3.2l2.1,0.3l-0.6,4.1
		C146.3,210.6,145.8,211,145.3,211"/>
	<path class="st1" d="M179.8,211h-12.2c-0.5,0-1-0.4-1-0.9l-0.5-4l2.1-0.3l0.4,3.1h10.2v-3h2.1v4C180.9,210.5,180.4,211,179.8,211"
		/>
</g>
</svg>
