<?xml version="1.0" encoding="utf-8"?>
<!-- Generator: Adobe Illustrator 22.1.0, SVG Export Plug-In . SVG Version: 6.00 Build 0)  -->
<svg version="1.1" id="Layer_1" xmlns="http://www.w3.org/2000/svg" xmlns:xlink="http://www.w3.org/1999/xlink" x="0px" y="0px"
	 viewBox="0 0 390 220" style="enable-background:new 0 0 390 220;" xml:space="preserve">
<style type="text/css">
	.st0{fill:#14CAC9;}
	.st1{fill:#512C86;}
	.st2{fill:#FED637;}
	.st3{fill:#322153;}
</style>
<path class="st0" d="M1.4,211.6c0,4.4,2.2,6.6,6.6,6.6h137.3c3.9,0,6.1-1.3,6.6-4c0.4-3.2,0.9-6.8,1.4-10.8
	c0.5-3.9,0.7-8.4,0.7-13.3c0-21.7-6.2-49.5-18.6-61.2c-12.5-11.7-29.9-17.6-52.4-17.6H8c-4.4,0-6.6,2.2-6.6,6.6
	C1.4,117.9,1.4,211.6,1.4,211.6z"/>
<g>
	<path class="st1" d="M150.3,112.2C150.2,112.2,150.2,112.2,150.3,112.2l-15.6-1.5l0.2-2l15.4,1.4l22.8-3c2.6-1.7,6.6-7.3,6.5-10
		L177.3,64c-0.2-3.1-1.7-8.6-5.8-9.9l0.6-1.9c4.7,1.6,6.8,7.3,7.1,11.7l2.3,33.1c0.1,3.9-4.6,10.2-7.6,11.9
		c-0.1,0.1-0.2,0.1-0.4,0.1l-23.1,3C150.3,112.2,150.3,112.2,150.3,112.2"/>
	<path class="st1" d="M131.3,115.7l-16.1-9.9c-0.1,0-0.1-0.1-0.2-0.1c-1.9-1.8-2.9-4.3-3-7.2v-0.1l1.8-20.9l2,0.2L114,98.6
		c0.1,2.4,0.8,4.3,2.3,5.7l16,9.8L131.3,115.7z"/>
	<path class="st1" d="M135.1,107.5h-2l0.1-6.5c0-0.4,0.3-0.8,0.6-0.9l9.7-3.7c0.2-0.1,0.4-0.1,0.6,0l4.3,1l16.6-4.6l0.6-0.8L164,74
		l2-0.2l1.6,18.3c0,0.2-0.1,0.5-0.2,0.7l-1,1.4c-0.1,0.2-0.3,0.3-0.5,0.4l-17.2,4.8c-0.2,0-0.3,0-0.5,0l-4.2-0.9l-8.8,3.4
		L135.1,107.5z"/>
	<path class="st1" d="M124.8,64.2c-1.1,0-2.2-0.2-3.3-0.5c-2.4-0.8-4.5-2.3-5.8-4c-1.9-2.7-3.3-9.6-3.3-12.4
		c-0.1-6.3,5.4-9.8,10.5-10.4c5.2-0.6,11.3,1.5,12.7,7.7l0,0c0.6,2.7,0.8,9.8-0.4,12.8C133.5,61.6,129.1,64.2,124.8,64.2
		 M124.7,38.8c-0.5,0-1,0-1.5,0.1c-4.5,0.5-8.9,3.3-8.8,8.4c0.1,2.8,1.5,9.1,3,11.3c1,1.4,2.8,2.6,4.8,3.3c4.3,1.5,9.5-0.9,11.2-5.2
		c1-2.4,0.9-8.9,0.3-11.6C132.7,40.6,128.6,38.8,124.7,38.8"/>
	<path class="st2" d="M115.2,57.3c1.3-0.8,5.4,2.6,6-0.5c-3.4-2.1-1.2-7.7,2.3-6.9c1.1,0.1,1.5,2.2,2.5,1.5c3.9-5.3,8.2-2.9,7.5-9.2
		l0,0c-4.6-7.6-20.4-4.8-20.2,5.2c0.1,2.3,1,6.9,2.2,9.9"/>
	<path class="st1" d="M119.7,59.1c-0.8,0-1.7-0.3-2.5-0.6c-0.5-0.2-1.3-0.4-1.5-0.4l-0.5-0.9l-0.6,0.3c-1.2-3.1-2.2-7.9-2.2-10.2
		c-0.1-4.6,3-8.4,8-9.9c4.8-1.4,11.1-0.4,14,4.2c0.1,0.2,0.1,0.3,0.1,0.5c0.4,4.3-1.4,5.3-3.4,6.3c-1.3,0.7-2.8,1.5-4.3,3.5
		c-0.1,0.1-0.1,0.2-0.2,0.2c-1.3,1-2.4-0.3-2.8-0.8c-0.1-0.2-0.4-0.5-0.5-0.5c-1.3-0.3-2.2,0.7-2.5,1.6c-0.5,1.2-0.4,2.7,1,3.5
		c0.3,0.2,0.5,0.6,0.4,1c-0.2,0.9-0.6,1.5-1.2,1.8C120.6,59,120.2,59.1,119.7,59.1 M116.2,56.2c0.5,0.1,1.1,0.3,1.7,0.5
		c0.7,0.2,1.8,0.6,2.1,0.4c-1.6-1.5-1.7-3.8-1.1-5.5c0.9-2.1,2.8-3.2,4.7-2.8c0.8,0.1,1.3,0.8,1.7,1.3c0,0.1,0.1,0.1,0.2,0.2
		c1.6-2,3.3-2.9,4.6-3.6c1.8-1,2.6-1.4,2.3-4.2c-2.4-3.6-7.6-4.3-11.6-3.1c-4.2,1.2-6.7,4.2-6.6,7.9
		C114.4,49.3,115.2,53.4,116.2,56.2"/>
	<path class="st1" d="M150.1,137.6c-0.1,0-0.2,0-0.3-0.1l-10.2-3.5l0.6-1.9l10,3.4h0.1l0.8-2.5c0.1-0.2,0.1-0.6-0.2-1.1l-3-3.3
		c-0.2-0.3-0.3-0.6-0.2-1l6.1-18.1l1.9,0.6l-5.9,17.5l2.7,3l0.1,0.1c0.8,1.2,0.7,2.2,0.5,2.9l-1,3.1c-0.1,0.3-0.4,0.6-0.7,0.7
		l-1,0.2C150.2,137.6,150.2,137.6,150.1,137.6"/>
	<path class="st1" d="M141.7,57.6L141.7,57.6c-0.4,0-0.7-0.2-0.8-0.4l-4.8-7.2l1.7-1.1l4,6l3.4-4.3l1.6,1.2l-4.3,5.4
		C142.3,57.5,142,57.6,141.7,57.6"/>
	<path class="st1" d="M153.3,52.3H146c-0.2,0-0.5-0.1-0.7-0.2l-4.9-4.3l1.3-1.5l4.7,4h6.5l4.7-4l1.3,1.5l-4.9,4.3
		C153.7,52.2,153.5,52.3,153.3,52.3"/>
	<path class="st1" d="M157.6,57.6c-0.3,0-0.6-0.1-0.8-0.4l-4.3-5.4l1.6-1.2l3.5,4.3l3.6-5.4l-1.8-1.9l-0.8,0.2
		c-0.5,0.1-1-0.1-1.2-0.5l-2.1-4.4l1.8-0.8l1.7,3.6l0.6-0.2c0.4-0.1,0.8,0,1,0.3l2.7,2.9c0.3,0.3,0.4,0.9,0.1,1.2l-4.8,7.1
		C158.2,57.5,157.9,57.6,157.6,57.6L157.6,57.6"/>
	<path class="st1" d="M160.5,24.6c-0.5,0-0.9-0.4-1-0.8l-0.3-1.6c-0.4-1.9-1.4-2.1-2.2-2.1c-0.6,0-1.3,0.1-2.1,0.1
		c-2.9,0.2-6.9,0.6-10.6-2.2c-0.5-0.4-1.1-0.4-1.7-0.1c-1.2,0.5-2.5,2.2-2.7,4.4l-0.2,1.4c-0.1,0.5-0.5,0.9-1,0.9l-4.3-0.1
		c-0.5,0-0.9-0.4-1-0.9l-0.1-1.2c-0.2-4-0.5-7.7,1.1-12.3c2.3-6.9,9.3-7.1,11.9-7.1c4-1.2,9.2-0.5,13.1,1.8c3.1,1.8,5.1,4.4,5.8,7.7
		c0.7,3.2,0.6,6.9,0.4,10.1v1.1c0,0.5-0.4,0.9-0.9,1L160.5,24.6C160.6,24.6,160.6,24.6,160.5,24.6 M157,18h0.1
		c2.2,0,3.7,1.4,4.2,3.8l0.1,0.8l2.3-0.1v-0.2c0.1-3.1,0.3-6.6-0.4-9.6c-0.7-3.3-3-5.3-4.9-6.4c-3.4-2-8.1-2.6-11.6-1.5
		c-0.1,0-0.2,0-0.3,0c-5.6,0-8.8,1.8-10.1,5.7c-1.4,4.2-1.2,7.6-1,11.6v0.3l2.5,0.1L138,22c0.2-2.6,1.8-5.1,3.8-6
		c1.3-0.6,2.6-0.5,3.7,0.4c3.1,2.3,6.5,2,9.3,1.8C155.6,18,156.3,18,157,18"/>
	<path class="st1" d="M149.5,46.4c-1.1,0-2.2-0.1-3.3-0.3c-0.1,0-0.1,0-0.2-0.1c-4.8-2-9-7.7-10.2-11.8l-0.2-0.6l-1-0.5
		c-0.2-0.1-0.4-0.3-0.5-0.5c-1.1-3-1.6-5.8-1.6-8.6c0-0.3,0.2-0.6,0.4-0.8l1.4-1l1.2,1.6l-1,0.7c0,2.3,0.5,4.6,1.4,7l1,0.5
		c0.2,0.1,0.4,0.3,0.5,0.6l0.3,1c1.1,3.7,4.9,8.7,9,10.5c1.9,0.3,3.8,0.3,5.6,0c4.1-1.7,7.9-6.8,9-10.5l0.3-1
		c0.1-0.3,0.3-0.5,0.5-0.6l1-0.5c0.9-2.4,1.3-4.7,1.4-7l-1-0.7l1.2-1.6l1.4,1c0.3,0.2,0.4,0.5,0.4,0.8c0,2.8-0.5,5.6-1.6,8.6
		c-0.1,0.2-0.3,0.4-0.5,0.5l-1,0.5l-0.2,0.6C162,38.3,157.8,44,153,46c-0.1,0-0.1,0-0.2,0.1C151.7,46.3,150.6,46.4,149.5,46.4"/>
	<path class="st1" d="M137.6,50.2l-1.5-1.4l2.8-3c0.3-0.3,0.6-0.4,1-0.3l0.6,0.2l1.7-3.6L144,43l-2.1,4.4c-0.2,0.4-0.7,0.7-1.2,0.5
		l-0.9-0.2L137.6,50.2z"/>
	
		<rect x="166.1" y="46.3" transform="matrix(0.3779 -0.9258 0.9258 0.3779 56.3588 186.6445)" class="st1" width="2" height="10.1"/>
	<rect x="151.9" y="116.9" class="st3" width="18.5" height="2"/>
	<rect x="113.4" y="63.9" transform="matrix(0.3396 -0.9406 0.9406 0.3396 16.4333 153.2248)" class="st3" width="7.9" height="2"/>
	<rect x="134.5" y="48.8" transform="matrix(0.9729 -0.2312 0.2312 0.9729 -7.8362 32.735)" class="st1" width="2.5" height="2"/>
	<path class="st1" d="M143.5,98.6l-5.5-3.8c-0.1-0.1-0.2-0.2-0.3-0.3l-0.3-0.5c-0.1-0.1-0.1-0.2-0.2-0.4l-2.9-15.9
		c-0.2-1.3-0.5-3,2-3.9l6.9-3.4c0.1,0,0.1,0,0.2-0.1c0.7-0.2,2.1-1.2,2.4-1.7l9-11.7l1.6,1.2l-9,11.7c-0.6,0.8-2.2,2-3.4,2.4
		l-6.9,3.4c0,0-0.1,0-0.1,0.1c-1,0.3-1,0.3-0.8,1.7l0.1,0.4l2.8,15.3l0.1,0.1l5.4,3.7L143.5,98.6z"/>
	<path class="st1" d="M137,138.6c-0.2,0-0.3,0-0.5-0.1l-9.4-5.4c-0.5-0.3-1-0.9-1.2-1.8c-0.3-1.2-0.4-3,0.3-4.3l7.6-17.7
		c0.1-0.3,0.2-0.6,0.1-0.7c0,0,0-0.1-0.2-0.2l-9.5-4.5c-3.4-1.9-5-4-5.6-7.1L114.1,79c-1.6-8.7,1.4-14.7,8.3-16.3
		c5.8-1.4,7.8-1.3,10.2-1.2c1.8,0.1,3.9,0.2,8.4-0.5l7.8-7c0.3-0.3,0.7-0.3,1.1-0.2l6.1,2.8l-0.8,1.8l-5.5-2.5l-7.5,6.7
		c-0.1,0.1-0.3,0.2-0.5,0.2c-4.9,0.8-7.2,0.7-9.1,0.5c-2.2-0.1-4.1-0.2-9.6,1.1c-4.1,1-8.6,4.2-6.8,14l4.5,17.8
		c0.5,2.6,1.8,4.2,4.6,5.8l9.4,4.4c0.6,0.3,1,0.7,1.3,1.3c0.3,0.7,0.2,1.5-0.2,2.2l-7.6,17.7c0,0,0,0.1-0.1,0.1
		c-0.6,1-0.3,3.1,0.1,3.4l9.1,5.3h0.1l1.3-2.3c0.1-0.2,0.2-0.6,0-1.2l-2.3-3.9c-0.2-0.3-0.2-0.7,0-1l10-17.5l1.7,1l-9.7,17l2.1,3.4
		c0,0,0,0.1,0.1,0.1c0.4,1.1,0.4,2.1-0.1,3l-1.6,2.8c-0.2,0.3-0.5,0.5-0.8,0.5L137,138.6C137.1,138.6,137,138.6,137,138.6"/>
	<path class="st1" d="M156.3,58.5l-1.8-0.8c0.1-0.3,0.2-0.6,0.2-0.9c0-1.3-1.1-2.4-2.4-2.4c-0.7,0-1.4,0.3-1.8,0.8l-1.5-1.3
		c0.8-1,2-1.6,3.3-1.6c2.4,0,4.4,2,4.4,4.4C156.6,57.4,156.5,58,156.3,58.5"/>
	<path class="st0" d="M139.6,132.7c0.3,0.7,0.3,1.4,0,2.1l-1.6,2.8h-1l-7.3-4.2l-3.8,72c1.6-1.2,3.7-1.9,5.9-1.9
		c2.8,0,5.2,1.1,7,2.9l9.2-70.5l-8.1-2.8L139.6,132.7z"/>
	<path class="st1" d="M138.8,207.4c-0.3,0-0.5-0.1-0.7-0.3c-1.7-1.7-3.9-2.6-6.3-2.6c-1.9,0-3.7,0.6-5.3,1.7
		c-0.3,0.2-0.7,0.3-1.1,0.1c-0.3-0.2-0.5-0.5-0.5-0.9l3.8-72c0-0.3,0.2-0.7,0.5-0.8c0.3-0.2,0.7-0.2,1,0l7,4.1h0.1l1.3-2.3
		c0.1-0.2,0.2-0.6,0-1.2c-0.2-0.5,0-1.1,0.5-1.3s1.1,0,1.3,0.4l0.1,0.1l7.7,2.6c0.4,0.2,0.7,0.6,0.7,1.1l-9.2,70.5
		c0,0.4-0.3,0.7-0.7,0.8C139,207.4,138.9,207.4,138.8,207.4 M131.8,202.5c2.3,0,4.5,0.7,6.3,2l8.8-67.9l-6.1-2.1
		c-0.1,0.3-0.2,0.5-0.3,0.7l-1.6,2.8c-0.2,0.3-0.5,0.5-0.8,0.5h-1c-0.2,0-0.4,0-0.5-0.1l-5.9-3.4l-3.7,68.6
		C128.5,202.9,130.1,202.5,131.8,202.5"/>
	<path class="st1" d="M138.2,210.6h-12.3c-0.6,0-1-0.4-1-1v-4.2h2v3.2h10.4l0.5-2.4l2,0.4l-0.7,3.2
		C139.1,210.3,138.7,210.6,138.2,210.6"/>
	<path class="st1" d="M161.4,210.6c-0.5,0-0.9-0.4-1-0.9l-1-7.1l2-0.3l0.9,6.3l20.6-0.2l-2-2.3l-7.6-2.4l0.6-1.9l7.9,2.5
		c0.2,0.1,0.3,0.2,0.5,0.3l3.6,4.1c0.3,0.3,0.3,0.7,0.2,1.1c-0.2,0.4-0.5,0.6-0.9,0.6L161.4,210.6L161.4,210.6z"/>
	<rect x="116" y="208.6" class="st1" width="74.2" height="2"/>
	<path class="st0" d="M151.3,136.1l1.6,0.1l7.5,66.3l13.2,0.3l-2.9-84.9h-18.5l-3.4,10l3.1,3.4c0.4,0.6,0.6,1.3,0.4,2l-1,3.1"/>
	<path class="st1" d="M173.6,203.8L173.6,203.8l-13.3-0.3c-0.5,0-0.9-0.4-1-0.9l-7.4-65.4l-0.8-0.1l0.1-0.7l-0.9-0.3l1-3.1
		c0.1-0.2,0.1-0.6-0.2-1.1l-3-3.3c-0.2-0.3-0.3-0.6-0.2-1l3.4-10c0.1-0.4,0.5-0.7,0.9-0.7h18.5c0.5,0,1,0.4,1,1l2.9,84.9
		c0,0.3-0.1,0.5-0.3,0.7C174.1,203.7,173.9,203.8,173.6,203.8 M161.2,201.5l11.3,0.3l-2.9-82.9h-16.8l-2.9,8.8l2.7,3l0.1,0.1
		c0.8,1.2,0.7,2.2,0.5,2.9l-0.5,1.6h0.3c0.5,0,0.9,0.4,0.9,0.9L161.2,201.5z"/>
	
		<rect x="168.9" y="108.5" transform="matrix(0.9925 -0.1222 0.1222 0.9925 -12.5597 21.6102)" class="st1" width="2" height="9.4"/>
	<rect x="148.4" y="98.2" transform="matrix(0.9903 -0.1389 0.1389 0.9903 -13.0945 21.7666)" class="st1" width="2" height="13"/>
</g>
</svg>
