<?xml version="1.0" encoding="utf-8"?>
<!-- Generator: Adobe Illustrator 22.1.0, SVG Export Plug-In . SVG Version: 6.00 Build 0)  -->
<svg version="1.1" id="Layer_1" xmlns="http://www.w3.org/2000/svg" xmlns:xlink="http://www.w3.org/1999/xlink" x="0px" y="0px"
	 viewBox="0 0 390 220" style="enable-background:new 0 0 390 220;" xml:space="preserve">
<style type="text/css">
	.st0{fill:#512C86;}
	.st1{fill:#49BBC3;}
	.st2{fill:#322153;}
	.st3{fill:#FFFFFF;}
	.st4{fill-rule:evenodd;clip-rule:evenodd;fill:#F6F3FA;}
	.st5{fill:#FED637;}
</style>
<path class="st0" d="M101.9,218.3c4.4,0,6.6-2.2,6.6-6.6v-75c0-22.5-5.9-39.9-17.6-52.4C79.2,71.9,51.4,65.7,29.7,65.7
	c-4.9,0-9.4,0.2-13.3,0.7c-4,0.5-7.6,1-10.8,1.4c-2.7,0.5-4,2.7-4,6.6v137.3c0,4.4,2.2,6.6,6.6,6.6H101.9z"/>
<path class="st1" d="M155.5,112.4c1.7,1.1,3.8,1.4,5.7,0.9c2-0.5,3.6-1.7,4.7-3.4c1.1-1.7,1.4-3.8,0.9-5.7c-0.8-3.5-3.9-5.8-7.4-5.8
	c-0.6,0-1.2,0.1-1.8,0.2c-2,0.5-3.6,1.7-4.7,3.4c-1.1,1.7-1.4,3.8-0.9,5.7C152.5,109.7,153.7,111.3,155.5,112.4 M159.2,109.2l2-0.4
	c0.3-0.1,0.5,0.3,0.4,0.5l-0.8,1.3c-0.1,0.2-0.4,0.2-0.5,0.1l-1.2-0.9C158.8,109.6,158.9,109.2,159.2,109.2"/>
<path class="st1" d="M159.4,121c-0.3,0-0.5,0-0.8,0.1c-1.8,0.4-2.8,2.2-2.4,4c0.2,0.9,0.7,1.6,1.5,2c0.7,0.5,1.6,0.6,2.5,0.4
	c1.8-0.4,2.8-2.2,2.4-4C162.2,122,160.9,121,159.4,121"/>
<path class="st1" d="M166.1,99c1.3-0.4,2.1-1.7,1.7-2.9c-0.3-1.3-1.7-2.1-3-1.8c-1.2,0.3-2,1.5-1.8,2.8
	C164.1,97.5,165.2,98.2,166.1,99"/>
<path class="st1" d="M148.9,98.1c-0.6,0.2-1.2,0.5-1.5,1.1c-0.3,0.6-0.4,1.2-0.3,1.9c0.2,0.6,0.5,1.2,1.1,1.5
	c0.6,0.3,1.2,0.4,1.9,0.3c0.1,0,0.1-0.1,0.2-0.1c0.2-0.7,0.5-1.3,0.9-1.9c0.2-0.3,0.5-0.7,0.7-1C151.6,98.6,150.3,97.8,148.9,98.1"
	/>
<path class="st1" d="M170.9,121.5c-0.2-0.9-0.7-1.6-1.5-2c-0.5-0.3-1.1-0.5-1.7-0.5c-0.3,0-0.5,0-0.8,0.1c-0.9,0.2-1.6,0.7-2,1.5
	c-0.5,0.7-0.6,1.6-0.4,2.5c0.2,0.9,0.7,1.6,1.5,2c0.7,0.5,1.6,0.6,2.5,0.4c0.9-0.2,1.6-0.7,2-1.5C171,123.2,171.2,122.3,170.9,121.5
	L170.9,121.5z"/>
<path class="st1" d="M171.5,115.6c-0.3-0.3-0.6-0.5-0.8-0.8c-1-1-2-2.1-3.1-3.1l-0.4-0.4c-1.3,2-3.3,3.4-5.7,3.9
	c-0.8,0.2-1.5,0.3-2.3,0.3c-1.7,0-3.5-0.5-5-1.4c-0.1,0-0.1-0.1-0.2-0.1l-0.3,1.1c-0.4,1.4-0.8,2.8-1.3,4.1
	c-0.1,0.3-0.2,0.7-0.4,1.1c-0.5,1.2-0.9,2.5-0.4,3.5c0.5,0.8,1.4,1.3,2.3,1.3c-0.2-1.8,0.5-3.6,1.8-4.7l1.1-3.3l1.9,0.6l-0.5,1.5
	c1.6-0.3,3.2,0.2,4.3,1.2c0.1-0.3,0.2-0.5,0.4-0.8c0.7-1.1,1.8-2,3.1-2.3l-1.1-1.1l1.4-1.4l2.6,2.5c0.5,0.1,0.9,0.3,1.3,0.6
	c1,0.6,1.7,1.5,2.1,2.5c0.5-0.4,0.8-1.1,0.8-1.7C173.5,117.4,172.5,116.5,171.5,115.6"/>
<path class="st0" d="M172.9,114.1c-0.3-0.2-0.5-0.5-0.7-0.7c-1-1-2-2.1-3.1-3.1l-0.8-0.8c0.7-1.8,0.9-3.8,0.4-5.8
	c-0.3-1.1-0.7-2.1-1.3-3c1.8-0.9,2.8-3,2.4-5.1c-0.6-2.4-3-3.9-5.4-3.3c-2,0.5-3.3,2.2-3.4,4.1c-1.2-0.2-2.5-0.2-3.8,0.1
	c-1.4,0.3-2.6,1-3.7,1.8c-0.9-1.7-3-2.7-5-2.2c-1.2,0.3-2.1,1-2.8,2c-0.6,1-0.8,2.2-0.5,3.4c0.3,1.2,1,2.1,2,2.8
	c0.7,0.4,1.5,0.7,2.3,0.7c0.1,0,0.2,0,0.3,0c-0.1,1.1,0,2.1,0.2,3.2c0.4,1.7,1.3,3.2,2.4,4.4l-0.6,1.9c-0.4,1.4-0.8,2.8-1.3,4.1
	c-0.1,0.3-0.2,0.6-0.3,1c-0.6,1.5-1.2,3.4-0.3,5.2c0.8,1.4,2.3,2.3,3.9,2.3c0.3,0,0.5,0,0.8-0.1c0.4,0.8,1.1,1.4,1.8,1.9
	c0.8,0.5,1.8,0.8,2.8,0.8c0.4,0,0.8,0,1.3-0.2c1.7-0.4,3-1.6,3.7-3.1c0.2,0.2,0.4,0.4,0.7,0.5c0.8,0.5,1.8,0.8,2.8,0.8
	c0.4,0,0.8,0,1.3-0.2c1.4-0.3,2.5-1.2,3.3-2.4c0.5-0.8,0.8-1.7,0.8-2.6c1.4-0.7,2.4-2.2,2.4-3.8
	C175.6,116.5,174.1,115.2,172.9,114.1 M164.8,94.3c1.3-0.3,2.7,0.5,3,1.8c0.3,1.3-0.5,2.6-1.7,2.9c-0.9-0.9-1.9-1.5-3.1-2
	C162.8,95.8,163.6,94.6,164.8,94.3 M150.3,102.8c-0.1,0-0.1,0.1-0.2,0.1c-0.6,0.2-1.3,0.1-1.9-0.3c-0.6-0.3-1-0.9-1.1-1.5
	c-0.2-0.6-0.1-1.3,0.3-1.9c0.3-0.6,0.9-1,1.5-1.1c1.3-0.3,2.6,0.5,3,1.8c-0.3,0.3-0.5,0.6-0.7,1
	C150.8,101.5,150.5,102.2,150.3,102.8 M152,107.7c-0.5-2-0.2-4,0.9-5.7c1.1-1.7,2.7-2.9,4.7-3.4c0.6-0.1,1.2-0.2,1.8-0.2
	c3.4,0,6.5,2.3,7.4,5.8c0.5,2,0.2,4-0.9,5.7c-1.1,1.7-2.7,2.9-4.7,3.4c-2,0.5-4,0.2-5.7-0.9C153.7,111.3,152.5,109.7,152,107.7
	 M160.2,127.4c-0.9,0.2-1.7,0.1-2.5-0.4c-0.7-0.5-1.3-1.2-1.5-2c-0.4-1.8,0.7-3.5,2.4-4c0.3-0.1,0.5-0.1,0.8-0.1
	c1.5,0,2.8,1,3.2,2.5C163,125.2,161.9,127,160.2,127.4 M170.6,123.9c-0.5,0.7-1.2,1.3-2,1.5c-0.8,0.2-1.7,0.1-2.5-0.4
	c-0.7-0.5-1.3-1.2-1.5-2c-0.2-0.9-0.1-1.7,0.4-2.5c0.5-0.7,1.2-1.3,2-1.5c0.3-0.1,0.5-0.1,0.8-0.1c0.6,0,1.2,0.2,1.7,0.5
	c0.7,0.5,1.3,1.2,1.5,2v0C171.2,122.3,171,123.2,170.6,123.9 M172.7,120.2c-0.4-1-1.2-1.9-2.1-2.5c-0.4-0.3-0.9-0.4-1.3-0.6
	l-2.6-2.5l-1.4,1.4l1.1,1.1c-1.3,0.4-2.4,1.2-3.1,2.3c-0.1,0.2-0.3,0.5-0.4,0.8c-1.2-1-2.7-1.5-4.3-1.2l0.5-1.5l-1.9-0.6l-1.1,3.3
	c-1.3,1.1-2.1,2.9-1.8,4.7c-0.9,0.1-1.9-0.4-2.3-1.3c-0.5-0.9-0.1-2.2,0.4-3.5c0.1-0.4,0.3-0.7,0.4-1.1c0.4-1.4,0.8-2.8,1.3-4.1
	l0.3-1.1c0.1,0,0.1,0.1,0.2,0.1c1.5,0.9,3.2,1.4,5,1.4c0.8,0,1.5-0.1,2.3-0.3c2.3-0.6,4.3-2,5.7-3.9l0.4,0.4c1,1,2,2.1,3.1,3.1
	c0.2,0.3,0.5,0.5,0.8,0.8c1,0.9,2,1.8,1.9,2.9C173.4,119.1,173.1,119.8,172.7,120.2"/>
<path class="st2" d="M160.2,110.7c0.2,0.1,0.4,0.1,0.5-0.1l0.8-1.3c0.2-0.3-0.1-0.6-0.4-0.5l-2,0.4c-0.3,0.1-0.4,0.4-0.2,0.6
	L160.2,110.7z"/>
<path class="st3" d="M159.9,129.9c-0.2,0-0.3,0-0.5,0c-2.7,0-5-2.2-5-5c0-2.4,1.8-4.5,4.1-4.9"/>
<path class="st0" d="M159.5,131c-3.4,0-6.1-2.7-6.1-6.1c0-2.9,2.1-5.5,5-6l0.4,2.2c-1.8,0.3-3.2,1.9-3.2,3.8c0,2.1,1.7,3.9,3.9,3.9
	c0.1,0,0.2,0,0.4,0l0.2,2.2C159.8,131,159.7,131,159.5,131"/>
<path class="st0" d="M178.5,83.1c-1.8-9-0.9-13.7,0.1-19.1c0.3-1.8,0.7-3.7,1-6c1-8-0.9-15.5-5-19.7c-3-3.1-7-4.4-11.9-3.9
	c-0.1,0-0.3,0-0.4,0c-5.8-1.8-11-0.8-15.2,2.8c-5.4,4.6-8.4,13.1-7.4,20.8c0.3,3.3,0.7,5.6,1.1,7.9c0.8,4.7,1.5,8.7,0.2,17.1
	l-2.2-0.4c1.3-8,0.6-11.7-0.2-16.4c-0.4-2.2-0.8-4.8-1.1-8.1c-1.1-8.3,2.2-17.7,8.1-22.7c3.3-2.8,9-5.7,17.1-3.3
	c5.4-0.5,10.1,1.1,13.5,4.6c4.6,4.7,6.7,12.8,5.6,21.5c-0.3,2.3-0.6,4.2-1,6.1c-1,5.4-1.8,9.7-0.1,18.3L178.5,83.1z"/>
<path class="st0" d="M138.9,141l-9.8-0.8c-0.6,0-1.1-0.6-1-1.2l1.1-22.4c0,0,0-0.1,0-0.1l3.8-26.4c0.8-10,17.6-12.1,17.7-12.2
	l0.3,2.2c-3.9,0.5-15.2,3.3-15.8,10.2l-3.8,26.5l-1,21.2l8.8,0.7L138.9,141z"/>
<path class="st0" d="M138.7,150.6c-5-1-7.4-4.1-8.7-11.4l2.2-0.4c1.3,7.1,3.5,8.9,7,9.6L138.7,150.6z"/>
<rect x="158.4" y="175.3" class="st0" width="2.2" height="32.5"/>
<path class="st0" d="M159.5,87.6c-0.1,0-0.2,0-0.3,0c-4.1-1.1-7.1-4-8.9-8.5c-0.2-0.4-0.1-0.9,0.3-1.3c1.8-1.6,1.9-2.9,1.8-3.9
	l2.2-0.3c0.2,2-0.4,3.7-2,5.3c1.5,3.3,3.7,5.4,6.8,6.3c3.1-0.9,5.3-3,6.8-6.3c-1.6-1.6-2.2-3.3-2-5.3l2.2,0.3c-0.1,1,0,2.3,1.8,3.9
	c0.4,0.3,0.5,0.8,0.3,1.3c-1.8,4.5-4.8,7.3-8.9,8.5C159.7,87.6,159.6,87.6,159.5,87.6"/>
<path class="st0" d="M159.6,76.8c-1.9,0-3.9-0.6-5.9-1.9c-3.4-2.5-6.6-5.4-7.7-10.9c-0.1-0.1-0.1-0.1-0.2-0.2
	c-0.9-0.8-2.7-2.4-2.7-5.4c0-1.9,1.4-3.4,2.6-3.9c0.1-0.8,0.5-2.4,3.1-2.6c5.6-0.2,10.7-2.2,13.5-5.3c0.3-0.3,0.6-0.4,1-0.4
	c0.4,0.1,0.7,0.3,0.8,0.6c1.1,2.4,5.1,7.2,8.5,7.4c0.1,0,0.1,0,0.2,0c1.3,0.3,3.1,1.9,3.1,4.1c0,3-1.8,4.5-2.6,5.3
	c-0.1,0.1-0.2,0.2-0.3,0.2c-1.1,5.2-3.9,8.2-7.8,11C163.4,76.2,161.5,76.8,159.6,76.8 M146.7,56.6c-0.4,0.1-1.3,0.9-1.3,1.9
	c0,2,1.2,3,1.9,3.7c0.4,0.4,0.8,0.7,0.9,1.2c0.9,4.6,3.4,7.2,6.8,9.7c3.1,2,6.1,2,9,0.1c3.6-2.6,6-5.2,6.9-9.8
	c0.1-0.5,0.5-0.9,0.9-1.2c0.7-0.7,1.9-1.7,1.9-3.6c0-1-0.9-1.7-1.3-1.9c-4.1-0.3-7.9-4.6-9.6-7.3c-3.3,3-8.3,4.8-13.9,4.9
	c-0.9,0.1-0.9,0.3-1,0.8C147.9,55.4,147.7,56.4,146.7,56.6 M146,63.8C146,63.8,146,63.9,146,63.8C146,63.9,146,63.8,146,63.8"/>
<path class="st4" d="M172.8,99.2l1.4,15.3l-0.9,1.1l-14.3,4l1.5,10.8l19.3-2.5c2.4-1.4,6-6.4,5.9-9.1l-1.9-27.6
	c-0.2-3.3-1.8-7.8-5.4-9c-3.8-1.9-8-2.8-9.8-3.1"/>
<path class="st0" d="M160.4,131.6c-0.5,0-1-0.4-1.1-1l-1.5-10.8c-0.1-0.6,0.3-1.1,0.8-1.2l14-3.9l0.4-0.5l-1.3-14.9l2.2-0.2
	l1.4,15.3c0,0.3-0.1,0.6-0.2,0.8l-0.9,1.1c-0.1,0.2-0.4,0.3-0.6,0.4l-13.4,3.7l1.2,8.7l17.9-2.3c2.1-1.4,5.3-5.9,5.2-8l-1.9-27.6
	c-0.2-2.5-1.4-7-4.6-8c-0.1,0-0.1,0-0.2-0.1c-3.5-1.8-7.6-2.7-9.5-2.9l0.3-2.2c0.5,0.1,5.4,0.8,10.1,3.1c4,1.4,5.8,6.2,6.1,10
	l1.9,27.6c0.1,3.4-4,8.7-6.5,10.2c-0.1,0.1-0.3,0.1-0.4,0.1l-19.3,2.5C160.5,131.6,160.5,131.6,160.4,131.6"/>
<path class="st0" d="M180.2,176.4h-41.4c-0.6,0-1.1-0.5-1.1-1.1c-1.3-22.7-0.1-36.5,2-57.1c0.1-1.1,0.5-14.5,0.1-16.4l2.2-0.5
	c0.5,2.4,0,16.5-0.1,17.1c-2,20.2-3.2,33.7-2.1,55.7h39.3c0.9-17.7-0.5-29.7-2-43.6l-0.3-2.3l2.2-0.2l0.3,2.3c1.6,14.3,3,26.6,2,45
	C181.3,175.9,180.8,176.4,180.2,176.4"/>
<path class="st5" d="M107.8,61.6c-2.6-7.2-0.3-14.9,5.3-19.5c-2,0-3.9,0.4-5.9,1.1c-9.1,3.3-13.8,13.4-10.5,22.5
	c3.3,9.1,13.4,13.8,22.5,10.5c1.9-0.7,3.7-1.7,5.2-3C117.2,73.2,110.4,68.8,107.8,61.6"/>
<path class="st0" d="M113.2,78.3c-2.7,0-5.4-0.6-7.9-1.8c-4.5-2.1-8-5.9-9.7-10.5c-1.7-4.7-1.5-9.8,0.6-14.3c2.1-4.5,5.8-8,10.5-9.7
	c2-0.7,4.1-1.1,6.3-1.1h0c0.5,0,0.9,0.3,1,0.7c0.2,0.4,0,0.9-0.3,1.2c-5.3,4.4-7.3,11.8-5,18.3c2.4,6.5,8.6,10.8,15.5,10.8
	c0,0,0.1,0,0.1,0c0.5,0,0.9,0.3,1,0.7c0.2,0.4,0,0.9-0.3,1.2c-1.6,1.4-3.5,2.4-5.5,3.2C117.5,77.9,115.4,78.3,113.2,78.3
	 M110.1,43.5c-0.8,0.2-1.7,0.4-2.5,0.7c-4.1,1.5-7.4,4.5-9.3,8.5c-1.9,4-2.1,8.4-0.5,12.6c1.5,4.1,4.5,7.4,8.5,9.3
	c4,1.9,8.5,2.1,12.6,0.5c0.8-0.3,1.6-0.7,2.3-1.1c-6.5-1.1-12.1-5.7-14.5-12C104.4,55.6,105.8,48.5,110.1,43.5"/>
<path class="st0" d="M158.9,206.2c-2.3-1.6-5.6-1.7-8,0l-1.3-1.8c1.5-1.1,3.4-1.6,5.2-1.6c1.9,0,3.7,0.6,5.3,1.7L158.9,206.2z"/>
<path class="st0" d="M168.1,206.2c-2.3-1.6-5.6-1.7-8,0l-1.3-1.8c1.5-1.1,3.4-1.6,5.2-1.6c1.9,0,3.7,0.6,5.3,1.7L168.1,206.2z"/>
<path class="st0" d="M168.7,209.6h-18.3c-0.6,0-1-0.4-1.1-1l-4.6-33.2l2.2-0.3l4.4,32.3h16.4l4.4-32.3l2.2,0.3l-4.5,33.2
	C169.7,209.2,169.3,209.6,168.7,209.6"/>
</svg>
