<?xml version="1.0" encoding="utf-8"?>
<!-- Generator: Adobe Illustrator 22.1.0, SVG Export Plug-In . SVG Version: 6.00 Build 0)  -->
<svg version="1.1" id="Layer_1" xmlns="http://www.w3.org/2000/svg" xmlns:xlink="http://www.w3.org/1999/xlink" x="0px" y="0px"
	 viewBox="0 0 100 100" style="enable-background:new 0 0 100 100;" xml:space="preserve">
<style type="text/css">
	.st0{fill:none;stroke:#F6F3FA;stroke-width:10;stroke-linecap:round;stroke-linejoin:round;stroke-miterlimit:10;}
	.st1{fill:#59029F;}
	.st2{fill:#F6F3FA;}
</style>
<g>
	<g>
		<path class="st0" d="M-151.4,34"/>
	</g>
</g>
<path class="st1" d="M50,0.5c-8.8,0-17.4,1.2-25.5,3.5C16.3,6.3,8.3,9.6,0.9,13.7c-0.2,0.1-0.4,0.2-0.4,0.6v71.3
	c0,0.4,0.2,0.5,0.3,0.6c7.5,4.2,15.4,7.4,23.6,9.7c8.2,2.3,16.8,3.5,25.5,3.5c8.8,0,17.4-1.2,25.6-3.5s16.1-5.6,23.5-9.7
	c0.2-0.1,0.4-0.2,0.4-0.6l-0.1-71.5c-0.1-0.4-0.2-0.4-0.3-0.5c-7.3-4-15.3-7.3-23.4-9.6C67.4,1.7,58.8,0.5,50,0.5z"/>
<path class="st2" d="M80.7,67c-0.2-0.6-0.6-1.1-1.2-1.6c-0.7-0.3-1.3-0.4-1.9-0.2l-2.2,0.6c-1.5-3.3-4.8-5.4-8.3-5.1l-0.5-2.6h0.8
	c1.4,0,2.4-1.2,2.4-2.4c0-1.4-1.2-2.5-2.4-2.5h-2l-1.9-8.4v-0.2c0-0.1,0-0.2-0.1-0.2v-0.1c0-0.1-0.1-0.2-0.1-0.2
	c0-0.1-0.1-0.2-0.1-0.3c0-0.1-0.1-0.1-0.2-0.2l0,0c0-0.1-0.1-0.1-0.2-0.2c0,0-0.1,0-0.1-0.1L62.6,43c-0.1-0.1-0.2-0.1-0.3-0.1
	c0,0-0.1-0.1-0.2-0.1c0,0-0.1-0.1-0.2-0.1c0,0-0.1-0.1-0.2-0.1l0,0c0,0,0,0-0.1-0.1l0,0h-12c-2.2-1.8-4.9-3-7.6-3.6l-3.7-16.8V22
	c0-0.1-0.1-0.2-0.1-0.3c0-0.1-0.1-0.2-0.1-0.2c0-0.1-0.1-0.1-0.1-0.1c0-0.1-0.1-0.2-0.1-0.2c0-0.1-0.1-0.2-0.1-0.2V21l-0.2-0.2
	c-0.1-0.1-0.2-0.1-0.3-0.2c0,0-0.1-0.1-0.2-0.1c0,0-0.1-0.1-0.2-0.1c0,0-0.1-0.1-0.2-0.1l0,0c0,0,0,0-0.1-0.1l0,0h-0.1
	c0,0,0,0-0.1,0v-0.1h-1l-4.9,1.4C30,21.6,29.5,22,29,22.6c-0.3,0.7-0.4,1.3-0.2,1.9c0.3,1.1,1.3,1.9,2.3,1.9c0.2,0,0.4,0,0.6-0.1
	l2.1-0.7l2.7,12.8C26.3,39,18.3,47.4,18.3,57.8c0,10.7,8.7,19.4,19.3,19.4c10.6,0,19.2-8.5,19.3-19.1h4.4l1.1,4.7
	c-1.8,1.7-2.8,3.9-2.8,6.3c0,4.6,3.7,8.3,8.3,8.3c3.7,0,7.1-2.6,8-6.3l3.1-0.9c0.6-0.2,1.1-0.6,1.6-1.1l0,0l0,0
	C80.8,68.2,81,67.6,80.7,67z M71,68.9c0,1.8-1.4,3.1-3.1,3.1s-3.1-1.4-3.1-3.1c0-1.8,1.4-3.1,3.2-3.2c0.1,0,0.1,0,0.2,0
	c0.7,0,1.5,0.3,2,0.8C70.7,67.2,71,68,71,68.9z M60.2,53h-4c-0.5-1.9-1.2-3.7-2.3-5.5H59L60.2,53z M51.8,57.8
	c0,7.9-6.4,14.3-14.3,14.3s-14.4-6.4-14.4-14.3s6.4-14.3,14.3-14.3S51.8,49.9,51.8,57.8z"/>
</svg>
