<?xml version="1.0" encoding="utf-8"?>
<!-- Generator: Adobe Illustrator 22.1.0, SVG Export Plug-In . SVG Version: 6.00 Build 0)  -->
<svg version="1.1" id="Layer_1" xmlns="http://www.w3.org/2000/svg" xmlns:xlink="http://www.w3.org/1999/xlink" x="0px" y="0px"
	 viewBox="0 0 100 100" style="enable-background:new 0 0 100 100;" xml:space="preserve">
<style type="text/css">
	.st0{fill:#59029F;}
	.st1{fill:#F6F3FA;}
</style>
<path class="st0" d="M50,0.5c-8.8,0-17.4,1.2-25.5,3.5C16.3,6.3,8.3,9.6,0.9,13.7c-0.2,0.1-0.4,0.2-0.4,0.6v71.3
	c0,0.4,0.2,0.5,0.3,0.6c7.5,4.2,15.4,7.4,23.6,9.7c8.2,2.3,16.8,3.5,25.5,3.5c8.8,0,17.4-1.2,25.6-3.5s16.1-5.6,23.5-9.7
	c0.2-0.1,0.4-0.2,0.4-0.6l-0.1-71.5c-0.1-0.4-0.2-0.4-0.3-0.5c-7.3-4-15.3-7.3-23.4-9.6C67.4,1.7,58.8,0.5,50,0.5z"/>
<g>
	<path class="st1" d="M61.7,34.6c1.8,0,3.2-1.5,3.4-3.3v-6c0.1-1-0.3-1.9-0.9-2.5c-0.6-0.7-1.5-1.1-2.4-1.1c-1.9,0-3.5,1.6-3.5,3.4
		V31C58.2,33,59.8,34.6,61.7,34.6z"/>
	<path class="st1" d="M38.5,34.6c1.9,0,3.4-1.6,3.4-3.4v-5.9c-0.1-1.9-1.6-3.4-3.4-3.4c-1.9,0-3.5,1.6-3.5,3.4v5.9
		C35,33,36.7,34.6,38.5,34.6z"/>
	<rect x="43.2" y="25.4" class="st1" width="14" height="5.6"/>
	<path class="st1" d="M71.5,25.4h-5.4V31h4.2v6.7H29.6V31h4.2v-5.6h-5.3c-2.5,0-4.7,2-4.7,4.7v42.8c0,2.5,2,4.7,4.7,4.7h42.9
		c2.5,0,4.7-2,4.7-4.7V30C76.1,27.5,74,25.4,71.5,25.4z M70.5,43.3v28.5H29.6V43.3H70.5z"/>
</g>
</svg>
