<?xml version="1.0" encoding="utf-8"?>
<!-- Generator: Adobe Illustrator 22.1.0, SVG Export Plug-In . SVG Version: 6.00 Build 0)  -->
<svg version="1.1" id="Layer_1" xmlns="http://www.w3.org/2000/svg" xmlns:xlink="http://www.w3.org/1999/xlink" x="0px" y="0px"
	 viewBox="0 0 77.8 57.7" style="enable-background:new 0 0 77.8 57.7;" xml:space="preserve">
<style type="text/css">
	.st0{fill:#767676;}
	.st1{fill:#CE0000;}
</style>
<g>
	<path class="st0" d="M73.2,0.8H4.6C2.3,0.8,0.4,2.7,0.4,5v47.8c0,2.3,1.9,4.2,4.2,4.2h68.6c2.3,0,4.2-1.9,4.2-4.2V5
		C77.4,2.7,75.5,0.8,73.2,0.8z M3.6,5c0-0.6,0.4-1,1-1h68.6c0.6,0,1.1,0.5,1.1,1.1v47.8c0,0.6-0.5,1.1-1.1,1.1H4.6
		c-0.6,0-1.1-0.5-1.1-1.1L3.6,5L3.6,5z"/>
	<path class="st0" d="M13.8,16.7h51.9c0.1,0,0.2-0.1,0.2-0.2V12c0-0.1-0.1-0.2-0.2-0.2H13.8c-0.1,0-0.2,0.1-0.2,0.2v4.4
		C13.6,16.6,13.7,16.7,13.8,16.7z"/>
</g>
<path class="st1" d="M64.9,23.2H33.6c-0.9,0-1.6,0.7-1.6,1.6v20.8c0,0.9,0.7,1.6,1.6,1.6h31.3c0.9,0,1.6-0.7,1.6-1.6V24.8
	C66.5,23.9,65.8,23.2,64.9,23.2z M63.3,26.3V44H35.1V26.3H63.3z"/>
</svg>
