<?xml version="1.0" encoding="utf-8"?>
<!-- Generator: Adobe Illustrator 22.1.0, SVG Export Plug-In . SVG Version: 6.00 Build 0)  -->
<svg version="1.1" id="Layer_1" xmlns="http://www.w3.org/2000/svg" xmlns:xlink="http://www.w3.org/1999/xlink" x="0px" y="0px"
	 viewBox="0 0 100 100" style="enable-background:new 0 0 100 100;" xml:space="preserve">
<style type="text/css">
	.st0{fill:#F6F3FA;}
	.st1{fill:#59029F;}
</style>
<path class="st0" d="M50,0.5c-8.8,0-17.4,1.2-25.5,3.5C16.3,6.3,8.3,9.6,0.9,13.7c-0.2,0.1-0.4,0.2-0.4,0.6v71.3
	c0,0.4,0.2,0.5,0.3,0.6c7.5,4.2,15.4,7.4,23.6,9.7c8.2,2.3,16.8,3.5,25.5,3.5c8.8,0,17.4-1.2,25.6-3.5s16.1-5.6,23.5-9.7
	c0.2-0.1,0.4-0.2,0.4-0.6l-0.1-71.5c-0.1-0.4-0.2-0.4-0.3-0.5c-7.3-4-15.3-7.3-23.4-9.6C67.4,1.7,58.8,0.5,50,0.5z"/>
<g>
	<path class="st1" d="M71.3,38.4l-0.6-0.6c0,0,0,0,0,0L55.4,22.5c0,0,0,0,0,0l-0.6-0.6c-0.3-0.3-0.7-0.5-1.1-0.5H30.4
		c-0.3,0-0.6,0.3-0.6,0.6v56c0,0.3,0.3,0.6,0.6,0.6h40.8c0.3,0,0.6-0.3,0.6-0.6V39.6C71.8,39.1,71.6,38.7,71.3,38.4z M62.4,37.3
		h-6.5v-6.5L62.4,37.3z M65.7,73.1H36c-0.3,0-0.6-0.3-0.6-0.6v-45c0-0.3,0.3-0.6,0.6-0.6h14.4v12.9c0,0.2,0.1,0.3,0.2,0.4l2.4,2.4
		c0.1,0.1,0.3,0.2,0.4,0.2h12.9v29.7C66.3,72.8,66,73.1,65.7,73.1z"/>
	<rect x="40.4" y="59.4" class="st1" width="15.5" height="5.5"/>
	<rect x="40.4" y="48.3" class="st1" width="20.9" height="5.5"/>
	<rect x="40.4" y="37.3" class="st1" width="5.7" height="5.5"/>
</g>
</svg>
