<?xml version="1.0" encoding="utf-8"?>
<!-- Generator: Adobe Illustrator 22.1.0, SVG Export Plug-In . SVG Version: 6.00 Build 0)  -->
<svg version="1.1" id="Layer_1" xmlns="http://www.w3.org/2000/svg" xmlns:xlink="http://www.w3.org/1999/xlink" x="0px" y="0px"
	 viewBox="0 0 77.8 100" style="enable-background:new 0 0 77.8 100;" xml:space="preserve">
<style type="text/css">
	.st0{fill:#b21121;}
</style>
<g>
	<g>
		<path class="st0" d="M71.6,83.1H6.2c-2,0-3.9-1.1-4.9-2.9c-1-1.8-1-3.9,0-5.7L34,18c1-1.8,2.9-2.9,4.9-2.9s3.9,1.1,4.9,2.9
			l32.7,56.6c1,1.8,1,3.9,0,5.7C75.5,82.1,73.6,83.1,71.6,83.1z M70.4,78.1L70.4,78.1L70.4,78.1z M8.5,76.1h60.7L38.9,23.5L8.5,76.1
			z"/>
	</g>
</g>
<g>
	<path class="st0" d="M38.9,37.3L38.9,37.3c-2.4,0-4.3,1.9-4.3,4.3v14.7c0,2.4,1.9,4.3,4.3,4.3h0c2.4,0,4.3-1.9,4.3-4.3V41.6
		C43.2,39.2,41.3,37.3,38.9,37.3z"/>
	<path class="st0" d="M38.9,62.4L38.9,62.4c-2.4,0-4.3,1.9-4.3,4.3v0c0,2.4,1.9,4.3,4.3,4.3l0,0c2.4,0,4.3-1.9,4.3-4.3v0
		C43.2,64.3,41.3,62.4,38.9,62.4z"/>
</g>
</svg>
