<?xml version="1.0" encoding="utf-8"?>
<!-- Generator: Adobe Illustrator 22.1.0, SVG Export Plug-In . SVG Version: 6.00 Build 0)  -->
<svg version="1.1" id="Layer_1" xmlns="http://www.w3.org/2000/svg" xmlns:xlink="http://www.w3.org/1999/xlink" x="0px" y="0px"
	 viewBox="0 0 100 100" style="enable-background:new 0 0 100 100;" xml:space="preserve">
<style type="text/css">
	.st0{fill:#59029F;}
	.st1{fill:#F6F3FA;}
</style>
<path class="st0" d="M50,0.5c-8.8,0-17.4,1.2-25.5,3.5C16.3,6.3,8.3,9.6,0.9,13.7c-0.2,0.1-0.4,0.2-0.4,0.6v71.3
	c0,0.4,0.2,0.5,0.3,0.6c7.5,4.2,15.4,7.4,23.6,9.7c8.2,2.3,16.8,3.5,25.5,3.5c8.8,0,17.4-1.2,25.6-3.5s16.1-5.6,23.5-9.7
	c0.2-0.1,0.4-0.2,0.4-0.6l-0.1-71.5c-0.1-0.4-0.2-0.4-0.3-0.5c-7.3-4-15.3-7.3-23.4-9.6C67.4,1.7,58.8,0.5,50,0.5z"/>
<path class="st1" d="M82.1,42.3l-7.8-5C74.1,37.2,74,37,74,36.8V24.4c0-0.3-0.2-0.6-0.6-0.6H60.2c-0.3,0-0.6,0.2-0.6,0.6V28l-9.3-6
	c-0.2-0.1-0.4-0.1-0.6,0L17.9,42.3c-0.3,0.2-0.3,0.5-0.2,0.8l2.2,3.4c0.2,0.3,0.5,0.3,0.8,0.2l4.9-3.1v31.6c0,0.3,0.2,0.6,0.6,0.6
	h47.3c0.3,0,0.6-0.2,0.6-0.6V43.3l5.3,3.4c0.3,0.2,0.6,0.1,0.8-0.2l2.2-3.4C82.4,42.8,82.3,42.5,82.1,42.3z M64.8,29h4.1v4.9
	l-4.1-2.6V29z M48.2,70.5h-7V54.7h7V70.5z M68.3,70.5H53.4V50.1c0-0.3-0.2-0.6-0.6-0.6H36.6c-0.3,0-0.6,0.2-0.6,0.6v20.4h-4.7
	c-0.3,0-0.6-0.2-0.6-0.6V40.5c0-0.2,0.1-0.4,0.3-0.5l18.7-11.9c0.2-0.1,0.4-0.1,0.6,0l18.3,11.7c0.2,0.1,0.3,0.3,0.3,0.5V70
	C68.8,70.3,68.6,70.5,68.3,70.5z"/>
</svg>
