<?xml version="1.0" encoding="utf-8"?>
<!-- Generator: Adobe Illustrator 22.1.0, SVG Export Plug-In . SVG Version: 6.00 Build 0)  -->
<svg version="1.1" id="Layer_1" xmlns="http://www.w3.org/2000/svg" xmlns:xlink="http://www.w3.org/1999/xlink" x="0px" y="0px"
	 viewBox="0 0 127.2 100" style="enable-background:new 0 0 127.2 100;" xml:space="preserve">
<style type="text/css">
	.st0{fill:#231F20;}
	.st1{fill:#FF5F00;}
	.st2{fill:#EB001B;}
	.st3{fill:#F79E1B;}
</style>
<g id="Layer_2_1_">
	<g id="Layer_1-2">
		<path class="st0" d="M23.7,97.9v-6.4c0.1-2.1-1.4-3.9-3.6-4.1c-0.2,0-0.3,0-0.5,0c-1.4-0.1-2.8,0.6-3.6,1.8
			c-0.7-1.2-2-1.9-3.4-1.8c-1.2-0.1-2.3,0.5-3,1.5v-1.3H7.4v10.3h2.3v-5.7c-0.2-1.3,0.7-2.5,2.1-2.7c0.2,0,0.3,0,0.5,0
			c1.5,0,2.2,1,2.2,2.7v5.7h2.3v-5.7c-0.2-1.3,0.8-2.5,2.1-2.7c0.1,0,0.3,0,0.4,0c1.5,0,2.3,1,2.3,2.7v5.7L23.7,97.9z M57.1,87.6
			h-3.7v-3.1h-2.3v3.1h-2v2h2.1v4.7c0,2.4,0.9,3.8,3.6,3.8c1,0,2-0.3,2.8-0.8l-0.6-1.9c-0.6,0.4-1.3,0.6-2,0.6
			c-1.1,0-1.5-0.7-1.5-1.7v-4.7h3.7L57.1,87.6z M76.2,87.3c-1.1,0-2.1,0.5-2.7,1.5v-1.2h-2.2v10.3h2.2v-5.8c0-1.7,0.7-2.6,2.1-2.6
			c0.5,0,1,0.1,1.4,0.3l0.7-2.1C77.2,87.4,76.7,87.3,76.2,87.3L76.2,87.3z M47.4,88.4c-1.3-0.8-2.7-1.1-4.2-1.1
			c-2.6,0-4.3,1.2-4.3,3.3c0,1.7,1.2,2.7,3.5,3l1.1,0.2c1.2,0.2,1.8,0.5,1.8,1.1c0,0.8-0.8,1.2-2.3,1.2c-1.2,0-2.4-0.3-3.4-1.1
			l-1.1,1.7c1.3,0.9,2.9,1.4,4.5,1.3c3,0,4.7-1.4,4.7-3.4c0-2-1.4-2.8-3.6-3.1l-1.1-0.2c-1-0.1-1.7-0.3-1.7-1c0-0.7,0.7-1.2,2-1.2
			c1.1,0,2.2,0.3,3.2,0.9L47.4,88.4z M107.2,87.3c-1.1,0-2.1,0.5-2.7,1.5v-1.2h-2.2v10.3h2.2v-5.8c0-1.7,0.7-2.6,2.1-2.6
			c0.5,0,1,0.1,1.4,0.3l0.7-2.1C108.3,87.4,107.7,87.3,107.2,87.3L107.2,87.3z M78.4,92.7c-0.1,2.9,2.1,5.3,5,5.4c0.2,0,0.3,0,0.5,0
			c1.3,0.1,2.7-0.4,3.7-1.2L86.5,95c-0.8,0.6-1.7,0.9-2.7,0.9c-1.8-0.1-3.2-1.7-3-3.6c0.1-1.6,1.4-2.9,3-3c1,0,1.9,0.3,2.7,0.9
			l1.1-1.8c-1-0.9-2.4-1.3-3.7-1.2c-2.9-0.2-5.3,2-5.5,4.9C78.4,92.3,78.4,92.5,78.4,92.7L78.4,92.7z M99.4,92.7v-5.1h-2.2v1.2
			c-0.8-1-2-1.6-3.2-1.5c-3,0-5.4,2.4-5.4,5.4c0,3,2.4,5.4,5.4,5.4c1.3,0,2.5-0.5,3.2-1.5v1.2h2.2V92.7z M91.1,92.7
			c0.1-1.7,1.6-3,3.3-2.9c1.7,0.1,3,1.6,2.9,3.3c-0.1,1.6-1.4,2.9-3.1,2.9c-1.7,0-3.1-1.3-3.1-3C91,92.9,91,92.8,91.1,92.7z
			 M64.1,87.3c-3,0-5.3,2.5-5.3,5.5c0,3,2.5,5.3,5.5,5.3l0,0c1.5,0.1,3.1-0.4,4.3-1.4L67.4,95c-0.8,0.7-1.9,1.1-3,1.1
			c-1.5,0.1-2.9-1-3.1-2.5H69c0-0.3,0-0.6,0-0.9C69,89.5,67,87.3,64.1,87.3L64.1,87.3z M64.1,89.3c1.4,0,2.6,1.1,2.6,2.5
			c0,0,0,0,0,0h-5.4C61.4,90.4,62.6,89.3,64.1,89.3L64.1,89.3z M120.1,92.7v-9.3h-2.1v5.4c-0.8-1-2-1.6-3.2-1.5
			c-3,0-5.4,2.4-5.4,5.4c0,3,2.4,5.4,5.4,5.4c1.3,0,2.5-0.5,3.2-1.5v1.2h2.1V92.7z M123.8,96.4c0.1,0,0.3,0,0.4,0.1
			c0.1,0.1,0.2,0.1,0.3,0.2c0.1,0.1,0.2,0.2,0.2,0.3c0.1,0.3,0.1,0.5,0,0.8c-0.1,0.1-0.1,0.2-0.2,0.3c-0.1,0.1-0.2,0.2-0.3,0.2
			c-0.1,0.1-0.3,0.1-0.4,0.1c-0.4,0-0.8-0.2-1-0.6c-0.1-0.3-0.1-0.5,0-0.8c0.1-0.1,0.1-0.2,0.2-0.3c0.1-0.1,0.2-0.2,0.3-0.2
			C123.6,96.4,123.7,96.4,123.8,96.4L123.8,96.4z M123.8,98.2c0.1,0,0.2,0,0.3-0.1c0.1,0,0.2-0.1,0.2-0.2c0.3-0.3,0.3-0.8,0-1.1
			c-0.1-0.1-0.2-0.1-0.2-0.2c-0.1,0-0.2-0.1-0.3-0.1c-0.1,0-0.2,0-0.3,0.1c-0.1,0-0.2,0.1-0.3,0.2c-0.3,0.3-0.3,0.8,0,1.1
			c0.1,0.1,0.2,0.1,0.3,0.2C123.6,98.2,123.7,98.2,123.8,98.2L123.8,98.2z M123.9,96.9c0.1,0,0.2,0,0.3,0.1c0.1,0.1,0.1,0.1,0.1,0.2
			c0,0.1,0,0.1-0.1,0.2c-0.1,0.1-0.1,0.1-0.2,0.1l0.3,0.4H124l-0.3-0.4h-0.1v0.4h-0.2v-0.9L123.9,96.9z M123.6,97.1v0.3h0.2
			c0,0,0.1,0,0.1,0c0,0,0-0.1,0-0.1c0,0,0-0.1,0-0.1c0,0-0.1,0-0.1,0L123.6,97.1z M111.8,92.7c0.1-1.7,1.6-3,3.3-2.9
			c1.7,0.1,3,1.6,2.9,3.3c-0.1,1.6-1.4,2.9-3.1,2.9c-1.7,0-3.1-1.3-3.1-3C111.8,92.9,111.8,92.8,111.8,92.7z M36.3,92.7v-5.1h-2.2
			v1.2c-0.8-1-2-1.6-3.2-1.5c-3,0-5.4,2.4-5.4,5.4c0,3,2.4,5.4,5.4,5.4c1.3,0,2.5-0.5,3.2-1.5v1.2h2.2L36.3,92.7z M28,92.7
			c0.1-1.7,1.6-3,3.3-2.9c1.7,0.1,3,1.6,2.9,3.3c-0.1,1.6-1.4,2.9-3.1,2.9c-1.7,0-3.1-1.3-3.1-3C28,92.9,28,92.8,28,92.7L28,92.7z"
			/>
		<g id="_Group_">
			<rect x="46.6" y="9.3" class="st1" width="33.9" height="60.9"/>
			<path id="_Path_" class="st2" d="M48.8,39.7c0-11.9,5.4-23.1,14.8-30.4C46.7-3.9,22.4-1,9.2,15.8s-10.3,41.1,6.5,54.3
				c14,11,33.8,11,47.8,0C54.2,62.8,48.8,51.6,48.8,39.7z"/>
			<path class="st3" d="M126.2,39.7c0,21.4-17.3,38.7-38.7,38.7c-8.7,0-17.1-2.9-23.9-8.3c16.8-13.2,19.7-37.5,6.5-54.3
				c-1.9-2.4-4.1-4.6-6.5-6.5C80.3-3.9,104.7-1,117.9,15.8C123.2,22.6,126.2,31,126.2,39.7L126.2,39.7z"/>
			<path class="st3" d="M122.5,63.7v-1.2h0.5v-0.3h-1.3v0.3h0.5v1.2L122.5,63.7z M124.9,63.7v-1.5h-0.4l-0.5,1.1l-0.5-1.1h-0.3v1.5
				h0.3v-1.1l0.4,1h0.3l0.4-1v1.1L124.9,63.7z"/>
		</g>
	</g>
</g>
</svg>
