<?xml version="1.0" encoding="utf-8"?>
<!-- Generator: Adobe Illustrator 23.0.1, SVG Export Plug-In . SVG Version: 6.00 Build 0)  -->
<svg version="1.1" id="Layer_1" xmlns="http://www.w3.org/2000/svg" xmlns:xlink="http://www.w3.org/1999/xlink" x="0px" y="0px"
	 viewBox="0 0 100 100" style="enable-background:new 0 0 100 100;" xml:space="preserve">
<style type="text/css">
	.st0{fill:#59029F;}
	.st1{fill:#F6F3FA;}
</style>
<path class="st0" d="M50,0.5c-8.8,0-17.4,1.2-25.5,3.5C16.3,6.3,8.3,9.6,0.9,13.7c-0.2,0.1-0.4,0.2-0.4,0.6v71.3
	c0,0.4,0.2,0.5,0.3,0.6c7.5,4.2,15.4,7.4,23.6,9.7c8.2,2.3,16.8,3.5,25.5,3.5c8.8,0,17.4-1.2,25.6-3.5s16.1-5.6,23.5-9.7
	c0.2-0.1,0.4-0.2,0.4-0.6l-0.1-71.5c-0.1-0.4-0.2-0.4-0.3-0.5c-7.3-4-15.3-7.3-23.4-9.6C67.4,1.7,58.8,0.5,50,0.5z"/>
<path class="st1" d="M63.9,69H43.4c1.2-1.3,1.9-3.5,1.9-6.3V52.5h12.2c0.7,0,1.2-0.4,1.2-1.2v-3c0-0.7-0.4-1.2-1.2-1.2H45.3v-7.6
	c0-4.5,2.8-7.2,7.4-7.2c3,0,6,1,8.3,2.8c0.4,0.3,0.7,0.4,0.9,0.3c0.2,0,0.5-0.2,0.7-0.5l1.8-2.4c0.5-0.7,0.2-1.2-0.2-1.6
	c-3-2.6-6.9-3.9-11.5-3.9c-7.7,0-12.9,5.1-12.9,12.5V47h-3.6c-0.7,0-1.2,0.4-1.2,1.2v3c0,0.7,0.4,1.2,1.2,1.2h3.6v10.2
	c0,3.8-1.2,6-3.6,6.3c-0.6,0-1.2,0.4-1.2,1.2v3.1c0,0.7,0.4,1.2,1.2,1.2h27.7c0.7,0,1.2-0.4,1.2-1.2v-3C65,69.5,64.5,69,63.9,69z"/>
</svg>
