<?xml version="1.0" encoding="utf-8"?>
<!-- Generator: Adobe Illustrator 22.1.0, SVG Export Plug-In . SVG Version: 6.00 Build 0)  -->
<svg version="1.1" id="Layer_1" xmlns="http://www.w3.org/2000/svg" xmlns:xlink="http://www.w3.org/1999/xlink" x="0px" y="0px"
	 viewBox="0 0 77.8 110.5" style="enable-background:new 0 0 77.8 110.5;" xml:space="preserve">
<style type="text/css">
	.st0{fill:#FFFFFF;}
</style>
<g>
	<path class="st0" d="M77,96.2v-2v-42V47c0-2.6-2.1-4.8-4.8-4.8l0,0l0,0h-5l0,0V28.6C67.2,13,54.5,0.4,39,0.4S10.8,13,10.8,28.6
		v13.6l0,0h-5C3.2,42.2,1,44.3,1,47v5.2v42.1v7.3l0,0v4.1c0,0.2,0,0.4,0.1,0.6c0.4,2.2,2.4,3.9,4.7,3.9h66.4c2.3,0,4.3-1.7,4.7-3.9
		c0.1-0.2,0.1-0.4,0.1-0.6V96.2L77,96.2z M30.5,70.1c0-4.7,3.8-8.5,8.5-8.5s8.5,3.8,8.5,8.5c0,3.3-1.9,6.2-4.8,7.6V88
		c0,2-1.7,3.7-3.7,3.7S35.3,90,35.3,88V77.7C32.5,76.3,30.5,73.4,30.5,70.1z M21,28.6c0-9.9,8.1-18,18-18s18,8.1,18,18v13.6H21l0,0
		V28.6z"/>
</g>
</svg>
