<?xml version="1.0" encoding="utf-8"?>
<!-- Generator: Adobe Illustrator 22.1.0, SVG Export Plug-In . SVG Version: 6.00 Build 0)  -->
<svg version="1.1" id="Layer_1" xmlns="http://www.w3.org/2000/svg" xmlns:xlink="http://www.w3.org/1999/xlink" x="0px" y="0px"
	 viewBox="0 0 100 100" style="enable-background:new 0 0 100 100;" xml:space="preserve">
<style type="text/css">
	.st0{fill:#59029F;}
	.st1{fill:#F6F3FA;}
</style>
<path class="st0" d="M50,0.5c-8.8,0-17.4,1.2-25.5,3.5C16.3,6.3,8.3,9.6,0.9,13.7c-0.2,0.1-0.4,0.2-0.4,0.6v71.3
	c0,0.4,0.2,0.5,0.3,0.6c7.5,4.2,15.4,7.4,23.6,9.7c8.2,2.3,16.8,3.5,25.5,3.5c8.8,0,17.4-1.2,25.6-3.5s16.1-5.6,23.5-9.7
	c0.2-0.1,0.4-0.2,0.4-0.6l-0.1-71.5c-0.1-0.4-0.2-0.4-0.3-0.5c-7.3-4-15.3-7.3-23.4-9.6C67.4,1.7,58.8,0.5,50,0.5z"/>
<g>
	<path class="st1" d="M49.7,29.2c1.2-1.1,2.8-1.7,4.4-1.7c1.1,0,2.2,0.3,3.2,0.8c2.4,1.4,3.6,4.1,3.2,6.6c1.7-0.1,3.3,0.2,4.9,0.7
		c0.7-4.6-1.4-9.3-5.7-11.7c-2.7-1.5-5.8-1.9-8.7-1.1c-1.8,0.5-3.5,1.5-4.8,2.7C47.6,26.6,48.8,27.9,49.7,29.2z"/>
	<path class="st1" d="M43.7,63H25.1v-1.5c0-5.4,4.4-9.7,9.7-9.7h6.4c2.4,0,4.6,0.9,6.3,2.3c-0.7-2-1-4.1-0.8-6.2
		c-0.9-0.3-1.8-0.6-2.7-0.8c1.6-1,3-2.4,3.9-4.1c1.5-2.7,1.9-5.8,1.1-8.7c-0.8-2.9-2.7-5.4-5.4-6.9c-2.7-1.5-5.8-1.9-8.7-1.1
		c-2.9,0.8-5.4,2.7-6.9,5.4c-1.5,2.7-1.9,5.8-1.1,8.7c0.8,2.8,2.6,5.2,5,6.7c-6.7,1.3-11.9,7.3-11.9,14.4v4c0,1.4,1.1,2.5,2.5,2.5
		h18.5C41.7,66.2,42.5,64.5,43.7,63z M31.8,39.1c-0.5-1.7-0.2-3.4,0.6-4.9c0.8-1.5,2.2-2.6,3.9-3c0.6-0.2,1.2-0.2,1.7-0.2
		c1.1,0,2.2,0.3,3.2,0.8c1.5,0.8,2.6,2.2,3,3.9c0.5,1.7,0.2,3.4-0.6,4.9c-0.8,1.5-2.2,2.6-3.9,3c-1.7,0.5-3.4,0.2-4.9-0.6
		C33.3,42.1,32.2,40.8,31.8,39.1z"/>
	<path class="st1" d="M67,59c1.6-1,3-2.4,3.9-4.1c1.5-2.7,1.9-5.8,1.1-8.7c-0.8-2.9-2.7-5.4-5.4-6.9c-2.7-1.5-5.8-1.9-8.7-1.1
		C55,39,52.5,41,51,43.6c-1.5,2.7-1.9,5.8-1.1,8.7c0.8,2.8,2.6,5.2,5,6.7c-6.7,1.3-11.9,7.3-11.9,14.4v4c0,1.4,1.1,2.5,2.5,2.5h30.8
		c1.4,0,2.5-1.1,2.5-2.5v-4C78.9,66.3,73.8,60.3,67,59z M55.4,46.1c1.2-2.1,3.4-3.3,5.6-3.3c1.1,0,2.2,0.3,3.2,0.8
		c1.5,0.8,2.6,2.2,3,3.9c0.5,1.7,0.2,3.4-0.6,4.9c-1.8,3.1-5.7,4.2-8.8,2.4C54.7,53.1,53.6,49.2,55.4,46.1z M73.9,74.9H48.1v-1.5
		c0-5.4,4.4-9.7,9.7-9.7h6.4c5.4,0,9.7,4.4,9.7,9.7V74.9z"/>
</g>
</svg>
