<?xml version="1.0" encoding="utf-8"?>
<!-- Generator: Adobe Illustrator 22.1.0, SVG Export Plug-In . SVG Version: 6.00 Build 0)  -->
<svg version="1.1" id="Layer_1" xmlns="http://www.w3.org/2000/svg" xmlns:xlink="http://www.w3.org/1999/xlink" x="0px" y="0px"
	 viewBox="0 0 100 100" style="enable-background:new 0 0 100 100;" xml:space="preserve">
<style type="text/css">
	.st0{fill:#F6F3FA;}
	.st1{fill:#59029F;}
</style>
<path class="st0" d="M50,0.5c-8.8,0-17.4,1.2-25.5,3.5C16.3,6.3,8.3,9.6,0.9,13.7c-0.2,0.1-0.4,0.2-0.4,0.6v71.3
	c0,0.4,0.2,0.5,0.3,0.6c7.5,4.2,15.4,7.4,23.6,9.7c8.2,2.3,16.8,3.5,25.5,3.5c8.8,0,17.4-1.2,25.6-3.5s16.1-5.6,23.5-9.7
	c0.2-0.1,0.4-0.2,0.4-0.6l-0.1-71.5c-0.1-0.4-0.2-0.4-0.3-0.5c-7.3-4-15.3-7.3-23.4-9.6C67.4,1.7,58.8,0.5,50,0.5z"/>
<g>
	<path class="st1" d="M85.3,41.6c-1.8-2.5-5.7-3.1-8.6-2.4c-3.8,0.9-5.8,3.8-7.4,6.7l-4.4,2.3c-0.9-0.7-2.4-1.4-4.6-1.4h-8.9
		c-0.1-0.1-0.5-0.3-1-0.8c-1.4-1-3-2.3-4.9-2.3h-7.6c-2.8,0-5.9,1.9-7.9,3.8c-1.4,1.3-3.2,3.1-4.4,4.3l-1-1c-1-1-2.8-1-3.9,0
		L15,56.5c-0.6,0.6-0.8,1.3-0.8,1.9c0,0.7,0.3,1.5,0.8,1.9l16.4,16.4c0.6,0.6,1.3,0.8,1.9,0.8s1.5-0.3,1.9-0.8l5.7-5.7
		c0.6-0.6,0.8-1.3,0.8-1.9c0-0.2,0-0.5-0.1-0.7h21.7c0.9,0,2,0,8-5.5c2.7-2.5,5.5-5.3,6.1-6c1.3-1.4,6.6-9.3,8.1-13
		C86,43.2,85.8,42.3,85.3,41.6z M37.8,48.5h7.6c0.3,0,1.6,0.9,2,1.3c1.1,0.9,2.3,1.8,3.6,1.8h9.2c0.9,0,1.7,0.2,1.9,0.7
		c0,0.1,0.1,0.1,0.1,0.1c0.1,0.2,0.1,0.3,0.1,0.6c0,0.3-0.1,0.7-0.3,0.9c-0.3,0.3-1,0.6-1.8,0.6H46c-1.4,0-2.4,1-2.4,2.4
		c0,1.4,1,2.4,2.4,2.4h14.3c4.6,0,7.1-3.2,7.1-6.3c0-0.2,0-0.5,0-0.7l4.9-2.5c0.5-0.2,0.8-0.6,1-1c1.7-3.2,2.8-4.4,4.6-4.9
		c1-0.2,1.9-0.1,2.5,0c-1.9,3.6-5.6,9-6.4,9.8c-2,2.3-9.1,9.1-10.8,9.9H40.9c-1,0-2,0.2-2.8,0.7L29,55.1c1.4-1.3,3.1-3,4.4-4.2
		C34.9,49.5,36.8,48.5,37.8,48.5z M36,69.1l-2.6,2.6L19.8,58.3l2.7-2.7l0.8,0.8c0.1,0.2,0.2,0.3,0.3,0.5L36,69.1z"/>
	<path class="st1" d="M57.6,40c4.9,0,8.8-4,8.8-8.8c0-4.9-4-8.8-8.8-8.8c-4.9,0-8.8,4-8.8,8.8C48.8,36.1,52.7,40,57.6,40z
		 M53.6,31.2c0-2.2,1.8-4,4-4s4,1.8,4,4s-1.8,4-4,4S53.6,33.4,53.6,31.2z"/>
</g>
</svg>
