<?xml version="1.0" encoding="utf-8"?>
<!-- Generator: Adobe Illustrator 22.1.0, SVG Export Plug-In . SVG Version: 6.00 Build 0)  -->
<svg version="1.1" id="Layer_1" xmlns="http://www.w3.org/2000/svg" xmlns:xlink="http://www.w3.org/1999/xlink" x="0px" y="0px"
	 viewBox="0 0 100 100" style="enable-background:new 0 0 100 100;" xml:space="preserve">
<style type="text/css">
	.st0{fill:#59029F;}
	.st1{fill:#FFFFFF;}
</style>
<path class="st0" d="M50,0.5c-8.8,0-17.4,1.2-25.5,3.5C16.3,6.3,8.3,9.6,0.9,13.7c-0.2,0.1-0.4,0.2-0.4,0.6v71.3
	c0,0.4,0.2,0.5,0.3,0.6c7.5,4.2,15.4,7.4,23.6,9.7c8.2,2.3,16.8,3.5,25.5,3.5c8.8,0,17.4-1.2,25.6-3.5s16.1-5.6,23.5-9.7
	c0.2-0.1,0.4-0.2,0.4-0.6l-0.1-71.5c-0.1-0.4-0.2-0.4-0.3-0.5c-7.3-4-15.3-7.3-23.4-9.6C67.4,1.7,58.8,0.5,50,0.5z"/>
<path class="st1" d="M70.2,45.8h-16V29.3c0-0.8-0.6-1.3-1.4-1.3H47c-0.8,0-1.4,0.6-1.4,1.3v16.6h-16c-0.8,0-1.4,0.6-1.4,1.4V53
	c0,0.8,0.6,1.4,1.4,1.4h16v16c0,0.8,0.6,1.3,1.4,1.3h5.8c0.8,0,1.4-0.6,1.4-1.3v-16h16c0.8,0,1.4-0.6,1.4-1.4v-5.8
	C71.6,46.4,70.9,45.8,70.2,45.8z"/>
</svg>
