<?xml version="1.0" encoding="utf-8"?>
<!-- Generator: Adobe Illustrator 23.0.1, SVG Export Plug-In . SVG Version: 6.00 Build 0)  -->
<svg version="1.1" id="Layer_1" xmlns="http://www.w3.org/2000/svg" xmlns:xlink="http://www.w3.org/1999/xlink" x="0px" y="0px"
	 viewBox="0 0 77.8 100" style="enable-background:new 0 0 77.8 100;" xml:space="preserve">
<style type="text/css">
	.st0{fill:#340458;}
</style>
<g>
	<path class="st0" d="M39,11.5c-20.5,0-37.3,16.3-38.1,36.7c0,0.1,0,0.3,0,0.4l0,2c0,0.1,0,0.2,0,0.3c0.6,20.5,17.5,37,38.1,37
		c21,0,38.2-17.1,38.2-38.2C77.2,28.6,60.1,11.5,39,11.5z M42.7,81.1v-8.9c0-1.4-1.2-2.6-2.6-2.6l-2,0c-1.4,0-2.6,1.2-2.6,2.6v8.9
		c-14.7-1.6-26.4-13.3-28-28h8.5c1.4,0,2.6-1.2,2.6-2.6l0-2c0-1.4-1.2-2.6-2.6-2.6H7.6c1.7-14.6,13.3-26.1,27.9-27.7l0,8.7
		c0,1.4,1.2,2.6,2.6,2.6h2c1.4,0,2.6-1.2,2.6-2.6l0-8.6c14.5,1.7,26,13.2,27.7,27.7h-8.7c-1.4,0-2.6,1.2-2.6,2.6v2
		c0,1.4,1.2,2.6,2.6,2.6h8.7C68.9,67.7,57.3,79.4,42.7,81.1z"/>
	
		<ellipse transform="matrix(4.589817e-02 -0.9989 0.9989 4.589817e-02 -12.3593 86.3296)" class="st0" cx="39" cy="49.6" rx="4.8" ry="4.8"/>
</g>
</svg>
