<?xml version="1.0" encoding="utf-8"?>
<!-- Generator: Adobe Illustrator 22.1.0, SVG Export Plug-In . SVG Version: 6.00 Build 0)  -->
<svg version="1.1" id="Layer_1" xmlns="http://www.w3.org/2000/svg" xmlns:xlink="http://www.w3.org/1999/xlink" x="0px" y="0px"
	 viewBox="0 0 100 100" style="enable-background:new 0 0 100 100;" xml:space="preserve">
<style type="text/css">
	.st0{fill:#340458;}
</style>
<path class="st0" d="M99,19.1c-3.4,1.8-7.4,2.5-11.6,3.1c4.2-2.3,7.2-6.5,9-11c-3.8,2.2-8.1,4-12.8,5.1c-3.8-4-9.2-6.5-15-6.5
	c-11,0-20,9.2-20,20c0,1.8,0.2,3.1,0.5,4.7c-16.8-1.1-32-9-41.7-21.1c-2,2.9-2.5,6.5-2.5,10.3c0,6.9,3.4,13.2,9,16.8
	c-3.4,0-6.5-1.1-9.4-2.3v0.4c0,10.1,6.9,18.1,16.3,19.9c-1.8,0.5-3.4,0.9-5.6,0.9c-1.4,0-2.3-0.2-3.6-0.4c2.3,7.9,10.1,14.1,19,14.3
	c-6.7,5.6-15.5,8.7-25.1,8.7c-1.8,0-3.3-0.2-4.9-0.4c9,5.8,19.7,9.2,31.2,9.2C69,90.5,89.4,59.6,89.4,32.9c0-1.1,0-2,0-2.5
	C92.8,26.5,96.2,23.1,99,19.1"/>
</svg>
