<?xml version="1.0" encoding="utf-8"?>
<!-- Generator: Adobe Illustrator 22.1.0, SVG Export Plug-In . SVG Version: 6.00 Build 0)  -->
<svg version="1.1" id="Layer_1" xmlns="http://www.w3.org/2000/svg" xmlns:xlink="http://www.w3.org/1999/xlink" x="0px" y="0px"
	 viewBox="0 0 321.8 100" style="enable-background:new 0 0 321.8 100;" xml:space="preserve">
<style type="text/css">
	.st0{fill:url(#SVGID_1_);}
	.st1{fill:url(#SVGID_2_);}
	.st2{fill:url(#SVGID_3_);}
	.st3{fill:url(#SVGID_4_);}
</style>
<g>
	<linearGradient id="SVGID_1_" gradientUnits="userSpaceOnUse" x1="1.25" y1="49.5035" x2="320.6413" y2="49.5035">
		<stop  offset="0" style="stop-color:#1B1C5D"/>
		<stop  offset="1" style="stop-color:#0E2C9A"/>
	</linearGradient>
	<polygon class="st0" points="113.5,96.9 139.3,96.9 155.5,2.1 129.6,2.1 	"/>
	<linearGradient id="SVGID_2_" gradientUnits="userSpaceOnUse" x1="1.25" y1="49.3829" x2="320.6413" y2="49.3829">
		<stop  offset="0" style="stop-color:#1B1C5D"/>
		<stop  offset="1" style="stop-color:#0E2C9A"/>
	</linearGradient>
	<path class="st1" d="M207.6,40.2c-9-4.4-14.6-7.3-14.5-11.8c0-3.9,4.7-8.2,14.8-8.2c8.5-0.1,14.6,1.7,19.3,3.6l2.3,1.1L233,4.4
		c-5.1-1.9-13.1-4-23.2-4c-25.5,0-43.5,12.9-43.7,31.3C166.1,45.4,179,53,188.8,57.5c10.1,4.6,13.4,7.6,13.4,11.8
		c-0.1,6.4-8,9.3-15.5,9.3c-10.3,0-15.8-1.4-24.3-5l-3.3-1.5l-3.6,21.2c6,2.6,17.2,4.9,28.8,5.1c27.2,0,44.8-12.7,45-32.4
		C229.4,55.1,222.5,46.9,207.6,40.2z"/>
	<linearGradient id="SVGID_3_" gradientUnits="userSpaceOnUse" x1="1.25" y1="49.5638" x2="320.6413" y2="49.5638">
		<stop  offset="0" style="stop-color:#1B1C5D"/>
		<stop  offset="1" style="stop-color:#0E2C9A"/>
	</linearGradient>
	<path class="st2" d="M299.3,2.2h-20c-6.2,0-10.8,1.7-13.5,7.9l-38.4,86.9h27.1c0,0,4.4-11.7,5.4-14.3c3,0,29.3,0,33.1,0
		c0.8,3.3,3.1,14.2,3.1,14.2h24L299.3,2.2z M267.5,63.3c2.1-5.5,10.3-26.5,10.3-26.5c-0.2,0.3,2.1-5.5,3.4-9.1l1.7,8.2
		c0,0,4.9,22.6,6,27.4H267.5z"/>
	<linearGradient id="SVGID_4_" gradientUnits="userSpaceOnUse" x1="1.25" y1="49.468" x2="320.6413" y2="49.468">
		<stop  offset="0" style="stop-color:#1B1C5D"/>
		<stop  offset="1" style="stop-color:#0E2C9A"/>
	</linearGradient>
	<path class="st3" d="M91.8,2.2L66.5,66.8l-2.7-13.1l-9.1-43.6c-1.6-6-6.1-7.8-11.7-8H1.3L1,4.1c10.1,2.5,19.2,6,27.2,10.4l23,82.4
		l27.3,0l40.7-94.6H91.8z"/>
</g>
</svg>
