<?xml version="1.0" encoding="utf-8"?>
<!-- Generator: Adobe Illustrator 22.1.0, SVG Export Plug-In . SVG Version: 6.00 Build 0)  -->
<svg version="1.1" id="Layer_1" xmlns="http://www.w3.org/2000/svg" xmlns:xlink="http://www.w3.org/1999/xlink" x="0px" y="0px"
	 viewBox="0 0 100 100" style="enable-background:new 0 0 100 100;" xml:space="preserve">
<style type="text/css">
	.st0{fill:#FED636;}
	.st1{fill:#340458;}
</style>
<path class="st0" d="M50,0.5c-8.8,0-17.4,1.2-25.5,3.5C16.3,6.3,8.3,9.6,0.9,13.7c-0.2,0.1-0.4,0.2-0.4,0.6v71.3
	c0,0.4,0.2,0.5,0.3,0.6c7.5,4.2,15.4,7.4,23.6,9.7c8.2,2.3,16.8,3.5,25.5,3.5c8.8,0,17.4-1.2,25.6-3.5s16.1-5.6,23.5-9.7
	c0.2-0.1,0.4-0.2,0.4-0.6l-0.1-71.5c-0.1-0.4-0.2-0.4-0.3-0.5c-7.3-4-15.3-7.3-23.4-9.6C67.4,1.7,58.8,0.5,50,0.5z"/>
<g>
	<path class="st1" d="M48.1,59.5h3.5c1.8,0,3.2-1.4,3.2-3.1l1.5-31.3c0-1.1-0.3-1.8-0.9-2.4c-0.6-0.6-1.4-0.9-2.4-0.9h-6.6
		c-0.9,0-1.8,0.4-2.4,0.9c-0.6,0.6-0.9,1.5-0.9,2.4l1.5,31.4C45,58.3,46.4,59.5,48.1,59.5z"/>
	<path class="st1" d="M49.8,62.9c-4.3,0-7.3,3-7.3,7.3c0,4.2,3,7.3,7.3,7.3c4.2,0,7.2-3,7.2-7.3S54,62.9,49.8,62.9z"/>
</g>
</svg>
