<?xml version="1.0" encoding="utf-8"?>
<!-- Generator: Adobe Illustrator 22.1.0, SVG Export Plug-In . SVG Version: 6.00 Build 0)  -->
<svg version="1.1" id="Layer_1" xmlns="http://www.w3.org/2000/svg" xmlns:xlink="http://www.w3.org/1999/xlink" x="0px" y="0px"
	 viewBox="0 0 100.5 100" style="enable-background:new 0 0 100.5 100;" xml:space="preserve">
<style type="text/css">
	.st0{fill:#016FD0;}
	.st1{fill:#FFFFFF;}
</style>
<path class="st0" d="M99.2,0.6H0.7v98.8h98.5V66.8c0.4-0.6,0.6-1.3,0.6-2.2c0-1-0.2-1.6-0.6-2.2"/>
<g>
	<polygon class="st1" points="73.4,38.7 71.5,43.4 75.3,43.4 	"/>
	<polygon class="st1" points="5.8,43.4 9.6,43.4 7.7,38.7 	"/>
	<path class="st1" d="M51.3,41.5c0.4-0.2,0.6-0.6,0.6-1.1c0-0.5-0.2-0.9-0.6-1c-0.3-0.2-0.8-0.2-1.3-0.2h-3.4v2.6h3.4
		C50.5,41.8,50.9,41.7,51.3,41.5z"/>
	<path class="st1" d="M25.7,48.6v2h23.1l0-4.2h0.4c0.3,0,0.4,0,0.4,0.6v3.7h12v-1c1,0.5,2.5,1,4.4,1h5l1.1-2.6h2.4l1.1,2.6h9.7v-2.4
		l1.5,2.4h7.8V34.5h-7.7v1.9l-1.1-1.9h-7.9v1.9l-1-1.9H66.3c-1.8,0-3.4,0.2-4.6,0.9v-0.9h-7.4v0.9c-0.8-0.7-1.9-0.9-3.1-0.9H24.3
		l-1.8,4.2l-1.9-4.2h-8.5v1.9l-0.9-1.9H4l-3.4,7.7v8.5h0h4.7l1.1-2.6h2.4l1.1,2.6h9.3v-2l0.8,2h4.8L25.7,48.6z M62.2,38.1
		c0.9-0.9,2.3-1.4,4.2-1.4h2.7v2.5h-2.6c-1,0-1.6,0.2-2.1,0.7c-0.5,0.5-0.8,1.4-0.8,2.6c0,1.2,0.2,2.1,0.8,2.7
		c0.4,0.5,1.2,0.6,1.9,0.6h1.2l3.9-9.1h4.1l4.7,11v-11h4.2l4.9,8.1v-8.1h2.8v11.6h-3.9l-5.2-8.7v8.7h-5.6l-1.1-2.6h-5.7l-1,2.6h-3.2
		c-1.3,0-3-0.3-4-1.3c-1-1-1.5-2.3-1.5-4.4C60.7,40.9,61,39.4,62.2,38.1z M56.5,36.8h2.8v11.6h-2.8V36.8z M43.8,36.8h6.4
		c1.4,0,2.5,0,3.4,0.6c0.9,0.5,1.4,1.3,1.4,2.6c0,1.8-1.2,2.8-2,3.1c0.6,0.2,1.1,0.6,1.4,1c0.4,0.6,0.5,1.1,0.5,2.1v2.3H52l0-1.5
		c0-0.7,0.1-1.7-0.4-2.3c-0.4-0.4-1-0.5-2-0.5h-3v4.2h-2.8V36.8z M32.6,36.8h9.2v2.4h-6.5v2.1h6.3v2.4h-6.3V46h6.5v2.4h-9.2V36.8z
		 M21.3,48.3l-4-9.1v9.1h-5.6l-1.1-2.6H4.8l-1.1,2.6h-3l5-11.6h4.1l4.7,11v-11H19l3.6,7.9l3.3-7.9h4.6v11.6h-2.8l0-9.1l-4,9.1H21.3z
		"/>
	<path class="st1" d="M63.1,59.3c-0.3-0.2-0.8-0.2-1.3-0.2h-3.4v2.6h3.4c0.5,0,1,0,1.4-0.2c0.4-0.2,0.6-0.6,0.6-1.1
		C63.7,59.9,63.5,59.5,63.1,59.3z"/>
	<path class="st1" d="M94.1,59.2c-0.5,0-0.8,0-1.1,0.2c-0.3,0.2-0.4,0.5-0.4,0.8c0,0.4,0.2,0.7,0.6,0.9c0.3,0.1,0.6,0.1,1.1,0.1
		l1.5,0c1.5,0,2.5,0.3,3.1,0.9c0.1,0.1,0.2,0.2,0.3,0.3v-3.3H94.1z"/>
	<polygon class="st1" points="43.3,67.2 43.3,57.9 39.1,62.5 	"/>
	<path class="st1" d="M95.4,68.3h-5.3v-2.5h5.3c0.5,0,0.9-0.1,1.1-0.3c0.2-0.2,0.3-0.4,0.3-0.8c0-0.3-0.1-0.6-0.3-0.8
		c-0.2-0.2-0.5-0.3-1-0.3c-2.6-0.1-5.8,0.1-5.8-3.6c0-1.7,1.1-3.4,4-3.4h5.5v-2.3H94c-1.5,0-2.7,0.4-3.5,0.9v-0.9H83
		c-1.2,0-2.6,0.3-3.3,0.9v-0.9H66.2v0.9c-1.1-0.8-2.9-0.9-3.7-0.9h-8.9v0.9c-0.9-0.8-2.7-0.9-3.9-0.9h-10l-2.3,2.5l-2.1-2.5H20.3
		v16.2h14.6l2.4-2.5l2.2,2.5l9,0v-3.8h0.9c1.2,0,2.6,0,3.9-0.6v4.4h7.4v-4.2h0.4c0.5,0,0.5,0,0.5,0.5v3.7h22.6c1.4,0,2.9-0.4,3.8-1
		v1h7.2c1.5,0,2.9-0.2,4.1-0.7v-3C98.5,67.8,97.2,68.3,95.4,68.3z M49.5,64.4h-3.5v3.9h-5.4l-3.4-3.8l-3.5,3.8h-11V56.7h11.1
		l3.4,3.8l3.5-3.8h8.8c2.2,0,4.7,0.6,4.7,3.8C54.3,63.7,51.9,64.4,49.5,64.4z M66.2,63.9c0.4,0.6,0.4,1.1,0.5,2.1v2.3h-2.8v-1.4
		c0-0.7,0.1-1.7-0.4-2.3c-0.4-0.4-1-0.5-2-0.5h-3v4.2h-2.8V56.7H62c1.4,0,2.4,0.1,3.3,0.5c0.9,0.5,1.4,1.3,1.4,2.6
		c0,1.8-1.2,2.8-2,3.1C65.4,63.1,65.9,63.5,66.2,63.9z M77.6,59.1h-6.5v2.1h6.3v2.4h-6.3v2.3l6.5,0v2.4h-9.2V56.7h9.2V59.1z
		 M84.6,68.3h-5.4v-2.5h5.4c0.5,0,0.9-0.1,1.1-0.3c0.2-0.2,0.3-0.4,0.3-0.8c0-0.3-0.1-0.6-0.3-0.8c-0.2-0.2-0.5-0.3-1-0.3
		c-2.6-0.1-5.8,0.1-5.8-3.6c0-1.7,1.1-3.4,4-3.4h5.5v2.5h-5.1c-0.5,0-0.8,0-1.1,0.2c-0.3,0.2-0.4,0.5-0.4,0.8c0,0.4,0.3,0.7,0.6,0.9
		c0.3,0.1,0.6,0.1,1.1,0.1l1.5,0c1.5,0,2.5,0.3,3.2,0.9c0.5,0.6,0.8,1.3,0.8,2.5C88.9,67.1,87.4,68.3,84.6,68.3z"/>
	<path class="st1" d="M49.7,59.1h-3.6V62h3.6c1.1,0,1.7-0.5,1.7-1.5C51.4,59.5,50.7,59.1,49.7,59.1z"/>
	<polygon class="st1" points="25.5,59.1 25.5,61.2 31.6,61.2 31.6,63.6 25.5,63.6 25.5,65.9 32.3,65.9 35.5,62.5 32.5,59.1 	"/>
</g>
</svg>
