<?xml version="1.0" encoding="utf-8"?>
<!-- Generator: Adobe Illustrator 22.1.0, SVG Export Plug-In . SVG Version: 6.00 Build 0)  -->
<svg version="1.1" id="Layer_1" xmlns="http://www.w3.org/2000/svg" xmlns:xlink="http://www.w3.org/1999/xlink" x="0px" y="0px"
	 viewBox="0 0 100 100" style="enable-background:new 0 0 100 100;" xml:space="preserve">
<style type="text/css">
	.st0{fill:#59029F;}
	.st1{fill:#F6F3FA;}
</style>
<path class="st0" d="M50,0.5c-8.8,0-17.4,1.2-25.5,3.5C16.3,6.3,8.3,9.6,0.9,13.7c-0.2,0.1-0.4,0.2-0.4,0.6v71.3
	c0,0.4,0.2,0.5,0.3,0.6c7.5,4.2,15.4,7.4,23.6,9.7c8.2,2.3,16.8,3.5,25.5,3.5c8.8,0,17.4-1.2,25.6-3.5s16.1-5.6,23.5-9.7
	c0.2-0.1,0.4-0.2,0.4-0.6l-0.1-71.5c-0.1-0.4-0.2-0.4-0.3-0.5c-7.3-4-15.3-7.3-23.4-9.6C67.4,1.7,58.8,0.5,50,0.5z"/>
<g>
	<path class="st1" d="M50,22.1c-15.3,0-27.8,12.5-27.8,27.8S34.7,77.7,50,77.7s27.8-12.5,27.8-27.8S65.3,22.1,50,22.1L50,22.1z
		 M50,71.8C38,71.8,28.2,62,28.2,50S38,28.2,50,28.2S71.8,38,71.8,50C71.7,62,62,71.8,50,71.8L50,71.8z"/>
	<path class="st1" d="M52.4,50V38.3c0-1.4-1-2.4-2.4-2.4s-2.4,1-2.4,2.4v12.4v0.1c0,0.6,0.2,1.3,0.7,1.8l8.8,8.8
		c0.9,0.9,2.4,0.9,3.3,0c0.9-0.9,0.9-2.4,0-3.3L52.4,50z"/>
</g>
</svg>
