<?xml version="1.0" encoding="utf-8"?>
<!-- Generator: Adobe Illustrator 22.1.0, SVG Export Plug-In . SVG Version: 6.00 Build 0)  -->
<svg version="1.1" id="Layer_1" xmlns="http://www.w3.org/2000/svg" xmlns:xlink="http://www.w3.org/1999/xlink" x="0px" y="0px"
	 viewBox="0 0 14 18" style="enable-background:new 0 0 14 18;" xml:space="preserve">
<style type="text/css">
	.st0{fill:#340458;}
</style>
<g>
	<path class="st0" d="M7,1.9C3.2,1.9,0.1,5,0.1,8.8c0,3.8,3.1,6.9,6.9,6.9c3.8,0,6.9-3.1,6.9-6.9C13.9,5,10.8,1.9,7,1.9L7,1.9z
		 M7,14.2c-3,0-5.4-2.4-5.4-5.4c0-3,2.4-5.4,5.4-5.4c3,0,5.4,2.4,5.4,5.4C12.4,11.8,10,14.2,7,14.2L7,14.2z M7,14.2"/>
	<path class="st0" d="M7.6,8.8V5.9c0-0.3-0.3-0.6-0.6-0.6S6.4,5.6,6.4,5.9V9c0,0,0,0,0,0c0,0.2,0,0.3,0.2,0.4l2.2,2.2
		c0.2,0.2,0.6,0.2,0.8,0c0.2-0.2,0.2-0.6,0-0.8L7.6,8.8z M7.6,8.8"/>
</g>
</svg>
