<?xml version="1.0" encoding="utf-8"?>
<!-- Generator: Adobe Illustrator 22.1.0, SVG Export Plug-In . SVG Version: 6.00 Build 0)  -->
<svg version="1.1" id="Layer_1" xmlns="http://www.w3.org/2000/svg" xmlns:xlink="http://www.w3.org/1999/xlink" x="0px" y="0px"
	 viewBox="0 0 100 100" style="enable-background:new 0 0 100 100;" xml:space="preserve">
<style type="text/css">
	.st0{fill:#59029F;}
	.st1{fill:none;stroke:#F6F3FA;stroke-width:10;stroke-linecap:round;stroke-linejoin:round;stroke-miterlimit:10;}
	.st2{fill:#F6F3FA;}
</style>
<path class="st0" d="M50,0.5c-8.8,0-17.4,1.2-25.5,3.5C16.3,6.3,8.3,9.6,0.9,13.7c-0.2,0.1-0.4,0.2-0.4,0.6v71.3
	c0,0.4,0.2,0.5,0.3,0.6c7.5,4.2,15.4,7.4,23.6,9.7c8.2,2.3,16.8,3.5,25.5,3.5c8.8,0,17.4-1.2,25.6-3.5s16.1-5.6,23.5-9.7
	c0.2-0.1,0.4-0.2,0.4-0.6l-0.1-71.5c-0.1-0.4-0.2-0.4-0.3-0.5c-7.3-4-15.3-7.3-23.4-9.6C67.4,1.7,58.8,0.5,50,0.5z"/>
<g>
	<g>
		<path class="st1" d="M32,37.1"/>
	</g>
</g>
<g>
	<g>
		<path class="st1" d="M50.1,38.6"/>
	</g>
</g>
<path class="st2" d="M32.2,70.3l4.1-4.1l0.1-0.2l-0.1-0.2c-0.1-0.3-0.2-0.7-0.4-1c-0.2-0.3-0.4-0.6-0.7-0.9
	c-0.3-0.3-0.6-0.5-0.9-0.7c-0.3-0.2-0.7-0.3-1-0.4l-0.3-0.1l-4.2,4.2l-4-4.1l-0.2-0.2l-0.3,0.1c-0.3,0.1-0.7,0.2-1,0.4
	c-0.3,0.2-0.6,0.4-0.9,0.7c-0.3,0.3-0.5,0.6-0.7,0.9c-0.2,0.3-0.3,0.6-0.4,1L21.3,66l4.2,4.2l-4,4l-0.2,0.2l0.1,0.3
	c0.1,0.3,0.2,0.7,0.4,1c0.2,0.3,0.4,0.6,0.7,0.9c0.3,0.3,0.6,0.5,0.9,0.7c0.3,0.2,0.7,0.3,1,0.4l0.3,0.1l4.2-4.2l4.1,4.1l0.2,0.1
	l0.2-0.1c0.3-0.1,0.7-0.2,1-0.4c0.3-0.2,0.6-0.4,0.9-0.7c0.3-0.3,0.5-0.6,0.7-0.9c0.2-0.3,0.3-0.7,0.4-1l0.1-0.3L32.2,70.3z"/>
<g>
	<path class="st2" d="M56.7,67.8c-0.1-0.2-0.2-0.3-0.4-0.4c-0.2-0.1-0.4-0.1-0.5,0c-0.6,0.3-1.2,0.5-1.9,0.7c-0.2,0-0.3,0.2-0.4,0.3
		c-0.1,0.2-0.1,0.3-0.1,0.5l0.5,1.8c0.1,0.2,0.2,0.3,0.3,0.4c0.1,0.1,0.2,0.1,0.3,0.1c0.1,0,0.1,0,0.2,0c0.8-0.2,1.6-0.5,2.4-0.9
		c0.3-0.2,0.5-0.6,0.3-0.9L56.7,67.8z"/>
	<path class="st2" d="M51.7,68.8c-0.1-0.1-0.3-0.2-0.5-0.2c-0.3,0-0.5,0-0.8,0h-1.4c-0.4,0-0.7,0.3-0.7,0.7v1.9
		c0,0.4,0.3,0.7,0.7,0.7h1.4c0.3,0,0.7,0,1,0c0.2,0,0.4-0.1,0.5-0.2s0.2-0.3,0.2-0.5L52,69.2C52,69.1,51.9,68.9,51.7,68.8z"/>
	<path class="st2" d="M46,68.6h-2.3c-0.4,0-0.7,0.3-0.7,0.7v1.9c0,0.4,0.3,0.7,0.7,0.7H46c0.4,0,0.7-0.3,0.7-0.7v-1.9
		C46.7,68.9,46.4,68.6,46,68.6z"/>
	<path class="st2" d="M40.7,68.6h-1.9c-0.4,0-0.7,0.3-0.7,0.7v1.9c0,0.4,0.3,0.7,0.7,0.7h1.9c0.4,0,0.7-0.3,0.7-0.7v-1.9
		C41.4,68.9,41.1,68.6,40.7,68.6z"/>
	<path class="st2" d="M65.5,55.5h-1.9c-0.4,0-0.7,0.3-0.7,0.7c0,0.7-0.1,1.3-0.2,2c-0.1,0.4,0.2,0.7,0.6,0.8l1.9,0.3
		c0,0,0.1,0,0.1,0c0.3,0,0.6-0.2,0.7-0.6c0.1-0.8,0.2-1.7,0.2-2.5C66.2,55.8,65.9,55.5,65.5,55.5z"/>
	<path class="st2" d="M64.7,61.1l-1.8-0.7c-0.2-0.1-0.4-0.1-0.5,0s-0.3,0.2-0.4,0.4c-0.2,0.6-0.5,1.2-0.9,1.8
		c-0.1,0.2-0.1,0.3-0.1,0.5c0,0.2,0.2,0.3,0.3,0.4l1.6,1c0.1,0.1,0.2,0.1,0.4,0.1c0.1,0,0.1,0,0.2,0c0.2,0,0.3-0.2,0.4-0.3
		c0.4-0.7,0.8-1.5,1.1-2.3C65.2,61.6,65,61.2,64.7,61.1z"/>
	<path class="st2" d="M60.5,64.7c-0.3-0.3-0.7-0.2-1,0c-0.5,0.5-1,0.9-1.5,1.3c-0.3,0.2-0.4,0.7-0.1,1l1.2,1.5
		c0.1,0.1,0.3,0.2,0.5,0.3c0,0,0.1,0,0.1,0c0.2,0,0.3-0.1,0.4-0.1c0.7-0.5,1.3-1.1,1.9-1.7c0.1-0.1,0.2-0.3,0.2-0.5
		c0-0.2-0.1-0.4-0.2-0.5L60.5,64.7z"/>
</g>
<g>
	<path class="st2" d="M65.5,20.8c-6.4,0-11.6,5.2-11.6,11.6c0,1.4,0.3,2.8,0.8,4.2c0.1,0.4,0.3,0.7,0.5,1.1l7.4,13.9l0,0.1L63,52
		c0.3,0.2,0.7,0.3,1.1,0.4c0.2,0,0.3,0.1,0.5,0.1l0,0.1h1l0.4,0l0.4-0.1l0,0c0.2,0,0.3-0.1,0.5-0.1c0.4-0.1,0.7-0.3,1.1-0.4l0.4-0.2
		l7.4-13.9l0.1-0.1c0.2-0.4,0.4-0.7,0.5-1.1c0.5-1.3,0.8-2.7,0.8-4.2C77.1,26,71.9,20.8,65.5,20.8z M73.8,32.5c0,1-0.2,2-0.5,3
		c-0.1,0.3-0.2,0.6-0.4,0.8l-6.9,13c-0.1,0-0.1,0-0.2,0l-0.3,0l-0.2,0c-0.1,0-0.2,0-0.3,0l-6.9-13c-0.1-0.3-0.3-0.5-0.4-0.8
		c-0.4-0.9-0.5-1.9-0.5-3c0-4.6,3.7-8.3,8.3-8.3S73.8,27.9,73.8,32.5z"/>
	<path class="st2" d="M65.5,27.2c-3.1,0-5.7,2.5-5.7,5.7c0,3.1,2.5,5.7,5.7,5.7c3.1,0,5.7-2.5,5.7-5.7
		C71.1,29.7,68.6,27.2,65.5,27.2z M68.3,32.8c0,1.6-1.3,2.8-2.8,2.8c-1.6,0-2.8-1.3-2.8-2.8c0-1.6,1.3-2.8,2.8-2.8
		C67,30,68.3,31.3,68.3,32.8z"/>
</g>
</svg>
