<?xml version="1.0" encoding="utf-8"?>
<!-- Generator: Adobe Illustrator 22.1.0, SVG Export Plug-In . SVG Version: 6.00 Build 0)  -->
<svg version="1.1" id="Layer_1" xmlns="http://www.w3.org/2000/svg" xmlns:xlink="http://www.w3.org/1999/xlink" x="0px" y="0px"
	 viewBox="0 0 100 100" style="enable-background:new 0 0 100 100;" xml:space="preserve">
<style type="text/css">
	.st0{fill:#F6F3FA;}
	.st1{fill:none;stroke:#F6F3FA;stroke-width:10;stroke-linecap:round;stroke-linejoin:round;stroke-miterlimit:10;}
	.st2{fill:#59029F;}
</style>
<path class="st0" d="M50,0.5c-8.8,0-17.4,1.2-25.5,3.5C16.3,6.3,8.3,9.6,0.9,13.7c-0.2,0.1-0.4,0.2-0.4,0.6v71.3
	c0,0.4,0.2,0.5,0.3,0.6c7.5,4.2,15.4,7.4,23.6,9.7c8.2,2.3,16.8,3.5,25.5,3.5c8.8,0,17.4-1.2,25.6-3.5s16.1-5.6,23.5-9.7
	c0.2-0.1,0.4-0.2,0.4-0.6l-0.1-71.5c-0.1-0.4-0.2-0.4-0.3-0.5c-7.3-4-15.3-7.3-23.4-9.6C67.4,1.7,58.8,0.5,50,0.5z"/>
<g>
	<g>
		<path class="st1" d="M-182.8,26.6"/>
	</g>
</g>
<g>
	<rect x="60.3" y="55" class="st2" width="5.1" height="5.3"/>
	<rect x="60.3" y="47.7" class="st2" width="5.1" height="5.3"/>
	<rect x="60.3" y="40.4" class="st2" width="5.1" height="5.3"/>
	<path class="st2" d="M80.7,53.5c-2,0-3.6-1.6-3.6-3.6c0-0.9,0.3-1.8,0.9-2.5c0.7-0.7,1.6-1.1,2.6-1.1c1.4,0,2.5-1.1,2.5-2.5V33.2
		c0-1.4-1.1-2.5-2.5-2.5H20.1c-1.4,0-2.5,1.1-2.5,2.5v10.5c0,1.4,1.1,2.5,2.5,2.5c2,0,3.6,1.6,3.6,3.6c0,2-1.6,3.6-3.6,3.6
		c-1.4,0-2.5,1.1-2.5,2.5v10.5c0,1.4,1.1,2.5,2.5,2.5h60.6c1.4,0,2.5-1.1,2.5-2.5V56C83.2,54.6,82.1,53.5,80.7,53.5z M60.3,62.4V64
		H22.6v-5.8c3.6-1.1,6.1-4.5,6.1-8.3c0-3.8-2.5-7.2-6.1-8.3v-5.8h37.7v2.5h5.1v-2.5h12.7v5.8c-3.6,1.1-6.1,4.5-6.1,8.3
		c0,3.8,2.5,7.2,6.1,8.3V64H65.4v-1.6H60.3z"/>
</g>
</svg>
