<?xml version="1.0" encoding="utf-8"?>
<!-- Generator: Adobe Illustrator 22.1.0, SVG Export Plug-In . SVG Version: 6.00 Build 0)  -->
<svg version="1.1" id="Layer_1" xmlns="http://www.w3.org/2000/svg" xmlns:xlink="http://www.w3.org/1999/xlink" x="0px" y="0px"
	 viewBox="0 0 280.3 100" style="enable-background:new 0 0 280.3 100;" xml:space="preserve">
<style type="text/css">
	.st0{fill:#340458;}
</style>
<path class="st0" d="M172.5,18.1c-0.4,0.5-0.3,2.3,0.6,3.2c0.7,0.7,0.8,0.8,0.9,1.3c0,1,0.7,1.1,1.7,1c1.2,0,2.2-0.9,2.3-2.6
	c0.1-1.7-1.5-3.2-2.9-3.5C173.8,17.3,173.1,17.4,172.5,18.1z M196.4,42.3c0,0,0,2.4,0.2,4.4c0.2,1.8,0.8,5.6,1.4,6.9
	c1,1.9,3.1,1.9,4.7,1c2.1-1.2,1.1-3.5,0.3-4.3c-0.7-0.7-2.4-1.5-2.9-4.4c-0.3-1.7-0.1-9.4,0.4-12c0.3-1.7,1.4-5.4,2.3-7.2
	c0.8-1.7,6-11.2,6-14.5c0-1.4-1.4-2.6-3.8-2.3c-2.4,0.2-2.9,2.1-3,3.4c0,1.2-2.5,9.9-2.6,10.3c-0.2,0.6-0.6,4.1-1.8,4.2
	c-2.9,0-5.2,0.8-7.5,2.5c-1.2,0.9-5.2,4-7.5,7.2c-1,1.5-5.8,7.6-5.3,14.9c0.5,6.6,5.1,5.5,6.5,5.3c6.1-1,10.3-10.9,10.9-12.2
	C195.9,43.3,195.5,43.9,196.4,42.3z M192.8,33.3c0,0,2.1-1.8,2.9-1.7c0.4,0-0.3,1.1,1.1,1.8c0.8,0.4-0.8,5.4-3.9,10.2
	c-7.1,11-10.5,10.5-10.8,7.2C181.4,43.8,190.7,34.7,192.8,33.3z M231.2,14c1.3,2.4,3.4,1.6,3.8,1c0.4-0.6,0.7-0.8,1.7-1.2
	c1.9-0.8-1.4-4.2-4.5-3.2c-0.7,0.2-0.7,1-0.7,1C231.6,12.3,230.8,13.2,231.2,14z M225,52.7c3.4,3.2,6.8,1.2,8.5-0.2
	c5.4-4.3,16.4-23.9,16.4-23.9c0.1,0.7-4.6,23.2,1.6,25.7c4,1.6,13.3-6.3,14.4-7.1c6.1-4.2,2.4-5.8,1.2-5.8c-3.2,0-2.6,2.3-3.5,3.3
	c-1.4,1.7-7.2,7.6-10,6c-1.5-0.8-1.1-5.8-1-7c0.9-11.9,1.1-14.1,1.8-16.8c0.4-1.5,2.2-1.5,3.4-1.7c15.3-2.8,18.1-1.7,20-2.6
	c1.5-0.7,1.8-4-0.4-4.6c-1-0.3-2.2,0.4-4.5,1.3c-2.2,0.8-13.6,3.3-15.2,3.6c-1.5,0.2-1.9,0-2.2-0.5c-0.4-0.5,0.3-6.1,2.5-10.7
	c1-2,1-5.1-2.1-5.3c-1.3-0.1-2.4,0.3-2.9,1.4c-0.5,1.1-1.4,11-1.6,11.7c-0.2,0.7-1.4,1.2-1.7,2.3c-0.3,1.1-0.1,1.8-0.8,2.1
	c-0.8,0.3-2.9,0.5-3.7,0.7c-0.9,0.2-1.5,2-1.5,3c0,1,1.6,0.4,2.4,0.3c0.9-0.1,3.1-1.2,1.5,0.7c-0.6,0.7-11.2,17.4-15.4,20.8
	c-4.8,3.9-4.4-3.8-4.3-5.1c0.7-7.9,4.2-13.2,4.7-14.4c0.5-1.3,0.7-5-3.4-4.2c-1.3,0.3-2,1.5-2,1.9c0,0.1,0,0.1,0,0.1
	C226.8,31,219.7,47.6,225,52.7z M104.4,36.8c-1,0.2-3.1,0.6-4.4,0.9c-2,0.3-3,1.6-3,2.8c0.1,1.3,0.5,1.9,2.3,1.5
	c1.6-0.3,2.9-1.7,4.3-1.7c0,0-2.9,12.1-3.1,13.7c-0.2,1.6-1,6.1,0.7,8.6c3.9,5.6,11.7-0.8,12.4-1.5c0.5-0.5,5.4-4.8,7.1-8.3
	c0.8-1.8-0.6-2.1-1.6-2.5c-1-0.4-3,0.3-3.3,1.5c-0.6,2.8-7.4,10.3-10.8,8.8c-4-1.8,3.2-21.7,3.2-21.7c0.9-0.4,5.2-1.5,9.3-2.5
	c4.7-1.2,19.2-4.1,15.9-8.4c-1.6-2.1-5.7,1.1-7.1,1.8c-5,2.4-17.2,5.9-17.2,5.9s1.6-7.2,2.1-8.6c0.6-1.6,2.8-2.7,3.1-5.5
	c0.4-3.3-3.7-4.9-5.6-1.2c-0.4,0.8-0.9,2.8-1,2.9c-0.5,0.5-5,2.3-9.3,4.4c-1.4,0.7-9.2,3.5-9.2,3.5c0-0.1,2.4-7.6,5.1-13.8
	c1.8-4.2,4.4-10,8.9-11.1c4.3-1.1,2.3,3.3,4.2,4.5c2.4,1.5,3.9-0.4,4.3-2.1c0.3-1.4,0.2-8.6-7.2-7.9c-7,0.7-12.6,11.4-19.5,31.4
	c-0.1,0.1-5.6,3.6-10.1,4.5c-2.3,0.4-3.2,0.6-3.5,1.4c-0.8,2.1,0.6,3.6,0.8,3.8c1.3,1.5,11.4-5.2,11.4-5.1c-0.2,0.3-8.5,32-8.6,32.3
	c-0.5,2.6-3.2,9.6-3,12.8c0.1,1.6,0.7,5,3.1,4.9c4.9,0.3,4-6.6,3.6-7.8c-0.7-2.6,2.8-19.9,6-32.6c0.6-2.6,2-6.8,2.2-7.9
	c0.4-1.7,1.4-2.9,2.6-3.4c0,0,17.6-8.3,17.8-8.3C107.2,26.8,104.4,36.8,104.4,36.8z M69.2,22.1c-0.3-0.6-1.9-2.6-4.1-1.1
	c-3.2,2.3,0.5,5.4,1.1,6.9c0.6,1.5,3.8,2.8,3.3-0.2C69.4,27.3,70.1,23.9,69.2,22.1z M63.2,36.7c-2.2,0-2,1.6-2.5,3
	c-0.4,1.4-4.3,13.9-4.7,16.1c-0.5,2.2-0.8,4.3-0.1,7.3c0.7,3.1,4.3,2.2,4.7,1.7c1.8-2.5,0.2-3.2,0.1-4.9c0-1.8,0.4-3.7,0.8-6.1
	c0.1-0.9,0.4-4.8,0.5-5.4c0.1-0.6,1.4-5,3.2-7.6C66,39.7,66.7,36.7,63.2,36.7z M42.7,80.5c-0.2,0.4-0.5,0.9-0.8,1.3
	c-2.7,4.4-6.2,8.4-10.5,11.3c-5.9,3.9-11.4,5.4-17.6,5.3c-3.6,0-7.1-0.6-10-2.5c-2.4-1.5-2.8-4-2-5.5c1-2.2,4.2-2,5.6-0.7
	c3.4,3.2,5.4,4.4,9.8,4.2c3.4-0.2,7.2-1.3,10.2-3c18-10.5,17.8-29.4,18.6-40.8c0.1-0.7-0.3-0.2-0.4,0.2c-0.6,1.9-1.7,4.3-3.2,7
	c-1.3,2.3-3.7,5.7-7.6,8.3c-2.3,1.5-6,2.2-8.6,0.5c-0.9-0.6-6.5-3.9-1.8-13.5c2.9-6.1,9.1-10.3,10.5-11.2c3.4-2.2,5.9-3.2,8.4-3
	c1.3,0.1,1.5,0.6,2.5,0.6c0.6-0.6,0.9-1.1,1.8-1.4c1.2-0.2,2.7,0.8,3.2,2.8c0.6,1.9-0.9,5-1.3,6.5C49.3,46.8,50.6,66.2,42.7,80.5z
	 M40.8,41.5c-3.6,0.4-10.3,9.2-11.6,12.3c-1.4,3.2-1.9,6.3-0.2,7.5c3.4,2.7,7-1.8,8-2.9c0.6-0.6,5.2-5.6,6.3-10.6
	C44,44.6,44.3,41.1,40.8,41.5z M171.5,36.4c-1.5,2.4-2.3,5.4-2.7,8.1c-0.2,1.4-0.4,7.6-0.4,8.4c0,0.1,0.2,2.9,0.5,4
	c0.2,0.7,1.3,3.1-2.3,3.6c-2.2,0.3-2.1-5.1-2.2-6c-0.1-1.9,0.2-8.5,0.4-9.5c0.2-1-0.2,0.1-0.6,0.7c-0.9,1.5-2,3.6-3.3,5.6
	c-1.7,2.7-5.4,9.1-10.5,8.7c-1.9-0.1-3.8-0.4-4.9-5.7c-0.4-2-0.3-4.7-0.2-6.3c-0.1-0.3,0-0.7-0.3-0.6c-1.8,4.2-7.7,16.6-14.3,13.8
	c-3.1-1.3-4.6-5.2-1.2-13c3.3-7.5,11.6-16.9,14.9-17.5c3-0.6,3.3,0.9,3.3,0.9c0.3-0.5,2.1-0.5,2.5,0.3c0.5,1.1,0.9,1.2,0.5,4
	c-0.2,1.6-1.7,11.6-1.4,15.1c0.1,1.6,0.4,5.6,2,5.8c2.9,0.3,6.3-5.7,6.7-6.4c0.8-1.2,6.9-11.6,7.7-13.1c0.8-1.6,1.3-2.8,1.9-3.9
	c0.5-1,2.1-1.2,3.5-0.2C172.7,34.3,172,35.6,171.5,36.4z M142.3,47.5c7.7-12.1,3.8-13.9,3.4-13.7C138.3,38,132.6,50.7,133,55
	C133.7,60.8,138.2,53.9,142.3,47.5z"/>
</svg>
