<?xml version="1.0" encoding="utf-8"?>
<!-- Generator: Adobe Illustrator 22.1.0, SVG Export Plug-In . SVG Version: 6.00 Build 0)  -->
<svg version="1.1" id="Layer_1" xmlns="http://www.w3.org/2000/svg" xmlns:xlink="http://www.w3.org/1999/xlink" x="0px" y="0px"
	 viewBox="0 0 100 100" style="enable-background:new 0 0 100 100;" xml:space="preserve">
<style type="text/css">
	.st0{fill:#F6F3FA;}
	.st1{fill:#59029F;}
</style>
<path class="st0" d="M50,0.5c-8.8,0-17.4,1.2-25.5,3.5C16.3,6.3,8.3,9.6,0.9,13.7c-0.2,0.1-0.4,0.2-0.4,0.6v71.3
	c0,0.4,0.2,0.5,0.3,0.6c7.5,4.2,15.4,7.4,23.6,9.7c8.2,2.3,16.8,3.5,25.5,3.5c8.8,0,17.4-1.2,25.6-3.5s16.1-5.6,23.5-9.7
	c0.2-0.1,0.4-0.2,0.4-0.6l-0.1-71.5c-0.1-0.4-0.2-0.4-0.3-0.5c-7.3-4-15.3-7.3-23.4-9.6C67.4,1.7,58.8,0.5,50,0.5z"/>
<g>
	<path class="st1" d="M50,20.9c-11.8,0-21.4,9.6-21.4,21.4c0,2.3,0.5,5,1.5,7.7c0.4,1,0.7,1.6,0.9,2.1l13.6,25.4
		c0.4,0.5,0.7,0.8,0.9,0.9c0.6,0.3,1.2,0.7,2.2,0.8c0.1,0,0.1,0,0.2,0c0.1,0,0.2,0.1,0.3,0.1c0.4,0.1,0.9,0.2,1.4,0.2h0.8
		c0.7,0,1.5-0.1,2.3-0.3c0.5-0.2,0.9-0.3,1.4-0.5l0.7-0.3c0.5-0.4,0.8-0.7,0.9-0.9l13.6-25.4l1-2c1-2.4,1.5-5,1.5-7.7
		C71.4,30.5,61.7,20.9,50,20.9z M65.7,42.2c0,1.9-0.3,3.7-1,5.7l-0.2,0.3c-0.2,0.5-0.4,0.9-0.5,1.3L51.3,73.9L51,74.1h-1.8L48.8,74
		l-13-24.4c-0.1-0.1-0.1-0.3-0.2-0.4c-0.1-0.3-0.3-0.5-0.4-0.9L35,48c-0.7-1.7-1-3.7-1-5.7c0.1-8.7,7.3-15.9,16-15.9
		C58.6,26.5,65.7,33.5,65.7,42.2z"/>
	<path class="st1" d="M50,31.3c-6,0-11,4.9-11,11s4.9,11.1,11,11.1s11-4.9,11-11C60.9,36.2,56,31.3,50,31.3z M50,47.9
		c-3.1,0-5.8-2.6-5.8-5.7c0-3.2,2.6-5.8,5.8-5.8c3.2,0.1,5.7,2.6,5.7,5.7C55.7,45.2,53.1,47.9,50,47.9z"/>
</g>
</svg>
