<?xml version="1.0" encoding="utf-8"?>
<!-- Generator: Adobe Illustrator 22.1.0, SVG Export Plug-In . SVG Version: 6.00 Build 0)  -->
<svg version="1.1" id="Layer_1" xmlns="http://www.w3.org/2000/svg" xmlns:xlink="http://www.w3.org/1999/xlink" x="0px" y="0px"
	 viewBox="0 0 100 100" style="enable-background:new 0 0 100 100;" xml:space="preserve">
<style type="text/css">
	.st0{fill:none;stroke:#F6F3FA;stroke-width:10;stroke-linecap:round;stroke-linejoin:round;stroke-miterlimit:10;}
	.st1{fill:#59029F;}
	.st2{fill:#F6F3FA;}
</style>
<g>
	<g>
		<path class="st0" d="M-151.4,34"/>
	</g>
</g>
<path class="st1" d="M50,0.5c-8.8,0-17.4,1.2-25.5,3.5C16.3,6.3,8.3,9.6,0.9,13.7c-0.2,0.1-0.4,0.2-0.4,0.6v71.3
	c0,0.4,0.2,0.5,0.3,0.6c7.5,4.2,15.4,7.4,23.6,9.7c8.2,2.3,16.8,3.5,25.5,3.5c8.8,0,17.4-1.2,25.6-3.5s16.1-5.6,23.5-9.7
	c0.2-0.1,0.4-0.2,0.4-0.6l-0.1-71.5c-0.1-0.4-0.2-0.4-0.3-0.5c-7.3-4-15.3-7.3-23.4-9.6C67.4,1.7,58.8,0.5,50,0.5z"/>
<path class="st2" d="M74.2,29.4h-49l-2.1,2.1v36.8l2.1,2.1h49l2.1-2.1V31.6L74.2,29.4z M71.5,38.9V62L58.4,50.7L71.5,38.9z M53,47
	c-2,1.8-4.8,1.8-6.9,0L31.4,34.2h36L53,47L53,47z M46,54.2c2,0.7,4.3,0.8,6.6,0.1l13.2,11.3h-33L46,54.2z M40.5,50.7L27.9,61.4V39.6
	L40.5,50.7z"/>
</svg>
