<?xml version="1.0" encoding="utf-8"?>
<!-- Generator: Adobe Illustrator 22.1.0, SVG Export Plug-In . SVG Version: 6.00 Build 0)  -->
<svg version="1.1" id="Layer_1" xmlns="http://www.w3.org/2000/svg" xmlns:xlink="http://www.w3.org/1999/xlink" x="0px" y="0px"
	 viewBox="0 0 100 100" style="enable-background:new 0 0 100 100;" xml:space="preserve">
<style type="text/css">
	.st0{fill:#59029F;}
</style>
<path class="st0" d="M50,5.5c8.3,0,16.4,1.1,24.2,3.3c6.8,1.9,13.7,4.7,20.1,8L94.4,83c-6.5,3.4-13.3,6.1-20.2,8.1
	c-7.8,2.2-16,3.3-24.2,3.3c-8.2,0-16.3-1.1-24.1-3.3c-7.1-2-13.9-4.7-20.3-8V16.9c6.5-3.4,13.3-6.1,20.4-8.1
	C33.6,6.6,41.7,5.5,50,5.5 M50,0.5c-8.8,0-17.4,1.2-25.5,3.5C16.3,6.3,8.3,9.6,0.9,13.7c-0.2,0.1-0.4,0.2-0.4,0.6v71.3
	c0,0.4,0.2,0.5,0.3,0.6c7.5,4.2,15.4,7.4,23.6,9.7c8.2,2.3,16.8,3.5,25.5,3.5c8.8,0,17.4-1.2,25.6-3.5c8.2-2.3,16.1-5.6,23.5-9.7
	c0.2-0.1,0.4-0.2,0.4-0.6l-0.1-71.5c-0.1-0.4-0.2-0.4-0.3-0.5c-7.3-4-15.3-7.3-23.4-9.6C67.4,1.7,58.8,0.5,50,0.5L50,0.5z"/>
<path class="st0" d="M77.3,54H22.5c-0.6,0-1.1-0.5-1.1-1.1v-5.9c0-0.6,0.5-1.1,1.1-1.1h54.8c0.6,0,1.1,0.5,1.1,1.1v5.9
	C78.4,53.6,77.9,54,77.3,54z"/>
</svg>
