<?xml version="1.0" encoding="utf-8"?>
<!-- Generator: Adobe Illustrator 22.1.0, SVG Export Plug-In . SVG Version: 6.00 Build 0)  -->
<svg version="1.1" id="Layer_1" xmlns="http://www.w3.org/2000/svg" xmlns:xlink="http://www.w3.org/1999/xlink" x="0px" y="0px"
	 viewBox="0 0 385.2 100" style="enable-background:new 0 0 385.2 100;" xml:space="preserve">
<style type="text/css">
	.st0{fill:#003087;}
	.st1{fill:#009CDE;}
	.st2{fill:#012169;}
</style>
<path class="st0" d="M147.4,27h-21c-1.3,0-2.7,1.1-3,2.4l-8.3,53.8c-0.3,1.1,0.5,1.9,1.6,1.9h9.9c1.3,0,2.7-1.1,3-2.4l2.2-14.5
	c0.3-1.3,1.3-2.4,3-2.4h6.7c13.7,0,21.8-6.7,23.9-19.9c0.8-5.6,0-10.2-2.7-13.4C159.8,28.9,154.4,27,147.4,27z M149.9,46.6
	c-1.1,7.5-7,7.5-12.4,7.5h-3.2l2.2-14c0-0.8,0.8-1.3,1.6-1.3h1.3c3.8,0,7.3,0,9.1,2.2C149.9,42.1,150.4,43.9,149.9,46.6z"/>
<path class="st0" d="M209.8,46.4h-9.9c-0.8,0-1.6,0.5-1.6,1.3l-0.5,2.7l-0.8-1.1c-2.2-3.2-7-4.3-11.8-4.3c-11,0-20.4,8.3-22.3,20.2
	c-1.1,5.9,0.3,11.6,3.8,15.3c3,3.5,7.5,5.1,12.6,5.1c8.9,0,14-5.6,14-5.6l-0.5,2.7c-0.3,1.1,0.5,2.2,1.6,2.2h9.1
	c1.3,0,2.7-1.1,3-2.4l5.4-34.4C211.9,47.4,210.9,46.4,209.8,46.4z M196.1,65.7c-1.1,5.6-5.4,9.7-11.3,9.7c-3,0-5.1-0.8-6.7-2.7
	s-2.2-4.3-1.6-7c0.8-5.6,5.6-9.7,11.3-9.7c3,0,5.1,1.1,6.7,2.7C195.8,60.6,196.4,63,196.1,65.7z"/>
<path class="st0" d="M263.3,46.4h-9.9c-1.1,0-1.9,0.5-2.4,1.3l-14,20.4L231,48.5c-0.3-1.3-1.6-2.2-2.7-2.2h-9.9
	c-1.1,0-2.2,1.1-1.6,2.4l11,32.5l-10.5,14.5c-0.8,1.1,0,2.7,1.3,2.7h9.9c1.1,0,1.9-0.5,2.4-1.3l33.6-48.4
	C265.4,48,264.6,46.4,263.3,46.4z"/>
<path class="st1" d="M296.6,27h-21c-1.3,0-2.7,1.1-3,2.4l-8.3,53.5c-0.3,1.1,0.5,1.9,1.6,1.9h10.8c1.1,0,1.9-0.8,1.9-1.6l2.4-15.3
	c0.3-1.3,1.3-2.4,3-2.4h6.7c13.7,0,21.8-6.7,23.9-19.9c0.8-5.6,0-10.2-2.7-13.4C308.7,28.9,303.6,27,296.6,27z M299,46.6
	c-1.1,7.5-7,7.5-12.4,7.5h-3.2l2.2-14c0-0.8,0.8-1.3,1.6-1.3h1.3c3.8,0,7.3,0,9.1,2.2C299,42.1,299.3,43.9,299,46.6z"/>
<path class="st1" d="M359,46.4H349c-0.8,0-1.6,0.5-1.6,1.3l-0.5,2.7l-0.8-1.1c-2.2-3.2-7-4.3-11.8-4.3c-11,0-20.4,8.3-22.3,20.2
	c-1.1,5.9,0.3,11.6,3.8,15.3c3,3.5,7.5,5.1,12.6,5.1c8.9,0,14-5.6,14-5.6l-0.5,2.7c-0.3,1.1,0.5,2.2,1.6,2.2h9.1
	c1.3,0,2.7-1.1,3-2.4l5.4-34.4C360.9,47.4,360,46.4,359,46.4z M345,65.7c-1.1,5.6-5.4,9.7-11.3,9.7c-3,0-5.1-0.8-6.7-2.7
	s-2.2-4.3-1.6-7c0.8-5.6,5.6-9.7,11.3-9.7c3,0,5.1,1.1,6.7,2.7C345,60.6,345.5,63,345,65.7z"/>
<path class="st1" d="M370.8,28.3l-8.6,54.6c-0.3,1.1,0.5,1.9,1.6,1.9h8.6c1.3,0,2.7-1.1,3-2.4l8.6-53.5c0.3-1.1-0.5-1.9-1.6-1.9
	h-9.7C371.6,27,371.1,27.5,370.8,28.3z"/>
<path class="st1" d="M71.5,26.1c1-7.6,0-12.6-4-17.3c-4.4-5-12.1-7.6-21.9-7.6H16.9c-1.7,0-3.7,1.8-4,3.6L1.1,84.8
	c0,1.4,1,3.2,2.7,3.2h17.5l-1,7.9c-0.3,1.4,0.7,2.5,2,2.5h14.8c1.7,0,3.4-1.1,3.7-2.9v-1.1l3-18.7V75c0.3-1.8,2-3.2,3.7-3.2h2
	c14.5,0,25.6-6.1,29-24.1c1.7-7.6,1-13.7-3-18C74.5,28.2,72.8,27.2,71.5,26.1L71.5,26.1"/>
<path class="st2" d="M71.5,26.1c1-7.6,0-12.6-4-17.3c-4.4-5-12.1-7.6-21.9-7.6H16.9c-1.7,0-3.7,1.8-4,3.6L1.1,84.8
	c0,1.4,1,3.2,2.7,3.2h17.5L26,58.1l-0.3,1.1c0.3-2.2,2-3.6,4-3.6h8.4c16.5,0,29.3-7.2,33.4-27.4C71.2,27.2,71.5,26.8,71.5,26.1"/>
<path class="st0" d="M30.9,25.9c0.3-1.1,1-2.1,2-2.9c0.7,0,1-0.4,1.7-0.4h22.1c2.7,0,5.3,0.4,7.4,0.7c0.7,0,1.3,0,2,0.4
	c0.7,0.4,1.3,0.4,1.7,0.7c0.3,0,0.7,0,1,0c1,0.4,2,1.1,3,1.4c1-7.5,0-12.5-4-17.5c-4-5-11.7-7.1-21.4-7.1H17.5c-1.7,0-3.7,1.4-4,3.6
	L1.8,84.1c0,1.4,1,3.2,2.7,3.2h17.4l4.7-29.6L30.9,25.9z"/>
</svg>
