<?xml version="1.0" encoding="utf-8"?>
<!-- Generator: Adobe Illustrator 22.1.0, SVG Export Plug-In . SVG Version: 6.00 Build 0)  -->
<svg version="1.1" id="Layer_1" xmlns="http://www.w3.org/2000/svg" xmlns:xlink="http://www.w3.org/1999/xlink" x="0px" y="0px"
	 viewBox="0 0 100 100" style="enable-background:new 0 0 100 100;" xml:space="preserve">
<style type="text/css">
	.st0{fill:#59029F;}
	.st1{fill:#fff;}
</style>
<path class="st0" d="M50,0.5c-8.8,0-17.4,1.2-25.5,3.5C16.3,6.3,8.3,9.6,0.9,13.7c-0.2,0.1-0.4,0.2-0.4,0.6v71.3
	c0,0.4,0.2,0.5,0.3,0.6c7.5,4.2,15.4,7.4,23.6,9.7c8.2,2.3,16.8,3.5,25.5,3.5c8.8,0,17.4-1.2,25.6-3.5s16.1-5.6,23.5-9.7
	c0.2-0.1,0.4-0.2,0.4-0.6l-0.1-71.5c-0.1-0.4-0.2-0.4-0.3-0.5c-7.3-4-15.3-7.3-23.4-9.6C67.4,1.7,58.8,0.5,50,0.5z"/>
<path class="st1" d="M68.5,54.4c-2.1-0.3-4-0.8-5.8-1.4c-2.6-1-5.5-0.3-7.5,1.6L53.8,56c-4.1-2.7-7.5-6-10-10l1.5-1.5
	c1.9-1.9,2.6-4.9,1.6-7.5c-0.7-1.7-1.1-3.6-1.4-5.8c-0.5-3.4-3.5-6-7-6h-7.4c-1.8,0.2-3.5,1.1-4.8,2.5c-1.2,1.4-1.8,3.3-1.6,5.2
	c0.8,7.5,3.4,14.7,7.3,20.7c3.7,5.7,8.6,10.6,14.3,14.3c6,4,13.2,6.5,20.7,7.3h0.6c1.9,0,3.7-0.7,5-2.1c1.3-1.4,2-3.2,2-5.1v-6.7
	C74.7,57.9,72.1,54.8,68.5,54.4z M41.8,41l-4.3,4.2l0.1,0.1c3.7,7.2,9.7,13.2,16.9,16.9l0.2,0.1l4.1-4.4c0.6-0.5,1.4-0.7,2.1-0.4
	c2.4,0.9,4.7,1.5,6.9,1.7c1,0.2,1.7,1.1,1.7,2.1v6.9c0,1.1-0.9,2.1-2,2.1h-0.2c-6.5-0.6-12.9-2.9-18.4-6.5
	c-5.2-3.3-9.6-7.7-12.8-12.7c-3.6-5.7-5.8-12.1-6.5-18.5c0-0.6,0.1-1.1,0.4-1.5s0.8-0.7,1.3-0.7h7c1,0,1.9,0.8,2,1.7
	c0.4,2.6,1,4.9,1.8,6.9C42.5,39.6,42.3,40.4,41.8,41z"/>
</svg>
