<?xml version="1.0" encoding="utf-8"?>
<!-- Generator: Adobe Illustrator 23.0.1, SVG Export Plug-In . SVG Version: 6.00 Build 0)  -->
<svg version="1.1" id="Layer_1" xmlns="http://www.w3.org/2000/svg" xmlns:xlink="http://www.w3.org/1999/xlink" x="0px" y="0px"
	 viewBox="0 0 45 45" style="enable-background:new 0 0 45 45;" xml:space="preserve">
<style type="text/css">
	.st0{fill:#14cac9;}
	.st1{fill:#340458;}
</style>
<polygon class="st0" points="43.8,0 0,43.8 0,0 "/>
<path class="st1" d="M19,10.6l-0.1-0.4c0-0.1-0.1-0.1-0.1-0.1L14,9.4l-2.1-4.3C11.9,5,11.8,5,11.8,5h-0.4c-0.1,0-0.1,0-0.2,0.1
	L9.1,9.4L4.4,10c-0.1,0-0.1,0.1-0.1,0.1l-0.1,0.4c0,0.1,0,0.1,0,0.2L7.6,14l-0.8,4.7c0,0.1,0,0.1,0.1,0.2l0.4,0.3c0,0,0.1,0,0.1,0
	c0,0,0.1,0,0.1,0l4.2-2.3l4.2,2.3c0,0,0.1,0,0.1,0c0,0,0.1,0,0.1,0l0.4-0.3c0.1,0,0.1-0.1,0.1-0.2L15.5,14l3.5-3.3
	C19,10.7,19,10.6,19,10.6z M14.5,13l-0.6,0.6l0.2,0.8l0.4,2.5l-2.2-1.2l-0.7-0.4l-0.7,0.3c0,0,0,0-2.3,1.2L9,14.3v-0.1v-0.1
	c0.1-0.7-0.2-1-1-1.7c-0.3-0.3-0.8-0.7-1.2-1.2c0,0-0.1-0.1-0.1-0.1c2.6-0.3,2.6-0.3,2.6-0.3l0.7-0.2l0.3-0.7l1.1-2.3l1.1,2.3
	l0.4,0.7l0.8,0.1l2.5,0.4C15.5,12,14.6,12.8,14.5,13z"/>
</svg>
