<?xml version="1.0" encoding="utf-8"?>
<!-- Generator: Adobe Illustrator 22.1.0, SVG Export Plug-In . SVG Version: 6.00 Build 0)  -->
<svg version="1.1" id="Layer_1" xmlns="http://www.w3.org/2000/svg" xmlns:xlink="http://www.w3.org/1999/xlink" x="0px" y="0px"
	 viewBox="0 0 289 326" style="enable-background:new 0 0 289 326;" xml:space="preserve">
<style type="text/css">
	.st0{fill:#F6F3FA;stroke:#5C2483;stroke-width:6;stroke-linecap:round;stroke-linejoin:round;}
	.st1{fill:none;stroke:#5C2483;stroke-width:6;stroke-linecap:round;stroke-linejoin:round;}
	.st2{fill:#FFD631;stroke:#5C2483;stroke-width:6;stroke-linecap:round;stroke-linejoin:round;}
	.st3{fill:none;stroke:#5C2483;stroke-width:6;stroke-linejoin:round;}
</style>
<g>
	<path class="st0" d="M6.9,321c0-13.5,7.2-23.2,18-29.6l-0.1-0.2c-2.6-5-4-10.6-4-16.6c0-20.2,16.4-36.5,36.5-36.5
		c2.5,0,5,0.3,7.4,0.7c0-0.2,0-0.4,0-0.6c0-18.5,25.3-33.3,43.8-33.3v-35l6.7-4.4l22.3,28.3l21.8-28l7.3,4.2v35
		c15.4,0,32,13.3,35.9,27.5c5.8-3.2,12.5-5.1,19.6-5.1c22.4,0,40.6,18.2,40.6,40.6c0,5.4-1.1,10.6-3,15.3
		c13.5,6.6,24.8,23.9,22.7,36.5"/>
	<path class="st1" d="M116.5,30.5C111.6,41.8,108,56,108,71.3v58l-29,29l7.3,21.8l29-14.5l21.8,29l21.8-29l29,14.5l7.3-21.8l-29-29
		v-58c0-15.3-3.7-29.5-8.6-40.7"/>
	<path class="st2" d="M157.4,30.5h-40.9l0,0C123,15.6,131.7,6,137,6C142.2,6,150.9,15.6,157.4,30.5"/>
	<path class="st3" d="M181.8,267.5c0-22.1,17.9-40,40-40"/>
	<path class="st3" d="M262.9,267.5c0,14.8-8.1,27.8-20,34.7"/>
	<path class="st3" d="M123,321c0-20,16.2-36.3,36.3-36.3"/>
	<path class="st3" d="M132.9,296.2c-6.6-8.3-19.8-18-31.6-18.7"/>
	<path class="st3" d="M87.9,254.9c-6.4-10.1-17.7-16.8-30.5-16.8"/>
	<line class="st1" x1="50.5" y1="154.2" x2="50.5" y2="205.7"/>
	<line class="st1" x1="202.8" y1="36" x2="202.8" y2="79.5"/>
	<line class="st1" x1="202.8" y1="94" x2="202.8" y2="108.5"/>
	<circle class="st2" cx="137.5" cy="77.6" r="13.6"/>
	<line class="st1" x1="75" y1="64" x2="75" y2="120"/>
</g>
</svg>
