<?xml version="1.0" encoding="utf-8"?>
<!-- Generator: Adobe Illustrator 23.0.1, SVG Export Plug-In . SVG Version: 6.00 Build 0)  -->
<svg version="1.1" id="Layer_1" xmlns="http://www.w3.org/2000/svg" xmlns:xlink="http://www.w3.org/1999/xlink" x="0px" y="0px"
	 viewBox="0 0 100 100" style="enable-background:new 0 0 100 100;" xml:space="preserve">
<style type="text/css">
	.st0{fill:#59029F;}
	.st1{fill:#F6F3FA;}
</style>
<polygon class="st0" points="100,100 0,0 100,0 "/>
<path class="st1" d="M91,22.6l-0.3-0.9c-0.1-0.1-0.1-0.3-0.3-0.3l-11.7-1.6L73.4,9.2C73.3,9.1,73.2,9,73.1,9h-1
	c-0.1,0-0.3,0.1-0.4,0.2l-5.2,10.5l-11.7,1.7c-0.1,0-0.3,0.1-0.3,0.3l-0.3,0.9c-0.1,0.1,0,0.3,0.1,0.4l8.4,8.2l-2.1,11.6
	c0,0.1,0,0.3,0.1,0.4l0.9,0.7c0.1,0.1,0.1,0.1,0.3,0.1c0.1,0,0.1,0,0.2-0.1l10.4-5.6l10.4,5.6c0.1,0,0.1,0.1,0.2,0.1s0.1,0,0.2-0.1
	l0.9-0.7c0.1-0.1,0.2-0.2,0.2-0.4l-2.2-11.6l8.5-8.2C91,22.9,91,22.7,91,22.6z M79.8,28.6l-1.5,1.3l0.4,2l1,6.2l-5.5-3l-1.7-0.9
	L70.8,35c-0.1,0-0.1,0.1-5.6,2.9l1-6.2v-0.2v-0.2c0.1-1.7-0.6-2.4-2.4-4.3c-0.8-0.8-1.9-1.8-2.9-2.8c-0.1-0.1-0.1-0.1-0.3-0.3
	c6.3-0.8,6.3-0.8,6.4-0.8l1.8-0.4l0.8-1.7l2.7-5.6L75,21l0.9,1.8l2,0.3l6.2,0.9C82.2,26.2,80.1,28.2,79.8,28.6z"/>
</svg>
