<?xml version="1.0" encoding="utf-8"?>
<!-- Generator: Adobe Illustrator 22.1.0, SVG Export Plug-In . SVG Version: 6.00 Build 0)  -->
<svg version="1.1" id="Layer_1" xmlns="http://www.w3.org/2000/svg" xmlns:xlink="http://www.w3.org/1999/xlink" x="0px" y="0px"
	 viewBox="0 0 100 100" style="enable-background:new 0 0 100 100;" xml:space="preserve">
<style type="text/css">
	.st1{fill:#59029F;}
	.st0{fill:#F6F3FA;}
</style>
<path class="st0" d="M50,0.5c-8.8,0-17.4,1.2-25.5,3.5C16.3,6.3,8.3,9.6,0.9,13.7c-0.2,0.1-0.4,0.2-0.4,0.6v71.3
	c0,0.4,0.2,0.5,0.3,0.6c7.5,4.2,15.4,7.4,23.6,9.7c8.2,2.3,16.8,3.5,25.5,3.5c8.8,0,17.4-1.2,25.6-3.5s16.1-5.6,23.5-9.7
	c0.2-0.1,0.4-0.2,0.4-0.6l-0.1-71.5c-0.1-0.4-0.2-0.4-0.3-0.5c-7.3-4-15.3-7.3-23.4-9.6C67.4,1.7,58.8,0.5,50,0.5z"/>
<path class="st1" d="M79.7,43.8l-0.5-1.6c-0.1-0.2-0.2-0.4-0.5-0.4l-18.9-2.6l-8.4-17.2c-0.1-0.2-0.3-0.3-0.5-0.3h-1.7
	c-0.2,0-0.4,0.1-0.6,0.3L40.2,39c0,0-19,2.7-19,2.7c-0.2,0-0.4,0.2-0.5,0.4l-0.5,1.6c-0.1,0.2,0,0.4,0.1,0.6
	c0,0,13.7,13.3,13.7,13.3l-3.3,18.8c0,0.2,0,0.4,0.2,0.6l1.4,1c0.1,0.1,0.2,0.1,0.4,0.1c0.1,0,0.2,0,0.3-0.1c0,0,16.9-9,16.9-9
	l16.9,9c0.1,0,0.2,0.1,0.3,0.1c0.1,0,0.2,0,0.3-0.1l1.4-1c0.2-0.1,0.3-0.3,0.3-0.6l-3.3-18.8c0,0,13.8-13.3,13.8-13.3
	C79.7,44.2,79.8,44,79.7,43.8z M61.7,53.4l-2.4,2.2l0.6,3.2l1.7,9.9l-8.9-4.7L50,62.5l-2.7,1.3c-0.1,0-0.1,0.1-9.1,4.8l1.7-9.9
	l0-0.3l0-0.3c0.2-2.8-0.9-3.9-3.9-6.9c-1.3-1.3-3-2.9-4.7-4.6c-0.1-0.1-0.2-0.2-0.4-0.4C41.2,45,41.2,45,41.4,44.9l2.9-0.6l1.3-2.7
	l4.4-9l4.4,9l1.4,2.9L59,45l9.9,1.4C65.6,49.6,62.1,52.9,61.7,53.4z"/>
</svg>
